<?xml version="1.0" encoding="utf-8"?>
<!-- Generator: Adobe Illustrator 18.1.1, SVG Export Plug-In . SVG Version: 6.00 Build 0)  -->
<!DOCTYPE svg PUBLIC "-//W3C//DTD SVG 1.1//EN" "http://www.w3.org/Graphics/SVG/1.1/DTD/svg11.dtd">
<svg version="1.1" id="Layer_1" xmlns="http://www.w3.org/2000/svg" xmlns:xlink="http://www.w3.org/1999/xlink" x="0px" y="0px"
	 viewBox="0 0 90 90" enable-background="new 0 0 90 90" xml:space="preserve">
<path fill="#3C454F" d="M14.1,39.5C16,50,26.1,57.1,36.7,55.2c4.6-0.8,8.5-3.2,11.3-6.5l31.5,21.9l2.2-3.2L50.2,45.5
	c2.1-3.8,3-8.3,2.2-12.9c-1.9-10.5-12-17.6-22.5-15.7C19.3,18.8,12.2,28.9,14.1,39.5 M48.6,33.3c1.5,8.4-4.1,16.5-12.6,18
	c-8.4,1.5-16.5-4.1-18-12.6c-1.5-8.4,4.1-16.5,12.6-18C39,19.3,47,24.9,48.6,33.3"/>
</svg>
