<?xml version="1.0" encoding="utf-8"?>
<!-- Generator: Adobe Illustrator 17.1.0, SVG Export Plug-In . SVG Version: 6.00 Build 0)  -->
<!DOCTYPE svg PUBLIC "-//W3C//DTD SVG 1.1//EN" "http://www.w3.org/Graphics/SVG/1.1/DTD/svg11.dtd">
<svg version="1.1" id="Layer_1" xmlns="http://www.w3.org/2000/svg" xmlns:xlink="http://www.w3.org/1999/xlink" x="0px" y="0px"
	 viewBox="0 0 16 16" enable-background="new 0 0 16 16" xml:space="preserve">
<g>
	<path fill="#48525E" d="M11.5,10.2C10,10.2,8.8,9,8.8,7.5c0-1.5,1.2-2.7,2.7-2.7c1.5,0,2.7,1.2,2.7,2.7C14.2,9,13,10.2,11.5,10.2z
		 M11.5,5.8c-0.9,0-1.7,0.8-1.7,1.7s0.8,1.7,1.7,1.7s1.7-0.8,1.7-1.7S12.5,5.8,11.5,5.8z"/>
	<rect x="13.8" y="6.5" fill="#48525E" width="2.2" height="1"/>
	<path fill="#48525E" d="M4.5,10.2C3,10.2,1.8,9,1.8,7.5C1.8,6,3,4.8,4.5,4.8C6,4.8,7.2,6,7.2,7.5C7.2,9,6,10.2,4.5,10.2z M4.5,5.8
		c-0.9,0-1.7,0.8-1.7,1.7s0.8,1.7,1.7,1.7s1.7-0.8,1.7-1.7S5.4,5.8,4.5,5.8z"/>
	<rect y="6.5" fill="#48525E" width="2.2" height="1"/>
	<path fill="#48525E" d="M7,6.6c0-0.5,0.5-1,1-1s1,0.4,1,1h1c0-1.1-0.9-2-2-2s-2,0.9-2,2H7z"/>
</g>
</svg>
