<?xml version="1.0" encoding="utf-8"?>
<!-- Generator: Adobe Illustrator 18.1.1, SVG Export Plug-In . SVG Version: 6.00 Build 0)  -->
<!DOCTYPE svg PUBLIC "-//W3C//DTD SVG 1.1//EN" "http://www.w3.org/Graphics/SVG/1.1/DTD/svg11.dtd">
<svg version="1.1" id="Layer_1" xmlns="http://www.w3.org/2000/svg" xmlns:xlink="http://www.w3.org/1999/xlink" x="0px" y="0px"
	 viewBox="0 0 21.944 21.505" enable-background="new 0 0 21.944 21.505" xml:space="preserve">
<g>
	<g>
		<g>
			<circle fill="#FBB040" cx="10.972" cy="10.753" r="10.753"/>
		</g>
	</g>
	<g>
		<g>
			<path fill="#FFFFFF" d="M10.739,17.69c-0.508,0-0.927-0.154-1.256-0.462c-0.33-0.308-0.495-0.681-0.495-1.119
				c0-0.457,0.166-0.832,0.5-1.124c0.333-0.292,0.75-0.438,1.252-0.438c0.508,0,0.924,0.148,1.247,0.443
				c0.324,0.295,0.486,0.668,0.486,1.119c0,0.457-0.161,0.835-0.481,1.133C11.671,17.54,11.254,17.69,10.739,17.69z M12.301,3.816
				l-0.371,9.408H9.492L9.14,3.816H12.301z"/>
		</g>
	</g>
</g>
</svg>
