<?xml version="1.0" encoding="utf-8"?>
<!-- Generator: Adobe Illustrator 18.1.1, SVG Export Plug-In . SVG Version: 6.00 Build 0)  -->
<!DOCTYPE svg PUBLIC "-//W3C//DTD SVG 1.1//EN" "http://www.w3.org/Graphics/SVG/1.1/DTD/svg11.dtd">
<svg version="1.1" id="Layer_1" xmlns="http://www.w3.org/2000/svg" xmlns:xlink="http://www.w3.org/1999/xlink" x="0px" y="0px"
	 viewBox="0 0 564.501 403.216" enable-background="new 0 0 564.501 403.216" xml:space="preserve">
<g>
	<rect x="0" y="0" fill="#FFFFFF" width="564.501" height="403.216"/>
	<g>
		
			<line fill="none" stroke="#989898" stroke-width="1.1238" stroke-miterlimit="10" x1="25.415" y1="204.609" x2="514.584" y2="204.609"/>
		<g>
			<path fill="#3C454F" d="M16.186,16.655h-3.234V26.67h-1.313V16.655H8.412v-1.187h7.773V16.655z"/>
			<path fill="#3C454F" d="M19.467,26.858c-1.183,0-2.126-0.374-2.832-1.121c-0.706-0.747-1.059-1.738-1.059-2.973
				c0-1.344,0.367-2.393,1.102-3.148c0.734-0.755,1.727-1.133,2.977-1.133c1.192,0,2.124,0.367,2.793,1.102s1.004,1.753,1.004,3.055
				c0,1.276-0.36,2.298-1.082,3.066C21.648,26.474,20.681,26.858,19.467,26.858z M19.561,19.561c-0.823,0-1.474,0.28-1.953,0.84
				c-0.479,0.56-0.719,1.332-0.719,2.316c0,0.948,0.242,1.695,0.727,2.242s1.133,0.82,1.945,0.82c0.828,0,1.465-0.268,1.91-0.805
				c0.445-0.536,0.668-1.299,0.668-2.289c0-1-0.223-1.771-0.668-2.313C21.025,19.832,20.389,19.561,19.561,19.561z"/>
			<path fill="#3C454F" d="M29.209,26.592c-0.302,0.167-0.7,0.25-1.195,0.25c-1.401,0-2.102-0.781-2.102-2.344v-4.734h-1.375V18.67
				h1.375v-1.953l1.281-0.414v2.367h2.016v1.094h-2.016v4.508c0,0.537,0.091,0.919,0.273,1.148c0.183,0.229,0.484,0.344,0.906,0.344
				c0.323,0,0.602-0.088,0.836-0.266V26.592z"/>
			<path fill="#3C454F" d="M36.647,26.67h-1.281v-1.25h-0.031c-0.558,0.958-1.378,1.438-2.461,1.438
				c-0.797,0-1.421-0.211-1.871-0.633s-0.676-0.981-0.676-1.68c0-1.495,0.88-2.364,2.641-2.609l2.398-0.336
				c0-1.359-0.55-2.039-1.648-2.039c-0.964,0-1.833,0.328-2.609,0.984v-1.313c0.786-0.5,1.692-0.75,2.719-0.75
				c1.88,0,2.82,0.995,2.82,2.984V26.67z M35.365,22.623l-1.93,0.266c-0.594,0.083-1.042,0.23-1.344,0.441
				c-0.302,0.211-0.453,0.585-0.453,1.121c0,0.391,0.14,0.71,0.418,0.957c0.278,0.248,0.649,0.371,1.113,0.371
				c0.636,0,1.16-0.223,1.574-0.668s0.621-1.009,0.621-1.691V22.623z"/>
			<path fill="#3C454F" d="M40.342,26.67h-1.281V14.827h1.281V26.67z"/>
			<path fill="#3C454F" d="M56.162,26.67h-1.453l-1.188-3.141h-4.75l-1.117,3.141h-1.461l4.297-11.203h1.359L56.162,26.67z
				 M53.092,22.35l-1.758-4.773c-0.058-0.156-0.114-0.406-0.172-0.75h-0.031c-0.052,0.318-0.112,0.568-0.18,0.75l-1.742,4.773
				H53.092z"/>
			<path fill="#3C454F" d="M63.092,26.303c-0.614,0.37-1.344,0.555-2.188,0.555c-1.141,0-2.062-0.371-2.762-1.113
				s-1.051-1.704-1.051-2.887c0-1.317,0.378-2.376,1.133-3.176c0.755-0.799,1.763-1.199,3.023-1.199c0.703,0,1.323,0.13,1.859,0.391
				v1.313c-0.594-0.417-1.229-0.625-1.906-0.625c-0.817,0-1.488,0.293-2.012,0.879s-0.785,1.355-0.785,2.309
				c0,0.938,0.246,1.677,0.738,2.219c0.492,0.542,1.152,0.813,1.98,0.813c0.698,0,1.354-0.231,1.969-0.695V26.303z"/>
			<path fill="#3C454F" d="M68.74,26.592c-0.302,0.167-0.7,0.25-1.195,0.25c-1.401,0-2.102-0.781-2.102-2.344v-4.734h-1.375V18.67
				h1.375v-1.953l1.281-0.414v2.367h2.016v1.094h-2.016v4.508c0,0.537,0.091,0.919,0.273,1.148c0.183,0.229,0.484,0.344,0.906,0.344
				c0.323,0,0.602-0.088,0.836-0.266V26.592z"/>
			<path fill="#3C454F" d="M71.107,16.639c-0.229,0-0.425-0.078-0.586-0.234s-0.242-0.354-0.242-0.594
				c0-0.239,0.081-0.438,0.242-0.598c0.161-0.159,0.356-0.238,0.586-0.238c0.234,0,0.434,0.08,0.598,0.238
				c0.164,0.159,0.246,0.358,0.246,0.598c0,0.229-0.082,0.425-0.246,0.586C71.541,16.559,71.342,16.639,71.107,16.639z
				 M71.732,26.67h-1.281v-8h1.281V26.67z"/>
			<path fill="#3C454F" d="M80.615,18.67l-3.188,8H76.17l-3.031-8h1.406l2.031,5.813c0.151,0.427,0.245,0.8,0.281,1.117h0.031
				c0.052-0.401,0.136-0.763,0.25-1.086l2.125-5.844H80.615z"/>
			<path fill="#3C454F" d="M82.647,16.639c-0.229,0-0.425-0.078-0.586-0.234s-0.242-0.354-0.242-0.594
				c0-0.239,0.081-0.438,0.242-0.598c0.161-0.159,0.356-0.238,0.586-0.238c0.234,0,0.434,0.08,0.598,0.238
				c0.164,0.159,0.246,0.358,0.246,0.598c0,0.229-0.082,0.425-0.246,0.586C83.08,16.559,82.881,16.639,82.647,16.639z M83.272,26.67
				H81.99v-8h1.281V26.67z"/>
			<path fill="#3C454F" d="M89.576,26.592c-0.302,0.167-0.7,0.25-1.195,0.25c-1.401,0-2.102-0.781-2.102-2.344v-4.734h-1.375V18.67
				h1.375v-1.953l1.281-0.414v2.367h2.016v1.094h-2.016v4.508c0,0.537,0.091,0.919,0.273,1.148c0.183,0.229,0.484,0.344,0.906,0.344
				c0.323,0,0.602-0.088,0.836-0.266V26.592z"/>
			<path fill="#3C454F" d="M97.654,18.67l-3.68,9.281c-0.656,1.656-1.578,2.484-2.766,2.484c-0.333,0-0.612-0.034-0.836-0.102
				v-1.148c0.276,0.094,0.528,0.141,0.758,0.141c0.646,0,1.13-0.386,1.453-1.156l0.641-1.516L90.1,18.67h1.422l2.164,6.156
				c0.026,0.078,0.081,0.281,0.164,0.609h0.047c0.026-0.125,0.078-0.323,0.156-0.594l2.273-6.172H97.654z"/>
			<path fill="#3C454F" d="M111.615,26.67h-1.563l-1.875-3.141c-0.172-0.292-0.339-0.54-0.5-0.746
				c-0.161-0.206-0.327-0.374-0.496-0.504c-0.169-0.13-0.352-0.225-0.547-0.285c-0.195-0.06-0.415-0.09-0.66-0.09h-1.078v4.766
				h-1.313V15.467h3.344c0.489,0,0.941,0.062,1.355,0.184c0.414,0.123,0.773,0.309,1.078,0.559c0.305,0.25,0.543,0.562,0.715,0.934
				c0.172,0.373,0.258,0.809,0.258,1.309c0,0.391-0.059,0.749-0.176,1.074c-0.117,0.326-0.284,0.616-0.5,0.871
				c-0.216,0.255-0.477,0.473-0.781,0.652s-0.647,0.319-1.027,0.418v0.031c0.188,0.083,0.351,0.179,0.488,0.285
				c0.138,0.107,0.27,0.233,0.395,0.379c0.125,0.146,0.249,0.312,0.371,0.496c0.122,0.185,0.259,0.4,0.41,0.645L111.615,26.67z
				 M104.897,16.655v4.063h1.781c0.328,0,0.632-0.049,0.91-0.148c0.278-0.099,0.52-0.241,0.723-0.426
				c0.203-0.185,0.362-0.411,0.477-0.68c0.114-0.268,0.172-0.569,0.172-0.902c0-0.599-0.194-1.066-0.582-1.402
				s-0.949-0.504-1.684-0.504H104.897z"/>
			<path fill="#3C454F" d="M119.451,26.67h-1.281v-1.266h-0.031c-0.531,0.969-1.354,1.453-2.469,1.453
				c-1.906,0-2.859-1.135-2.859-3.406V18.67h1.273v4.578c0,1.688,0.646,2.531,1.938,2.531c0.625,0,1.14-0.23,1.543-0.691
				s0.605-1.063,0.605-1.809V18.67h1.281V26.67z"/>
			<path fill="#3C454F" d="M128.678,26.67h-1.281v-4.563c0-1.698-0.62-2.547-1.859-2.547c-0.641,0-1.171,0.241-1.59,0.723
				c-0.419,0.482-0.629,1.09-0.629,1.824v4.563h-1.281v-8h1.281v1.328h0.031c0.604-1.01,1.479-1.516,2.625-1.516
				c0.875,0,1.544,0.283,2.008,0.848c0.464,0.565,0.695,1.382,0.695,2.449V26.67z"/>
			<path fill="#3C454F" d="M130.607,26.381v-1.375c0.698,0.516,1.466,0.773,2.305,0.773c1.125,0,1.688-0.375,1.688-1.125
				c0-0.213-0.048-0.395-0.145-0.543s-0.227-0.28-0.391-0.395c-0.164-0.114-0.356-0.217-0.578-0.309
				c-0.222-0.091-0.46-0.186-0.715-0.285c-0.354-0.141-0.665-0.282-0.934-0.426c-0.269-0.143-0.492-0.305-0.672-0.484
				s-0.315-0.384-0.406-0.613c-0.091-0.229-0.137-0.497-0.137-0.805c0-0.375,0.086-0.707,0.258-0.996s0.401-0.531,0.688-0.727
				s0.613-0.342,0.98-0.441c0.367-0.099,0.746-0.148,1.137-0.148c0.692,0,1.313,0.12,1.859,0.359v1.297
				c-0.589-0.385-1.266-0.578-2.031-0.578c-0.239,0-0.456,0.027-0.648,0.082s-0.358,0.132-0.496,0.23
				c-0.138,0.099-0.245,0.218-0.32,0.355c-0.075,0.138-0.113,0.291-0.113,0.457c0,0.208,0.038,0.383,0.113,0.523
				s0.187,0.266,0.332,0.375s0.323,0.208,0.531,0.297c0.208,0.089,0.445,0.185,0.711,0.289c0.354,0.136,0.672,0.275,0.953,0.418
				c0.281,0.144,0.521,0.305,0.719,0.484s0.351,0.387,0.457,0.621s0.16,0.513,0.16,0.836c0,0.396-0.087,0.74-0.262,1.031
				c-0.175,0.292-0.407,0.534-0.699,0.727c-0.292,0.193-0.628,0.336-1.008,0.43s-0.778,0.141-1.195,0.141
				C131.925,26.858,131.212,26.699,130.607,26.381z"/>
		</g>
		<g>
			<g>
				<path fill="#3F3F3F" d="M259.522,338.232c-0.508,0.273-1.141,0.41-1.898,0.41c-0.978,0-1.76-0.32-2.348-0.962
					c-0.588-0.641-0.882-1.482-0.882-2.524c0-1.119,0.33-2.024,0.991-2.715c0.662-0.689,1.501-1.035,2.517-1.035
					c0.651,0,1.191,0.097,1.62,0.288v0.874c-0.492-0.279-1.035-0.42-1.63-0.42c-0.789,0-1.429,0.269-1.919,0.806
					c-0.491,0.537-0.736,1.255-0.736,2.153c0,0.854,0.229,1.532,0.688,2.039c0.458,0.506,1.06,0.759,1.804,0.759
					c0.69,0,1.288-0.156,1.793-0.469V338.232z"/>
				<path fill="#3F3F3F" d="M265.848,338.525h-0.959l-1.149-1.963c-0.105-0.182-0.208-0.338-0.307-0.466
					c-0.1-0.129-0.201-0.233-0.305-0.315c-0.104-0.081-0.216-0.141-0.336-0.178c-0.119-0.038-0.255-0.057-0.404-0.057h-0.662v2.979
					h-0.805v-7.002h2.051c0.301,0,0.578,0.038,0.832,0.115c0.254,0.076,0.475,0.192,0.661,0.349
					c0.188,0.156,0.333,0.351,0.438,0.584c0.105,0.232,0.158,0.505,0.158,0.817c0,0.244-0.036,0.468-0.107,0.672
					c-0.072,0.203-0.175,0.385-0.307,0.544c-0.133,0.16-0.293,0.296-0.479,0.408c-0.188,0.112-0.397,0.199-0.63,0.261v0.02
					c0.114,0.053,0.215,0.111,0.299,0.179c0.085,0.066,0.166,0.146,0.242,0.236c0.077,0.092,0.152,0.194,0.228,0.311
					c0.075,0.115,0.159,0.25,0.252,0.402L265.848,338.525z M261.726,332.266v2.539h1.093c0.201,0,0.388-0.03,0.559-0.093
					c0.171-0.062,0.318-0.15,0.443-0.266c0.125-0.116,0.222-0.258,0.292-0.425c0.07-0.168,0.105-0.355,0.105-0.564
					c0-0.374-0.119-0.666-0.356-0.876c-0.238-0.21-0.583-0.315-1.033-0.315H261.726z"/>
				<path fill="#3F3F3F" d="M267.597,338.525h-0.805v-7.002h0.805V338.525z"/>
				<path fill="#3F3F3F" d="M273.468,332.266h-1.984v6.26h-0.805v-6.26h-1.979v-0.742h4.769V332.266z"/>
				<path fill="#3F3F3F" d="M275.352,338.525h-0.806v-7.002h0.806V338.525z"/>
				<path fill="#3F3F3F" d="M281.836,338.232c-0.508,0.273-1.141,0.41-1.898,0.41c-0.978,0-1.76-0.32-2.348-0.962
					c-0.588-0.641-0.882-1.482-0.882-2.524c0-1.119,0.33-2.024,0.991-2.715c0.662-0.689,1.501-1.035,2.517-1.035
					c0.651,0,1.191,0.097,1.62,0.288v0.874c-0.492-0.279-1.035-0.42-1.63-0.42c-0.789,0-1.429,0.269-1.919,0.806
					c-0.491,0.537-0.736,1.255-0.736,2.153c0,0.854,0.229,1.532,0.688,2.039c0.458,0.506,1.06,0.759,1.804,0.759
					c0.69,0,1.288-0.156,1.793-0.469V338.232z"/>
				<path fill="#3F3F3F" d="M288.555,338.525h-0.891l-0.729-1.963h-2.914l-0.686,1.963h-0.896l2.636-7.002h0.834L288.555,338.525z
					 M286.672,335.825l-1.079-2.983c-0.035-0.098-0.07-0.254-0.104-0.469h-0.02c-0.032,0.199-0.069,0.355-0.11,0.469l-1.068,2.983
					H286.672z"/>
				<path fill="#3F3F3F" d="M293.132,338.525h-3.565v-7.002h0.805v6.26h2.761V338.525z"/>
			</g>
			<g>
				<path fill="#3F3F3F" d="M262.213,377.866c-3.136,0-5.582-1.281-7.339-3.842c-1.757-2.563-2.635-6.265-2.635-11.107
					c0-5.319,0.917-9.344,2.751-12.072c1.833-2.73,4.479-4.095,7.936-4.095c6.621,0,9.932,5.144,9.932,15.433
					c0,5.095-0.935,8.982-2.803,11.663C268.186,376.526,265.572,377.866,262.213,377.866z M262.695,350.634
					c-3.653,0-5.48,4.024-5.48,12.073c0,7.53,1.792,11.296,5.375,11.296c3.527,0,5.291-3.828,5.291-11.484
					C267.881,354.596,266.152,350.634,262.695,350.634z"/>
			</g>
			<rect x="24.917" y="331.526" fill="#7FBB42" width="5" height="46"/>
			<g>
				<path fill="#3F3F3F" d="M56.899,360.648c0,3.009-0.325,5.599-0.976,7.768c-0.651,2.17-1.547,3.955-2.688,5.354
					c-1.142,1.399-2.478,2.433-4.011,3.097c-1.532,0.665-3.181,0.998-4.944,0.998c-0.574,0-1.151-0.035-1.732-0.105
					s-1.134-0.161-1.658-0.273c-0.525-0.111-1.001-0.233-1.428-0.367c-0.428-0.133-0.78-0.262-1.061-0.389v-4.388
					c0.294,0.182,0.658,0.367,1.092,0.557c0.434,0.188,0.906,0.356,1.417,0.504c0.511,0.146,1.043,0.266,1.596,0.356
					c0.553,0.092,1.089,0.137,1.606,0.137c1.189,0,2.271-0.23,3.244-0.693c0.973-0.461,1.802-1.147,2.487-2.057
					c0.687-0.91,1.215-2.04,1.586-3.392c0.37-1.351,0.557-2.915,0.557-4.692h-0.084c-0.252,0.448-0.585,0.871-0.998,1.271
					c-0.413,0.398-0.885,0.749-1.417,1.05s-1.123,0.542-1.774,0.725c-0.65,0.182-1.347,0.272-2.089,0.272
					c-1.26,0-2.433-0.221-3.517-0.661c-1.085-0.441-2.026-1.067-2.824-1.879c-0.798-0.813-1.425-1.799-1.879-2.961
					c-0.455-1.162-0.683-2.457-0.683-3.885c0-1.567,0.259-2.984,0.776-4.251c0.519-1.267,1.232-2.345,2.143-3.233
					c0.909-0.889,1.98-1.575,3.212-2.058c1.231-0.483,2.568-0.725,4.011-0.725c1.357,0,2.642,0.256,3.853,0.767
					c1.21,0.511,2.274,1.322,3.191,2.436c0.916,1.112,1.645,2.551,2.184,4.314C56.629,356.008,56.899,358.143,56.899,360.648z
					 M51.818,357.435c0-1.008-0.13-1.925-0.389-2.75c-0.26-0.826-0.619-1.533-1.082-2.121c-0.461-0.588-1.011-1.043-1.647-1.365
					c-0.638-0.321-1.333-0.482-2.089-0.482c-0.672,0-1.313,0.137-1.922,0.409c-0.608,0.273-1.141,0.661-1.596,1.165
					s-0.815,1.113-1.081,1.827s-0.399,1.505-0.399,2.372c0,0.952,0.13,1.792,0.389,2.52c0.259,0.729,0.619,1.341,1.082,1.838
					c0.461,0.497,1.018,0.875,1.669,1.134c0.65,0.259,1.368,0.388,2.151,0.388c0.7,0,1.348-0.129,1.942-0.388
					s1.113-0.609,1.554-1.05c0.441-0.441,0.787-0.963,1.039-1.564S51.818,358.121,51.818,357.435z"/>
				<path fill="#3F3F3F" d="M80.498,349.667c-1.26,2.31-2.449,4.595-3.569,6.855s-2.135,4.531-3.044,6.813
					c-0.91,2.281-1.701,4.58-2.373,6.896c-0.672,2.317-1.189,4.686-1.554,7.107h-5.103c0.336-2.155,0.815-4.308,1.438-6.456
					s1.354-4.297,2.194-6.446c0.84-2.148,1.781-4.308,2.824-6.477c1.042-2.17,2.152-4.36,3.328-6.572H60.384v-4.157h20.114V349.667z
					"/>
				<path fill="#3F3F3F" d="M84.551,376.227v-4.576c1.96,1.553,4.172,2.33,6.635,2.33c2.002,0,3.602-0.455,4.798-1.365
					c1.197-0.909,1.796-2.141,1.796-3.695c0-3.415-2.611-5.123-7.832-5.123h-2.33v-3.904h2.225c4.634,0,6.95-1.61,6.95-4.83
					c0-2.967-1.806-4.451-5.417-4.451c-2.016,0-3.912,0.722-5.689,2.163v-4.325c2.043-1.147,4.458-1.722,7.243-1.722
					c2.674,0,4.815,0.672,6.425,2.016s2.414,3.065,2.414,5.165c0,3.961-2.016,6.509-6.047,7.643v0.084
					c2.17,0.21,3.885,0.97,5.145,2.278s1.89,2.942,1.89,4.902c0,2.701-1.015,4.882-3.044,6.54c-2.03,1.659-4.703,2.488-8.021,2.488
					C88.709,377.844,86.329,377.305,84.551,376.227z"/>
			</g>
			<g>
				<path fill="#3F3F3F" d="M36.507,338.242v-0.967c0.11,0.098,0.243,0.186,0.397,0.264c0.155,0.078,0.318,0.145,0.488,0.197
					c0.172,0.055,0.343,0.096,0.516,0.125s0.332,0.044,0.479,0.044c0.505,0,0.881-0.094,1.131-0.28
					c0.248-0.188,0.373-0.457,0.373-0.809c0-0.188-0.041-0.354-0.125-0.493c-0.082-0.14-0.197-0.268-0.344-0.384
					c-0.146-0.115-0.32-0.226-0.52-0.332c-0.201-0.105-0.416-0.217-0.647-0.334c-0.244-0.124-0.472-0.249-0.684-0.376
					s-0.396-0.267-0.552-0.42s-0.279-0.326-0.369-0.521c-0.089-0.193-0.134-0.42-0.134-0.681c0-0.319,0.07-0.597,0.21-0.833
					c0.14-0.235,0.324-0.43,0.552-0.583s0.487-0.267,0.778-0.342c0.292-0.075,0.589-0.112,0.892-0.112
					c0.69,0,1.193,0.083,1.509,0.249v0.923c-0.413-0.286-0.944-0.43-1.592-0.43c-0.179,0-0.358,0.019-0.537,0.057
					c-0.179,0.037-0.339,0.098-0.479,0.183s-0.254,0.193-0.342,0.327s-0.132,0.296-0.132,0.488c0,0.179,0.033,0.334,0.101,0.464
					c0.066,0.13,0.165,0.249,0.295,0.356s0.289,0.212,0.477,0.313c0.187,0.101,0.402,0.212,0.646,0.332
					c0.251,0.124,0.488,0.254,0.713,0.391s0.422,0.288,0.591,0.454s0.304,0.35,0.403,0.552c0.099,0.202,0.148,0.433,0.148,0.693
					c0,0.345-0.067,0.637-0.203,0.877c-0.135,0.238-0.316,0.434-0.547,0.583c-0.229,0.149-0.493,0.258-0.793,0.325
					c-0.3,0.066-0.615,0.1-0.947,0.1c-0.11,0-0.247-0.009-0.41-0.027c-0.163-0.018-0.329-0.043-0.498-0.078
					c-0.169-0.033-0.33-0.076-0.48-0.127C36.719,338.36,36.598,338.304,36.507,338.242z"/>
				<path fill="#3F3F3F" d="M47.269,335.693c0,1.966-0.887,2.949-2.661,2.949c-1.699,0-2.549-0.945-2.549-2.837v-4.282h0.82v4.229
					c0,1.436,0.605,2.153,1.816,2.153c1.169,0,1.753-0.693,1.753-2.08v-4.302h0.82V335.693z"/>
				<path fill="#3F3F3F" d="M53.782,338.232c-0.518,0.273-1.162,0.41-1.934,0.41c-0.996,0-1.794-0.32-2.393-0.962
					s-0.898-1.482-0.898-2.524c0-1.12,0.337-2.024,1.011-2.715s1.528-1.035,2.563-1.035c0.664,0,1.214,0.096,1.65,0.288v0.874
					c-0.501-0.28-1.055-0.42-1.66-0.42c-0.804,0-1.456,0.269-1.955,0.806c-0.5,0.537-0.75,1.255-0.75,2.153
					c0,0.853,0.233,1.532,0.701,2.039c0.467,0.506,1.079,0.759,1.838,0.759c0.703,0,1.312-0.156,1.826-0.469V338.232z"/>
				<path fill="#3F3F3F" d="M59.974,338.232c-0.518,0.273-1.162,0.41-1.934,0.41c-0.996,0-1.794-0.32-2.393-0.962
					s-0.898-1.482-0.898-2.524c0-1.12,0.337-2.024,1.011-2.715s1.528-1.035,2.563-1.035c0.664,0,1.214,0.096,1.65,0.288v0.874
					c-0.501-0.28-1.055-0.42-1.66-0.42c-0.804,0-1.456,0.269-1.955,0.806c-0.5,0.537-0.75,1.255-0.75,2.153
					c0,0.853,0.233,1.532,0.701,2.039c0.467,0.506,1.079,0.759,1.838,0.759c0.703,0,1.312-0.156,1.826-0.469V338.232z"/>
				<path fill="#3F3F3F" d="M65.11,338.525h-3.711v-7.002h3.555v0.742H62.22v2.329h2.529v0.737H62.22v2.451h2.891V338.525z"/>
				<path fill="#3F3F3F" d="M66.131,338.242v-0.967c0.11,0.098,0.243,0.186,0.397,0.264c0.155,0.078,0.318,0.145,0.488,0.197
					c0.172,0.055,0.343,0.096,0.516,0.125s0.332,0.044,0.479,0.044c0.505,0,0.881-0.094,1.131-0.28
					c0.248-0.188,0.373-0.457,0.373-0.809c0-0.188-0.041-0.354-0.125-0.493c-0.082-0.14-0.197-0.268-0.344-0.384
					c-0.146-0.115-0.32-0.226-0.52-0.332c-0.201-0.105-0.416-0.217-0.647-0.334c-0.244-0.124-0.472-0.249-0.684-0.376
					s-0.396-0.267-0.552-0.42s-0.279-0.326-0.369-0.521c-0.089-0.193-0.134-0.42-0.134-0.681c0-0.319,0.07-0.597,0.21-0.833
					c0.14-0.235,0.324-0.43,0.552-0.583s0.487-0.267,0.778-0.342c0.292-0.075,0.589-0.112,0.892-0.112
					c0.69,0,1.193,0.083,1.509,0.249v0.923c-0.413-0.286-0.944-0.43-1.592-0.43c-0.179,0-0.358,0.019-0.537,0.057
					c-0.179,0.037-0.339,0.098-0.479,0.183s-0.254,0.193-0.342,0.327S67,333.011,67,333.203c0,0.179,0.033,0.334,0.101,0.464
					c0.066,0.13,0.165,0.249,0.295,0.356s0.289,0.212,0.477,0.313c0.187,0.101,0.402,0.212,0.646,0.332
					c0.251,0.124,0.488,0.254,0.713,0.391s0.422,0.288,0.591,0.454s0.304,0.35,0.403,0.552c0.099,0.202,0.148,0.433,0.148,0.693
					c0,0.345-0.067,0.637-0.203,0.877c-0.135,0.238-0.316,0.434-0.547,0.583c-0.229,0.149-0.493,0.258-0.793,0.325
					c-0.3,0.066-0.615,0.1-0.947,0.1c-0.11,0-0.247-0.009-0.41-0.027c-0.163-0.018-0.329-0.043-0.498-0.078
					c-0.169-0.033-0.33-0.076-0.48-0.127C66.343,338.36,66.222,338.304,66.131,338.242z"/>
				<path fill="#3F3F3F" d="M71.443,338.242v-0.967c0.11,0.098,0.243,0.186,0.397,0.264c0.155,0.078,0.318,0.145,0.488,0.197
					c0.172,0.055,0.343,0.096,0.516,0.125s0.332,0.044,0.479,0.044c0.505,0,0.881-0.094,1.131-0.28
					c0.248-0.188,0.373-0.457,0.373-0.809c0-0.188-0.041-0.354-0.125-0.493c-0.082-0.14-0.197-0.268-0.344-0.384
					c-0.146-0.115-0.32-0.226-0.52-0.332c-0.201-0.105-0.416-0.217-0.647-0.334c-0.244-0.124-0.472-0.249-0.684-0.376
					s-0.396-0.267-0.552-0.42s-0.279-0.326-0.369-0.521c-0.089-0.193-0.134-0.42-0.134-0.681c0-0.319,0.07-0.597,0.21-0.833
					c0.14-0.235,0.324-0.43,0.552-0.583s0.487-0.267,0.778-0.342c0.292-0.075,0.589-0.112,0.892-0.112
					c0.69,0,1.193,0.083,1.509,0.249v0.923c-0.413-0.286-0.944-0.43-1.592-0.43c-0.179,0-0.358,0.019-0.537,0.057
					c-0.179,0.037-0.339,0.098-0.479,0.183s-0.254,0.193-0.342,0.327s-0.132,0.296-0.132,0.488c0,0.179,0.033,0.334,0.101,0.464
					c0.066,0.13,0.165,0.249,0.295,0.356s0.289,0.212,0.477,0.313c0.187,0.101,0.402,0.212,0.646,0.332
					c0.251,0.124,0.488,0.254,0.713,0.391s0.422,0.288,0.591,0.454s0.304,0.35,0.403,0.552c0.099,0.202,0.148,0.433,0.148,0.693
					c0,0.345-0.067,0.637-0.203,0.877c-0.135,0.238-0.316,0.434-0.547,0.583c-0.229,0.149-0.493,0.258-0.793,0.325
					c-0.3,0.066-0.615,0.1-0.947,0.1c-0.11,0-0.247-0.009-0.41-0.027c-0.163-0.018-0.329-0.043-0.498-0.078
					c-0.169-0.033-0.33-0.076-0.48-0.127C71.655,338.36,71.534,338.304,71.443,338.242z"/>
				<path fill="#3F3F3F" d="M80.638,332.266h-2.734v2.422h2.529v0.737h-2.529v3.101h-0.82v-7.002h3.555V332.266z"/>
				<path fill="#3F3F3F" d="M87.088,335.693c0,1.966-0.887,2.949-2.661,2.949c-1.699,0-2.549-0.945-2.549-2.837v-4.282h0.82v4.229
					c0,1.436,0.605,2.153,1.816,2.153c1.169,0,1.753-0.693,1.753-2.08v-4.302h0.82V335.693z"/>
				<path fill="#3F3F3F" d="M92.469,338.525h-3.633v-7.002h0.82v6.26h2.813V338.525z"/>
				<path fill="#3F3F3F" d="M97.176,338.525h-3.633v-7.002h0.82v6.26h2.813V338.525z"/>
			</g>
			<g>
				<path fill="#3F3F3F" d="M145.964,338.525h-0.806v-7.002h0.806V338.525z"/>
				<path fill="#3F3F3F" d="M153.311,338.525h-0.987l-3.537-5.581c-0.089-0.14-0.163-0.286-0.22-0.439h-0.029
					c0.025,0.15,0.038,0.471,0.038,0.962v5.059h-0.805v-7.002h1.045l3.441,5.493c0.144,0.229,0.236,0.385,0.277,0.469h0.02
					c-0.032-0.201-0.048-0.545-0.048-1.03v-4.932h0.805V338.525z"/>
				<path fill="#3F3F3F" d="M158.603,332.266h-2.685v2.422h2.483v0.737h-2.483v3.101h-0.805v-7.002h3.489V332.266z"/>
				<path fill="#3F3F3F" d="M162.676,338.643c-0.975,0-1.755-0.327-2.341-0.981c-0.587-0.654-0.88-1.505-0.88-2.554
					c0-1.126,0.299-2.024,0.896-2.695c0.598-0.67,1.41-1.006,2.439-1.006c0.949,0,1.713,0.326,2.293,0.977
					c0.58,0.651,0.87,1.503,0.87,2.554c0,1.143-0.297,2.046-0.892,2.71C164.469,338.31,163.673,338.643,162.676,338.643z
					 M162.733,332.148c-0.723,0-1.309,0.266-1.759,0.796c-0.451,0.531-0.676,1.228-0.676,2.09c0,0.863,0.22,1.557,0.659,2.083
					c0.438,0.525,1.012,0.788,1.718,0.788c0.754,0,1.349-0.25,1.783-0.752c0.435-0.501,0.651-1.202,0.651-2.104
					c0-0.924-0.211-1.639-0.633-2.144C164.056,332.401,163.475,332.148,162.733,332.148z"/>
				<path fill="#3F3F3F" d="M172.232,338.525h-0.959l-1.149-1.963c-0.105-0.182-0.208-0.338-0.307-0.466
					c-0.1-0.129-0.201-0.233-0.305-0.315c-0.104-0.081-0.216-0.141-0.336-0.178c-0.119-0.038-0.255-0.057-0.404-0.057h-0.662v2.979
					h-0.805v-7.002h2.051c0.301,0,0.578,0.038,0.832,0.115c0.254,0.076,0.475,0.192,0.661,0.349
					c0.188,0.156,0.333,0.351,0.438,0.584c0.105,0.232,0.158,0.505,0.158,0.817c0,0.244-0.036,0.468-0.107,0.672
					c-0.072,0.203-0.175,0.385-0.307,0.544c-0.133,0.16-0.293,0.296-0.479,0.408c-0.188,0.112-0.397,0.199-0.63,0.261v0.02
					c0.114,0.053,0.215,0.111,0.299,0.179c0.085,0.066,0.166,0.146,0.242,0.236c0.077,0.092,0.152,0.194,0.228,0.311
					c0.075,0.115,0.159,0.25,0.252,0.402L172.232,338.525z M168.11,332.266v2.539h1.093c0.201,0,0.388-0.03,0.559-0.093
					c0.171-0.062,0.318-0.15,0.443-0.266c0.125-0.116,0.222-0.258,0.292-0.425c0.07-0.168,0.105-0.355,0.105-0.564
					c0-0.374-0.119-0.666-0.356-0.876c-0.238-0.21-0.583-0.315-1.033-0.315H168.11z"/>
				<path fill="#3F3F3F" d="M180.184,338.525h-0.801v-4.697c0-0.371,0.022-0.825,0.067-1.362h-0.02
					c-0.076,0.316-0.145,0.542-0.206,0.679l-2.348,5.381h-0.394l-2.344-5.342c-0.066-0.156-0.136-0.396-0.206-0.718h-0.019
					c0.025,0.28,0.038,0.737,0.038,1.372v4.688h-0.776v-7.002h1.063l2.109,4.883c0.163,0.375,0.269,0.654,0.316,0.84h0.028
					c0.138-0.384,0.248-0.67,0.331-0.859l2.151-4.863h1.007V338.525z"/>
				<path fill="#3F3F3F" d="M187.31,338.525h-0.891l-0.729-1.963h-2.914l-0.686,1.963h-0.896l2.636-7.002h0.834L187.31,338.525z
					 M185.427,335.825l-1.079-2.983c-0.035-0.098-0.07-0.254-0.104-0.469h-0.02c-0.032,0.199-0.069,0.355-0.11,0.469l-1.068,2.983
					H185.427z"/>
				<path fill="#3F3F3F" d="M192.386,332.266h-1.984v6.26h-0.806v-6.26h-1.979v-0.742h4.77V332.266z"/>
				<path fill="#3F3F3F" d="M194.269,338.525h-0.805v-7.002h0.805V338.525z"/>
				<path fill="#3F3F3F" d="M198.847,338.643c-0.975,0-1.756-0.327-2.342-0.981s-0.879-1.505-0.879-2.554
					c0-1.126,0.298-2.024,0.896-2.695c0.598-0.67,1.411-1.006,2.439-1.006c0.949,0,1.714,0.326,2.294,0.977
					c0.579,0.651,0.869,1.503,0.869,2.554c0,1.143-0.297,2.046-0.891,2.71C200.639,338.31,199.843,338.643,198.847,338.643z
					 M198.903,332.148c-0.722,0-1.308,0.266-1.759,0.796c-0.45,0.531-0.676,1.228-0.676,2.09c0,0.863,0.22,1.557,0.659,2.083
					c0.439,0.525,1.012,0.788,1.719,0.788c0.754,0,1.348-0.25,1.782-0.752c0.435-0.501,0.652-1.202,0.652-2.104
					c0-0.924-0.211-1.639-0.633-2.144C200.227,332.401,199.645,332.148,198.903,332.148z"/>
				<path fill="#3F3F3F" d="M209.017,338.525h-0.987l-3.537-5.581c-0.09-0.14-0.163-0.286-0.221-0.439h-0.028
					c0.025,0.15,0.038,0.471,0.038,0.962v5.059h-0.806v-7.002h1.045l3.441,5.493c0.144,0.229,0.236,0.385,0.278,0.469h0.019
					c-0.031-0.201-0.048-0.545-0.048-1.03v-4.932h0.806V338.525z"/>
				<path fill="#3F3F3F" d="M216.138,338.525h-0.891l-0.729-1.963h-2.914l-0.686,1.963h-0.896l2.636-7.002h0.834L216.138,338.525z
					 M214.255,335.825l-1.079-2.983c-0.035-0.098-0.07-0.254-0.104-0.469h-0.02c-0.032,0.199-0.069,0.355-0.11,0.469l-1.068,2.983
					H214.255z"/>
				<path fill="#3F3F3F" d="M220.715,338.525h-3.565v-7.002h0.805v6.26h2.761V338.525z"/>
			</g>
			<g>
				<path fill="#3F3F3F" d="M162.358,347.231v19.442h4.472v4.053h-4.472v6.613h-4.724v-6.613h-13.627v-4.095
					c1.231-1.386,2.495-2.887,3.79-4.504c1.294-1.616,2.54-3.268,3.737-4.955c1.196-1.687,2.306-3.377,3.328-5.07
					c1.021-1.693,1.882-3.317,2.582-4.871H162.358z M157.635,366.674v-12.64c-1.526,2.743-3.034,5.137-4.525,7.181
					c-1.49,2.044-2.887,3.863-4.188,5.459H157.635z"/>
				<path fill="#3F3F3F" d="M190.053,367.66c0,1.512-0.249,2.891-0.746,4.137s-1.186,2.32-2.068,3.223
					c-0.881,0.903-1.928,1.604-3.139,2.1c-1.211,0.497-2.522,0.746-3.937,0.746c-1.512,0-2.901-0.295-4.168-0.883
					s-2.358-1.462-3.275-2.624s-1.627-2.606-2.131-4.336c-0.504-1.729-0.756-3.733-0.756-6.015c0-2.786,0.332-5.257,0.997-7.412
					s1.578-3.961,2.74-5.417s2.526-2.562,4.094-3.317c1.568-0.756,3.262-1.134,5.082-1.134c1.133,0,2.165,0.077,3.097,0.231
					c0.931,0.153,1.676,0.363,2.235,0.629v4.389c-0.713-0.364-1.477-0.672-2.288-0.924s-1.743-0.378-2.792-0.378
					c-1.176,0-2.261,0.238-3.255,0.714s-1.852,1.173-2.572,2.089c-0.721,0.917-1.288,2.051-1.7,3.401
					c-0.413,1.352-0.627,2.908-0.641,4.672h0.126c0.644-0.994,1.515-1.777,2.614-2.352c1.099-0.574,2.39-0.861,3.873-0.861
					c1.316,0,2.502,0.214,3.56,0.641c1.057,0.428,1.959,1.043,2.708,1.848c0.749,0.806,1.326,1.785,1.732,2.939
					C189.85,364.921,190.053,366.219,190.053,367.66z M185.139,368.06c0-0.868-0.102-1.659-0.304-2.372
					c-0.203-0.715-0.512-1.326-0.924-1.838c-0.413-0.511-0.932-0.906-1.554-1.186c-0.623-0.28-1.354-0.42-2.194-0.42
					s-1.578,0.15-2.215,0.451c-0.638,0.301-1.173,0.696-1.606,1.186c-0.434,0.49-0.76,1.051-0.977,1.68
					c-0.217,0.631-0.325,1.274-0.325,1.932c0,0.715,0.102,1.446,0.305,2.194c0.202,0.749,0.515,1.432,0.935,2.048
					c0.42,0.615,0.955,1.123,1.605,1.521c0.651,0.399,1.425,0.599,2.32,0.599c0.798,0,1.505-0.147,2.121-0.44
					c0.615-0.295,1.13-0.7,1.543-1.219c0.412-0.518,0.728-1.13,0.944-1.837C185.03,369.652,185.139,368.886,185.139,368.06z"/>
				<path fill="#3F3F3F" d="M204.602,346.56v30.78h-4.871v-24.817c-0.881,0.63-1.83,1.165-2.845,1.606
					c-1.015,0.44-2.173,0.829-3.475,1.165v-4.157c0.812-0.266,1.596-0.546,2.352-0.84s1.501-0.623,2.236-0.986
					c0.734-0.364,1.477-0.771,2.226-1.219c0.748-0.447,1.521-0.958,2.32-1.532H204.602z"/>
			</g>
			<rect x="131.439" y="331.526" fill="#2373B9" width="5" height="46"/>
			<rect x="239.917" y="331.526" fill="#DC5B26" width="5" height="46"/>
			<g>
				<path fill="#8D99A5" d="M14.676,43.406c0,0.379-0.071,0.724-0.214,1.034s-0.344,0.576-0.604,0.797s-0.571,0.392-0.935,0.513
					s-0.764,0.182-1.201,0.182c-0.801,0-1.438-0.152-1.91-0.457v-1.031c0.566,0.445,1.215,0.668,1.945,0.668
					c0.293,0,0.558-0.037,0.794-0.111s0.439-0.182,0.609-0.322s0.301-0.311,0.393-0.51s0.138-0.424,0.138-0.674
					c0-1.098-0.781-1.646-2.344-1.646H10.65v-0.814h0.662c1.383,0,2.074-0.516,2.074-1.547c0-0.953-0.527-1.43-1.582-1.43
					c-0.594,0-1.15,0.199-1.67,0.598v-0.932c0.535-0.32,1.172-0.48,1.91-0.48c0.352,0,0.67,0.049,0.955,0.146
					s0.529,0.234,0.732,0.41s0.36,0.387,0.472,0.633s0.167,0.518,0.167,0.814c0,1.105-0.559,1.816-1.676,2.133v0.023
					c0.285,0.031,0.549,0.101,0.791,0.208s0.451,0.247,0.627,0.419s0.313,0.374,0.413,0.606S14.676,43.125,14.676,43.406z"/>
				<path fill="#8D99A5" d="M19.949,45.785v-8.402h2.32c2.961,0,4.441,1.365,4.441,4.096c0,1.297-0.411,2.339-1.233,3.126
					s-1.923,1.181-3.302,1.181H19.949z M20.934,38.273v6.621h1.254c1.102,0,1.959-0.295,2.572-0.885s0.92-1.426,0.92-2.508
					c0-2.152-1.145-3.229-3.434-3.229H20.934z"/>
				<path fill="#8D99A5" d="M34.867,45.785h-1.09l-0.891-2.355h-3.563l-0.838,2.355h-1.096l3.223-8.402h1.02L34.867,45.785z
					 M32.565,42.545l-1.318-3.58c-0.043-0.117-0.086-0.305-0.129-0.563h-0.023c-0.039,0.238-0.084,0.426-0.135,0.563l-1.307,3.58
					H32.565z"/>
				<path fill="#8D99A5" d="M41.072,38.273h-2.426v7.512h-0.984v-7.512h-2.42v-0.891h5.83V38.273z"/>
				<path fill="#8D99A5" d="M48.895,45.785h-1.09l-0.891-2.355h-3.563l-0.838,2.355h-1.096l3.223-8.402h1.02L48.895,45.785z
					 M46.592,42.545l-1.318-3.58c-0.043-0.117-0.086-0.305-0.129-0.563h-0.023c-0.039,0.238-0.084,0.426-0.135,0.563l-1.307,3.58
					H46.592z"/>
				<path fill="#8D99A5" d="M57.684,38.273h-3.281v2.906h3.035v0.885h-3.035v3.721h-0.984v-8.402h4.266V38.273z"/>
				<path fill="#8D99A5" d="M65.781,45.785h-1.09l-0.891-2.355h-3.563L59.4,45.785h-1.096l3.223-8.402h1.02L65.781,45.785z
					 M63.479,42.545l-1.318-3.58c-0.043-0.117-0.086-0.305-0.129-0.563h-0.023c-0.039,0.238-0.084,0.426-0.135,0.563l-1.307,3.58
					H63.479z"/>
				<path fill="#8D99A5" d="M72.736,45.434c-0.621,0.328-1.395,0.492-2.32,0.492c-1.195,0-2.152-0.385-2.871-1.154
					s-1.078-1.779-1.078-3.029c0-1.344,0.404-2.43,1.213-3.258s1.834-1.242,3.076-1.242c0.797,0,1.457,0.115,1.98,0.346v1.049
					c-0.602-0.336-1.266-0.504-1.992-0.504c-0.965,0-1.747,0.322-2.347,0.967s-0.899,1.506-0.899,2.584
					c0,1.023,0.28,1.839,0.841,2.446s1.296,0.911,2.206,0.911c0.844,0,1.574-0.188,2.191-0.563V45.434z"/>
				<path fill="#8D99A5" d="M79.416,38.273H76.99v7.512h-0.984v-7.512h-2.42v-0.891h5.83V38.273z"/>
				<path fill="#8D99A5" d="M84.121,45.926c-1.191,0-2.146-0.393-2.862-1.178s-1.075-1.807-1.075-3.064
					c0-1.352,0.365-2.43,1.096-3.234s1.725-1.207,2.982-1.207c1.16,0,2.095,0.391,2.804,1.172s1.063,1.803,1.063,3.064
					c0,1.371-0.363,2.455-1.09,3.252S85.34,45.926,84.121,45.926z M84.191,38.133c-0.883,0-1.6,0.318-2.15,0.955
					s-0.826,1.473-0.826,2.508s0.269,1.868,0.806,2.499s1.237,0.946,2.101,0.946c0.922,0,1.648-0.301,2.18-0.902
					s0.797-1.443,0.797-2.525c0-1.109-0.258-1.967-0.773-2.572S85.098,38.133,84.191,38.133z"/>
				<path fill="#8D99A5" d="M95.805,45.785h-1.172l-1.406-2.355c-0.129-0.219-0.254-0.405-0.375-0.56s-0.245-0.28-0.372-0.378
					s-0.264-0.169-0.41-0.214s-0.312-0.067-0.495-0.067h-0.809v3.574h-0.984v-8.402h2.508c0.367,0,0.706,0.046,1.017,0.138
					s0.58,0.231,0.809,0.419s0.407,0.421,0.536,0.7s0.193,0.606,0.193,0.981c0,0.293-0.044,0.562-0.132,0.806
					s-0.213,0.462-0.375,0.653s-0.357,0.354-0.586,0.489s-0.485,0.239-0.771,0.313v0.023c0.141,0.063,0.263,0.134,0.366,0.214
					s0.202,0.175,0.296,0.284s0.187,0.233,0.278,0.372s0.194,0.3,0.308,0.483L95.805,45.785z M90.766,38.273v3.047h1.336
					c0.246,0,0.474-0.037,0.683-0.111s0.39-0.181,0.542-0.319s0.271-0.309,0.357-0.51s0.129-0.427,0.129-0.677
					c0-0.449-0.146-0.8-0.437-1.052s-0.712-0.378-1.263-0.378H90.766z"/>
				<path fill="#8D99A5" d="M97.943,45.785h-0.984v-8.402h0.984V45.785z"/>
				<path fill="#8D99A5" d="M104.606,45.785h-4.453v-8.402h4.266v0.891h-3.281v2.795h3.035v0.885h-3.035v2.941h3.469V45.785z"/>
				<path fill="#8D99A5" d="M105.83,45.445v-1.16c0.133,0.117,0.292,0.223,0.478,0.316s0.381,0.173,0.586,0.237
					s0.411,0.114,0.618,0.149s0.398,0.053,0.574,0.053c0.605,0,1.058-0.112,1.356-0.337s0.448-0.548,0.448-0.97
					c0-0.227-0.05-0.424-0.149-0.592s-0.237-0.321-0.413-0.46s-0.384-0.271-0.624-0.398s-0.499-0.261-0.776-0.401
					c-0.293-0.148-0.566-0.299-0.82-0.451s-0.475-0.32-0.662-0.504s-0.335-0.392-0.442-0.624s-0.161-0.505-0.161-0.817
					c0-0.383,0.084-0.716,0.252-0.999s0.389-0.517,0.662-0.7s0.585-0.32,0.935-0.41s0.706-0.135,1.069-0.135
					c0.828,0,1.432,0.1,1.811,0.299v1.107c-0.496-0.344-1.133-0.516-1.91-0.516c-0.215,0-0.43,0.022-0.645,0.067
					s-0.406,0.118-0.574,0.22s-0.305,0.232-0.41,0.393s-0.158,0.355-0.158,0.586c0,0.215,0.04,0.4,0.12,0.557
					s0.198,0.299,0.354,0.428s0.347,0.254,0.571,0.375s0.483,0.254,0.776,0.398c0.301,0.148,0.586,0.305,0.855,0.469
					s0.506,0.346,0.709,0.545s0.364,0.42,0.483,0.662s0.179,0.52,0.179,0.832c0,0.414-0.081,0.765-0.243,1.052
					s-0.381,0.521-0.656,0.7s-0.593,0.31-0.952,0.39s-0.738,0.12-1.137,0.12c-0.133,0-0.297-0.011-0.492-0.032
					s-0.395-0.053-0.598-0.094s-0.396-0.092-0.577-0.152S105.94,45.519,105.83,45.445z"/>
			</g>
		</g>
		<g>
			<g>
				<g>
					<path fill="#8F9CA8" d="M32.42,283.195c0,0.66-0.06,1.242-0.179,1.752c-0.119,0.508-0.291,0.938-0.516,1.287
						c-0.226,0.348-0.502,0.613-0.829,0.795s-0.699,0.271-1.116,0.271c-0.396,0-0.747-0.088-1.057-0.26
						c-0.31-0.174-0.569-0.428-0.782-0.762c-0.212-0.332-0.373-0.74-0.482-1.227c-0.11-0.484-0.165-1.039-0.165-1.664
						c0-0.688,0.058-1.295,0.173-1.822s0.284-0.969,0.508-1.326c0.223-0.355,0.5-0.625,0.831-0.807
						c0.331-0.18,0.711-0.271,1.139-0.271C31.594,279.162,32.42,280.508,32.42,283.195z M31.498,283.283
						c0-2.238-0.532-3.357-1.598-3.357c-1.123,0-1.685,1.139-1.685,3.418c0,2.127,0.551,3.189,1.652,3.189
						C30.954,286.533,31.498,285.449,31.498,283.283z"/>
				</g>
			</g>
		</g>
		<g>
			<g>
				<g>
					<path fill="#8F9CA8" d="M32.139,191.707c0,0.384-0.065,0.731-0.197,1.042c-0.132,0.312-0.319,0.578-0.563,0.802
						c-0.243,0.223-0.537,0.395-0.881,0.516s-0.727,0.181-1.147,0.181c-0.731,0-1.274-0.109-1.629-0.329v-0.954
						c0.533,0.344,1.081,0.516,1.641,0.516c0.285,0,0.542-0.042,0.771-0.126c0.229-0.085,0.424-0.201,0.585-0.352
						c0.16-0.15,0.284-0.331,0.37-0.543c0.086-0.213,0.129-0.445,0.129-0.697c0-0.512-0.172-0.914-0.516-1.204
						c-0.344-0.291-0.844-0.437-1.498-0.437c-0.106,0-0.218,0.002-0.335,0.005c-0.117,0.004-0.234,0.009-0.352,0.014
						c-0.117,0.006-0.231,0.013-0.343,0.02c-0.111,0.008-0.213,0.017-0.305,0.027l0.27-3.945h3.638v0.813h-2.858l-0.159,2.31
						c0.116-0.007,0.241-0.014,0.373-0.019c0.132-0.006,0.248-0.009,0.351-0.009c0.417,0,0.79,0.055,1.12,0.165
						c0.329,0.109,0.607,0.266,0.837,0.469c0.229,0.203,0.402,0.452,0.521,0.747C32.08,191.011,32.139,191.341,32.139,191.707z"/>
					<path fill="#8F9CA8" d="M38.478,190.143c0,0.659-0.06,1.242-0.179,1.751s-0.291,0.938-0.516,1.287
						c-0.226,0.349-0.502,0.614-0.829,0.795c-0.327,0.182-0.699,0.271-1.116,0.271c-0.396,0-0.747-0.087-1.057-0.26
						c-0.31-0.174-0.569-0.428-0.782-0.761c-0.212-0.333-0.373-0.741-0.482-1.227c-0.11-0.484-0.165-1.039-0.165-1.665
						c0-0.688,0.058-1.295,0.173-1.822c0.115-0.526,0.284-0.968,0.508-1.325c0.223-0.356,0.5-0.625,0.831-0.807
						c0.331-0.181,0.711-0.271,1.139-0.271C37.653,186.109,38.478,187.454,38.478,190.143z M37.556,190.23
						c0-2.238-0.532-3.358-1.598-3.358c-1.123,0-1.685,1.14-1.685,3.419c0,2.126,0.551,3.188,1.652,3.188
						C37.012,193.479,37.556,192.396,37.556,190.23z"/>
				</g>
			</g>
		</g>
		<g>
			<g>
				<g>
					<path fill="#8F9CA8" d="M30.795,101.056h-0.899v-6.799c-0.069,0.069-0.171,0.148-0.305,0.238s-0.283,0.179-0.45,0.267
						c-0.166,0.088-0.342,0.17-0.526,0.247c-0.186,0.076-0.365,0.137-0.541,0.181v-0.911c0.197-0.055,0.407-0.129,0.629-0.222
						c0.221-0.094,0.438-0.198,0.652-0.313s0.416-0.235,0.606-0.361c0.19-0.127,0.355-0.25,0.494-0.371h0.34V101.056z"/>
					<path fill="#8F9CA8" d="M38.478,97.088c0,0.659-0.06,1.242-0.179,1.751s-0.291,0.938-0.516,1.287
						c-0.226,0.349-0.502,0.614-0.829,0.795c-0.327,0.182-0.699,0.271-1.116,0.271c-0.396,0-0.747-0.087-1.057-0.26
						c-0.31-0.174-0.569-0.428-0.782-0.761c-0.212-0.333-0.373-0.741-0.482-1.227c-0.11-0.484-0.165-1.039-0.165-1.665
						c0-0.688,0.058-1.295,0.173-1.822c0.115-0.526,0.284-0.968,0.508-1.325c0.223-0.356,0.5-0.625,0.831-0.807
						c0.331-0.181,0.711-0.271,1.139-0.271C37.653,93.055,38.478,94.399,38.478,97.088z M37.556,97.176
						c0-2.238-0.532-3.358-1.598-3.358c-1.123,0-1.685,1.14-1.685,3.419c0,2.126,0.551,3.188,1.652,3.188
						C37.012,100.425,37.556,99.342,37.556,97.176z"/>
					<path fill="#8F9CA8" d="M44.536,97.088c0,0.659-0.06,1.242-0.179,1.751s-0.291,0.938-0.516,1.287
						c-0.226,0.349-0.502,0.614-0.829,0.795c-0.327,0.182-0.699,0.271-1.116,0.271c-0.396,0-0.747-0.087-1.057-0.26
						c-0.31-0.174-0.569-0.428-0.782-0.761c-0.212-0.333-0.373-0.741-0.482-1.227c-0.11-0.484-0.165-1.039-0.165-1.665
						c0-0.688,0.058-1.295,0.173-1.822c0.115-0.526,0.284-0.968,0.508-1.325c0.223-0.356,0.5-0.625,0.831-0.807
						c0.331-0.181,0.711-0.271,1.139-0.271C43.711,93.055,44.536,94.399,44.536,97.088z M43.614,97.176
						c0-2.238-0.532-3.358-1.598-3.358c-1.123,0-1.685,1.14-1.685,3.419c0,2.126,0.551,3.188,1.652,3.188
						C43.07,100.425,43.614,99.342,43.614,97.176z"/>
				</g>
			</g>
		</g>
		
			<line fill="none" stroke="#989898" stroke-width="1.1238" stroke-miterlimit="10" x1="25.415" y1="111.555" x2="514.584" y2="111.555"/>
		<g id="Rectangle_1_">
			
				<rect x="24.248" y="297.111" fill="none" stroke="#989898" stroke-width="1.1238" stroke-miterlimit="10" width="489.996" height="1.124"/>
		</g>
		<rect x="66.718" y="117.133" fill="#2373B9" width="70.039" height="180.539"/>
		<rect x="185.822" y="194.111" fill="#2373B9" width="70.039" height="103.562"/>
		<rect x="303.438" y="130.723" fill="#2373B9" width="70.039" height="166.95"/>
		<rect x="427.878" y="130.723" fill="#2373B9" width="70.039" height="166.95"/>
		<rect x="427.878" y="124.32" fill="#DC5B26" width="70.039" height="4.94"/>
		<rect x="185.822" y="184.987" fill="#DC5B26" width="70.039" height="7.136"/>
		<rect x="185.822" y="175.684" fill="#7FBB42" width="70.039" height="6.868"/>
		<rect x="427.878" y="111.942" fill="#7FBB42" width="70.039" height="10.381"/>
		<rect x="66.718" y="110.031" fill="#7FBB42" width="70.039" height="5.51"/>
	</g>
</g>
</svg>
