<?xml version="1.0" encoding="utf-8"?>
<!-- Generator: Adobe Illustrator 18.1.1, SVG Export Plug-In . SVG Version: 6.00 Build 0)  -->
<!DOCTYPE svg PUBLIC "-//W3C//DTD SVG 1.1//EN" "http://www.w3.org/Graphics/SVG/1.1/DTD/svg11.dtd">
<svg version="1.1" id="Layer_1" xmlns="http://www.w3.org/2000/svg" xmlns:xlink="http://www.w3.org/1999/xlink" x="0px" y="0px"
	 viewBox="0 0 564.501 403.216" enable-background="new 0 0 564.501 403.216" xml:space="preserve">
<g>
	<rect x="0.316" y="-0.234" fill="#FFFFFF" width="564.501" height="403.216"/>
	<g>
		<g>
			<g>
				<path fill="#3C454F" d="M27.141,26.436h-1.453L24.5,23.296h-4.75l-1.117,3.141h-1.461l4.297-11.203h1.359L27.141,26.436z
					 M24.071,22.116l-1.758-4.773c-0.058-0.156-0.114-0.406-0.172-0.75H22.11c-0.052,0.318-0.112,0.568-0.18,0.75l-1.742,4.773
					H24.071z"/>
				<path fill="#3C454F" d="M34.071,26.069c-0.614,0.37-1.344,0.555-2.188,0.555c-1.141,0-2.062-0.371-2.762-1.113
					s-1.051-1.704-1.051-2.887c0-1.317,0.378-2.376,1.133-3.176c0.755-0.799,1.763-1.199,3.023-1.199
					c0.703,0,1.323,0.13,1.859,0.391v1.313c-0.594-0.417-1.229-0.625-1.906-0.625c-0.817,0-1.488,0.293-2.012,0.879
					s-0.785,1.355-0.785,2.309c0,0.938,0.246,1.677,0.738,2.219c0.492,0.542,1.152,0.813,1.98,0.813
					c0.698,0,1.354-0.231,1.969-0.695V26.069z"/>
				<path fill="#3C454F" d="M39.719,26.358c-0.302,0.167-0.7,0.25-1.195,0.25c-1.401,0-2.102-0.781-2.102-2.344V19.53h-1.375v-1.094
					h1.375v-1.953l1.281-0.414v2.367h2.016v1.094h-2.016v4.508c0,0.537,0.091,0.919,0.273,1.148
					c0.183,0.229,0.484,0.344,0.906,0.344c0.323,0,0.602-0.088,0.836-0.266V26.358z"/>
				<path fill="#3C454F" d="M42.086,16.405c-0.229,0-0.425-0.078-0.586-0.234s-0.242-0.354-0.242-0.594
					c0-0.239,0.081-0.438,0.242-0.598c0.161-0.159,0.356-0.238,0.586-0.238c0.234,0,0.434,0.08,0.598,0.238
					c0.164,0.159,0.246,0.358,0.246,0.598c0,0.229-0.082,0.425-0.246,0.586C42.52,16.325,42.321,16.405,42.086,16.405z
					 M42.711,26.436H41.43v-8h1.281V26.436z"/>
				<path fill="#3C454F" d="M51.594,18.436l-3.188,8h-1.258l-3.031-8h1.406l2.031,5.813c0.151,0.427,0.245,0.8,0.281,1.117h0.031
					c0.052-0.401,0.136-0.763,0.25-1.086l2.125-5.844H51.594z"/>
				<path fill="#3C454F" d="M53.625,16.405c-0.229,0-0.425-0.078-0.586-0.234s-0.242-0.354-0.242-0.594
					c0-0.239,0.081-0.438,0.242-0.598c0.161-0.159,0.356-0.238,0.586-0.238c0.234,0,0.434,0.08,0.598,0.238
					c0.164,0.159,0.246,0.358,0.246,0.598c0,0.229-0.082,0.425-0.246,0.586C54.059,16.325,53.86,16.405,53.625,16.405z
					 M54.25,26.436h-1.281v-8h1.281V26.436z"/>
				<path fill="#3C454F" d="M60.555,26.358c-0.302,0.167-0.7,0.25-1.195,0.25c-1.401,0-2.102-0.781-2.102-2.344V19.53h-1.375v-1.094
					h1.375v-1.953l1.281-0.414v2.367h2.016v1.094h-2.016v4.508c0,0.537,0.091,0.919,0.273,1.148
					c0.183,0.229,0.484,0.344,0.906,0.344c0.323,0,0.602-0.088,0.836-0.266V26.358z"/>
				<path fill="#3C454F" d="M68.633,18.436l-3.68,9.281c-0.656,1.656-1.578,2.484-2.766,2.484c-0.333,0-0.612-0.034-0.836-0.102
					v-1.148c0.276,0.094,0.528,0.141,0.758,0.141c0.646,0,1.13-0.386,1.453-1.156l0.641-1.516l-3.125-7.984H62.5l2.164,6.156
					c0.026,0.078,0.081,0.281,0.164,0.609h0.047c0.026-0.125,0.078-0.323,0.156-0.594l2.273-6.172H68.633z"/>
				<path fill="#3C454F" d="M80.5,26.436h-5.938V15.233h5.688v1.187h-4.375v3.727h4.047v1.18h-4.047v3.922H80.5V26.436z"/>
				<path fill="#3C454F" d="M88.328,18.436l-2.688,4.047l2.641,3.953h-1.492l-1.57-2.594c-0.099-0.161-0.216-0.364-0.352-0.609
					h-0.031c-0.026,0.047-0.148,0.25-0.367,0.609l-1.602,2.594h-1.477l2.727-3.922l-2.609-4.078H83l1.547,2.734
					c0.114,0.203,0.227,0.412,0.336,0.625h0.031l2-3.359H88.328z"/>
				<path fill="#3C454F" d="M96.133,22.757h-5.648c0.021,0.891,0.261,1.578,0.719,2.063s1.089,0.727,1.891,0.727
					c0.901,0,1.729-0.297,2.484-0.891v1.203c-0.703,0.511-1.633,0.766-2.789,0.766c-1.13,0-2.019-0.363-2.664-1.09
					s-0.969-1.749-0.969-3.066c0-1.245,0.353-2.259,1.059-3.043c0.706-0.784,1.582-1.176,2.629-1.176s1.856,0.339,2.43,1.016
					c0.573,0.677,0.859,1.617,0.859,2.82V22.757z M94.821,21.671c-0.005-0.739-0.184-1.315-0.535-1.727
					c-0.352-0.411-0.84-0.617-1.465-0.617c-0.604,0-1.117,0.216-1.539,0.648c-0.422,0.433-0.683,0.998-0.781,1.695H94.821z"/>
				<path fill="#3C454F" d="M103.524,26.069c-0.614,0.37-1.344,0.555-2.188,0.555c-1.141,0-2.062-0.371-2.762-1.113
					s-1.051-1.704-1.051-2.887c0-1.317,0.378-2.376,1.133-3.176c0.755-0.799,1.763-1.199,3.023-1.199
					c0.703,0,1.323,0.13,1.859,0.391v1.313c-0.594-0.417-1.229-0.625-1.906-0.625c-0.817,0-1.488,0.293-2.012,0.879
					s-0.785,1.355-0.785,2.309c0,0.938,0.246,1.677,0.738,2.219c0.492,0.542,1.152,0.813,1.98,0.813
					c0.698,0,1.354-0.231,1.969-0.695V26.069z"/>
				<path fill="#3C454F" d="M111.93,26.436h-1.281v-1.266h-0.031c-0.531,0.969-1.354,1.453-2.469,1.453
					c-1.906,0-2.859-1.135-2.859-3.406v-4.781h1.273v4.578c0,1.688,0.646,2.531,1.938,2.531c0.625,0,1.14-0.23,1.543-0.691
					s0.605-1.063,0.605-1.809v-4.609h1.281V26.436z"/>
				<path fill="#3C454F" d="M118.227,26.358c-0.302,0.167-0.7,0.25-1.195,0.25c-1.401,0-2.102-0.781-2.102-2.344V19.53h-1.375
					v-1.094h1.375v-1.953l1.281-0.414v2.367h2.016v1.094h-2.016v4.508c0,0.537,0.091,0.919,0.273,1.148
					c0.183,0.229,0.484,0.344,0.906,0.344c0.323,0,0.602-0.088,0.836-0.266V26.358z"/>
				<path fill="#3C454F" d="M120.594,16.405c-0.229,0-0.425-0.078-0.586-0.234s-0.242-0.354-0.242-0.594
					c0-0.239,0.081-0.438,0.242-0.598c0.161-0.159,0.356-0.238,0.586-0.238c0.234,0,0.434,0.08,0.598,0.238
					c0.164,0.159,0.246,0.358,0.246,0.598c0,0.229-0.082,0.425-0.246,0.586C121.028,16.325,120.828,16.405,120.594,16.405z
					 M121.219,26.436h-1.281v-8h1.281V26.436z"/>
				<path fill="#3C454F" d="M127.156,26.624c-1.183,0-2.126-0.374-2.832-1.121c-0.706-0.747-1.059-1.738-1.059-2.973
					c0-1.344,0.367-2.393,1.102-3.148c0.734-0.755,1.727-1.133,2.977-1.133c1.192,0,2.124,0.367,2.793,1.102
					s1.004,1.753,1.004,3.055c0,1.276-0.36,2.298-1.082,3.066C129.337,26.24,128.37,26.624,127.156,26.624z M127.25,19.327
					c-0.823,0-1.474,0.28-1.953,0.84c-0.479,0.56-0.719,1.332-0.719,2.316c0,0.948,0.242,1.695,0.727,2.242s1.133,0.82,1.945,0.82
					c0.828,0,1.465-0.268,1.91-0.805c0.445-0.536,0.668-1.299,0.668-2.289c0-1-0.223-1.771-0.668-2.313
					C128.715,19.598,128.078,19.327,127.25,19.327z"/>
				<path fill="#3C454F" d="M139.828,26.436h-1.281v-4.563c0-1.698-0.62-2.547-1.859-2.547c-0.641,0-1.171,0.241-1.59,0.723
					c-0.419,0.482-0.629,1.09-0.629,1.824v4.563h-1.281v-8h1.281v1.328h0.031c0.604-1.01,1.479-1.516,2.625-1.516
					c0.875,0,1.544,0.283,2.008,0.848c0.464,0.565,0.695,1.382,0.695,2.449V26.436z"/>
				<path fill="#3C454F" d="M141.758,26.147v-1.375c0.698,0.516,1.466,0.773,2.305,0.773c1.125,0,1.688-0.375,1.688-1.125
					c0-0.213-0.048-0.395-0.145-0.543s-0.227-0.28-0.391-0.395c-0.164-0.114-0.356-0.217-0.578-0.309
					c-0.222-0.091-0.46-0.186-0.715-0.285c-0.354-0.141-0.665-0.282-0.934-0.426c-0.269-0.143-0.492-0.305-0.672-0.484
					s-0.315-0.384-0.406-0.613c-0.091-0.229-0.137-0.497-0.137-0.805c0-0.375,0.086-0.707,0.258-0.996s0.401-0.531,0.688-0.727
					s0.613-0.342,0.98-0.441c0.367-0.099,0.746-0.148,1.137-0.148c0.692,0,1.313,0.12,1.859,0.359v1.297
					c-0.589-0.385-1.266-0.578-2.031-0.578c-0.239,0-0.456,0.027-0.648,0.082s-0.358,0.132-0.496,0.23
					c-0.138,0.099-0.245,0.218-0.32,0.355c-0.075,0.138-0.113,0.291-0.113,0.457c0,0.208,0.038,0.383,0.113,0.523
					s0.187,0.266,0.332,0.375s0.323,0.208,0.531,0.297c0.208,0.089,0.445,0.185,0.711,0.289c0.354,0.136,0.672,0.275,0.953,0.418
					c0.281,0.144,0.521,0.305,0.719,0.484s0.351,0.387,0.457,0.621s0.16,0.513,0.16,0.836c0,0.396-0.087,0.74-0.262,1.031
					c-0.175,0.292-0.407,0.534-0.699,0.727c-0.292,0.193-0.628,0.336-1.008,0.43s-0.778,0.141-1.195,0.141
					C143.075,26.624,142.363,26.465,141.758,26.147z"/>
				<path fill="#3C454F" d="M154.071,16.405c-0.229,0-0.425-0.078-0.586-0.234s-0.242-0.354-0.242-0.594
					c0-0.239,0.081-0.438,0.242-0.598c0.161-0.159,0.356-0.238,0.586-0.238c0.234,0,0.434,0.08,0.598,0.238
					c0.164,0.159,0.246,0.358,0.246,0.598c0,0.229-0.082,0.425-0.246,0.586C154.504,16.325,154.305,16.405,154.071,16.405z
					 M154.696,26.436h-1.281v-8h1.281V26.436z"/>
				<path fill="#3C454F" d="M163.93,26.436h-1.281v-4.563c0-1.698-0.62-2.547-1.859-2.547c-0.641,0-1.171,0.241-1.59,0.723
					c-0.419,0.482-0.629,1.09-0.629,1.824v4.563h-1.281v-8h1.281v1.328h0.031c0.604-1.01,1.479-1.516,2.625-1.516
					c0.875,0,1.544,0.283,2.008,0.848c0.464,0.565,0.695,1.382,0.695,2.449V26.436z"/>
				<path fill="#3C454F" d="M176.453,26.436h-1.281v-1.25h-0.031c-0.558,0.958-1.378,1.438-2.461,1.438
					c-0.797,0-1.421-0.211-1.871-0.633s-0.676-0.981-0.676-1.68c0-1.495,0.88-2.364,2.641-2.609l2.398-0.336
					c0-1.359-0.55-2.039-1.648-2.039c-0.964,0-1.833,0.328-2.609,0.984v-1.313c0.786-0.5,1.692-0.75,2.719-0.75
					c1.88,0,2.82,0.995,2.82,2.984V26.436z M175.172,22.39l-1.93,0.266c-0.594,0.083-1.042,0.23-1.344,0.441
					s-0.453,0.585-0.453,1.121c0,0.391,0.14,0.71,0.418,0.957c0.278,0.248,0.649,0.371,1.113,0.371c0.636,0,1.16-0.223,1.574-0.668
					s0.621-1.009,0.621-1.691V22.39z"/>
				<path fill="#3C454F" d="M180.149,26.436h-1.281V14.593h1.281V26.436z"/>
				<path fill="#3C454F" d="M184.024,26.436h-1.281V14.593h1.281V26.436z"/>
				<path fill="#3C454F" d="M197.367,18.436l-3.68,9.281c-0.656,1.656-1.578,2.484-2.766,2.484c-0.333,0-0.612-0.034-0.836-0.102
					v-1.148c0.276,0.094,0.528,0.141,0.758,0.141c0.646,0,1.13-0.386,1.453-1.156l0.641-1.516l-3.125-7.984h1.422l2.164,6.156
					c0.026,0.078,0.081,0.281,0.164,0.609h0.047c0.026-0.125,0.078-0.323,0.156-0.594l2.273-6.172H197.367z"/>
				<path fill="#3C454F" d="M202.008,26.624c-1.183,0-2.126-0.374-2.832-1.121c-0.706-0.747-1.059-1.738-1.059-2.973
					c0-1.344,0.367-2.393,1.102-3.148c0.734-0.755,1.727-1.133,2.977-1.133c1.192,0,2.124,0.367,2.793,1.102
					s1.004,1.753,1.004,3.055c0,1.276-0.36,2.298-1.082,3.066C204.189,26.24,203.222,26.624,202.008,26.624z M202.102,19.327
					c-0.823,0-1.474,0.28-1.953,0.84c-0.479,0.56-0.719,1.332-0.719,2.316c0,0.948,0.242,1.695,0.727,2.242s1.133,0.82,1.945,0.82
					c0.828,0,1.465-0.268,1.91-0.805c0.445-0.536,0.668-1.299,0.668-2.289c0-1-0.223-1.771-0.668-2.313
					C203.567,19.598,202.93,19.327,202.102,19.327z"/>
				<path fill="#3C454F" d="M214.508,26.436h-1.281v-1.266h-0.031c-0.531,0.969-1.354,1.453-2.469,1.453
					c-1.906,0-2.859-1.135-2.859-3.406v-4.781h1.273v4.578c0,1.688,0.646,2.531,1.938,2.531c0.625,0,1.14-0.23,1.543-0.691
					s0.605-1.063,0.605-1.809v-4.609h1.281V26.436z"/>
				<path fill="#3C454F" d="M221.266,19.733c-0.224-0.172-0.547-0.258-0.969-0.258c-0.547,0-1.004,0.258-1.371,0.773
					s-0.551,1.219-0.551,2.109v4.078h-1.281v-8h1.281v1.648h0.031c0.183-0.563,0.461-1.001,0.836-1.316
					c0.375-0.315,0.794-0.473,1.258-0.473c0.333,0,0.589,0.037,0.766,0.109V19.733z"/>
				<path fill="#3C454F" d="M230.992,15.718c-0.25-0.141-0.534-0.211-0.852-0.211c-0.896,0-1.344,0.565-1.344,1.695v1.234h1.875
					v1.094h-1.875v6.906h-1.273V19.53h-1.367v-1.094h1.367V17.14c0-0.838,0.242-1.501,0.727-1.988
					c0.484-0.487,1.089-0.73,1.813-0.73c0.391,0,0.7,0.047,0.93,0.141V15.718z"/>
				<path fill="#3C454F" d="M237.774,26.436h-1.281v-1.25h-0.031c-0.558,0.958-1.378,1.438-2.461,1.438
					c-0.797,0-1.421-0.211-1.871-0.633s-0.676-0.981-0.676-1.68c0-1.495,0.88-2.364,2.641-2.609l2.398-0.336
					c0-1.359-0.55-2.039-1.648-2.039c-0.964,0-1.833,0.328-2.609,0.984v-1.313c0.786-0.5,1.692-0.75,2.719-0.75
					c1.88,0,2.82,0.995,2.82,2.984V26.436z M236.492,22.39l-1.93,0.266c-0.594,0.083-1.042,0.23-1.344,0.441
					s-0.453,0.585-0.453,1.121c0,0.391,0.14,0.71,0.418,0.957c0.278,0.248,0.649,0.371,1.113,0.371c0.636,0,1.16-0.223,1.574-0.668
					s0.621-1.009,0.621-1.691V22.39z"/>
				<path fill="#3C454F" d="M245.641,26.069c-0.614,0.37-1.344,0.555-2.188,0.555c-1.141,0-2.062-0.371-2.762-1.113
					s-1.051-1.704-1.051-2.887c0-1.317,0.378-2.376,1.133-3.176c0.755-0.799,1.763-1.199,3.023-1.199
					c0.703,0,1.323,0.13,1.859,0.391v1.313c-0.594-0.417-1.229-0.625-1.906-0.625c-0.817,0-1.488,0.293-2.012,0.879
					s-0.785,1.355-0.785,2.309c0,0.938,0.246,1.677,0.738,2.219c0.492,0.542,1.152,0.813,1.98,0.813
					c0.698,0,1.354-0.231,1.969-0.695V26.069z"/>
				<path fill="#3C454F" d="M251.289,26.358c-0.302,0.167-0.7,0.25-1.195,0.25c-1.401,0-2.102-0.781-2.102-2.344V19.53h-1.375
					v-1.094h1.375v-1.953l1.281-0.414v2.367h2.016v1.094h-2.016v4.508c0,0.537,0.091,0.919,0.273,1.148
					c0.183,0.229,0.484,0.344,0.906,0.344c0.323,0,0.602-0.088,0.836-0.266V26.358z"/>
				<path fill="#3C454F" d="M256.219,26.624c-1.183,0-2.126-0.374-2.832-1.121c-0.706-0.747-1.059-1.738-1.059-2.973
					c0-1.344,0.367-2.393,1.102-3.148c0.734-0.755,1.727-1.133,2.977-1.133c1.192,0,2.124,0.367,2.793,1.102
					s1.004,1.753,1.004,3.055c0,1.276-0.36,2.298-1.082,3.066C258.4,26.24,257.433,26.624,256.219,26.624z M256.313,19.327
					c-0.823,0-1.474,0.28-1.953,0.84c-0.479,0.56-0.719,1.332-0.719,2.316c0,0.948,0.242,1.695,0.727,2.242s1.133,0.82,1.945,0.82
					c0.828,0,1.465-0.268,1.91-0.805c0.445-0.536,0.668-1.299,0.668-2.289c0-1-0.223-1.771-0.668-2.313
					C257.778,19.598,257.141,19.327,256.313,19.327z"/>
				<path fill="#3C454F" d="M266.422,19.733c-0.224-0.172-0.547-0.258-0.969-0.258c-0.547,0-1.004,0.258-1.371,0.773
					s-0.551,1.219-0.551,2.109v4.078h-1.281v-8h1.281v1.648h0.031c0.183-0.563,0.461-1.001,0.836-1.316
					c0.375-0.315,0.794-0.473,1.258-0.473c0.333,0,0.589,0.037,0.766,0.109V19.733z"/>
				<path fill="#3C454F" d="M268.469,16.405c-0.229,0-0.425-0.078-0.586-0.234s-0.242-0.354-0.242-0.594
					c0-0.239,0.081-0.438,0.242-0.598c0.161-0.159,0.356-0.238,0.586-0.238c0.234,0,0.434,0.08,0.598,0.238
					c0.164,0.159,0.246,0.358,0.246,0.598c0,0.229-0.082,0.425-0.246,0.586C268.903,16.325,268.703,16.405,268.469,16.405z
					 M269.094,26.436h-1.281v-8h1.281V26.436z"/>
				<path fill="#3C454F" d="M278.117,22.757h-5.648c0.021,0.891,0.261,1.578,0.719,2.063s1.089,0.727,1.891,0.727
					c0.901,0,1.729-0.297,2.484-0.891v1.203c-0.703,0.511-1.633,0.766-2.789,0.766c-1.13,0-2.019-0.363-2.664-1.09
					s-0.969-1.749-0.969-3.066c0-1.245,0.353-2.259,1.059-3.043c0.706-0.784,1.582-1.176,2.629-1.176s1.856,0.339,2.43,1.016
					c0.573,0.677,0.859,1.617,0.859,2.82V22.757z M276.805,21.671c-0.005-0.739-0.184-1.315-0.535-1.727
					c-0.352-0.411-0.84-0.617-1.465-0.617c-0.604,0-1.117,0.216-1.539,0.648c-0.422,0.433-0.683,0.998-0.781,1.695H276.805z"/>
				<path fill="#3C454F" d="M279.571,26.147v-1.375c0.698,0.516,1.466,0.773,2.305,0.773c1.125,0,1.688-0.375,1.688-1.125
					c0-0.213-0.048-0.395-0.145-0.543s-0.227-0.28-0.391-0.395c-0.164-0.114-0.356-0.217-0.578-0.309
					c-0.222-0.091-0.46-0.186-0.715-0.285c-0.354-0.141-0.665-0.282-0.934-0.426c-0.269-0.143-0.492-0.305-0.672-0.484
					s-0.315-0.384-0.406-0.613c-0.091-0.229-0.137-0.497-0.137-0.805c0-0.375,0.086-0.707,0.258-0.996s0.401-0.531,0.688-0.727
					s0.613-0.342,0.98-0.441c0.367-0.099,0.746-0.148,1.137-0.148c0.692,0,1.313,0.12,1.859,0.359v1.297
					c-0.589-0.385-1.266-0.578-2.031-0.578c-0.239,0-0.456,0.027-0.648,0.082s-0.358,0.132-0.496,0.23
					c-0.138,0.099-0.245,0.218-0.32,0.355c-0.075,0.138-0.113,0.291-0.113,0.457c0,0.208,0.038,0.383,0.113,0.523
					s0.187,0.266,0.332,0.375s0.323,0.208,0.531,0.297c0.208,0.089,0.445,0.185,0.711,0.289c0.354,0.136,0.672,0.275,0.953,0.418
					c0.281,0.144,0.521,0.305,0.719,0.484s0.351,0.387,0.457,0.621s0.16,0.513,0.16,0.836c0,0.396-0.087,0.74-0.262,1.031
					c-0.175,0.292-0.407,0.534-0.699,0.727c-0.292,0.193-0.628,0.336-1.008,0.43s-0.778,0.141-1.195,0.141
					C280.888,26.624,280.175,26.465,279.571,26.147z"/>
			</g>
		</g>
		
			<polyline fill-rule="evenodd" clip-rule="evenodd" fill="none" stroke="#8CC541" stroke-width="2" stroke-linecap="round" stroke-linejoin="round" stroke-miterlimit="10" points="
			508.666,286.924 499.209,286.924 360.867,286.924 323.03,286.924 275.734,286.924 233.168,260.557 209,183.705 195.331,257.896 
			155.129,287.924 109.015,287.924 81.851,259.546 77.09,287.924 39.666,287.924 		"/>
		
			<polyline fill-rule="evenodd" clip-rule="evenodd" fill="none" stroke="#F68C1F" stroke-width="2" stroke-linecap="round" stroke-linejoin="round" stroke-miterlimit="10" points="
			39.666,285.924 68.814,285.924 72.361,222.698 75.908,285.924 162.223,285.924 179.153,214.12 205.972,286.924 244.992,286.924 
			310.024,284.771 347.506,224.821 393.974,274.749 508.666,285.309 508.666,285.924 		"/>
		
			<polyline fill-rule="evenodd" clip-rule="evenodd" fill="none" stroke="#E90E8B" stroke-width="2.5224" stroke-linecap="round" stroke-linejoin="round" stroke-miterlimit="10" points="
			40.436,244.952 79.464,230.476 139.169,245.537 157.494,246.297 201.243,283.963 276.917,172.31 320.666,177.691 404.616,137.334 
			461.156,166.855 492.114,140.025 508.668,125.227 		"/>
		<g>
			<g>
				<g>
					<path fill="#8F9CA8" d="M26.503,282.962c0,0.659-0.06,1.242-0.179,1.751s-0.291,0.938-0.516,1.287
						c-0.226,0.349-0.502,0.614-0.829,0.795c-0.327,0.182-0.699,0.271-1.116,0.271c-0.396,0-0.747-0.087-1.057-0.26
						c-0.31-0.174-0.569-0.428-0.782-0.761c-0.212-0.333-0.373-0.741-0.482-1.227c-0.11-0.484-0.165-1.039-0.165-1.665
						c0-0.688,0.058-1.295,0.173-1.822c0.115-0.526,0.284-0.968,0.508-1.325c0.223-0.356,0.5-0.625,0.831-0.807
						c0.331-0.181,0.711-0.271,1.139-0.271C25.678,278.929,26.503,280.273,26.503,282.962z M25.581,283.05
						c0-2.238-0.532-3.358-1.598-3.358c-1.123,0-1.685,1.14-1.685,3.419c0,2.126,0.551,3.188,1.652,3.188
						C25.037,286.299,25.581,285.216,25.581,283.05z"/>
				</g>
			</g>
			<g>
				<g>
					<path fill="#8F9CA8" d="M25.503,100.822h-0.899v-6.799c-0.069,0.069-0.171,0.148-0.305,0.238s-0.283,0.179-0.45,0.267
						c-0.166,0.088-0.342,0.17-0.526,0.247c-0.186,0.076-0.365,0.137-0.541,0.181v-0.911c0.197-0.055,0.407-0.129,0.629-0.222
						c0.221-0.094,0.438-0.198,0.652-0.313s0.416-0.235,0.606-0.361c0.19-0.127,0.355-0.25,0.494-0.371h0.34V100.822z"/>
					<path fill="#8F9CA8" d="M28.813,100.943c-0.168,0-0.312-0.061-0.431-0.182c-0.119-0.12-0.179-0.265-0.179-0.434
						c0-0.168,0.06-0.313,0.179-0.436c0.119-0.123,0.263-0.185,0.431-0.185c0.172,0,0.318,0.062,0.439,0.185
						c0.12,0.122,0.181,0.268,0.181,0.436c0,0.169-0.061,0.313-0.181,0.434C29.131,100.882,28.985,100.943,28.813,100.943z"/>
					<path fill="#8F9CA8" d="M35.634,98.325c0,0.385-0.063,0.737-0.187,1.06c-0.125,0.321-0.297,0.6-0.516,0.834
						c-0.22,0.234-0.481,0.416-0.785,0.546s-0.633,0.194-0.987,0.194c-0.396,0-0.749-0.082-1.063-0.246
						c-0.313-0.165-0.578-0.401-0.796-0.711c-0.217-0.31-0.383-0.687-0.496-1.133s-0.17-0.95-0.17-1.51
						c0-0.684,0.075-1.305,0.228-1.862c0.151-0.559,0.367-1.036,0.647-1.433s0.617-0.703,1.013-0.919
						c0.395-0.216,0.836-0.324,1.322-0.324c0.541,0,0.977,0.075,1.306,0.226v0.851c-0.405-0.209-0.834-0.313-1.284-0.313
						c-0.351,0-0.667,0.079-0.949,0.236c-0.281,0.157-0.522,0.38-0.724,0.667s-0.356,0.634-0.464,1.039
						c-0.108,0.406-0.162,0.858-0.162,1.355h0.021c0.362-0.654,0.961-0.981,1.795-0.981c0.344,0,0.654,0.059,0.93,0.175
						c0.276,0.117,0.513,0.283,0.708,0.497c0.196,0.214,0.347,0.469,0.453,0.766C35.58,97.633,35.634,97.962,35.634,98.325z
						 M34.712,98.44c0-0.274-0.035-0.521-0.104-0.74c-0.069-0.22-0.169-0.406-0.299-0.56c-0.13-0.154-0.29-0.272-0.48-0.354
						s-0.406-0.123-0.647-0.123c-0.223,0-0.43,0.042-0.62,0.126s-0.354,0.198-0.494,0.343c-0.139,0.145-0.247,0.313-0.326,0.505
						s-0.118,0.396-0.118,0.612c0,0.271,0.039,0.523,0.115,0.76c0.077,0.235,0.185,0.441,0.324,0.617
						c0.139,0.176,0.305,0.313,0.496,0.414c0.192,0.101,0.405,0.151,0.64,0.151c0.227,0,0.434-0.043,0.62-0.129
						s0.346-0.206,0.478-0.359c0.132-0.154,0.233-0.338,0.307-0.552S34.712,98.7,34.712,98.44z"/>
				</g>
			</g>
			<g>
				<g>
					<path fill="#8F9CA8" d="M26.503,189.909c0,0.659-0.06,1.242-0.179,1.751s-0.291,0.938-0.516,1.287
						c-0.226,0.349-0.502,0.614-0.829,0.795c-0.327,0.182-0.699,0.271-1.116,0.271c-0.396,0-0.747-0.087-1.057-0.26
						c-0.31-0.174-0.569-0.428-0.782-0.761c-0.212-0.333-0.373-0.741-0.482-1.227c-0.11-0.484-0.165-1.039-0.165-1.665
						c0-0.688,0.058-1.295,0.173-1.822c0.115-0.526,0.284-0.968,0.508-1.325c0.223-0.356,0.5-0.625,0.831-0.807
						c0.331-0.181,0.711-0.271,1.139-0.271C25.678,185.876,26.503,187.221,26.503,189.909z M25.581,189.997
						c0-2.238-0.532-3.358-1.598-3.358c-1.123,0-1.685,1.14-1.685,3.419c0,2.126,0.551,3.188,1.652,3.188
						C25.037,193.246,25.581,192.163,25.581,189.997z"/>
					<path fill="#8F9CA8" d="M28.188,193.998c-0.168,0-0.312-0.061-0.431-0.182c-0.119-0.12-0.179-0.265-0.179-0.434
						c0-0.168,0.06-0.313,0.179-0.436c0.119-0.123,0.263-0.185,0.431-0.185c0.172,0,0.318,0.062,0.439,0.185
						c0.12,0.122,0.181,0.268,0.181,0.436c0,0.169-0.061,0.313-0.181,0.434C28.506,193.937,28.36,193.998,28.188,193.998z"/>
					<path fill="#8F9CA8" d="M29.895,191.682c0-0.208,0.032-0.418,0.099-0.628c0.065-0.21,0.16-0.407,0.282-0.59
						c0.123-0.183,0.274-0.35,0.456-0.5c0.181-0.149,0.387-0.269,0.617-0.356c-0.341-0.189-0.611-0.435-0.813-0.732
						s-0.302-0.628-0.302-0.99c0-0.289,0.056-0.557,0.168-0.802c0.111-0.245,0.266-0.457,0.463-0.636
						c0.198-0.18,0.432-0.319,0.703-0.42c0.271-0.101,0.563-0.151,0.878-0.151c0.318,0,0.612,0.052,0.883,0.154
						c0.271,0.102,0.505,0.243,0.703,0.422c0.197,0.18,0.351,0.392,0.461,0.637c0.109,0.245,0.164,0.511,0.164,0.796
						c0,0.362-0.101,0.692-0.302,0.99s-0.468,0.543-0.801,0.732c0.227,0.088,0.43,0.207,0.608,0.356
						c0.18,0.15,0.331,0.317,0.453,0.5c0.123,0.183,0.217,0.38,0.282,0.59c0.066,0.21,0.1,0.42,0.1,0.628
						c0,0.344-0.063,0.659-0.187,0.944c-0.125,0.285-0.3,0.529-0.524,0.732s-0.494,0.361-0.807,0.475s-0.658,0.17-1.034,0.17
						c-0.373,0-0.716-0.057-1.026-0.17c-0.312-0.113-0.58-0.271-0.807-0.475s-0.403-0.447-0.529-0.732
						C29.957,192.341,29.895,192.025,29.895,191.682z M30.871,191.605c0,0.245,0.037,0.466,0.112,0.664
						c0.075,0.197,0.182,0.365,0.318,0.505c0.138,0.139,0.304,0.246,0.499,0.32c0.196,0.075,0.413,0.112,0.65,0.112
						c0.23,0,0.443-0.038,0.637-0.115c0.194-0.076,0.361-0.185,0.502-0.323s0.251-0.308,0.329-0.505
						c0.079-0.197,0.118-0.417,0.118-0.658c0-0.22-0.037-0.426-0.112-0.618c-0.075-0.191-0.182-0.36-0.321-0.507
						c-0.139-0.146-0.306-0.262-0.499-0.346c-0.194-0.084-0.411-0.127-0.653-0.127c-0.227,0-0.436,0.04-0.628,0.118
						c-0.192,0.079-0.358,0.188-0.499,0.329c-0.142,0.142-0.252,0.31-0.332,0.505C30.911,191.156,30.871,191.371,30.871,191.605z
						 M31.152,187.956c0,0.187,0.033,0.359,0.101,0.519c0.068,0.159,0.161,0.298,0.28,0.417s0.257,0.212,0.414,0.28
						c0.157,0.067,0.326,0.101,0.505,0.101c0.18,0,0.349-0.034,0.508-0.104s0.297-0.164,0.414-0.283
						c0.117-0.118,0.211-0.258,0.28-0.417s0.104-0.33,0.104-0.513c0-0.19-0.034-0.366-0.102-0.527c-0.068-0.16-0.16-0.3-0.277-0.417
						c-0.117-0.116-0.255-0.209-0.414-0.276c-0.159-0.068-0.33-0.102-0.514-0.102c-0.193,0-0.37,0.034-0.529,0.104
						c-0.159,0.07-0.296,0.164-0.411,0.283s-0.204,0.259-0.267,0.42S31.152,187.773,31.152,187.956z"/>
				</g>
			</g>
			<g>
				<g>
					<path fill="#8F9CA8" d="M26.503,236.435c0,0.66-0.06,1.242-0.179,1.752c-0.119,0.508-0.291,0.938-0.516,1.287
						c-0.226,0.348-0.502,0.613-0.829,0.795s-0.699,0.271-1.116,0.271c-0.396,0-0.747-0.088-1.057-0.26
						c-0.31-0.174-0.569-0.428-0.782-0.762c-0.212-0.332-0.373-0.74-0.482-1.227c-0.11-0.484-0.165-1.039-0.165-1.664
						c0-0.688,0.058-1.295,0.173-1.822s0.284-0.969,0.508-1.326c0.223-0.355,0.5-0.625,0.831-0.807
						c0.331-0.18,0.711-0.271,1.139-0.271C25.678,232.402,26.503,233.748,26.503,236.435z M25.581,236.523
						c0-2.238-0.532-3.357-1.598-3.357c-1.123,0-1.685,1.139-1.685,3.418c0,2.127,0.551,3.189,1.652,3.189
						C25.037,239.773,25.581,238.689,25.581,236.523z"/>
					<path fill="#8F9CA8" d="M28.188,240.525c-0.168,0-0.312-0.061-0.431-0.182s-0.179-0.266-0.179-0.434s0.06-0.314,0.179-0.436
						c0.119-0.123,0.263-0.186,0.431-0.186c0.172,0,0.318,0.063,0.439,0.186c0.12,0.121,0.181,0.268,0.181,0.436
						s-0.061,0.313-0.181,0.434C28.506,240.465,28.36,240.525,28.188,240.525z"/>
					<path fill="#8F9CA8" d="M34.065,232.535v5.195h1.01v0.824h-1.01v1.85h-0.889v-1.85h-3.698v-0.779
						c0.344-0.389,0.691-0.803,1.042-1.242c0.352-0.441,0.688-0.889,1.007-1.342c0.32-0.455,0.617-0.906,0.89-1.359
						c0.272-0.451,0.502-0.885,0.688-1.297H34.065z M30.492,237.73h2.684v-3.852c-0.274,0.48-0.534,0.908-0.779,1.285
						s-0.479,0.719-0.699,1.025c-0.222,0.307-0.433,0.586-0.634,0.834S30.672,237.508,30.492,237.73z"/>
				</g>
			</g>
			<g>
				<g>
					<path fill="#8F9CA8" d="M24.878,147.35h-0.899v-6.799c-0.069,0.069-0.171,0.148-0.305,0.238s-0.283,0.179-0.45,0.267
						c-0.166,0.088-0.342,0.17-0.526,0.247c-0.186,0.076-0.365,0.137-0.541,0.181v-0.911c0.197-0.055,0.407-0.129,0.629-0.222
						c0.221-0.094,0.438-0.198,0.652-0.313s0.416-0.235,0.606-0.361c0.19-0.127,0.355-0.25,0.494-0.371h0.34V147.35z"/>
					<path fill="#8F9CA8" d="M28.188,147.471c-0.168,0-0.312-0.061-0.431-0.182c-0.119-0.12-0.179-0.265-0.179-0.434
						c0-0.168,0.06-0.313,0.179-0.436c0.119-0.123,0.263-0.185,0.431-0.185c0.172,0,0.318,0.062,0.439,0.185
						c0.12,0.122,0.181,0.268,0.181,0.436c0,0.169-0.061,0.313-0.181,0.434C28.506,147.41,28.36,147.471,28.188,147.471z"/>
					<path fill="#8F9CA8" d="M33.637,141.544c0-0.241-0.037-0.452-0.112-0.631c-0.075-0.18-0.178-0.329-0.308-0.447
						c-0.13-0.119-0.282-0.208-0.458-0.267s-0.366-0.088-0.57-0.088c-0.176,0-0.348,0.024-0.517,0.071
						c-0.168,0.048-0.332,0.113-0.491,0.198c-0.159,0.084-0.313,0.185-0.461,0.302c-0.147,0.117-0.286,0.247-0.414,0.39v-0.966
						c0.253-0.245,0.535-0.433,0.848-0.563c0.313-0.13,0.694-0.195,1.145-0.195c0.322,0,0.62,0.047,0.895,0.14
						c0.274,0.094,0.512,0.23,0.713,0.409c0.201,0.18,0.359,0.4,0.475,0.664s0.173,0.565,0.173,0.905
						c0,0.312-0.035,0.593-0.106,0.846c-0.071,0.252-0.18,0.49-0.324,0.713c-0.145,0.224-0.326,0.438-0.546,0.643
						c-0.22,0.204-0.478,0.413-0.773,0.625c-0.37,0.264-0.674,0.488-0.914,0.675c-0.239,0.187-0.43,0.361-0.57,0.524
						s-0.239,0.325-0.297,0.488c-0.057,0.163-0.085,0.351-0.085,0.563h3.919v0.807h-4.857v-0.39c0-0.337,0.037-0.633,0.11-0.889
						s0.193-0.5,0.362-0.73c0.168-0.23,0.389-0.461,0.661-0.691s0.606-0.49,1.001-0.779c0.286-0.204,0.524-0.4,0.717-0.587
						c0.191-0.187,0.347-0.373,0.464-0.56c0.116-0.187,0.2-0.376,0.249-0.568C33.613,141.964,33.637,141.76,33.637,141.544z"/>
				</g>
			</g>
			<g>
				<g>
					<path fill="#8F9CA8" d="M26.503,213.172c0,0.66-0.06,1.242-0.179,1.752c-0.119,0.508-0.291,0.938-0.516,1.287
						c-0.226,0.348-0.502,0.613-0.829,0.795s-0.699,0.271-1.116,0.271c-0.396,0-0.747-0.088-1.057-0.26
						c-0.31-0.174-0.569-0.428-0.782-0.762c-0.212-0.332-0.373-0.74-0.482-1.227c-0.11-0.484-0.165-1.039-0.165-1.664
						c0-0.688,0.058-1.295,0.173-1.822s0.284-0.969,0.508-1.326c0.223-0.355,0.5-0.625,0.831-0.807
						c0.331-0.18,0.711-0.271,1.139-0.271C25.678,209.139,26.503,210.484,26.503,213.172z M25.581,213.26
						c0-2.238-0.532-3.357-1.598-3.357c-1.123,0-1.685,1.139-1.685,3.418c0,2.127,0.551,3.189,1.652,3.189
						C25.037,216.51,25.581,215.426,25.581,213.26z"/>
					<path fill="#8F9CA8" d="M28.188,217.262c-0.168,0-0.312-0.061-0.431-0.182s-0.179-0.266-0.179-0.434s0.06-0.314,0.179-0.436
						c0.119-0.123,0.263-0.186,0.431-0.186c0.172,0,0.318,0.063,0.439,0.186c0.12,0.121,0.181,0.268,0.181,0.436
						s-0.061,0.313-0.181,0.434C28.506,217.201,28.36,217.262,28.188,217.262z"/>
					<path fill="#8F9CA8" d="M35.009,214.643c0,0.385-0.063,0.738-0.187,1.061c-0.125,0.32-0.297,0.6-0.516,0.834
						c-0.22,0.234-0.481,0.416-0.785,0.545c-0.304,0.131-0.633,0.195-0.987,0.195c-0.396,0-0.749-0.082-1.063-0.246
						c-0.313-0.166-0.578-0.402-0.796-0.711c-0.217-0.311-0.383-0.688-0.496-1.133c-0.113-0.447-0.17-0.951-0.17-1.51
						c0-0.684,0.075-1.305,0.228-1.863c0.151-0.559,0.367-1.035,0.647-1.432s0.617-0.703,1.013-0.92
						c0.395-0.215,0.836-0.324,1.322-0.324c0.541,0,0.977,0.076,1.306,0.227v0.85c-0.405-0.209-0.834-0.313-1.284-0.313
						c-0.351,0-0.667,0.078-0.949,0.236c-0.281,0.156-0.522,0.379-0.724,0.666s-0.356,0.635-0.464,1.039
						c-0.108,0.406-0.162,0.859-0.162,1.355h0.021c0.362-0.654,0.961-0.98,1.795-0.98c0.344,0,0.654,0.059,0.93,0.174
						c0.276,0.117,0.513,0.283,0.708,0.498c0.196,0.213,0.347,0.469,0.453,0.766C34.955,213.951,35.009,214.281,35.009,214.643z
						 M34.087,214.758c0-0.273-0.035-0.521-0.104-0.74s-0.169-0.406-0.299-0.559c-0.13-0.154-0.29-0.273-0.48-0.355
						s-0.406-0.123-0.647-0.123c-0.223,0-0.43,0.043-0.62,0.127s-0.354,0.197-0.494,0.342c-0.139,0.145-0.247,0.313-0.326,0.506
						c-0.079,0.191-0.118,0.396-0.118,0.611c0,0.271,0.039,0.523,0.115,0.76c0.077,0.236,0.185,0.441,0.324,0.617
						c0.139,0.176,0.305,0.314,0.496,0.414c0.192,0.102,0.405,0.152,0.64,0.152c0.227,0,0.434-0.043,0.62-0.129
						s0.346-0.207,0.478-0.359c0.132-0.154,0.233-0.338,0.307-0.553C34.05,215.256,34.087,215.018,34.087,214.758z"/>
				</g>
			</g>
			<g>
				<g>
					<path fill="#8F9CA8" d="M26.503,259.699c0,0.658-0.06,1.242-0.179,1.75c-0.119,0.51-0.291,0.938-0.516,1.287
						c-0.226,0.35-0.502,0.615-0.829,0.795c-0.327,0.182-0.699,0.271-1.116,0.271c-0.396,0-0.747-0.086-1.057-0.26
						s-0.569-0.428-0.782-0.76c-0.212-0.334-0.373-0.742-0.482-1.227c-0.11-0.484-0.165-1.039-0.165-1.666
						c0-0.688,0.058-1.295,0.173-1.822c0.115-0.525,0.284-0.967,0.508-1.324c0.223-0.357,0.5-0.625,0.831-0.807
						s0.711-0.271,1.139-0.271C25.678,255.666,26.503,257.01,26.503,259.699z M25.581,259.787c0-2.238-0.532-3.359-1.598-3.359
						c-1.123,0-1.685,1.141-1.685,3.42c0,2.125,0.551,3.188,1.652,3.188C25.037,263.035,25.581,261.953,25.581,259.787z"/>
					<path fill="#8F9CA8" d="M28.188,263.787c-0.168,0-0.312-0.061-0.431-0.182c-0.119-0.119-0.179-0.264-0.179-0.434
						c0-0.168,0.06-0.313,0.179-0.436s0.263-0.184,0.431-0.184c0.172,0,0.318,0.061,0.439,0.184c0.12,0.123,0.181,0.268,0.181,0.436
						c0,0.17-0.061,0.314-0.181,0.434C28.506,263.727,28.36,263.787,28.188,263.787z"/>
					<path fill="#8F9CA8" d="M33.637,257.861c0-0.242-0.037-0.453-0.112-0.631c-0.075-0.18-0.178-0.33-0.308-0.447
						c-0.13-0.119-0.282-0.209-0.458-0.268s-0.366-0.088-0.57-0.088c-0.176,0-0.348,0.025-0.517,0.072
						c-0.168,0.047-0.332,0.113-0.491,0.197s-0.313,0.186-0.461,0.303c-0.147,0.117-0.286,0.246-0.414,0.389v-0.965
						c0.253-0.246,0.535-0.434,0.848-0.563c0.313-0.131,0.694-0.195,1.145-0.195c0.322,0,0.62,0.047,0.895,0.139
						c0.274,0.094,0.512,0.23,0.713,0.41s0.359,0.4,0.475,0.664s0.173,0.564,0.173,0.904c0,0.313-0.035,0.594-0.106,0.846
						s-0.18,0.49-0.324,0.713c-0.145,0.225-0.326,0.438-0.546,0.643s-0.478,0.414-0.773,0.625c-0.37,0.264-0.674,0.488-0.914,0.676
						c-0.239,0.186-0.43,0.361-0.57,0.523c-0.141,0.164-0.239,0.326-0.297,0.488c-0.057,0.164-0.085,0.352-0.085,0.563h3.919v0.807
						h-4.857v-0.389c0-0.338,0.037-0.633,0.11-0.889s0.193-0.5,0.362-0.73c0.168-0.23,0.389-0.461,0.661-0.691
						s0.606-0.49,1.001-0.779c0.286-0.205,0.524-0.4,0.717-0.588c0.191-0.186,0.347-0.373,0.464-0.559
						c0.116-0.188,0.2-0.377,0.249-0.568C33.613,258.281,33.637,258.076,33.637,257.861z"/>
				</g>
			</g>
			<g>
				<g>
					<path fill="#8F9CA8" d="M25.503,124.086h-0.899v-6.799c-0.069,0.069-0.171,0.148-0.305,0.238s-0.283,0.179-0.45,0.267
						c-0.166,0.088-0.342,0.17-0.526,0.247c-0.186,0.076-0.365,0.137-0.541,0.181v-0.911c0.197-0.055,0.407-0.129,0.629-0.222
						c0.221-0.094,0.438-0.198,0.652-0.313s0.416-0.235,0.606-0.361c0.19-0.127,0.355-0.25,0.494-0.371h0.34V124.086z"/>
					<path fill="#8F9CA8" d="M28.813,124.207c-0.168,0-0.312-0.061-0.431-0.182c-0.119-0.12-0.179-0.265-0.179-0.434
						c0-0.168,0.06-0.313,0.179-0.436c0.119-0.123,0.263-0.185,0.431-0.185c0.172,0,0.318,0.062,0.439,0.185
						c0.12,0.122,0.181,0.268,0.181,0.436c0,0.169-0.061,0.313-0.181,0.434C29.131,124.146,28.985,124.207,28.813,124.207z"/>
					<path fill="#8F9CA8" d="M34.69,116.217v5.196h1.01v0.823h-1.01v1.85h-0.889v-1.85h-3.698v-0.779
						c0.344-0.388,0.691-0.802,1.042-1.242c0.352-0.441,0.688-0.889,1.007-1.342c0.32-0.454,0.617-0.906,0.89-1.358
						s0.502-0.885,0.688-1.298H34.69z M31.117,121.413h2.684v-3.852c-0.274,0.479-0.534,0.907-0.779,1.284s-0.479,0.719-0.699,1.025
						c-0.222,0.308-0.433,0.586-0.634,0.835C31.488,120.954,31.297,121.19,31.117,121.413z"/>
				</g>
			</g>
			<g>
				<g>
					<path fill="#8F9CA8" d="M25.503,77.559h-0.899V70.76c-0.069,0.069-0.171,0.148-0.305,0.238s-0.283,0.179-0.45,0.267
						c-0.166,0.088-0.342,0.17-0.526,0.247c-0.186,0.076-0.365,0.137-0.541,0.181v-0.911c0.197-0.055,0.407-0.129,0.629-0.222
						c0.221-0.094,0.438-0.198,0.652-0.313s0.416-0.235,0.606-0.361c0.19-0.127,0.355-0.25,0.494-0.371h0.34V77.559z"/>
					<path fill="#8F9CA8" d="M28.813,77.68c-0.168,0-0.312-0.061-0.431-0.182c-0.119-0.12-0.179-0.265-0.179-0.434
						c0-0.168,0.06-0.313,0.179-0.436c0.119-0.123,0.263-0.185,0.431-0.185c0.172,0,0.318,0.062,0.439,0.185
						c0.12,0.122,0.181,0.268,0.181,0.436c0,0.169-0.061,0.313-0.181,0.434C29.131,77.62,28.985,77.68,28.813,77.68z"/>
					<path fill="#8F9CA8" d="M30.52,75.364c0-0.208,0.032-0.418,0.099-0.628c0.065-0.21,0.16-0.407,0.282-0.59
						c0.123-0.183,0.274-0.35,0.456-0.5c0.181-0.149,0.387-0.269,0.617-0.356c-0.341-0.189-0.611-0.435-0.813-0.732
						s-0.302-0.628-0.302-0.99c0-0.289,0.056-0.557,0.168-0.802c0.111-0.245,0.266-0.457,0.463-0.636
						c0.198-0.18,0.432-0.319,0.703-0.42c0.271-0.101,0.563-0.151,0.878-0.151c0.318,0,0.612,0.052,0.883,0.154
						c0.271,0.102,0.505,0.243,0.703,0.422c0.197,0.18,0.351,0.392,0.461,0.637c0.109,0.245,0.164,0.511,0.164,0.796
						c0,0.362-0.101,0.692-0.302,0.99s-0.468,0.543-0.801,0.732c0.227,0.088,0.43,0.207,0.608,0.356
						c0.18,0.15,0.331,0.317,0.453,0.5c0.123,0.183,0.217,0.38,0.282,0.59c0.066,0.21,0.1,0.42,0.1,0.628
						c0,0.344-0.063,0.659-0.187,0.944c-0.125,0.285-0.3,0.529-0.524,0.732s-0.494,0.361-0.807,0.475s-0.658,0.17-1.034,0.17
						c-0.373,0-0.716-0.057-1.026-0.17c-0.312-0.113-0.58-0.271-0.807-0.475s-0.403-0.447-0.529-0.732
						C30.582,76.023,30.52,75.707,30.52,75.364z M31.496,75.288c0,0.245,0.037,0.466,0.112,0.664
						c0.075,0.197,0.182,0.365,0.318,0.505c0.138,0.139,0.304,0.246,0.499,0.32c0.196,0.075,0.413,0.112,0.65,0.112
						c0.23,0,0.443-0.038,0.637-0.115c0.194-0.076,0.361-0.185,0.502-0.323s0.251-0.308,0.329-0.505
						c0.079-0.197,0.118-0.417,0.118-0.658c0-0.22-0.037-0.426-0.112-0.618c-0.075-0.191-0.182-0.36-0.321-0.507
						c-0.139-0.146-0.306-0.262-0.499-0.346c-0.194-0.084-0.411-0.127-0.653-0.127c-0.227,0-0.436,0.04-0.628,0.118
						c-0.192,0.079-0.358,0.188-0.499,0.329c-0.142,0.142-0.252,0.31-0.332,0.505C31.536,74.838,31.496,75.053,31.496,75.288z
						 M31.777,71.638c0,0.187,0.033,0.359,0.101,0.519c0.068,0.159,0.161,0.298,0.28,0.417s0.257,0.212,0.414,0.28
						c0.157,0.067,0.326,0.101,0.505,0.101c0.18,0,0.349-0.034,0.508-0.104s0.297-0.164,0.414-0.283
						c0.117-0.118,0.211-0.258,0.28-0.417s0.104-0.33,0.104-0.513c0-0.19-0.034-0.366-0.102-0.527c-0.068-0.16-0.16-0.3-0.277-0.417
						c-0.117-0.116-0.255-0.209-0.414-0.276c-0.159-0.068-0.33-0.102-0.514-0.102c-0.193,0-0.37,0.034-0.529,0.104
						c-0.159,0.07-0.296,0.164-0.411,0.283s-0.204,0.259-0.267,0.42S31.777,71.456,31.777,71.638z"/>
					<path fill="#8F9CA8" d="M42.591,77.559h-1.284l-3.04-3.6c-0.113-0.136-0.183-0.227-0.208-0.274h-0.022v3.874h-0.922V69.69
						h0.922v3.698h0.022c0.051-0.08,0.121-0.17,0.208-0.269l2.941-3.43h1.147l-3.375,3.775L42.591,77.559z"/>
				</g>
			</g>
			<g>
				<g>
					<path fill="#8F9CA8" d="M24.878,170.613h-0.899v-6.799c-0.069,0.069-0.171,0.148-0.305,0.238s-0.283,0.179-0.45,0.267
						c-0.166,0.088-0.342,0.17-0.526,0.247c-0.186,0.076-0.365,0.137-0.541,0.181v-0.911c0.197-0.055,0.407-0.129,0.629-0.222
						c0.221-0.094,0.438-0.198,0.652-0.313s0.416-0.235,0.606-0.361c0.19-0.127,0.355-0.25,0.494-0.371h0.34V170.613z"/>
					<path fill="#8F9CA8" d="M33.472,170.613h-1.284l-3.04-3.6c-0.113-0.136-0.183-0.227-0.208-0.274h-0.022v3.874h-0.922v-7.869
						h0.922v3.698h0.022c0.051-0.08,0.121-0.17,0.208-0.269l2.941-3.43h1.147l-3.375,3.775L33.472,170.613z"/>
				</g>
			</g>
		</g>
		
			<line fill="none" stroke="#989898" stroke-width="1.1238" stroke-miterlimit="10" x1="19.498" y1="204.375" x2="508.668" y2="204.375"/>
		
			<line fill="none" stroke="#989898" stroke-width="1.1238" stroke-miterlimit="10" x1="18.331" y1="250.228" x2="508.668" y2="250.228"/>
		<g id="Rectangle_109_">
			
				<rect x="18.331" y="296.877" fill="none" stroke="#989898" stroke-width="1.1238" stroke-miterlimit="10" width="489.996" height="1.124"/>
		</g>
		<g>
			<path fill="#3F3F3F" d="M250.57,338.291h-3.643v-7.002h3.489v0.742h-2.684v2.329h2.482v0.737h-2.482v2.451h2.837V338.291z"/>
			<path fill="#3F3F3F" d="M256.82,338.291h-0.959l-1.149-1.963c-0.105-0.182-0.209-0.338-0.307-0.466
				c-0.1-0.129-0.201-0.233-0.305-0.315c-0.104-0.081-0.216-0.141-0.336-0.178c-0.119-0.038-0.255-0.057-0.404-0.057h-0.662v2.979
				h-0.805v-7.002h2.051c0.301,0,0.578,0.038,0.832,0.115c0.254,0.076,0.475,0.192,0.661,0.349s0.333,0.351,0.438,0.584
				c0.105,0.232,0.158,0.505,0.158,0.817c0,0.244-0.036,0.468-0.107,0.672c-0.072,0.203-0.175,0.385-0.307,0.544
				c-0.133,0.16-0.293,0.296-0.48,0.408c-0.187,0.112-0.396,0.199-0.629,0.261v0.02c0.114,0.053,0.215,0.111,0.299,0.179
				c0.084,0.066,0.166,0.146,0.242,0.236c0.076,0.092,0.152,0.194,0.228,0.311c0.075,0.115,0.159,0.25,0.251,0.402L256.82,338.291z
				 M252.698,332.031v2.539h1.093c0.201,0,0.388-0.03,0.559-0.093c0.171-0.062,0.318-0.15,0.443-0.266
				c0.124-0.116,0.222-0.258,0.292-0.425c0.07-0.168,0.105-0.355,0.105-0.564c0-0.374-0.119-0.666-0.357-0.876
				s-0.582-0.315-1.032-0.315H252.698z"/>
			<path fill="#3F3F3F" d="M262.691,338.291h-0.959l-1.149-1.963c-0.105-0.182-0.209-0.338-0.307-0.466
				c-0.1-0.129-0.201-0.233-0.305-0.315c-0.104-0.081-0.216-0.141-0.336-0.178c-0.119-0.038-0.255-0.057-0.404-0.057h-0.662v2.979
				h-0.805v-7.002h2.051c0.301,0,0.578,0.038,0.832,0.115c0.254,0.076,0.475,0.192,0.661,0.349s0.333,0.351,0.438,0.584
				c0.105,0.232,0.158,0.505,0.158,0.817c0,0.244-0.036,0.468-0.107,0.672c-0.072,0.203-0.175,0.385-0.307,0.544
				c-0.133,0.16-0.293,0.296-0.48,0.408c-0.187,0.112-0.396,0.199-0.629,0.261v0.02c0.114,0.053,0.215,0.111,0.299,0.179
				c0.084,0.066,0.166,0.146,0.242,0.236c0.076,0.092,0.152,0.194,0.228,0.311c0.075,0.115,0.159,0.25,0.251,0.402L262.691,338.291z
				 M258.569,332.031v2.539h1.093c0.201,0,0.388-0.03,0.559-0.093c0.171-0.062,0.318-0.15,0.443-0.266
				c0.124-0.116,0.222-0.258,0.292-0.425c0.07-0.168,0.105-0.355,0.105-0.564c0-0.374-0.119-0.666-0.357-0.876
				s-0.582-0.315-1.032-0.315H258.569z"/>
			<path fill="#3F3F3F" d="M266.405,338.408c-0.975,0-1.756-0.327-2.342-0.981s-0.879-1.505-0.879-2.554
				c0-1.126,0.299-2.024,0.896-2.695c0.598-0.67,1.41-1.006,2.439-1.006c0.949,0,1.713,0.326,2.293,0.977
				c0.58,0.651,0.869,1.503,0.869,2.554c0,1.143-0.297,2.046-0.891,2.71S267.401,338.408,266.405,338.408z M266.461,331.914
				c-0.722,0-1.308,0.266-1.758,0.796c-0.451,0.531-0.676,1.228-0.676,2.09c0,0.863,0.219,1.557,0.658,2.083
				c0.439,0.525,1.012,0.788,1.719,0.788c0.754,0,1.348-0.25,1.783-0.752c0.434-0.501,0.651-1.202,0.651-2.104
				c0-0.924-0.211-1.639-0.633-2.144C267.784,332.167,267.203,331.914,266.461,331.914z"/>
			<path fill="#3F3F3F" d="M275.961,338.291h-0.959l-1.15-1.963c-0.105-0.182-0.207-0.338-0.307-0.466
				c-0.099-0.129-0.2-0.233-0.305-0.315c-0.104-0.081-0.215-0.141-0.335-0.178c-0.12-0.038-0.255-0.057-0.405-0.057h-0.661v2.979
				h-0.806v-7.002h2.052c0.3,0,0.577,0.038,0.831,0.115c0.254,0.076,0.475,0.192,0.662,0.349s0.333,0.351,0.438,0.584
				c0.105,0.232,0.158,0.505,0.158,0.817c0,0.244-0.036,0.468-0.108,0.672c-0.071,0.203-0.174,0.385-0.307,0.544
				c-0.133,0.16-0.292,0.296-0.479,0.408c-0.188,0.112-0.397,0.199-0.631,0.261v0.02c0.115,0.053,0.215,0.111,0.3,0.179
				c0.085,0.066,0.165,0.146,0.242,0.236c0.077,0.092,0.152,0.194,0.228,0.311c0.075,0.115,0.158,0.25,0.252,0.402L275.961,338.291z
				 M271.839,332.031v2.539h1.093c0.201,0,0.388-0.03,0.559-0.093c0.171-0.062,0.318-0.15,0.443-0.266
				c0.125-0.116,0.222-0.258,0.292-0.425c0.07-0.168,0.105-0.355,0.105-0.564c0-0.374-0.119-0.666-0.356-0.876
				c-0.238-0.21-0.583-0.315-1.033-0.315H271.839z"/>
		</g>
		<g>
			<path fill="#3F3F3F" d="M255.597,346.349v30.78h-4.871v-24.817c-0.881,0.63-1.83,1.165-2.845,1.606
				c-1.015,0.44-2.173,0.829-3.475,1.165v-4.157c0.812-0.266,1.596-0.546,2.352-0.84s1.501-0.623,2.236-0.986
				c0.734-0.364,1.477-0.771,2.226-1.219c0.748-0.447,1.521-0.958,2.32-1.532H255.597z"/>
			<path fill="#3F3F3F" d="M280.94,377.129h-18.896v-2.33c0-0.952,0.133-1.845,0.399-2.678c0.266-0.832,0.622-1.616,1.07-2.352
				c0.448-0.734,0.973-1.428,1.574-2.078c0.603-0.651,1.246-1.281,1.932-1.89c0.687-0.609,1.387-1.197,2.1-1.764
				c0.715-0.567,1.414-1.138,2.1-1.712c0.645-0.545,1.232-1.081,1.764-1.605c0.532-0.525,0.987-1.067,1.365-1.627
				c0.378-0.561,0.672-1.151,0.882-1.774s0.315-1.299,0.315-2.026c0-0.798-0.123-1.494-0.368-2.089s-0.588-1.092-1.028-1.491
				c-0.441-0.398-0.963-0.699-1.564-0.902s-1.26-0.305-1.974-0.305c-1.231,0-2.484,0.287-3.759,0.861
				c-1.273,0.573-2.498,1.435-3.674,2.582v-4.682c0.616-0.463,1.238-0.864,1.869-1.208c0.629-0.343,1.28-0.63,1.952-0.86
				c0.672-0.231,1.379-0.402,2.12-0.515c0.742-0.112,1.533-0.168,2.373-0.168c1.357,0,2.59,0.179,3.695,0.535
				c1.105,0.357,2.051,0.882,2.834,1.575c0.784,0.692,1.39,1.557,1.816,2.593s0.641,2.226,0.641,3.569
				c0,1.218-0.15,2.313-0.451,3.286c-0.302,0.973-0.729,1.879-1.281,2.719s-1.221,1.638-2.005,2.394s-1.659,1.533-2.624,2.33
				c-0.813,0.658-1.621,1.299-2.426,1.922s-1.529,1.231-2.173,1.826c-0.644,0.596-1.165,1.19-1.564,1.785
				c-0.398,0.595-0.599,1.193-0.599,1.795v0.105h13.585V377.129z"/>
			<path fill="#3F3F3F" d="M295.47,377.633c-3.136,0-5.582-1.281-7.339-3.842c-1.757-2.563-2.635-6.265-2.635-11.107
				c0-5.319,0.917-9.344,2.751-12.072c1.833-2.73,4.479-4.095,7.936-4.095c6.621,0,9.932,5.144,9.932,15.433
				c0,5.095-0.935,8.982-2.803,11.663C301.443,376.293,298.829,377.633,295.47,377.633z M295.952,350.4
				c-3.653,0-5.48,4.024-5.48,12.073c0,7.53,1.792,11.296,5.375,11.296c3.527,0,5.291-3.828,5.291-11.484
				C301.138,354.362,299.409,350.4,295.952,350.4z"/>
		</g>
		<rect x="17" y="331.292" fill="#8CC541" width="5" height="46"/>
		<g>
			<path fill="#3F3F3F" d="M30.253,376.413v-4.682c1.975,1.33,3.976,1.994,6.006,1.994c2.043,0,3.688-0.521,4.934-1.563
				s1.869-2.433,1.869-4.168c0-1.708-0.634-3.037-1.9-3.989c-1.268-0.952-3.083-1.428-5.449-1.428c-0.812,0-2.456,0.084-4.934,0.252
				l1.07-15.831h14.824v4.157H35.902l-0.504,7.537c0.966-0.056,1.841-0.084,2.625-0.084c3.191,0,5.658,0.819,7.4,2.457
				c1.743,1.638,2.614,3.877,2.614,6.719c0,2.981-0.997,5.372-2.992,7.17c-1.994,1.799-4.734,2.698-8.22,2.698
				C33.886,377.652,31.696,377.239,30.253,376.413z"/>
			<path fill="#3F3F3F" d="M73.234,367.427c0,1.512-0.249,2.891-0.746,4.137s-1.186,2.32-2.068,3.223
				c-0.881,0.903-1.928,1.604-3.139,2.1c-1.211,0.497-2.522,0.746-3.937,0.746c-1.512,0-2.901-0.295-4.168-0.883
				s-2.358-1.462-3.275-2.624s-1.627-2.606-2.131-4.336c-0.504-1.729-0.756-3.733-0.756-6.015c0-2.786,0.332-5.257,0.997-7.412
				s1.578-3.961,2.74-5.417s2.526-2.562,4.094-3.317c1.568-0.756,3.262-1.134,5.082-1.134c1.133,0,2.165,0.077,3.097,0.231
				c0.931,0.153,1.676,0.363,2.235,0.629v4.389c-0.713-0.364-1.477-0.672-2.288-0.924s-1.743-0.378-2.792-0.378
				c-1.176,0-2.261,0.238-3.255,0.714s-1.852,1.173-2.572,2.089c-0.721,0.917-1.288,2.051-1.7,3.401
				c-0.413,1.352-0.627,2.908-0.641,4.672h0.126c0.644-0.994,1.515-1.777,2.614-2.352c1.099-0.574,2.39-0.861,3.873-0.861
				c1.316,0,2.502,0.214,3.56,0.641c1.057,0.428,1.959,1.043,2.708,1.848c0.749,0.806,1.326,1.785,1.732,2.939
				C73.031,364.687,73.234,365.985,73.234,367.427z M68.32,367.826c0-0.868-0.102-1.659-0.304-2.372
				c-0.203-0.715-0.512-1.326-0.924-1.838c-0.413-0.511-0.932-0.906-1.554-1.186c-0.623-0.28-1.354-0.42-2.194-0.42
				s-1.578,0.15-2.215,0.451c-0.638,0.301-1.173,0.696-1.606,1.186c-0.434,0.49-0.76,1.051-0.977,1.68
				c-0.217,0.631-0.325,1.274-0.325,1.932c0,0.715,0.102,1.446,0.305,2.194c0.202,0.749,0.515,1.432,0.935,2.048
				c0.42,0.615,0.955,1.123,1.605,1.521c0.651,0.399,1.425,0.599,2.32,0.599c0.798,0,1.505-0.147,2.121-0.44
				c0.615-0.295,1.13-0.7,1.543-1.219c0.412-0.518,0.728-1.13,0.944-1.837C68.211,369.419,68.32,368.652,68.32,367.826z"/>
			<path fill="#3F3F3F" d="M96.454,349.434c-1.26,2.31-2.449,4.595-3.569,6.855s-2.135,4.531-3.044,6.813
				c-0.91,2.281-1.701,4.58-2.373,6.896c-0.672,2.317-1.189,4.686-1.554,7.107h-5.103c0.336-2.155,0.815-4.308,1.438-6.456
				s1.354-4.297,2.194-6.446c0.84-2.148,1.781-4.308,2.824-6.477c1.042-2.17,2.152-4.36,3.328-6.572H76.34v-4.157h20.114V349.434z"
				/>
		</g>
		<g>
			<path fill="#3F3F3F" d="M28.59,338.009v-0.967c0.11,0.098,0.243,0.186,0.397,0.264c0.155,0.078,0.318,0.145,0.488,0.197
				c0.172,0.055,0.343,0.096,0.516,0.125s0.332,0.044,0.479,0.044c0.505,0,0.881-0.094,1.131-0.28
				c0.248-0.188,0.373-0.457,0.373-0.809c0-0.188-0.041-0.354-0.125-0.493c-0.082-0.14-0.197-0.268-0.344-0.384
				c-0.146-0.115-0.32-0.226-0.52-0.332c-0.201-0.105-0.416-0.217-0.647-0.334c-0.244-0.124-0.472-0.249-0.684-0.376
				s-0.396-0.267-0.552-0.42s-0.279-0.326-0.369-0.521c-0.089-0.193-0.134-0.42-0.134-0.681c0-0.319,0.07-0.597,0.21-0.833
				c0.14-0.235,0.324-0.43,0.552-0.583s0.487-0.267,0.778-0.342c0.292-0.075,0.589-0.112,0.892-0.112
				c0.69,0,1.193,0.083,1.509,0.249v0.923c-0.413-0.286-0.944-0.43-1.592-0.43c-0.179,0-0.358,0.019-0.537,0.057
				c-0.179,0.037-0.339,0.098-0.479,0.183s-0.254,0.193-0.342,0.327s-0.132,0.296-0.132,0.488c0,0.179,0.033,0.334,0.101,0.464
				c0.066,0.13,0.165,0.249,0.295,0.356s0.289,0.212,0.477,0.313c0.187,0.101,0.402,0.212,0.646,0.332
				c0.251,0.124,0.488,0.254,0.713,0.391s0.422,0.288,0.591,0.454s0.304,0.35,0.403,0.552c0.099,0.202,0.148,0.433,0.148,0.693
				c0,0.345-0.067,0.637-0.203,0.877c-0.135,0.238-0.316,0.434-0.547,0.583c-0.229,0.149-0.493,0.258-0.793,0.325
				c-0.3,0.066-0.615,0.1-0.947,0.1c-0.11,0-0.247-0.009-0.41-0.027c-0.163-0.018-0.329-0.043-0.498-0.078
				c-0.169-0.033-0.33-0.076-0.48-0.127C28.802,338.127,28.681,338.07,28.59,338.009z"/>
			<path fill="#3F3F3F" d="M39.352,335.46c0,1.966-0.887,2.949-2.661,2.949c-1.699,0-2.549-0.945-2.549-2.837v-4.282h0.82v4.229
				c0,1.436,0.605,2.153,1.816,2.153c1.169,0,1.753-0.693,1.753-2.08v-4.302h0.82V335.46z"/>
			<path fill="#3F3F3F" d="M45.865,337.999c-0.518,0.273-1.162,0.41-1.934,0.41c-0.996,0-1.794-0.32-2.393-0.962
				s-0.898-1.482-0.898-2.524c0-1.12,0.337-2.024,1.011-2.715s1.528-1.035,2.563-1.035c0.664,0,1.214,0.096,1.65,0.288v0.874
				c-0.501-0.28-1.055-0.42-1.66-0.42c-0.804,0-1.456,0.269-1.955,0.806c-0.5,0.537-0.75,1.255-0.75,2.153
				c0,0.853,0.233,1.532,0.701,2.039c0.467,0.506,1.079,0.759,1.838,0.759c0.703,0,1.312-0.156,1.826-0.469V337.999z"/>
			<path fill="#3F3F3F" d="M52.057,337.999c-0.518,0.273-1.162,0.41-1.934,0.41c-0.996,0-1.794-0.32-2.393-0.962
				s-0.898-1.482-0.898-2.524c0-1.12,0.337-2.024,1.011-2.715s1.528-1.035,2.563-1.035c0.664,0,1.214,0.096,1.65,0.288v0.874
				c-0.501-0.28-1.055-0.42-1.66-0.42c-0.804,0-1.456,0.269-1.955,0.806c-0.5,0.537-0.75,1.255-0.75,2.153
				c0,0.853,0.233,1.532,0.701,2.039c0.467,0.506,1.079,0.759,1.838,0.759c0.703,0,1.312-0.156,1.826-0.469V337.999z"/>
			<path fill="#3F3F3F" d="M57.194,338.292h-3.711v-7.002h3.555v0.742h-2.734v2.329h2.529v0.737h-2.529v2.451h2.891V338.292z"/>
			<path fill="#3F3F3F" d="M58.214,338.009v-0.967c0.11,0.098,0.243,0.186,0.397,0.264c0.155,0.078,0.318,0.145,0.488,0.197
				c0.172,0.055,0.343,0.096,0.516,0.125s0.332,0.044,0.479,0.044c0.505,0,0.881-0.094,1.131-0.28
				c0.248-0.188,0.373-0.457,0.373-0.809c0-0.188-0.041-0.354-0.125-0.493c-0.082-0.14-0.197-0.268-0.344-0.384
				c-0.146-0.115-0.32-0.226-0.52-0.332c-0.201-0.105-0.416-0.217-0.647-0.334c-0.244-0.124-0.472-0.249-0.684-0.376
				s-0.396-0.267-0.552-0.42s-0.279-0.326-0.369-0.521c-0.089-0.193-0.134-0.42-0.134-0.681c0-0.319,0.07-0.597,0.21-0.833
				c0.14-0.235,0.324-0.43,0.552-0.583s0.487-0.267,0.778-0.342c0.292-0.075,0.589-0.112,0.892-0.112
				c0.69,0,1.193,0.083,1.509,0.249v0.923c-0.413-0.286-0.944-0.43-1.592-0.43c-0.179,0-0.358,0.019-0.537,0.057
				c-0.179,0.037-0.339,0.098-0.479,0.183s-0.254,0.193-0.342,0.327s-0.132,0.296-0.132,0.488c0,0.179,0.033,0.334,0.101,0.464
				c0.066,0.13,0.165,0.249,0.295,0.356s0.289,0.212,0.477,0.313c0.187,0.101,0.402,0.212,0.646,0.332
				c0.251,0.124,0.488,0.254,0.713,0.391s0.422,0.288,0.591,0.454s0.304,0.35,0.403,0.552c0.099,0.202,0.148,0.433,0.148,0.693
				c0,0.345-0.067,0.637-0.203,0.877c-0.135,0.238-0.316,0.434-0.547,0.583c-0.229,0.149-0.493,0.258-0.793,0.325
				c-0.3,0.066-0.615,0.1-0.947,0.1c-0.11,0-0.247-0.009-0.41-0.027c-0.163-0.018-0.329-0.043-0.498-0.078
				c-0.169-0.033-0.33-0.076-0.48-0.127C58.426,338.127,58.305,338.07,58.214,338.009z"/>
			<path fill="#3F3F3F" d="M63.527,338.009v-0.967c0.11,0.098,0.243,0.186,0.397,0.264c0.155,0.078,0.318,0.145,0.488,0.197
				c0.172,0.055,0.343,0.096,0.516,0.125s0.332,0.044,0.479,0.044c0.505,0,0.881-0.094,1.131-0.28
				c0.248-0.188,0.373-0.457,0.373-0.809c0-0.188-0.041-0.354-0.125-0.493c-0.082-0.14-0.197-0.268-0.344-0.384
				c-0.146-0.115-0.32-0.226-0.52-0.332c-0.201-0.105-0.416-0.217-0.647-0.334c-0.244-0.124-0.472-0.249-0.684-0.376
				s-0.396-0.267-0.552-0.42s-0.279-0.326-0.369-0.521c-0.089-0.193-0.134-0.42-0.134-0.681c0-0.319,0.07-0.597,0.21-0.833
				c0.14-0.235,0.324-0.43,0.552-0.583s0.487-0.267,0.778-0.342c0.292-0.075,0.589-0.112,0.892-0.112
				c0.69,0,1.193,0.083,1.509,0.249v0.923c-0.413-0.286-0.944-0.43-1.592-0.43c-0.179,0-0.358,0.019-0.537,0.057
				c-0.179,0.037-0.339,0.098-0.479,0.183s-0.254,0.193-0.342,0.327s-0.132,0.296-0.132,0.488c0,0.179,0.033,0.334,0.101,0.464
				c0.066,0.13,0.165,0.249,0.295,0.356s0.289,0.212,0.477,0.313c0.187,0.101,0.402,0.212,0.646,0.332
				c0.251,0.124,0.488,0.254,0.713,0.391s0.422,0.288,0.591,0.454s0.304,0.35,0.403,0.552c0.099,0.202,0.148,0.433,0.148,0.693
				c0,0.345-0.067,0.637-0.203,0.877c-0.135,0.238-0.316,0.434-0.547,0.583c-0.229,0.149-0.493,0.258-0.793,0.325
				c-0.3,0.066-0.615,0.1-0.947,0.1c-0.11,0-0.247-0.009-0.41-0.027c-0.163-0.018-0.329-0.043-0.498-0.078
				c-0.169-0.033-0.33-0.076-0.48-0.127C63.739,338.127,63.617,338.07,63.527,338.009z"/>
			<path fill="#3F3F3F" d="M72.721,332.032h-2.734v2.422h2.529v0.737h-2.529v3.101h-0.82v-7.002h3.555V332.032z"/>
			<path fill="#3F3F3F" d="M79.171,335.46c0,1.966-0.887,2.949-2.661,2.949c-1.699,0-2.549-0.945-2.549-2.837v-4.282h0.82v4.229
				c0,1.436,0.605,2.153,1.816,2.153c1.169,0,1.753-0.693,1.753-2.08v-4.302h0.82V335.46z"/>
			<path fill="#3F3F3F" d="M84.552,338.292h-3.633v-7.002h0.82v6.26h2.813V338.292z"/>
			<path fill="#3F3F3F" d="M89.259,338.292h-3.633v-7.002h0.82v6.26h2.813V338.292z"/>
		</g>
		<g>
			<path fill="#3F3F3F" d="M145.389,331.289l-1.94,7.002h-0.944l-1.414-5.117c-0.061-0.218-0.098-0.455-0.11-0.713h-0.019
				c-0.02,0.241-0.061,0.476-0.125,0.703l-1.423,5.127h-0.935l-2.014-7.002h0.887l1.462,5.371c0.061,0.225,0.099,0.459,0.115,0.703
				h0.023c0.017-0.172,0.065-0.406,0.149-0.703l1.519-5.371h0.771l1.457,5.41c0.052,0.186,0.09,0.404,0.115,0.654h0.02
				c0.013-0.169,0.056-0.394,0.129-0.674l1.404-5.391H145.389z"/>
			<path fill="#3F3F3F" d="M151.73,338.291h-0.891l-0.729-1.963h-2.914l-0.686,1.963h-0.896l2.636-7.002h0.834L151.73,338.291z
				 M149.847,335.591l-1.079-2.983c-0.035-0.098-0.07-0.254-0.104-0.469h-0.02c-0.032,0.199-0.069,0.355-0.11,0.469l-1.068,2.983
				H149.847z"/>
			<path fill="#3F3F3F" d="M157.668,338.291h-0.959l-1.149-1.963c-0.105-0.182-0.208-0.338-0.307-0.466
				c-0.1-0.129-0.201-0.233-0.305-0.315c-0.104-0.081-0.216-0.141-0.336-0.178c-0.119-0.038-0.255-0.057-0.404-0.057h-0.662v2.979
				h-0.805v-7.002h2.051c0.301,0,0.578,0.038,0.832,0.115c0.254,0.076,0.475,0.192,0.661,0.349c0.188,0.156,0.333,0.351,0.438,0.584
				c0.105,0.232,0.158,0.505,0.158,0.817c0,0.244-0.036,0.468-0.107,0.672c-0.072,0.203-0.175,0.385-0.307,0.544
				c-0.133,0.16-0.293,0.296-0.479,0.408c-0.188,0.112-0.397,0.199-0.63,0.261v0.02c0.114,0.053,0.215,0.111,0.299,0.179
				c0.085,0.066,0.166,0.146,0.242,0.236c0.077,0.092,0.152,0.194,0.228,0.311c0.075,0.115,0.159,0.25,0.252,0.402L157.668,338.291z
				 M153.546,332.031v2.539h1.093c0.201,0,0.388-0.03,0.559-0.093c0.171-0.062,0.318-0.15,0.443-0.266
				c0.125-0.116,0.222-0.258,0.292-0.425c0.07-0.168,0.105-0.355,0.105-0.564c0-0.374-0.119-0.666-0.356-0.876
				c-0.238-0.21-0.583-0.315-1.033-0.315H153.546z"/>
			<path fill="#3F3F3F" d="M164.153,338.291h-0.987l-3.537-5.581c-0.089-0.14-0.163-0.286-0.22-0.439h-0.029
				c0.025,0.15,0.038,0.471,0.038,0.962v5.059h-0.805v-7.002h1.045l3.441,5.493c0.144,0.229,0.236,0.385,0.277,0.469h0.02
				c-0.032-0.201-0.048-0.545-0.048-1.03v-4.932h0.805V338.291z"/>
			<path fill="#3F3F3F" d="M166.76,338.291h-0.806v-7.002h0.806V338.291z"/>
			<path fill="#3F3F3F" d="M174.107,338.291h-0.987l-3.537-5.581c-0.089-0.14-0.163-0.286-0.22-0.439h-0.029
				c0.025,0.15,0.038,0.471,0.038,0.962v5.059h-0.805v-7.002h1.045l3.441,5.493c0.144,0.229,0.236,0.385,0.277,0.469h0.02
				c-0.032-0.201-0.048-0.545-0.048-1.03v-4.932h0.805V338.291z"/>
			<path fill="#3F3F3F" d="M181.047,337.812c-0.69,0.397-1.457,0.596-2.301,0.596c-0.98,0-1.773-0.322-2.379-0.967
				s-0.908-1.497-0.908-2.559c0-1.084,0.336-1.974,1.009-2.668c0.672-0.695,1.524-1.043,2.557-1.043
				c0.748,0,1.375,0.124,1.884,0.371v0.908c-0.557-0.357-1.215-0.537-1.975-0.537c-0.771,0-1.401,0.271-1.894,0.811
				c-0.492,0.541-0.738,1.24-0.738,2.1c0,0.886,0.229,1.581,0.686,2.088c0.457,0.506,1.077,0.759,1.859,0.759
				c0.537,0,1.002-0.108,1.395-0.327v-1.963h-1.505v-0.742h2.311V337.812z"/>
		</g>
		<g>
			<path fill="#3F3F3F" d="M157.361,367.427c0,1.512-0.249,2.891-0.746,4.137s-1.186,2.32-2.068,3.223
				c-0.881,0.903-1.928,1.604-3.139,2.1c-1.211,0.497-2.522,0.746-3.937,0.746c-1.512,0-2.901-0.295-4.168-0.883
				s-2.358-1.462-3.275-2.624s-1.627-2.606-2.131-4.336c-0.504-1.729-0.756-3.733-0.756-6.015c0-2.786,0.332-5.257,0.997-7.412
				s1.578-3.961,2.74-5.417s2.526-2.562,4.094-3.317c1.568-0.756,3.262-1.134,5.082-1.134c1.133,0,2.165,0.077,3.097,0.231
				c0.931,0.153,1.676,0.363,2.235,0.629v4.389c-0.713-0.364-1.477-0.672-2.288-0.924s-1.743-0.378-2.792-0.378
				c-1.176,0-2.261,0.238-3.255,0.714s-1.852,1.173-2.572,2.089c-0.721,0.917-1.288,2.051-1.7,3.401
				c-0.413,1.352-0.627,2.908-0.641,4.672h0.126c0.644-0.994,1.515-1.777,2.614-2.352c1.099-0.574,2.39-0.861,3.873-0.861
				c1.316,0,2.502,0.214,3.56,0.641c1.057,0.428,1.959,1.043,2.708,1.848c0.749,0.806,1.326,1.785,1.732,2.939
				C157.157,364.687,157.361,365.985,157.361,367.427z M152.447,367.826c0-0.868-0.102-1.659-0.304-2.372
				c-0.203-0.715-0.512-1.326-0.924-1.838c-0.413-0.511-0.932-0.906-1.554-1.186c-0.623-0.28-1.354-0.42-2.194-0.42
				s-1.578,0.15-2.215,0.451c-0.638,0.301-1.173,0.696-1.606,1.186c-0.434,0.49-0.76,1.051-0.977,1.68
				c-0.217,0.631-0.325,1.274-0.325,1.932c0,0.715,0.102,1.446,0.305,2.194c0.202,0.749,0.515,1.432,0.935,2.048
				c0.42,0.615,0.955,1.123,1.605,1.521c0.651,0.399,1.425,0.599,2.32,0.599c0.798,0,1.505-0.147,2.121-0.44
				c0.615-0.295,1.13-0.7,1.543-1.219c0.412-0.518,0.728-1.13,0.944-1.837C152.338,369.419,152.447,368.652,152.447,367.826z"/>
			<path fill="#3F3F3F" d="M180.581,349.434c-1.26,2.31-2.449,4.595-3.569,6.855s-2.135,4.531-3.044,6.813
				c-0.91,2.281-1.701,4.58-2.373,6.896c-0.672,2.317-1.189,4.686-1.554,7.107h-5.103c0.336-2.155,0.815-4.308,1.438-6.456
				s1.354-4.297,2.194-6.446c0.84-2.148,1.781-4.308,2.824-6.477c1.042-2.17,2.152-4.36,3.328-6.572h-14.257v-4.157h20.114V349.434z
				"/>
			<path fill="#3F3F3F" d="M184.634,375.993v-4.576c1.96,1.553,4.172,2.33,6.635,2.33c2.002,0,3.602-0.455,4.798-1.365
				c1.197-0.909,1.796-2.141,1.796-3.695c0-3.415-2.611-5.123-7.832-5.123h-2.33v-3.904h2.225c4.634,0,6.95-1.61,6.95-4.83
				c0-2.967-1.806-4.451-5.417-4.451c-2.016,0-3.912,0.722-5.689,2.163v-4.325c2.043-1.147,4.458-1.722,7.243-1.722
				c2.674,0,4.815,0.672,6.425,2.016s2.414,3.065,2.414,5.165c0,3.961-2.016,6.509-6.047,7.643v0.084
				c2.17,0.21,3.885,0.97,5.145,2.278s1.89,2.942,1.89,4.902c0,2.701-1.015,4.882-3.044,6.54c-2.03,1.659-4.703,2.488-8.021,2.488
				C188.792,377.61,186.412,377.071,184.634,375.993z"/>
		</g>
		<rect x="123.522" y="331.292" fill="#F68C1F" width="5" height="46"/>
		<rect x="232" y="331.292" fill="#E90E8B" width="5" height="46"/>
		<g>
			<path fill="#8D99A5" d="M22.584,43.172c0,0.379-0.072,0.724-0.215,1.034s-0.344,0.576-0.604,0.797s-0.57,0.392-0.934,0.513
				s-0.764,0.182-1.201,0.182c-0.801,0-1.438-0.152-1.91-0.457v-1.031c0.566,0.445,1.215,0.668,1.945,0.668
				c0.293,0,0.557-0.037,0.793-0.111s0.439-0.182,0.609-0.322s0.301-0.311,0.393-0.51S21.6,43.51,21.6,43.26
				c0-1.098-0.781-1.646-2.344-1.646h-0.697v-0.814h0.662c1.383,0,2.074-0.516,2.074-1.547c0-0.953-0.527-1.43-1.582-1.43
				c-0.594,0-1.15,0.199-1.67,0.598v-0.932c0.535-0.32,1.172-0.48,1.91-0.48c0.352,0,0.67,0.049,0.955,0.146s0.529,0.234,0.732,0.41
				s0.359,0.387,0.471,0.633s0.168,0.518,0.168,0.814c0,1.105-0.559,1.816-1.676,2.133v0.023c0.285,0.031,0.549,0.101,0.791,0.208
				s0.451,0.247,0.627,0.419s0.313,0.374,0.412,0.606S22.584,42.891,22.584,43.172z"/>
			<path fill="#8D99A5" d="M27.858,45.551v-8.402h2.32c2.961,0,4.441,1.365,4.441,4.096c0,1.297-0.412,2.339-1.234,3.126
				s-1.922,1.181-3.301,1.181H27.858z M28.842,38.039v6.621h1.254c1.102,0,1.959-0.295,2.572-0.885s0.92-1.426,0.92-2.508
				c0-2.152-1.145-3.229-3.434-3.229H28.842z"/>
			<path fill="#8D99A5" d="M42.776,45.551h-1.09l-0.891-2.355h-3.563l-0.838,2.355h-1.096l3.223-8.402h1.02L42.776,45.551z
				 M40.473,42.311l-1.318-3.58c-0.043-0.117-0.086-0.305-0.129-0.563h-0.023c-0.039,0.238-0.084,0.426-0.135,0.563l-1.307,3.58
				H40.473z"/>
			<path fill="#8D99A5" d="M48.981,38.039h-2.426v7.512h-0.984v-7.512h-2.42v-0.891h5.83V38.039z"/>
			<path fill="#8D99A5" d="M56.803,45.551h-1.09l-0.891-2.355H51.26l-0.838,2.355h-1.096l3.223-8.402h1.02L56.803,45.551z
				 M54.5,42.311l-1.318-3.58c-0.043-0.117-0.086-0.305-0.129-0.563H53.03c-0.039,0.238-0.084,0.426-0.135,0.563l-1.307,3.58H54.5z"
				/>
			<path fill="#8D99A5" d="M65.592,38.039h-3.281v2.906h3.035v0.885h-3.035v3.721h-0.984v-8.402h4.266V38.039z"/>
			<path fill="#8D99A5" d="M73.69,45.551H72.6l-0.891-2.355h-3.563l-0.838,2.355h-1.096l3.223-8.402h1.02L73.69,45.551z
				 M71.387,42.311l-1.318-3.58c-0.043-0.117-0.086-0.305-0.129-0.563h-0.023c-0.039,0.238-0.084,0.426-0.135,0.563l-1.307,3.58
				H71.387z"/>
			<path fill="#8D99A5" d="M80.645,45.2c-0.621,0.328-1.395,0.492-2.32,0.492c-1.195,0-2.152-0.385-2.871-1.154
				s-1.078-1.779-1.078-3.029c0-1.344,0.404-2.43,1.213-3.258s1.834-1.242,3.076-1.242c0.797,0,1.457,0.115,1.98,0.346v1.049
				c-0.602-0.336-1.266-0.504-1.992-0.504c-0.965,0-1.748,0.322-2.348,0.967s-0.898,1.506-0.898,2.584
				c0,1.023,0.279,1.839,0.84,2.446s1.297,0.911,2.207,0.911c0.844,0,1.574-0.188,2.191-0.563V45.2z"/>
			<path fill="#8D99A5" d="M87.324,38.039h-2.426v7.512h-0.984v-7.512h-2.42v-0.891h5.83V38.039z"/>
			<path fill="#8D99A5" d="M92.03,45.692c-1.191,0-2.146-0.393-2.863-1.178s-1.074-1.807-1.074-3.064
				c0-1.352,0.365-2.43,1.096-3.234s1.725-1.207,2.982-1.207c1.16,0,2.094,0.391,2.803,1.172s1.064,1.803,1.064,3.064
				c0,1.371-0.363,2.455-1.09,3.252S93.248,45.692,92.03,45.692z M92.1,37.899c-0.883,0-1.6,0.318-2.15,0.955
				s-0.826,1.473-0.826,2.508s0.268,1.868,0.805,2.499s1.238,0.946,2.102,0.946c0.922,0,1.648-0.301,2.18-0.902
				s0.797-1.443,0.797-2.525c0-1.109-0.258-1.967-0.773-2.572S93.006,37.899,92.1,37.899z"/>
			<path fill="#8D99A5" d="M103.713,45.551h-1.172l-1.406-2.355c-0.129-0.219-0.254-0.405-0.375-0.56s-0.246-0.28-0.373-0.378
				s-0.264-0.169-0.41-0.214s-0.311-0.067-0.494-0.067h-0.809v3.574H97.69v-8.402h2.508c0.367,0,0.705,0.046,1.016,0.138
				s0.58,0.231,0.809,0.419s0.408,0.421,0.537,0.7s0.193,0.606,0.193,0.981c0,0.293-0.045,0.562-0.133,0.806
				s-0.213,0.462-0.375,0.653s-0.357,0.354-0.586,0.489s-0.484,0.239-0.77,0.313v0.023c0.141,0.063,0.262,0.134,0.365,0.214
				s0.203,0.175,0.297,0.284s0.186,0.233,0.277,0.372s0.195,0.3,0.309,0.483L103.713,45.551z M98.674,38.039v3.047h1.336
				c0.246,0,0.473-0.037,0.682-0.111s0.391-0.181,0.543-0.319s0.271-0.309,0.357-0.51s0.129-0.427,0.129-0.677
				c0-0.449-0.146-0.8-0.438-1.052s-0.711-0.378-1.262-0.378H98.674z"/>
			<path fill="#8D99A5" d="M105.852,45.551h-0.984v-8.402h0.984V45.551z"/>
			<path fill="#8D99A5" d="M112.514,45.551h-4.453v-8.402h4.266v0.891h-3.281v2.795h3.035v0.885h-3.035v2.941h3.469V45.551z"/>
			<path fill="#8D99A5" d="M113.739,45.211v-1.16c0.133,0.117,0.291,0.223,0.477,0.316s0.381,0.173,0.586,0.237
				s0.412,0.114,0.619,0.149s0.398,0.053,0.574,0.053c0.605,0,1.057-0.112,1.355-0.337s0.449-0.548,0.449-0.97
				c0-0.227-0.051-0.424-0.15-0.592s-0.236-0.321-0.412-0.46s-0.385-0.271-0.625-0.398s-0.498-0.261-0.775-0.401
				c-0.293-0.148-0.566-0.299-0.82-0.451s-0.475-0.32-0.662-0.504s-0.336-0.392-0.443-0.624s-0.16-0.505-0.16-0.817
				c0-0.383,0.084-0.716,0.252-0.999s0.389-0.517,0.662-0.7s0.584-0.32,0.934-0.41s0.707-0.135,1.07-0.135
				c0.828,0,1.432,0.1,1.811,0.299v1.107c-0.496-0.344-1.133-0.516-1.91-0.516c-0.215,0-0.43,0.022-0.645,0.067
				s-0.406,0.118-0.574,0.22s-0.305,0.232-0.41,0.393s-0.158,0.355-0.158,0.586c0,0.215,0.039,0.4,0.119,0.557
				s0.199,0.299,0.355,0.428s0.346,0.254,0.57,0.375s0.484,0.254,0.777,0.398c0.301,0.148,0.586,0.305,0.855,0.469
				s0.506,0.346,0.709,0.545s0.363,0.42,0.482,0.662s0.18,0.52,0.18,0.832c0,0.414-0.082,0.765-0.244,1.052s-0.381,0.521-0.656,0.7
				s-0.592,0.31-0.951,0.39s-0.738,0.12-1.137,0.12c-0.133,0-0.297-0.011-0.492-0.032s-0.395-0.053-0.598-0.094
				s-0.396-0.092-0.578-0.152S113.848,45.286,113.739,45.211z"/>
		</g>
	</g>
</g>
</svg>
