<?xml version="1.0" encoding="utf-8"?>
<!-- Generator: Adobe Illustrator 18.1.1, SVG Export Plug-In . SVG Version: 6.00 Build 0)  -->
<svg version="1.1" xmlns="http://www.w3.org/2000/svg" xmlns:xlink="http://www.w3.org/1999/xlink" x="0px" y="0px"
	 viewBox="0 0 24 24" enable-background="new 0 0 24 24" xml:space="preserve">
<g id="Layer_6">
</g>
<g id="Layer_1">
	<g>
		<path id="path1948_2_" fill="#519BBD" d="M11.331,2c-0.785,0.004-1.535-0.123-2.194,0C7.193,2.362,6.592,3.572,6.592,4.968V7H11v1
			H6.84H4.725C3.391,8,2.614,8.273,2.249,9.882c-0.355,2.134-0.308,3.118,0,4.919C2.575,16.234,3.355,17,4.689,17h2.236v-3
			c0-1.598,0.443-2,2-2h5C14.937,11.984,16,10.984,16,10l-0.075-5.032c0-1.312-0.956-2.749-2.203-2.968
			C12.934,1.862,12.116,1.996,11.331,2z M8,3.997h2V5H8V3.997z"/>
		<g>
			<path fill="#519BBD" d="M20,9c0.388,0,0.987,0.618,1,1v5c0,0.441-0.56,0.993-1,1h-2.789H13h-1v1v1v1h1h3v1.193
				c0,0.836-0.453,1.531-1.166,1.807h-4.391C9.713,21.72,9,20.999,9,20.193V15c0-0.381,0.532-0.952,1.037-1l4.971,0
				C17.525,13.98,18,13.504,18,11V9H20 M20,8h-3v3c0,1.953-0.016,1.984-2,2h-5c-1.016,0.063-2,1.063-2,2v5.193
				c0,1.302,1.073,2.434,2.276,2.807H15c1.146-0.35,2-1.421,2-2.807V18h-4v-1h4.211H20c0.984-0.016,2-1,2-2v-5
				C21.969,9.063,20.953,8,20,8L20,8z"/>
		</g>
		<g>
			<polygon fill="#519BBD" points="14,20 12,20 12,21 14,21 14,20 			"/>
		</g>
	</g>
</g>
<g id="White" display="none">
</g>
<g id="favicon" display="none">
</g>
<g id="Circles" display="none">
</g>
<g id="Sprite">
</g>
<g id="Layer_7">
</g>
</svg>
