<?xml version="1.0" encoding="utf-8"?>
<!-- Generator: Adobe Illustrator 18.1.1, SVG Export Plug-In . SVG Version: 6.00 Build 0)  -->
<svg version="1.1" xmlns="http://www.w3.org/2000/svg" xmlns:xlink="http://www.w3.org/1999/xlink" x="0px" y="0px"
	 viewBox="0 0 24 24" enable-background="new 0 0 24 24" xml:space="preserve">
<g id="Layer_6">
</g>
<g id="Layer_1">
	<g>
		<path fill="#519BBD" d="M9,13.9c-1.827-0.916-3-2.322-3-3.9c0-2.761,3.582-5,8-5s8,2.239,8,5c0,0.878-0.364,1.702-1,2.419v1.598
			c1.256-1.138,2-2.521,2-4.017c0-3.866-4.925-7-11-7S1,6.134,1,10c0,3.203,3.385,5.898,8,6.73V13.9z"/>
		<g>
			<path fill="#519BBD" d="M10,8h5.608c1.216,0,2.205,0.336,2.966,1.009c0.761,0.672,1.141,1.487,1.141,2.442
				c0,1.322-0.719,2.301-2.157,2.936c0.63,0.274,1.229,1.012,1.797,2.214S20.471,18.936,21,20h-3.432
				c-0.205-0.395-0.562-1.148-1.071-2.259c-0.509-1.111-0.945-1.824-1.307-2.139C14.827,15.287,14.44,15,14.026,15H13v5h-3V8z
				 M13,10v3h2c0.548,0,0.699-0.13,1.019-0.391c0.32-0.261,0.481-0.634,0.481-1.118C16.5,10.497,16.238,10,15,10H13z"/>
		</g>
	</g>
</g>
<g id="White" display="none">
</g>
<g id="favicon" display="none">
</g>
<g id="Circles" display="none">
</g>
<g id="Sprite">
</g>
<g id="Layer_7">
</g>
</svg>
