<?xml version="1.0" encoding="utf-8"?>
<!-- Generator: Adobe Illustrator 18.1.1, SVG Export Plug-In . SVG Version: 6.00 Build 0)  -->
<svg version="1.1" xmlns="http://www.w3.org/2000/svg" xmlns:xlink="http://www.w3.org/1999/xlink" x="0px" y="0px"
	 viewBox="0 0 24 24" enable-background="new 0 0 24 24" xml:space="preserve">
<g id="Layer_6">
</g>
<g id="Layer_1">
	<path fill="#519BBD" d="M1,1v15h21V1H1z M7,13H4v-3h3V13z M7.014,7H4V4h3.014V7z M13,13h-3v-3h3V13z M13,7h-3V4h3V7z M19,13h-3v-3
		h3V13z M19,7h-3V4h3V7z"/>
	<g>
		<path fill="#519BBD" d="M18.683,22.5c-1.109,0-3.417,0-4.633-1.217l-0.214-0.214c-1.288-1.287-1.513-3.151-0.614-4.755
			l-5.893-5.283C6.565,10.268,5.952,8.667,7.31,7.31C7.839,6.78,8.465,6.5,9.121,6.5c1.005,0,1.702,0.62,1.892,0.81l5.299,5.808
			c0.636-0.355,1.329-0.542,2.028-0.542c1.031,0,1.976,0.399,2.73,1.154l0.214,0.214c1.216,1.216,1.216,3.597,1.216,4.74v0.133
			l-0.091,0.255l-0.144,0.252l-0.349,0.037c-0.241,0-0.418-0.151-0.483-0.217L19.4,17.111c-0.05-0.033-0.263-0.068-0.396-0.068
			c-0.597,0.073-1.381,0.206-1.666,0.301c-0.093,0.271-0.224,1.01-0.299,1.616c0.005,0.136,0.046,0.391,0.088,0.46l2.016,2.013
			c0.202,0.201,0.269,0.47,0.174,0.699C19.271,22.242,19.118,22.5,18.683,22.5z"/>
		<path fill="#FFFFFF" d="M9.121,7c0.655,0,1.225,0.35,1.538,0.663l5.564,6.099c0.646-0.447,1.383-0.686,2.117-0.686
			c0.847,0,1.689,0.319,2.377,1.007l0.214,0.214C22,15.367,22,17.613,22,18.683c0,0.138-0.039,0.177-0.084,0.177
			c-0.06,0-0.13-0.07-0.13-0.07s-1.819-1.819-2.033-2.033c-0.214-0.214-0.749-0.214-0.749-0.214s-1.819,0.214-2.033,0.428
			s-0.428,1.926-0.428,1.926s0,0.642,0.214,0.856c0.214,0.214,2.033,2.033,2.033,2.033S19.004,22,18.683,22
			c-1.07,0-3.21,0-4.28-1.07l-0.214-0.214c-1.284-1.284-1.284-3.103-0.321-4.494l-6.206-5.564c-0.535-0.535-1.177-1.819,0-2.996
			C8.151,7.175,8.657,7,9.121,7 M9.121,6l0,1L9.121,6C8.33,6,7.581,6.331,6.956,6.956c-1.448,1.448-1.096,3.314,0,4.41l0.019,0.019
			l0.02,0.018l5.606,5.027c-0.789,1.715-0.476,3.637,0.88,4.993l0.214,0.214C15.059,23,17.507,23,18.683,23
			c0.757,0,1.03-0.518,1.096-0.677c0.174-0.42,0.066-0.897-0.282-1.245l-1.93-1.93c-0.011-0.06-0.019-0.139-0.022-0.2
			c0.057-0.438,0.136-0.898,0.202-1.194c0.315-0.068,0.819-0.15,1.298-0.209c0.03,0.002,0.064,0.007,0.093,0.012l1.94,1.94
			c0.135,0.135,0.424,0.363,0.837,0.363c0.526,0,1.084-0.412,1.084-1.177c0-1.211,0-3.731-1.363-5.094l-0.214-0.214
			c-0.838-0.838-1.934-1.3-3.084-1.3c-0.655,0-1.305,0.145-1.915,0.424l-5.027-5.51C11.142,6.732,10.317,6,9.121,6L9.121,6z"/>
	</g>
</g>
<g id="White" display="none">
</g>
<g id="favicon" display="none">
</g>
<g id="Circles" display="none">
</g>
<g id="Sprite">
</g>
<g id="Layer_7">
</g>
</svg>
