<?xml version="1.0" encoding="utf-8"?>
<!-- Generator: Adobe Illustrator 17.1.0, SVG Export Plug-In . SVG Version: 6.00 Build 0)  -->
<!DOCTYPE svg PUBLIC "-//W3C//DTD SVG 1.1//EN" "http://www.w3.org/Graphics/SVG/1.1/DTD/svg11.dtd">
<svg version="1.1" xmlns="http://www.w3.org/2000/svg" xmlns:xlink="http://www.w3.org/1999/xlink" x="0px" y="0px"
	 viewBox="0 0 32 32" enable-background="new 0 0 32 32" xml:space="preserve">
<g id="Layer_1" display="none">
</g>
<g id="Layer_2">
	<g id="publish_x5F_input_x5F_32">
		<g>
			<path fill="#73B04F" d="M16,0C7.163,0,0,7.163,0,16s7.163,16,16,16s16-7.163,16-16S24.837,0,16,0z M16,30C8.268,30,2,23.732,2,16
				S8.268,2,16,2s14,6.268,14,14S23.732,30,16,30z"/>
			<circle fill="#FFFFFF" cx="16" cy="16" r="14"/>
		</g>
		<g>
			<path fill-rule="evenodd" clip-rule="evenodd" fill="#519BBD" d="M19,13h4v2h-4V13z"/>
			<path fill-rule="evenodd" clip-rule="evenodd" fill="#519BBD" d="M19,17h4v2h-4V17z"/>
			<path fill-rule="evenodd" clip-rule="evenodd" fill="#519BBD" d="M19,21h4v2h-4V21z"/>
			<path fill-rule="evenodd" clip-rule="evenodd" fill="#519BBD" d="M14,21h4v2h-4V21z"/>
			<path fill-rule="evenodd" clip-rule="evenodd" fill="#519BBD" d="M9,21h4v2H9V21z"/>
			<path fill-rule="evenodd" clip-rule="evenodd" fill="#519BBD" d="M14,17h4v2h-4V17z"/>
			<path fill-rule="evenodd" clip-rule="evenodd" fill="#519BBD" d="M9,17h4v2H9V17z"/>
			<path fill="#519BBD" d="M14,10l-3-3h3l4,4l-1,1l-3,3h-3l3-3H7v-2H14z"/>
		</g>
	</g>
	<g id="publish_x5F_output_x5F_32" display="none">
		<g display="inline">
			<path fill="#0294C6" d="M16,0C7.163,0,0,7.163,0,16s7.163,16,16,16s16-7.163,16-16S24.837,0,16,0z M16,30C8.268,30,2,23.732,2,16
				S8.268,2,16,2s14,6.268,14,14S23.732,30,16,30z"/>
			<circle fill="#FFFFFF" cx="16" cy="16" r="14"/>
		</g>
		<g display="inline">
			<path fill-rule="evenodd" clip-rule="evenodd" fill="#519BBD" d="M9,18h4v2H9V18z"/>
			<path fill-rule="evenodd" clip-rule="evenodd" fill="#519BBD" d="M9,14h4v2H9V14z"/>
			<path fill-rule="evenodd" clip-rule="evenodd" fill="#519BBD" d="M9,10h4v2H9V10z"/>
			<path fill-rule="evenodd" clip-rule="evenodd" fill="#519BBD" d="M14,10h4v2h-4V10z"/>
			<path fill-rule="evenodd" clip-rule="evenodd" fill="#519BBD" d="M19,10h4v2h-4V10z"/>
			<path fill-rule="evenodd" clip-rule="evenodd" fill="#519BBD" d="M14,14h4v2h-4V14z"/>
			<path fill-rule="evenodd" clip-rule="evenodd" fill="#519BBD" d="M19,14h4v2h-4V14z"/>
			<path fill="#519BBD" d="M21,23l-3,3h3l4-4l-1-1l-3-3h-3l3,3h-7v2H21z"/>
		</g>
	</g>
	<g id="arrow_x5F_label_x5F_32" display="none">
		<g display="inline">
			<path fill="#929292" d="M16,0C7.163,0,0,7.163,0,16s7.163,16,16,16s16-7.163,16-16S24.837,0,16,0z M16,30C8.268,30,2,23.732,2,16
				S8.268,2,16,2s14,6.268,14,14S23.732,30,16,30z"/>
			<circle fill="#FFFFFF" cx="16" cy="16" r="14"/>
		</g>
		<g display="inline">
			<path fill-rule="evenodd" clip-rule="evenodd" fill="#519BBD" d="M19,11h4v2h-4V11z"/>
			<path fill-rule="evenodd" clip-rule="evenodd" fill="#519BBD" d="M19,15h4v2h-4V15z"/>
			<path fill-rule="evenodd" clip-rule="evenodd" fill="#519BBD" d="M19,19h4v2h-4V19z"/>
			<path fill-rule="evenodd" clip-rule="evenodd" fill="#519BBD" d="M14,19h4v2h-4V19z"/>
			<path fill-rule="evenodd" clip-rule="evenodd" fill="#519BBD" d="M9,19h4v2H9V19z"/>
			<path fill-rule="evenodd" clip-rule="evenodd" fill="#519BBD" d="M14,15h4v2h-4V15z"/>
			<path fill-rule="evenodd" clip-rule="evenodd" fill="#519BBD" d="M9,15h4v2H9V15z"/>
			<path fill-rule="evenodd" clip-rule="evenodd" fill="#519BBD" d="M14,11h4v2h-4V11z"/>
			<path fill-rule="evenodd" clip-rule="evenodd" fill="#519BBD" d="M9,11h4v2H9V11z"/>
		</g>
	</g>
	<g id="TM_x5F_output_x5F_32" display="none">
		<g display="inline">
			<path fill="#7C4996" d="M16,0C7.163,0,0,7.163,0,16s7.163,16,16,16s16-7.163,16-16S24.837,0,16,0z M16,30C8.268,30,2,23.732,2,16
				S8.268,2,16,2s14,6.268,14,14S23.732,30,16,30z"/>
			<circle fill="#FFFFFF" cx="16" cy="16" r="14"/>
		</g>
		<g display="inline">
			<path fill="#519BBD" d="M16,15l-7-4.011L16,7l7,4L16,15z"/>
			<path fill="#519BBD" d="M15,25l-7-4v-8l7,4V25z"/>
			<path fill="#519BBD" d="M17.031,25L17,17l7-4v8L17.031,25z"/>
		</g>
	</g>
	<g id="TM_x5F_output_x5F_flask_x5F_32" display="none">
		<g display="inline">
			<path fill="#7C4996" d="M16,0C7.163,0,0,7.163,0,16s7.163,16,16,16s16-7.163,16-16S24.837,0,16,0z M16,30C8.268,30,2,23.732,2,16
				S8.268,2,16,2s14,6.268,14,14S23.732,30,16,30z"/>
			<circle fill="#FFFFFF" cx="16" cy="16" r="14"/>
		</g>
		<g display="inline">
			<path fill-rule="evenodd" clip-rule="evenodd" fill="#519BBD" d="M20,10v3l4,8l-2,3H10l-2-3l4-8v-3c-1,0-2-0.5-2-1.5
				c0-1,1-1.5,2-1.5c1,0,7,0,8,0c1,0,2,0.5,2,1.5C22,9.5,21,10,20,10z M17,13v-3h-2v3l-4,8h3l2-4h3L17,13z"/>
		</g>
	</g>
</g>
<g id="nyt_x5F_exporter_x5F_info" display="none">
	<text transform="matrix(1 0 0 1 -44 0)" display="inline"><tspan x="0" y="0" font-family="'MyriadPro-Regular'" font-size="12">&lt;nyt_prefs&gt;</tspan><tspan x="0" y="14.4" font-family="'MyriadPro-Regular'" font-size="12">  &lt;nyt_prefix&gt;&lt;/nyt_prefix&gt;</tspan><tspan x="0" y="28.8" font-family="'MyriadPro-Regular'" font-size="12">  &lt;nyt_suffix&gt;&lt;/nyt_suffix&gt;</tspan><tspan x="0" y="43.2" font-family="'MyriadPro-Regular'" font-size="12">  &lt;nyt_base_path&gt;~/Desktop/test&lt;/nyt_base_path&gt;</tspan><tspan x="0" y="57.6" font-family="'MyriadPro-Regular'" font-size="12">  &lt;nyt_scaling&gt;100&lt;/nyt_scaling&gt;</tspan><tspan x="0" y="72" font-family="'MyriadPro-Regular'" font-size="12">  &lt;nyt_transparency&gt;true&lt;/nyt_transparency&gt;</tspan><tspan x="0" y="86.4" font-family="'MyriadPro-Regular'" font-size="12">  &lt;nyt_embedImage&gt;true&lt;/nyt_embedImage&gt;</tspan><tspan x="0" y="100.8" font-family="'MyriadPro-Regular'" font-size="12">  &lt;nyt_embedFont&gt;true&lt;/nyt_embedFont&gt;</tspan><tspan x="0" y="115.2" font-family="'MyriadPro-Regular'" font-size="12">  &lt;nyt_trimEdges&gt;true&lt;/nyt_trimEdges&gt;</tspan><tspan x="0" y="129.6" font-family="'MyriadPro-Regular'" font-size="12">  &lt;nyt_innerPadding&gt;false&lt;/nyt_innerPadding&gt;</tspan><tspan x="0" y="144" font-family="'MyriadPro-Regular'" font-size="12">  &lt;nyt_format&gt;SVG&lt;/nyt_format&gt;</tspan><tspan x="0" y="158.4" font-family="'MyriadPro-Regular'" font-size="12">  &lt;nyt_artboards&gt;all&lt;/nyt_artboards&gt;</tspan><tspan x="0" y="172.8" font-family="'MyriadPro-Regular'" font-size="12">  &lt;nyt_layers&gt;all&lt;/nyt_layers&gt;</tspan><tspan x="0" y="187.2" font-family="'MyriadPro-Regular'" font-size="12">  &lt;nyt_exportArtboards&gt;false&lt;/nyt_exportArtboards&gt;</tspan><tspan x="0" y="201.6" font-family="'MyriadPro-Regular'" font-size="12">  &lt;nyt_ignoreWarnings&gt;false&lt;/nyt_ignoreWarnings&gt;</tspan><tspan x="0" y="216" font-family="'MyriadPro-Regular'" font-size="12">&lt;/nyt_prefs&gt;</tspan></text>
</g>
</svg>
