<?xml version="1.0" encoding="utf-8"?>
<!-- Generator: Adobe Illustrator 18.1.1, SVG Export Plug-In . SVG Version: 6.00 Build 0)  -->
<!DOCTYPE svg PUBLIC "-//W3C//DTD SVG 1.1//EN" "http://www.w3.org/Graphics/SVG/1.1/DTD/svg11.dtd">
<svg version="1.1" xmlns="http://www.w3.org/2000/svg" xmlns:xlink="http://www.w3.org/1999/xlink" x="0px" y="0px"
	 viewBox="0 0 24 24" enable-background="new 0 0 24 24" xml:space="preserve">
<g id="Layer_6">
</g>
<g id="Layer_1">
	<path fill-rule="evenodd" clip-rule="evenodd" fill="#519BBD" d="M21.531,19.69c-0.245,0.308-0.504,0.601-0.779,0.882
		c-2.075,2.122-5.601,3.436-8.797,3.424c-0.001,0-0.001,0-0.002,0c-0.001,0-0.001,0-0.002,0c-3.196-0.013-6.712-1.353-8.77-3.492
		c-0.273-0.283-0.53-0.579-0.772-0.888C0.892,17.674-0.01,14.601,0,11.951c0.01-2.598,0.901-5.622,2.38-7.532
		C2.622,4.106,2.88,3.807,3.152,3.523C5.233,1.343,8.799-0.013,12.045,0c0.001,0,0.001,0,0.002,0s0.001,0,0.002,0
		c3.245,0.013,6.801,1.396,8.865,3.592c0.27,0.287,0.526,0.587,0.765,0.901C23.143,6.416,24.01,9.446,24,12.044
		C23.99,14.695,23.064,17.761,21.531,19.69z M6.969,12.606c0.047,1.395,0.252,3.417,0.602,4.61c0.967-0.204,2.696-0.327,3.78-0.362
		l0.017-4.231L6.969,12.606z M11.332,21.468l0.015-3.438c-0.936,0.032-2.534,0.131-3.39,0.302c0.141,0.35,0.296,0.684,0.464,0.997
		C9.061,20.518,10.533,21.172,11.332,21.468z M8.274,21.593c-0.63-0.733-1.048-1.9-1.466-2.981
		c-0.642,0.185-1.419,0.603-1.988,0.875C5.797,20.418,6.972,21.143,8.274,21.593z M3.968,18.56c0.69-0.359,1.642-0.82,2.465-1.06
		c-0.366-1.268-0.593-3.383-0.641-4.898l-3.887,0.004C2.044,14.587,2.792,17.097,3.968,18.56z M1.897,11.347l3.893,0.034
		c0.044-1.517,0.268-3.474,0.631-4.747C5.576,6.377,4.605,5.898,3.907,5.516C2.745,6.995,2.011,9.351,1.897,11.347z M4.74,4.585
		c0.583,0.297,1.383,0.732,2.05,0.934c0.436-1.154,0.89-2.378,1.56-3.147C6.982,2.833,5.751,3.596,4.74,4.585z M11.406,2.528
		c-0.801,0.291-2.278,0.927-2.927,2.111c-0.2,0.366-0.382,0.759-0.544,1.174c0.876,0.187,2.497,0.304,3.459,0.344L11.406,2.528z
		 M11.389,7.332c-1.104-0.044-2.85-0.184-3.831-0.403c-0.343,1.199-0.548,3.017-0.591,4.412l4.407,0.017L11.389,7.332z
		 M22.09,12.639l-3.887-0.034c-0.06,1.515-0.303,3.673-0.679,4.937c0.821,0.247,1.77,0.715,2.457,1.08
		C21.168,17.168,21.935,14.621,22.09,12.639z M19.121,19.542c-0.566-0.277-1.341-0.701-1.981-0.891
		c-0.426,1.078-0.854,2.242-1.489,2.97C16.956,21.182,18.137,20.467,19.121,19.542z M12.594,21.473
		c0.801-0.29,2.278-0.932,2.927-2.116c0.171-0.312,0.328-0.645,0.472-0.994c-0.854-0.177-2.451-0.289-3.387-0.328L12.594,21.473z
		 M12.61,16.859c1.084,0.044,2.812,0.179,3.777,0.391c0.36-1.191,0.581-3.21,0.638-4.605l-4.399-0.017L12.61,16.859z M12.632,11.364
		l4.407,0.017c-0.032-1.395-0.223-3.214-0.557-4.416c-0.983,0.211-2.73,0.337-3.834,0.373L12.632,11.364z M12.668,2.533
		l-0.016,3.629c0.962-0.033,2.584-0.137,3.461-0.317c-0.159-0.416-0.338-0.81-0.535-1.178C14.939,3.477,13.467,2.83,12.668,2.533z
		 M15.724,2.4c0.664,0.774,1.108,2.001,1.536,3.159c0.669-0.197,1.472-0.625,2.057-0.917C18.314,3.645,17.089,2.873,15.724,2.4z
		 M20.144,5.58c-0.701,0.376-1.676,0.847-2.524,1.098c0.353,1.276,0.562,3.191,0.595,4.708l3.894-0.004
		C22.01,9.385,21.294,7.068,20.144,5.58z"/>
</g>
<g id="White" display="none">
</g>
<g id="favicon" display="none">
</g>
<g id="Circles" display="none">
</g>
<g id="Sprite">
</g>
<g id="Layer_7">
</g>
</svg>
