<?xml version="1.0" encoding="utf-8"?>
<!-- Generator: Adobe Illustrator 19.1.0, SVG Export Plug-In . SVG Version: 6.00 Build 0)  -->
<!DOCTYPE svg PUBLIC "-//W3C//DTD SVG 1.1//EN" "http://www.w3.org/Graphics/SVG/1.1/DTD/svg11.dtd">
<svg version="1.1" id="Layer_1" xmlns="http://www.w3.org/2000/svg" xmlns:xlink="http://www.w3.org/1999/xlink" x="0px" y="0px"
	 viewBox="0 0 65 65" enable-background="new 0 0 65 65" xml:space="preserve">
<symbol  id="stream-analytics" viewBox="-14.6 -11.3 29.2 22.6">
	<path fill="#B6B8BA" d="M10.7,4.1l0.7-1.8l3.2-1.1v-2.6l-0.4-0.1l-2.8-0.9l-0.7-1.8l1.5-3l0,0L10.4-9L10-8.9L7.3-7.5L5.5-8.2
		l-1.2-3.1H1.6v0.3l-1,2.8l-1.8,0.7l-3.1-1.4L-6.1-7l0.2,0.4L-5.1-5c1.5-0.8,3-1.2,4.7-1.2c2.3,0.1,4.4,0.9,6,2.5
		C6-3.4,6.3-3.2,6.7-2.8C6.9-2.7,7-2.5,7.1-2.3c1.1,1.9,0.6,4.4-1.2,5.9C4.6,4.7,2.7,4.8,1.3,4.2C1.1,4.1,1,4.1,0.9,4l0,0l0,0
		c-0.4-0.2-0.7-0.5-1-0.7c-0.1,0-0.2-0.1-0.4-0.1c-0.4,0-0.7,0.2-1,0.5l-0.1,0.1l0,0C-2.7,4.9-4,5.7-5.3,6.2l-0.5,1.1L-4.1,9L-4,9.1
		l0.4-0.2L-1,7.5l1.8,0.7l1,3.1h2.7L4.6,11l0.9-2.7l1.8-0.7L10.4,9l1.9-2l-0.2-0.4L10.7,4.1z"/>
	<path fill="#B6B8BA" d="M-5-0.5L-5-0.5L-5-0.5c-2,2.1-5.2,2.1-7.1-0.1c-0.2-0.3-0.6-0.3-0.8,0c-0.1,0.1-0.2,0.3-0.2,0.5
		s0.1,0.4,0.2,0.5c2.4,2.7,6.3,2.7,8.8,0.2V0.5l0,0c2-2,5.1-2,7,0.2C3.2,1,3.5,1,3.7,0.7c0.1-0.1,0.2-0.3,0.2-0.5S3.7-0.2,3.7-0.3
		C1.4-2.9-2.6-3-5-0.5z"/>
	<path fill="#B6B8BA" d="M-0.6,0.6c-1.1,0-2,0.4-2.8,1.2l-0.1,0.1L-3.7,2C-5,3.5-6.9,4.2-8.8,4.1c-1.9,0-3.7-0.9-5-2.4
		c-0.3-0.3-0.6-0.3-0.8,0c0,0.1,0,0.3,0,0.5s0.1,0.4,0.2,0.5c1.6,1.7,3.7,2.7,5.9,2.7c2.2,0.1,4.3-0.8,5.9-2.6l0.1-0.1l0.1-0.1
		c0.5-0.5,1.2-0.8,1.9-0.8s1.4,0.4,1.9,0.9C1.6,3,2,3,2.2,2.7c0.1-0.1,0.2-0.3,0.2-0.5S2.3,1.9,2.2,1.8C1.5,1.1,0.5,0.6-0.6,0.6z"/>
	<path fill="#B6B8BA" d="M5.3-2.5C3.7-4.2,1.6-5.2-0.5-5.2s-4.3,0.8-5.9,2.6l-0.1,0.1l-0.1,0.1c-0.5,0.5-1.2,0.8-1.9,0.8
		s-1.5-0.4-2-1c-0.3-0.3-0.6-0.3-0.8,0c-0.1,0.1-0.2,0.3-0.2,0.5s0.1,0.4,0.2,0.5c0.7,0.8,1.7,1.3,2.7,1.3c1.1,0,2-0.4,2.8-1.2
		l0.1-0.1c0,0,0.1,0,0.1-0.1c1.4-1.5,3.2-2.2,5.1-2.2s3.7,0.9,5,2.3c0.3,0.3,0.6,0.3,0.8,0c0.1,0,0.2-0.2,0.2-0.4S5.4-2.4,5.3-2.5z"
		/>
</symbol>
<use xlink:href="#stream-analytics"  width="29.2" height="22.6" id="XMLID_4_" x="-14.6" y="-11.3" transform="matrix(-2.1418 0 0 2.1418 32.5 32.5)" overflow="visible"/>
</svg>
