<?xml version="1.0" encoding="utf-8"?>
<!-- Generator: Adobe Illustrator 19.1.0, SVG Export Plug-In . SVG Version: 6.00 Build 0)  -->
<!DOCTYPE svg PUBLIC "-//W3C//DTD SVG 1.1//EN" "http://www.w3.org/Graphics/SVG/1.1/DTD/svg11.dtd">
<svg version="1.1" id="Layer_1" xmlns="http://www.w3.org/2000/svg" xmlns:xlink="http://www.w3.org/1999/xlink" x="0px" y="0px"
	 viewBox="0 0 65 65" enable-background="new 0 0 65 65" xml:space="preserve">
<path fill="#B6B8BA" d="M29,21.8c0.1-0.4,0.7-1.4,0.7-1.4s0.1,1.4,1,2.7c0.8,1.4,1.5,1.6,1.5,1.6s0.1,0.4-0.4,0.4
	c-0.2,0-2.2,0-2.6,0s-0.6-0.3-0.6-0.7c0.1-0.3,0.4-0.7,0.4-0.7S28.8,22.3,29,21.8z"/>
<path fill="#B6B8BA" d="M47,18.7L47,18.7c0,0,0.7,0.9,1.3,1.6c0.5,0.6,0.1,1,0.1,1s-1.4,2.3-2.5,1.9c-0.3-0.1-0.6-0.7-0.6-0.7
	s0.4-0.6,0.9-1.5C46.7,20.1,47,18.9,47,18.7z"/>
<path fill="#B6B8BA" d="M1.3,12.5C1.7,4.3,3.9,2.1,4.5,2.1c0.8,0.2,1.2,1.4,2,2c1.2,0.8,2,0.8,2.8,1.4c0.8,0.8-0.8,2.6-0.4,7.4
	c0.2,4.4,3,6.2,3,6.2s-1.4-2-1.6-3.4c-0.2-0.6,0.4-1,1-1.4c0.8-0.6,2.4,1.2,2.8,1.6c-0.8-0.8-1.8-1.8-1.4-2.6c1-1.2,2.6-0.2,3-0.2
	c-0.4-0.2-1.2-0.4-1-1.2c0.2-1.6,1.6-1.2,2-1c-0.6-0.4-1-0.6-2.6-0.6c-0.8,0-0.8-0.8-0.2-1.8c0.8-1,1.4-1.4,2.4-1.6
	c0.8-0.2,2.4-0.2,2.4-0.2S17.6,5.9,17,6.1c1-1,3.6-5.2,8.5-5.4c8.5-0.4,10.9,5,10.9,5l-4-0.2c0,0,1.2,0.4,3.8,0.8
	c2,0.4,1.8,0.4,2.6,0.4c1,0.2,3.4,3.2,5.6,5.6c2.2,2.4,4.4,5.6,4.4,6.8s-1.2,2-2,3.2c-0.8,1-1,1.6-1,1.6l-3-3.6l3.6,7.4
	c0,0-1.8,2.2-3.4,2c-1.4-0.2-4.4-2.6-6.4-3s-2.8-0.2-2.8-0.2s-1.4-3.6-0.8-6c1.2-4.4,0.2-6.8-0.6-8.5c0.8,6-1.2,6.4-1.2,10.3
	c0.2,3,1.2,6.2,1.2,6.2s2.8-1,5,0.2s4,2.8,6.2,2.8s5-3.6,5-3.6L47,25.6c0,0,0.2-0.8,0.8-1.4c1-1.6,2.4-3.2,2.6-4.6
	c0.2-2.2-2.2-4.6-3-5.8c-0.6-1-3.2-3.8-3.2-3.8s7.2,1,10.3,4.6c3.6,4.4,4.2,5.6,5.6,5.8s1.8-1.2,1.8-1.2s-1,0.2-0.8-1.2
	c0.2-2-0.6-3.2-0.6-3.2s2.2,1.4,2.6,2.8c0.4,1.4-0.6,1.6-0.6,1.6s0,2.4-1.4,3c-1.4,0.6-2.6,0.2-2.6,0.2s0.8,4.6-0.2,7.9
	c-1,3.2-3.8,7.2-3.8,7.2s0.2,2.4,0.4,3.2c0.2,0.6,1.2,2-0.2,3c-1.4,1-5.2,1.4-6,0.8c-0.8-0.4-0.6-2-0.8-2.4c0-0.4-1-2.6-1.2-3.2
	c-0.2-0.6-0.2-3.6,0.2-4.8c-0.4,0.6-1.2,2.8-4.6,3c-3,0.2-4-1.6-4.2-2.8c0,0.4-0.2,2.8,0.2,3.2c0.2,0.6,1.2,0.8,2.2,1.4
	c0.8,0.6,2,1.2,0,3.6c-2.4,2.8-2.8,3-4.6,1.4c-2-1.4-4-3-5.6-4.8c-1.4-1.8-4-8.9-4-8.9s1.6-1,2.6-2.2c0.6-1,0.8-1.6,0.8-1.6
	s-2,2-4.4,2.6c-0.8,1-2.2,2.2-3.4,2.8c-4,1.6-5.4-3.6-5.4-3.6l0.6-0.2c0,0,1.2,2.8,3,2.4c3.6-0.4,2.6-8.1,2.6-8.1s-3.6,5.4-11.5,5.2
	C6.3,28,0.9,22.4,1.3,12.5z M27.8,12.1c0,0-0.4-3.6-1-4c-0.8-0.6-3.4,0.2-3.4,0.2s1.6,0,2.4,0.8C26.6,9.9,27.8,12.1,27.8,12.1z
	 M21.8,15.4c1.2,0.8,2,2,2,2s-0.2-0.4-0.4-0.8c-0.2-0.4-0.6-0.8-0.6-0.8s0.4-0.2,1-0.6c0.4-0.4,0.6-0.8,0.6-1c0,0,0.2,0.2,0.4,0.4
	s0.8,0.8,0.8,0.8s-1-2-2.4-3s-3-1-3-1s0,0,0.6,0.2c0.6,0.4,0.6,0.4,0.6,0.4s-0.4,0.2-1,0.6C20,12.9,20,13.8,20,13.8s-0.2,0-0.6-0.2
	c-0.4-0.2-1.2-0.4-1.2-0.4S20.2,14.2,21.8,15.4z M6.1,6.1c1.2,1,2.6,1,2.8,0.6c0.2-0.4-0.2-0.4-0.2-0.4s-1.4-0.4-2-1.2
	c-1-0.8-1.8-2.4-2-2C4.1,3.5,5.1,5.3,6.1,6.1z"/>
</svg>
