<?xml version="1.0" encoding="utf-8"?>
<!-- Generator: Adobe Illustrator 19.1.0, SVG Export Plug-In . SVG Version: 6.00 Build 0)  -->
<!DOCTYPE svg PUBLIC "-//W3C//DTD SVG 1.1//EN" "http://www.w3.org/Graphics/SVG/1.1/DTD/svg11.dtd">
<svg version="1.1" id="Layer_1" xmlns="http://www.w3.org/2000/svg" xmlns:xlink="http://www.w3.org/1999/xlink" x="0px" y="0px"
	 viewBox="0 0 16 16" enable-background="new 0 0 16 16" xml:space="preserve">
<g>
	<g id="XMLID_213_">
		<g>
            <path fill="#48525E" d="M8,1c3.9,0,7,3.1,7,7s-3.1,7-7,7s-7-3.1-7-7S4.1,1,8,1 M8,0C3.6,0,0,3.6,0,8s3.6,8,8,8s8-3.6,8-8
				S12.4,0,8,0L8,0z" />
		</g>
	</g>
	<g>
		<g>
            <path fill="#48525E" d="M7.4,9.8c0-0.1-0.1-0.2-0.1-0.3c0-0.1,0-0.2,0-0.3c0-0.2,0-0.3,0-0.5c0-0.1,0.1-0.3,0.1-0.4
				c0.1-0.1,0.1-0.2,0.2-0.3c0.1-0.1,0.2-0.2,0.3-0.3c0.1-0.1,0.3-0.2,0.4-0.3C8.5,7.2,8.6,7.1,8.7,7c0.1-0.1,0.1-0.2,0.2-0.3
				c0-0.1,0.1-0.2,0.1-0.4c0-0.1,0-0.2-0.1-0.3c0-0.1-0.1-0.2-0.2-0.2S8.5,5.7,8.4,5.6S8.2,5.6,8.1,5.6c-0.3,0-0.6,0.1-0.9,0.2
				C6.9,5.9,6.6,6,6.3,6.3V4.7c0.3-0.2,0.6-0.3,0.9-0.4s0.7-0.1,1-0.1c0.3,0,0.6,0,0.9,0.1c0.3,0.1,0.5,0.2,0.8,0.3s0.4,0.4,0.5,0.6
				c0.1,0.2,0.2,0.5,0.2,0.9c0,0.2,0,0.4-0.1,0.6c0,0.2-0.1,0.3-0.2,0.5s-0.2,0.3-0.4,0.5C9.8,7.8,9.6,8,9.5,8.1
				C9.3,8.2,9.2,8.3,9.1,8.4S8.9,8.6,8.9,8.7C8.8,8.8,8.8,8.8,8.7,8.9c0,0.1,0,0.2,0,0.3c0,0.1,0,0.2,0,0.3s0.1,0.2,0.1,0.2H7.4z
				 M8.2,12.1c-0.3,0-0.5-0.1-0.7-0.3c-0.2-0.2-0.3-0.4-0.3-0.6c0-0.3,0.1-0.5,0.3-0.6s0.4-0.3,0.7-0.3c0.3,0,0.5,0.1,0.7,0.3
				c0.2,0.2,0.3,0.4,0.3,0.6c0,0.3-0.1,0.5-0.3,0.6C8.7,12,8.5,12.1,8.2,12.1z" />
		</g>
	</g>
</g>
</svg>
