<?xml version="1.0" encoding="utf-8"?>
<!-- Generator: Adobe Illustrator 18.0.0, SVG Export Plug-In . SVG Version: 6.00 Build 0)  -->
<!DOCTYPE svg PUBLIC "-//W3C//DTD SVG 1.1//EN" "http://www.w3.org/Graphics/SVG/1.1/DTD/svg11.dtd">
<svg version="1.1" id="Layer_1" xmlns="http://www.w3.org/2000/svg" xmlns:xlink="http://www.w3.org/1999/xlink" x="0px" y="0px"
	 viewBox="0 0 612 792" enable-background="new 0 0 612 792" xml:space="preserve">
<g>
	<g>
		<defs>
			<circle id="SVGID_1_" cx="306" cy="396" r="286.9"/>
		</defs>
		<clipPath id="SVGID_2_">
			<use xlink:href="#SVGID_1_"  overflow="visible"/>
		</clipPath>
		<g clip-path="url(#SVGID_2_)">
			<path fill="#6BB700" d="M971.5,648.5l-34.4,34.4L-363.4-617.6L-329-652L971.5,648.5z M971.5,801.5l-34.4,34.4L-363.4-464.6
				L-329-499L971.5,801.5z M971.5,954.4l-34.4,34.4L-363.4-311.6L-329-346L971.5,954.4z M971.5,1107.4l-34.4,34.4L-363.4-158.6
				L-329-193L971.5,1107.4z M971.5,1260.4l-34.4,34.4L-363.4-5.6L-329-40L971.5,1260.4z M971.5,1413.4l-34.4,34.4L-363.4,147.4
				l34.4-34.4L971.5,1413.4z"/>
		</g>
	</g>
</g>
</svg>
