<?xml version="1.0" encoding="utf-8"?>
<!-- Generator: Adobe Illustrator 18.1.1, SVG Export Plug-In . SVG Version: 6.00 Build 0)  -->
<!DOCTYPE svg PUBLIC "-//W3C//DTD SVG 1.1//EN" "http://www.w3.org/Graphics/SVG/1.1/DTD/svg11.dtd">
<svg version="1.1" id="Layer_1" xmlns="http://www.w3.org/2000/svg" xmlns:xlink="http://www.w3.org/1999/xlink" x="0px" y="0px"
	 viewBox="0 0 90 90" enable-background="new 0 0 90 90" xml:space="preserve">
<g>
	<path fill="#3C454F" d="M57.1,19.7c-4.4,0-8.6,1.4-12.1,4c-3.5-2.6-7.7-4-12.1-4c-5.4,0-10.4,2.1-14.2,5.9
		c-3.8,3.8-5.9,8.9-5.9,14.2c0,5.4,2.1,10.4,5.9,14.3L45,79.9L71.3,54c3.8-3.8,5.9-8.9,5.9-14.2c0-5.4-2.1-10.4-5.9-14.2
		C67.5,21.7,62.5,19.7,57.1,19.7 M22.2,51.9h5.5l3.2-3.2L45,62.8l16.1-16.1l5.2,5.2h1.5L45,74.2L22.2,51.9z M71,47.8h-3L61.1,41
		L45,57.1L30.9,43L26,47.8H19c-1.4-2.4-2.2-5.2-2.2-8.1c0-4.3,1.7-8.3,4.7-11.4c3-3,7.1-4.7,11.4-4.7c4,0,7.8,1.5,10.8,4.1L45,29
		l1.3-1.2c3-2.7,6.8-4.1,10.8-4.1c4.3,0,8.3,1.7,11.4,4.7c3,3,4.7,7.1,4.7,11.4C73.2,42.7,72.4,45.4,71,47.8"/>
</g>
</svg>
