<?xml version="1.0" encoding="utf-8"?>
<!-- Generator: Adobe Illustrator 19.1.0, SVG Export Plug-In . SVG Version: 6.00 Build 0)  -->
<svg version="1.1" xmlns="http://www.w3.org/2000/svg" xmlns:xlink="http://www.w3.org/1999/xlink" x="0px" y="0px"
	 viewBox="0 0 16 16" enable-background="new 0 0 16 16" xml:space="preserve">
<g id="Layer_1">
	<g id="stop">
	</g>
	<g id="warning">
	</g>
	<g id="arrow-right-sm">
	</g>
	<g>
		<path fill="#48525E" d="M6.8,16l-0.8-2.2l-0.8-0.3l-2.1,1l-1.7-1.7l0.1-0.3l0.8-1.8L2.2,10L0,9.3l0-2.4l2.2-0.8l0.3-0.8l-1-2.1
			l1.7-1.7l2.1,1L6,2.2L6.7,0l2.4,0l0.8,2.2l0.8,0.3l2.1-1l1.7,1.7l-1,2.1L13.8,6L16,6.7l0,2.4l-2.2,0.8l-0.3,0.8l1,2.1l-1.7,1.7
			l-2.1-1L10,13.8L9.3,16L6.8,16z M5.3,12.4l1.6,0.7L7.5,15l1,0l0.6-1.9l1.6-0.7l1.9,0.9l0.7-0.7l-0.9-1.8l0.7-1.6L15,8.5l0-1
			l-1.9-0.6l-0.7-1.6l0.9-1.9l-0.7-0.7l-1.8,0.9L9.2,2.9L8.5,1l-1,0L6.8,2.9L5.2,3.6L3.4,2.7L2.7,3.4l0.9,1.8L2.9,6.8L1,7.5l0,1
			l1.9,0.6l0.7,1.6l-0.9,1.9l0.7,0.7L5.3,12.4z M8,10.6c-0.7,0-1.3-0.3-1.8-0.7C5.7,9.3,5.4,8.7,5.4,8s0.3-1.3,0.7-1.8
			C6.7,5.7,7.3,5.4,8,5.4c0,0,0,0,0,0c0.7,0,1.3,0.3,1.8,0.7c0.5,0.5,0.8,1.1,0.8,1.8c0,0.7-0.3,1.3-0.7,1.8
			C9.3,10.3,8.7,10.6,8,10.6l0-0.5L8,10.6C8,10.6,8,10.6,8,10.6z M8,6.4C8,6.4,8,6.4,8,6.4c-0.4,0-0.8,0.2-1.1,0.5
			C6.6,7.2,6.4,7.6,6.4,8c0,0.4,0.2,0.8,0.5,1.1S7.6,9.6,8,9.6c0,0,0,0,0,0c0.4,0,0.8-0.2,1.1-0.5C9.4,8.8,9.6,8.4,9.6,8
			c0-0.4-0.2-0.8-0.5-1.1C8.8,6.6,8.4,6.4,8,6.4z"/>
	</g>
</g>
<g id="Layer_2">
</g>
</svg>
