<?xml version="1.0" encoding="utf-8"?>
<!-- Generator: Adobe Illustrator 18.1.1, SVG Export Plug-In . SVG Version: 6.00 Build 0)  -->
<!DOCTYPE svg PUBLIC "-//W3C//DTD SVG 1.1//EN" "http://www.w3.org/Graphics/SVG/1.1/DTD/svg11.dtd">
<svg version="1.1" id="Layer_1" xmlns="http://www.w3.org/2000/svg" xmlns:xlink="http://www.w3.org/1999/xlink" x="0px" y="0px"
	 viewBox="0 0 90 90" enable-background="new 0 0 90 90" xml:space="preserve">
<g>
	<path fill="#3C454F" d="M76.3,37.5c2.6-2.1,4.4-5.3,4.4-9c0-6.4-5.2-11.5-11.5-11.5c-6.4,0-11.5,5.2-11.5,11.5c0,3.6,1.7,6.8,4.4,9
		c-1.7,1.1-3.2,2.5-4.4,4.2c-2.5-3.7-6.7-6.2-11.5-6.2c-4.8,0-9.1,2.5-11.5,6.2c-1.1-1.7-2.6-3.1-4.4-4.2c2.6-2.1,4.4-5.3,4.4-9
		c0-6.4-5.2-11.5-11.5-11.5c-6.4,0-11.5,5.2-11.5,11.5c0,3.6,1.7,6.8,4.4,9c-4,2.4-6.7,6.8-6.7,11.8h4.6c0-5.1,4.1-9.2,9.2-9.2
		c5.1,0,9.2,4.1,9.2,9.2c0,4.6,2.2,8.6,5.7,11.2c-6.1,3-10.3,9.3-10.3,16.5h4.6c0-7.6,6.2-13.8,13.8-13.8c7.6,0,13.8,6.2,13.8,13.8
		h4.6c0-7.2-4.2-13.5-10.3-16.5c3.4-2.5,5.7-6.6,5.7-11.2c0-5.1,4.1-9.2,9.2-9.2c5.1,0,9.2,4.1,9.2,9.2h4.6
		C82.9,44.3,80.3,39.9,76.3,37.5 M16,28.5c0-3.8,3.1-6.9,6.9-6.9c3.8,0,6.9,3.1,6.9,6.9c0,3.8-3.1,6.9-6.9,6.9
		C19.1,35.5,16,32.4,16,28.5 M46,58.5c-5.1,0-9.2-4.1-9.2-9.2c0-5.1,4.1-9.2,9.2-9.2c5.1,0,9.2,4.1,9.2,9.2
		C55.2,54.4,51.1,58.5,46,58.5 M62.2,28.5c0-3.8,3.1-6.9,6.9-6.9c3.8,0,6.9,3.1,6.9,6.9c0,3.8-3.1,6.9-6.9,6.9
		C65.3,35.5,62.2,32.4,62.2,28.5"/>
</g>
</svg>
