<?xml version="1.0" encoding="utf-8"?>
<!-- Generator: Adobe Illustrator 18.1.1, SVG Export Plug-In . SVG Version: 6.00 Build 0)  -->
<svg version="1.1" id="Layer_1" xmlns="http://www.w3.org/2000/svg" xmlns:xlink="http://www.w3.org/1999/xlink" x="0px" y="0px"
	 viewBox="0 0 61.7 83" enable-background="new 0 0 61.7 83" xml:space="preserve">
<g>
	<path fill="#FFFFFF" d="M30.9,0C13.5,0,0,6,0,12.2v58.1C0,77,13.7,83,30.9,83s30.9-5.7,30.9-12.2V12.7C61.7,6.2,48.2,0,30.9,0z
		 M29.4,51.9c-1.8,1.8-4.3,2.6-7.3,2.6h-6.7V35.7h6.7c6.7,0,10,3.1,10,9.2C32.1,47.8,31.2,50.1,29.4,51.9z M47.6,53
		c-1.2,1-2.9,1.5-5.1,1.5h-7.2V35.7h6.9c2.1,0,3.7,0.4,4.8,1.2c1.1,0.8,1.7,1.9,1.7,3.3c0,1-0.3,1.9-1,2.7c-0.7,0.8-1.6,1.3-2.6,1.6
		v0.1c1.3,0.2,2.4,0.7,3.2,1.5c0.8,0.8,1.2,1.8,1.2,3C49.4,50.6,48.8,52,47.6,53z M31.1,18.4c-12.2,0-22.3-3.1-22.3-7s10.1-7,22.3-7
		s22,3.1,22,7S43.1,18.4,31.1,18.4z"/>
	<path fill="#FFFFFF" d="M21.8,39.1h-2.1v11.9h2.1c1.8,0,3.3-0.6,4.3-1.7c1-1.1,1.6-2.6,1.6-4.5c0-1.8-0.5-3.2-1.6-4.2
		C25.1,39.7,23.6,39.1,21.8,39.1z"/>
	<path fill="#FFFFFF" d="M43.4,42.6c0.5-0.4,0.8-1,0.8-1.8c0-1.4-1-2.1-3.1-2.1h-1.6v4.5h1.9C42.2,43.3,42.9,43.1,43.4,42.6z"/>
	<path fill="#FFFFFF" d="M44.1,47.1c-0.5-0.4-1.3-0.6-2.3-0.6h-2.3v5h2.3c1,0,1.7-0.2,2.3-0.7c0.6-0.5,0.8-1.1,0.8-1.9
		C44.9,48.1,44.7,47.5,44.1,47.1z"/>
</g>
</svg>
