<?xml version="1.0" encoding="utf-8"?>
<!-- Generator: Adobe Illustrator 18.1.1, SVG Export Plug-In . SVG Version: 6.00 Build 0)  -->
<svg version="1.1" id="Layer_1" xmlns="http://www.w3.org/2000/svg" xmlns:xlink="http://www.w3.org/1999/xlink" x="0px" y="0px"
	 viewBox="0 0 66.5 68.8" enable-background="new 0 0 66.5 68.8" xml:space="preserve">
<g>
	<path fill="#FFFFFF" d="M41.3,31c0,0.7-0.5,1.1-1.1,1.1h-8.9c-0.7,0-1.1-0.5-1.1-1.1v-6.7c0-0.7,0.5-1.1,1.1-1.1h8.9
		c0.7,0,1.1,0.5,1.1,1.1V31z"/>
	<path fill="#FFFFFF" d="M57.3,37.8c0,0.7-0.5,1.1-1.1,1.1h-8.9c-0.7,0-1.1-0.5-1.1-1.1v-6.7c0-0.7,0.5-1.1,1.1-1.1h8.9
		c0.7,0,1.1,0.5,1.1,1.1V37.8z"/>
	<path fill="#FFFFFF" d="M41.3,44.7c0,0.7-0.5,1.1-1.1,1.1h-8.9c-0.7,0-1.1-0.5-1.1-1.1v-6.7c0-0.7,0.5-1.1,1.1-1.1h8.9
		c0.7,0,1.1,0.5,1.1,1.1V44.7z"/>
	<path fill="#FFFFFF" d="M25.2,24.1c0,0.7-0.5,1.1-1.1,1.1h-9.2c-0.7,0-1.1-0.5-1.1-1.1v-6.9c0-0.7,0.5-1.1,1.1-1.1h8.9
		c0.9,0,1.4,0.5,1.4,1.1V24.1z"/>
	<path fill="#FFFFFF" d="M25.2,37.8c0,0.7-0.5,1.1-1.1,1.1h-9.2c-0.7,0-1.1-0.5-1.1-1.1v-6.7c0-0.9,0.5-1.4,1.1-1.4h8.9
		c0.7,0,1.1,0.5,1.1,1.1v6.9H25.2z"/>
	<path fill="#FFFFFF" d="M25.2,51.6c0,0.7-0.5,1.1-1.1,1.1h-9.2c-0.7,0-1.1-0.5-1.1-1.1V45c0-0.9,0.5-1.4,1.1-1.4h8.9
		c0.7,0,1.1,0.5,1.1,1.1v6.9H25.2z"/>
	<path fill="#FFFFFF" d="M65.4,0L65.4,0h-6.9H7.8H3.4H1.1C0.5,0,0,0.5,0,1.1v13.8c0,0.7,0.5,1.1,1.1,1.1H8c0.7,0,1.1-0.5,1.1-1.1
		V9.2h48.2v5.7c0,0.7,0.5,1.1,1.4,1.1h6.7c0.7,0,1.1-0.5,1.1-1.1V8V1.1C66.5,0.5,66.1,0,65.4,0z"/>
	<path fill="#FFFFFF" d="M65.4,53h-6.7c-0.7,0-1.1,0.5-1.1,1.1v5.5H9.2v-5.7c0-0.7-0.5-1.1-1.4-1.1H1.1c-0.7,0-1.1,0.5-1.1,1.4v13.5
		c0,0.7,0.5,1.1,1.1,1.1h2.3H8h50.7h6.4h0.2c0.7,0,1.1-0.5,1.1-1.1V54.1C66.5,53.4,66.1,53,65.4,53z"/>
</g>
</svg>
