<?xml version="1.0" encoding="utf-8"?>
<!-- Generator: Adobe Illustrator 18.1.1, SVG Export Plug-In . SVG Version: 6.00 Build 0)  -->
<svg version="1.1" id="Layer_1" xmlns="http://www.w3.org/2000/svg" xmlns:xlink="http://www.w3.org/1999/xlink" x="0px" y="0px"
	 viewBox="0 0 89.3 76" enable-background="new 0 0 89.3 76" xml:space="preserve">
<path fill="#FFFFFF" d="M85.7,0H3.3C1.4,0,0,1.4,0,3.1v69.6C0,74.6,1.7,76,3.3,76H86c1.9,0,3.3-1.7,3.3-3.3V3.1
	C89,1.1,87.4,0,85.7,0z M42.8,32.6v10H26.2v-10H42.8z M26.2,29.2v-9.7h16.7v10H26.2V29.2z M42.8,45.9v10H26.2v-10H42.8z M46.2,45.9
	h16.7v10H46.2V45.9z M46.2,42.8v-10h16.7v10H46.2z M46.2,29.2v-9.7h16.7v10H46.2V29.2z M6.7,19.5h16.7v10H6.7L6.7,19.5L6.7,19.5z
	 M6.7,32.6h16.7v10H6.7L6.7,32.6L6.7,32.6z M6.7,45.9h16.7v10H6.7L6.7,45.9L6.7,45.9z M6.7,69V59h16.7v10H6.7z M26.2,69V59h16.7v10
	H26.2z M46.2,69V59h16.7v10H46.2z M82.4,69H65.7V59h16.7V69z M82.4,55.9H65.7v-10h16.7V55.9z M82.4,42.8H65.7v-10h16.7V42.8z
	 M82.4,29.2H65.7v-9.7h16.7V29.2z"/>
</svg>
