<?xml version="1.0" encoding="utf-8"?>
<!-- Generator: Adobe Illustrator 19.1.1, SVG Export Plug-In . SVG Version: 6.00 Build 0)  -->
<svg version="1.1" id="Layer_1" xmlns="http://www.w3.org/2000/svg" xmlns:xlink="http://www.w3.org/1999/xlink" x="0px" y="0px"
	 viewBox="0 0 16 16" style="enable-background:new 0 0 16 16;" xml:space="preserve">
<style type="text/css">
	.st0{fill:none;}
</style>
<symbol  id="views" viewBox="0 -16 16 16">
	<g>
		<path d="M8-3.7c3.6,0,6-3.1,6.8-4.3C14-9.2,11.6-12.3,8-12.3c-3.6,0-6,3.1-6.8,4.3C2-6.8,4.4-3.7,8-3.7 M8-11.3
			c1.9,0,3.4,1.5,3.4,3.3c0,1.8-1.5,3.3-3.4,3.3C6.1-4.7,4.6-6.2,4.6-8C4.6-9.8,6.1-11.3,8-11.3 M8-2.7C2.9-2.7,0-8,0-8
			s2.9-5.3,8-5.3c5.1,0,8,5.3,8,5.3S13.1-2.7,8-2.7L8-2.7z M8-10.3c-1.3,0-2.4,1-2.4,2.3c0,1.3,1.1,2.3,2.4,2.3c1.3,0,2.4-1,2.4-2.3
			C10.4-9.3,9.3-10.3,8-10.3L8-10.3z"/>
	</g>
	<polygon class="st0" points="16,-16 0,-16 0,0 16,0 	"/>
</symbol>
<use xlink:href="#views"  width="16" height="16" id="XMLID_8_" y="-16" transform="matrix(1 0 0 -1 0 0)" style="overflow:visible;"/>
</svg>
