<?xml version="1.0" encoding="utf-8"?>
<!-- Generator: Adobe Illustrator 18.0.0, SVG Export Plug-In . SVG Version: 6.00 Build 0)  -->
<!DOCTYPE svg PUBLIC "-//W3C//DTD SVG 1.1//EN" "http://www.w3.org/Graphics/SVG/1.1/DTD/svg11.dtd">
<svg version="1.1" id="Layer_1" xmlns="http://www.w3.org/2000/svg" xmlns:xlink="http://www.w3.org/1999/xlink" x="0px" y="0px"
	 viewBox="0 0 612 792" enable-background="new 0 0 612 792" xml:space="preserve">
<g>
	<path fill="#FFFFFF" d="M126.2,281.3c0-80.3,65-149.2,149.2-149.2c80.3,0,145.4,65,145.4,149.2c0,80.3-65,149.2-149.2,149.2
		c34.4-3.8,68.9,3.8,95.6,15.3c57.4-34.4,95.6-95.6,95.6-164.5C462.8,178,378.7,90,271.6,90C168.3,90,80.3,174.2,80.3,281.3
		c0,68.9,38.3,130,95.6,164.5c34.4-11.5,65-19.1,99.4-19.1C191.3,426.6,126.2,361.6,126.2,281.3"/>
	<path fill="#FFFFFF" d="M275.4,468.7c126.2,0,233.3,103.3,233.3,233.3h42.1c0-118.6-76.5-218-179.8-256.3
		c-30.6-11.5-65-19.1-95.6-19.1c-34.4,0-65,7.6-95.6,19.1C76.5,484,0,583.4,0,702h42.1C42.1,575.8,145.3,468.7,275.4,468.7"/>
</g>
</svg>
