<?xml version="1.0" encoding="utf-8"?>
<!-- Generator: Adobe Illustrator 17.1.0, SVG Export Plug-In . SVG Version: 6.00 Build 0)  -->
<!DOCTYPE svg PUBLIC "-//W3C//DTD SVG 1.1//EN" "http://www.w3.org/Graphics/SVG/1.1/DTD/svg11.dtd">
<svg version="1.1" id="Layer_1" xmlns="http://www.w3.org/2000/svg" xmlns:xlink="http://www.w3.org/1999/xlink" x="0px" y="0px"
	 viewBox="0 0 16 16" enable-background="new 0 0 16 16" xml:space="preserve">
<g>
	<path fill="#48525E" d="M3.3,5c0-2.1,1.7-3.9,3.9-3.9C9.3,1.1,11,2.8,11,5c0,2.1-1.7,3.9-3.9,3.9C8,8.8,8.9,9,9.6,9.3
		c1.5-0.9,2.5-2.5,2.5-4.3c0-2.7-2.2-5-5-5c-2.7,0-5,2.2-5,5c0,1.8,1,3.4,2.5,4.3C5.5,9,6.3,8.8,7.2,8.8C5,8.8,3.3,7.1,3.3,5"/>
	<path fill="#48525E" d="M7.2,9.9c3.3,0,6.1,2.7,6.1,6.1h1.1c0-3.1-2-5.7-4.7-6.7C8.9,9,8,8.8,7.2,8.8C6.3,8.8,5.5,9,4.7,9.3
		C2,10.3,0,12.9,0,16h1.1C1.1,12.7,3.8,9.9,7.2,9.9"/>
</g>
</svg>
