<?xml version="1.0" encoding="utf-8"?>
<!-- Generator: Adobe Illustrator 18.1.0, SVG Export Plug-In . SVG Version: 6.00 Build 0)  -->
<svg version="1.1" xmlns="http://www.w3.org/2000/svg" xmlns:xlink="http://www.w3.org/1999/xlink" x="0px" y="0px"
	 viewBox="0 0 29 24" enable-background="new 0 0 29 24" xml:space="preserve">
<g id="Layer_1">
	<path fill-rule="evenodd" clip-rule="evenodd" fill="#315377" d="M23,6.9c0-0.1-0.1-0.2-0.2-0.3c-0.1-0.1-0.2-0.2-0.3-0.2
		c0,0-0.1,0-0.2,0.1c0.2-0.3,0.3-0.6,0.3-0.8c0-0.1,0-0.2-0.1-0.3c-0.1-0.1-0.2-0.2-0.3-0.2c-0.1,0-0.2,0-0.3,0.1
		c-0.6,0.4-1.1,0.6-1.5,0.7c-0.7-0.6-1.4-1-2.3-1c-1,0-1.8,0.4-2.5,1.1c-0.7,0.7-1,1.6-1,2.6v0.2c-1.1-0.2-2-0.5-2.9-1
		C10.8,7.3,10,6.6,9.3,5.7C9.2,5.5,9,5.5,8.8,5.5c-0.3,0-0.5,0.2-0.6,0.8C8.1,6.8,8,7.2,8,7.6c0,0.6,0.2,1.2,0.4,1.8
		c-0.1,0-0.2,0.1-0.3,0.2C8,9.6,8,9.7,8,9.9C8,11,8.4,12,9.2,12.7C9.1,12.8,9,12.9,9,13.1c0,0.1,0,0.1,0,0.1c0.2,0.5,0.4,1,0.8,1.4
		c0.4,0.4,0.8,0.7,1.3,0.9c-0.8,0.4-1.6,0.7-2.5,0.7c-0.1,0-0.2,0-0.4,0c-0.2,0-0.3,0-0.4,0c-0.1,0-0.2,0-0.3,0.1
		c-0.1,0.1-0.1,0.2-0.1,0.3c0,0.2,0.1,0.3,0.2,0.4c0.6,0.5,1.4,0.9,2.3,1.1c0.9,0.3,1.7,0.4,2.6,0.4c1.3,0,2.6-0.3,3.8-0.9
		c1.7-0.8,3-2,3.9-3.6c0.9-1.6,1.4-3.3,1.3-5.2V8.8c0.3-0.2,0.6-0.6,0.9-1C22.8,7.4,23,7.1,23,6.9L23,6.9z M26.9,4.4v14.7
		c0,1.2-0.4,2.3-1.3,3.1c-0.9,0.9-1.9,1.3-3.1,1.3H7.9c-1.2,0-2.2-0.4-3.1-1.3c-0.9-0.9-1.3-1.9-1.3-3.1V4.4c0-1.2,0.4-2.2,1.3-3.1
		C5.6,0.4,6.7,0,7.9,0h14.6c1.2,0,2.2,0.4,3.1,1.3C26.4,2.1,26.9,3.2,26.9,4.4L26.9,4.4z"/>
</g>
<g id="specctr">
	<g id="Spacing">
	</g>
	<g id="Dimensions">
	</g>
	<g id="Text_Properties">
	</g>
</g>
</svg>
