<?xml version="1.0" encoding="utf-8"?>
<!-- Generator: Adobe Illustrator 18.1.0, SVG Export Plug-In . SVG Version: 6.00 Build 0)  -->
<svg version="1.1" xmlns="http://www.w3.org/2000/svg" xmlns:xlink="http://www.w3.org/1999/xlink" x="0px" y="0px"
	 viewBox="0 0 29 24" enable-background="new 0 0 29 24" xml:space="preserve">
<g id="Layer_1">
	<path fill-rule="evenodd" clip-rule="evenodd" fill="#315377" d="M28,8.5v12.2c0,0.7-0.2,1.3-0.7,1.7c-0.5,0.5-1.1,0.7-1.7,0.7H3.1
		c-0.7,0-1.3-0.2-1.7-0.7s-0.7-1.1-0.7-1.7V8.5c0.5,0.5,1,0.9,1.5,1.3c3.7,2.5,6.2,4.3,7.6,5.3c0.6,0.4,1,0.8,1.4,1
		c0.4,0.2,0.8,0.5,1.4,0.7c0.6,0.2,1.2,0.4,1.7,0.4l0,0h0c0.5,0,1.1-0.1,1.7-0.4c0.6-0.2,1.1-0.5,1.4-0.7c0.4-0.2,0.8-0.6,1.4-1
		c1.7-1.3,4.3-3,7.6-5.3C27.1,9.4,27.6,9,28,8.5L28,8.5z M28,4c0,0.8-0.2,1.6-0.8,2.3c-0.5,0.7-1.1,1.4-1.9,1.9
		c-3.8,2.7-6.2,4.3-7.1,5c-0.1,0.1-0.3,0.2-0.6,0.5c-0.3,0.2-0.6,0.4-0.8,0.6c-0.2,0.1-0.5,0.3-0.8,0.5c-0.3,0.2-0.6,0.3-0.9,0.4
		c-0.3,0.1-0.5,0.2-0.8,0.2h0l0,0c-0.2,0-0.5-0.1-0.8-0.2c-0.3-0.1-0.6-0.2-0.9-0.4c-0.3-0.2-0.6-0.4-0.8-0.5
		c-0.2-0.2-0.5-0.3-0.8-0.6c-0.3-0.2-0.5-0.4-0.7-0.5c-0.9-0.6-2.3-1.6-4-2.8C4.7,9.2,3.6,8.4,3.3,8.2C2.6,7.7,2,7.2,1.5,6.4
		C0.9,5.7,0.6,5,0.6,4.3c0-0.8,0.2-1.5,0.6-2c0.4-0.5,1-0.8,1.8-0.8h22.5c0.7,0,1.2,0.2,1.7,0.7C27.8,2.7,28,3.3,28,4L28,4z"/>
</g>
<g id="specctr">
	<g id="Spacing">
	</g>
	<g id="Dimensions">
	</g>
	<g id="Text_Properties">
	</g>
</g>
</svg>
