<?xml version="1.0" encoding="utf-8"?>
<!-- Generator: Adobe Illustrator 19.1.0, SVG Export Plug-In . SVG Version: 6.00 Build 0)  -->
<!DOCTYPE svg PUBLIC "-//W3C//DTD SVG 1.1//EN" "http://www.w3.org/Graphics/SVG/1.1/DTD/svg11.dtd">
<svg version="1.1" id="Layer_1" xmlns="http://www.w3.org/2000/svg" xmlns:xlink="http://www.w3.org/1999/xlink" x="0px" y="0px"
	 viewBox="0 0 65 65" enable-background="new 0 0 65 65" xml:space="preserve">
<symbol  id="data-factory" viewBox="-14.3 -14.2 28.6 28.5">
	<path fill="#B6B8BA" d="M14.2,2.5L14.2,2.5v-6.9L6.4,2.4H6.2v-6.8l-7.8,6.8l0,0v-14.2c0-1.2-2.7-2.4-6.2-2.4s-6.5,1.1-6.5,2.4v26.1
		h12.5l0,0h16.1L14.2,2.5z M-7.8-10.7c-2.6,0-4.6-0.6-4.6-1.3s2.1-1.3,4.6-1.3s4.6,0.6,4.6,1.3C-3.3-11.3-5.3-10.7-7.8-10.7z
		 M5.7,9.6H2.5V6.5h3.1L5.7,9.6L5.7,9.6z M0.1,9.6H-3V6.5h3.1C0.1,6.5,0.1,9.6,0.1,9.6z M8.1,9.6V6.5h3.1v3.1H8.1z"/>
</symbol>
<use xlink:href="#data-factory"  width="28.6" height="28.5" id="XMLID_2_" x="-14.3" y="-14.2" transform="matrix(2.1834 0 0 2.2604 33.7774 32.4996)" overflow="visible"/>
</svg>
