<?xml version="1.0" encoding="utf-8"?>
<!-- Generator: Adobe Illustrator 19.1.0, SVG Export Plug-In . SVG Version: 6.00 Build 0)  -->
<!DOCTYPE svg PUBLIC "-//W3C//DTD SVG 1.1//EN" "http://www.w3.org/Graphics/SVG/1.1/DTD/svg11.dtd">
<svg version="1.1" id="Layer_1" xmlns="http://www.w3.org/2000/svg" xmlns:xlink="http://www.w3.org/1999/xlink" x="0px" y="0px"
	 viewBox="0 0 65 65" enable-background="new 0 0 65 65" xml:space="preserve">
<symbol  id="pbi" viewBox="-32.3 -31.8 61.8 65">
	<path fill="#B6B8BA" d="M23-26c-0.8,0-1.3,0.2-2.1,0.4L16-24.1c-0.8,0.2-1.3,1.2-1,1.9c0.2,0.8,1.2,1.3,1.9,1l5-1.5
		c1-0.4,2.1-0.2,3.1,0.6c1,0.6,1.3,1.7,1.3,2.7v32c0,1.5-1,2.9-2.3,3.3L-22.7,30c-1,0.2-2.1,0.2-3.1-0.4c-0.8-0.8-1.3-1.7-1.3-2.9
		V4.8c0-1-0.8-1.5-1.5-1.5c-1,0-1.5,0.8-1.5,1.5v21.9c0,2.1,1,4,2.7,5.2c1.7,1.3,3.9,1.5,5.8,1l46.6-14.2c2.7-0.8,4.6-3.5,4.6-6.4
		v-32c0-2.1-1-4-2.7-5.4C25.7-25.4,24.3-26,23-26 M-12.6-18.9c0-2.1-1.7-4-4-4s-3.9,1.7-3.9,4v17.1c0,2.1,1.7,4,3.9,4s4-1.7,4-4
		C-12.6-1.7-12.6-18.9-12.6-18.9z M-1.1-23.5c0-2.1-1.7-4-4-4s-3.9,1.7-3.9,4V2.7c0,2.1,1.7,4,4,4s4-1.7,4-4L-1.1-23.5L-1.1-23.5z
		 M-24.2-15c0-2.1-1.7-4-4-4s-4,1.7-4,4v9.4c0,2.1,1.7,4,4,4s4-1.9,4-4V-15z M10.5-27.7c0-2.1-1.7-4-4-4c-2.1,0-3.9,1.9-3.9,4V7.1
		c0,2.1,1.7,4,4,4c2.1,0,4-1.7,4-4L10.5-27.7L10.5-27.7z"/>
</symbol>
<use xlink:href="#pbi"  width="61.8" height="65" id="XMLID_1_" x="-32.3" y="-31.8" transform="matrix(0.9953 0 0 -0.9953 33.2837 33.22)" overflow="visible"/>
</svg>
