<?xml version="1.0" encoding="utf-8"?>
<!-- Generator: Adobe Illustrator 19.1.0, SVG Export Plug-In . SVG Version: 6.00 Build 0)  -->
<!DOCTYPE svg PUBLIC "-//W3C//DTD SVG 1.1//EN" "http://www.w3.org/Graphics/SVG/1.1/DTD/svg11.dtd">
<svg version="1.1" id="Layer_1" xmlns="http://www.w3.org/2000/svg" xmlns:xlink="http://www.w3.org/1999/xlink" x="0px" y="0px"
	 viewBox="0 0 65 65" enable-background="new 0 0 65 65" xml:space="preserve">
<symbol  id="eventhub" viewBox="-13.7 -14.1 27.4 28.2">
	<path fill="#B4B5B8" d="M-7.6,3.7h3.7c0.3,0,0.5,0.2,0.5,0.5V7h0.1c0,0.3-0.2,0.5-0.5,0.5h-3.8c-0.3,0-0.5-0.2-0.5-0.5V4.3
		C-8.1,3.9-7.9,3.7-7.6,3.7z"/>
	<path fill="#B4B5B8" d="M-8.1-7.1c0-0.3,0.2-0.5,0.5-0.5h3.7c0.4,0,0.6,0.2,0.6,0.5v2.8c0,0.3-0.2,0.5-0.5,0.5h-3.8
		c-0.3,0-0.5-0.2-0.5-0.5V-7.1z"/>
	<path fill="#B4B5B8" d="M-8.1-1.3c0-0.4,0.2-0.6,0.5-0.6h3.7c0.3,0,0.5,0.2,0.5,0.5v2.8h0.1c0,0.3-0.2,0.5-0.5,0.5h-3.8
		c-0.3,0-0.5-0.2-0.5-0.5V-1.3z"/>
	<path fill="#B4B5B8" d="M13.1-7.5h-2.7C10-7.5,9.8-7.7,9.8-8v-2.4H-9.9V-8c0,0.3-0.2,0.5-0.5,0.5h-2.8c-0.3,0-0.5-0.2-0.5-0.5v-5.6
		c0-0.3,0.2-0.5,0.5-0.5h0.9h1.8h20.8H13h0.1c0.3,0,0.5,0.2,0.5,0.5v2.8V-8C13.6-7.7,13.4-7.5,13.1-7.5z"/>
	<path fill="#B4B5B8" d="M9.4-1.8c0.3,0,0.5,0.2,0.5,0.5v2.7c0,0.3-0.2,0.5-0.5,0.5H5.7c-0.3,0-0.5-0.2-0.5-0.5v-2.7
		c0-0.3,0.2-0.5,0.5-0.5H9.4z"/>
	<path fill="#B4B5B8" d="M13.1,14.1L13.1,14.1h-2.7h-20.8h-1.9h-0.9c-0.3,0-0.5-0.2-0.5-0.5V8.1c0-0.4,0.2-0.6,0.5-0.6h2.7
		c0.4,0,0.6,0.2,0.6,0.5v2.4H10V8.1c0-0.3,0.2-0.5,0.5-0.5h2.7c0.3,0,0.5,0.2,0.5,0.5v5.6C13.6,13.9,13.4,14.1,13.1,14.1z"/>
	<path fill="#B4B5B8" d="M-0.9,1h3.7c0.3,0,0.5,0.2,0.5,0.5v2.7c0,0.3-0.2,0.5-0.5,0.5h-3.7c-0.3,0-0.5-0.2-0.5-0.5V1.5
		C-1.4,1.2-1.2,1-0.9,1z"/>
	<path fill="#B4B5B8" d="M-1.4-4.2c0-0.3,0.2-0.5,0.5-0.5h3.7c0.3,0,0.5,0.2,0.5,0.5v2.7C3.3-1.2,3.1-1,2.8-1h-3.7
		c-0.3,0-0.5-0.2-0.5-0.5V-4.2z"/>
</symbol>
<use xlink:href="#eventhub"  width="27.4" height="28.2" x="-13.7" y="-14.1" transform="matrix(2.2519 0 0 -2.2519 32.5004 32.4991)" overflow="visible"/>
</svg>
