<?xml version="1.0" encoding="utf-8"?>
<!-- Generator: Adobe Illustrator 19.2.1, SVG Export Plug-In . SVG Version: 6.00 Build 0)  -->
<svg version="1.1" id="Layer_1" xmlns="http://www.w3.org/2000/svg" xmlns:xlink="http://www.w3.org/1999/xlink" x="0px" y="0px"
	 width="16px" height="16px" viewBox="0 0 16 16" style="enable-background:new 0 0 16 16;" xml:space="preserve">
<g>
	<g>
		<rect y="2" width="2" height="1"/>
		<rect y="12" width="2" height="1"/>
		<rect y="7" width="2" height="1"/>
		<rect x="8" y="8" width="1" height="6"/>
		<rect x="15" y="8" width="1" height="6"/>
		<path d="M3,0C1.972,0,1.02,0.972,1.02,2L1,14.5C1,15.327,1.673,16,2.5,16H7v-1H2.5C2.224,15,2,14.776,2,14.5S2.224,14,2.5,14H7v-1
			H2.5c-0.175,0-0.344,0.03-0.5,0.085V2c0-0.477,0.523-1,1-1h11v4h1V0H3z"/>
	</g>
	<path d="M12,6C9.791,6,8,6.895,8,8c0,1.105,1.791,2,4,2s4-0.895,4-2C16,6.895,14.209,6,12,6z M12,9c-1.657,0-3-0.448-3-1
		c0-0.552,1.343-1,3-1s3,0.448,3,1C15,8.552,13.657,9,12,9z"/>
	<path d="M12,15c-1.718,0-3-0.448-3-1H8c0,1.105,1.791,2,4,2s4-0.895,4-2h-1C15,14.552,13.718,15,12,15z"/>
	<path d="M12,11c-1.718,0-3.111-0.448-3.111-1H8c0,1.105,1.791,2,4,2s3.989-0.895,3.989-2h-0.878C15.111,10.552,13.718,11,12,11z"/>
	<path d="M12,13c-1.718,0-3.111-0.448-3.111-1H8c0,1.105,1.791,2,4,2s3.99-0.895,3.99-2h-0.879C15.111,12.552,13.718,13,12,13z"/>
</g>
</svg>
