<?xml version="1.0" encoding="utf-8"?>
<!-- Generator: Adobe Illustrator 19.1.0, SVG Export Plug-In . SVG Version: 6.00 Build 0)  -->
<!DOCTYPE svg PUBLIC "-//W3C//DTD SVG 1.1//EN" "http://www.w3.org/Graphics/SVG/1.1/DTD/svg11.dtd">
<svg version="1.1" id="Layer_1" xmlns="http://www.w3.org/2000/svg" xmlns:xlink="http://www.w3.org/1999/xlink" x="0px" y="0px"
	 viewBox="0 0 20 20" enable-background="new 0 0 20 20" xml:space="preserve">
<path fill="#FFFFFF" d="M17,10.5H3c-0.5,0-1-0.4-1-1v0c0-0.5,0.4-1,1-1h14c0.5,0,1,0.4,1,1v0C18,10.1,17.6,10.5,17,10.5z"/>
<path fill="#FFFFFF" d="M17,6H3C2.4,6,2,5.6,2,5v0c0-0.5,0.4-1,1-1h14c0.5,0,1,0.4,1,1v0C18,5.6,17.6,6,17,6z"/>
<path fill="#FFFFFF" d="M17,15H3c-0.5,0-1-0.4-1-1v0c0-0.5,0.4-1,1-1h14c0.5,0,1,0.4,1,1v0C18,14.6,17.6,15,17,15z"/>
</svg>
