<?xml version="1.0" encoding="utf-8"?>
<!-- Generator: Adobe Illustrator 19.1.0, SVG Export Plug-In . SVG Version: 6.00 Build 0)  -->
<svg version="1.1" id="Layer_1" xmlns="http://www.w3.org/2000/svg" xmlns:xlink="http://www.w3.org/1999/xlink" x="0px" y="0px"
	 width="16px" height="16px" viewBox="0 0 16 16" style="enable-background:new 0 0 16 16;" xml:space="preserve">
<path d="M14.734,5.504c-0.177-0.638-0.429-1.235-0.754-1.793c-0.325-0.557-0.716-1.063-1.172-1.52
	c-0.456-0.456-0.962-0.846-1.52-1.172c-0.558-0.325-1.155-0.577-1.793-0.754C8.858,0.089,8.192,0,7.5,0S6.142,0.089,5.504,0.266
	C4.866,0.443,4.269,0.694,3.711,1.02c-0.558,0.326-1.064,0.716-1.52,1.172C1.735,2.647,1.345,3.154,1.02,3.711
	C0.694,4.269,0.442,4.866,0.266,5.504C0.088,6.142,0,6.808,0,7.5c0,0.693,0.088,1.358,0.266,1.996
	c0.177,0.639,0.428,1.236,0.754,1.793c0.325,0.558,0.716,1.064,1.172,1.52c0.456,0.456,0.962,0.847,1.52,1.172
	c0.558,0.326,1.155,0.577,1.793,0.754S6.808,15,7.5,15s1.358-0.089,1.996-0.266s1.235-0.428,1.793-0.754
	c0.558-0.325,1.063-0.716,1.52-1.172c0.456-0.455,0.847-0.962,1.172-1.52c0.325-0.557,0.577-1.154,0.754-1.793
	C14.911,8.858,15,8.193,15,7.5C15,6.808,14.911,6.142,14.734,5.504z M13.766,9.227c-0.156,0.553-0.375,1.069-0.656,1.551
	c-0.281,0.482-0.62,0.921-1.016,1.316c-0.396,0.396-0.835,0.734-1.316,1.016s-1,0.5-1.555,0.656S8.094,14,7.5,14
	c-0.599,0-1.175-0.078-1.727-0.234s-1.069-0.375-1.551-0.656c-0.482-0.281-0.921-0.619-1.316-1.016
	c-0.396-0.396-0.734-0.834-1.016-1.316c-0.281-0.481-0.5-1-0.656-1.555S1,8.094,1,7.5s0.078-1.168,0.234-1.723
	s0.375-1.073,0.656-1.555c0.281-0.481,0.62-0.92,1.016-1.316c0.396-0.396,0.834-0.734,1.316-1.016
	c0.481-0.281,0.999-0.5,1.551-0.656S6.901,1,7.5,1c0.594,0,1.168,0.078,1.723,0.234s1.073,0.375,1.555,0.656s0.921,0.62,1.316,1.016
	c0.396,0.396,0.734,0.835,1.016,1.316c0.281,0.482,0.5,1,0.656,1.555S14,6.906,14,7.5C14,8.099,13.922,8.675,13.766,9.227z"/>
<rect x="7" y="4" width="1" height="1"/>
<rect x="7" y="6" width="1" height="5"/>
</svg>
