<?xml version="1.0" encoding="utf-8"?>
<!-- Generator: Adobe Illustrator 19.1.0, SVG Export Plug-In . SVG Version: 6.00 Build 0)  -->
<svg version="1.1" id="Layer_1" xmlns="http://www.w3.org/2000/svg" xmlns:xlink="http://www.w3.org/1999/xlink" x="0px" y="0px"
	 width="16px" height="16px" viewBox="0 0 16 16" enable-background="new 0 0 16 16" xml:space="preserve">
<path d="M12,2V0H0v9h2v2h7.141c-0.043-0.166-0.076-0.333-0.102-0.5C9.012,10.334,9,10.167,9,10H3V3h10v3
	c0.166,0,0.332,0.013,0.5,0.039c0.166,0.026,0.332,0.06,0.5,0.102V2H12z M11,2H2v6H1V1h10V2z"/>
<path d="M15.762,8.836c-0.16-0.364-0.375-0.682-0.645-0.953c-0.271-0.271-0.59-0.485-0.953-0.645C13.799,7.08,13.41,7,13,7
	c-0.412,0-0.801,0.08-1.164,0.238c-0.365,0.159-0.684,0.374-0.953,0.645c-0.271,0.271-0.486,0.589-0.645,0.953
	C10.078,9.201,10,9.589,10,10c0,0.313,0.047,0.617,0.141,0.914s0.23,0.57,0.414,0.82c-0.084,0.084-0.229,0.223-0.434,0.418
	c-0.207,0.195-0.441,0.421-0.703,0.676c-0.264,0.256-0.537,0.525-0.82,0.809c-0.285,0.284-0.545,0.551-0.781,0.801
	c-0.238,0.25-0.434,0.472-0.586,0.664C7.077,15.294,7,15.427,7,15.5c0,0.136,0.049,0.253,0.148,0.352C7.247,15.95,7.364,16,7.5,16
	c0.072,0,0.205-0.077,0.398-0.23c0.191-0.153,0.414-0.349,0.664-0.586c0.25-0.236,0.515-0.497,0.8-0.781
	c0.283-0.283,0.553-0.557,0.809-0.82c0.254-0.263,0.48-0.497,0.676-0.703c0.195-0.205,0.334-0.35,0.418-0.434
	c0.25,0.183,0.523,0.32,0.82,0.414S12.688,13,13,13c0.41,0,0.799-0.079,1.164-0.238c0.363-0.158,0.682-0.373,0.953-0.645
	c0.27-0.271,0.484-0.588,0.645-0.953C15.92,10.8,16,10.412,16,10C16,9.589,15.92,9.201,15.762,8.836z M14.84,10.777
	c-0.107,0.242-0.25,0.453-0.43,0.633s-0.393,0.323-0.637,0.43C13.527,11.947,13.27,12,13,12c-0.277,0-0.535-0.053-0.777-0.16
	c-0.242-0.106-0.453-0.25-0.633-0.43s-0.324-0.391-0.43-0.633C11.053,10.535,11,10.276,11,10c0-0.271,0.053-0.528,0.16-0.773
	c0.105-0.245,0.25-0.457,0.43-0.637s0.391-0.323,0.633-0.43C12.465,8.054,12.723,8,13,8c0.27,0,0.527,0.054,0.773,0.16
	c0.244,0.107,0.457,0.25,0.637,0.43s0.322,0.392,0.43,0.637C14.945,9.472,15,9.729,15,10C15,10.276,14.945,10.535,14.84,10.777z"/>
</svg>
