<?xml version="1.0" encoding="utf-8"?>
<!-- Generator: Adobe Illustrator 19.2.1, SVG Export Plug-In . SVG Version: 6.00 Build 0)  -->
<svg version="1.1" id="Layer_1" xmlns="http://www.w3.org/2000/svg" xmlns:xlink="http://www.w3.org/1999/xlink" x="0px" y="0px"
	 width="16px" height="16px" viewBox="0 0 16 16" enable-background="new 0 0 16 16" xml:space="preserve">
<g enable-background="new    ">
	<path d="M14,1c0.1,0,0.3,0,0.4,0.1s0.2,0.1,0.3,0.2s0.2,0.2,0.2,0.3S15,1.9,15,2v13H2.8L1,13.2V2c0-0.1,0-0.3,0.1-0.4
		s0.1-0.2,0.2-0.3s0.2-0.2,0.3-0.2S1.9,1,2,1H14z M14,2h-1v6H3V2H2v10.8L3.2,14H4v-4h7v4h3V2z M4,7h8V2H4V7z M10,11H5v3h1v-2h1v2h3
		V11z"/>
</g>
</svg>
