<?xml version="1.0" encoding="utf-8"?>
<!-- Generator: Adobe Illustrator 19.1.0, SVG Export Plug-In . SVG Version: 6.00 Build 0)  -->
<svg version="1.1" id="Layer_1" xmlns="http://www.w3.org/2000/svg" xmlns:xlink="http://www.w3.org/1999/xlink" x="0px" y="0px"
	 width="16px" height="16px" viewBox="0 0 16 16" style="enable-background:new 0 0 16 16;" xml:space="preserve">
<path d="M13.93,7.719c0,0.047,0.001,0.094,0.004,0.141C13.936,7.906,13.938,7.953,13.938,8s-0.002,0.094-0.004,0.141
	c-0.003,0.047-0.004,0.094-0.004,0.141l2.023,1.258l-1.242,2.992L12.391,12c-0.125,0.136-0.256,0.266-0.391,0.391l0.531,2.32
	l-2.992,1.242L8.281,13.93c-0.047,0-0.094,0.002-0.141,0.004C8.094,13.937,8.047,13.938,8,13.938s-0.094-0.001-0.141-0.004
	c-0.047-0.002-0.094-0.004-0.141-0.004l-1.258,2.023l-2.992-1.242L4,12.391C3.864,12.266,3.734,12.136,3.609,12l-2.32,0.531
	L0.047,9.539L2.07,8.281c0-0.047-0.001-0.094-0.004-0.141C2.063,8.094,2.063,8.047,2.063,8s0.001-0.094,0.004-0.141
	C2.069,7.813,2.07,7.766,2.07,7.719L0.047,6.461l1.242-2.992L3.609,4C3.734,3.865,3.864,3.734,4,3.609l-0.531-2.32l2.992-1.242
	L7.719,2.07c0.047,0,0.094-0.001,0.141-0.004C7.906,2.064,7.953,2.063,8,2.063s0.094,0.001,0.141,0.004
	C8.188,2.069,8.234,2.07,8.281,2.07l1.258-2.023l2.992,1.242L12,3.609C12.135,3.734,12.266,3.865,12.391,4l2.32-0.531l1.242,2.992
	L13.93,7.719z M13.016,8.734c0.01-0.125,0.021-0.249,0.031-0.371c0.01-0.122,0.016-0.246,0.016-0.371
	c0-0.12-0.006-0.242-0.016-0.367c-0.011-0.125-0.021-0.247-0.031-0.367l1.844-1.148l-0.672-1.625L12.07,4.977
	c-0.162-0.198-0.327-0.38-0.496-0.547c-0.17-0.167-0.354-0.333-0.551-0.5l0.492-2.117L9.891,1.141L8.734,2.984
	c-0.12-0.01-0.242-0.021-0.367-0.031C8.242,2.943,8.12,2.938,8,2.938c-0.125,0-0.249,0.005-0.371,0.016
	C7.506,2.964,7.383,2.974,7.258,2.984L6.109,1.141L4.484,1.813L4.977,3.93C4.778,4.091,4.596,4.257,4.43,4.426
	c-0.167,0.169-0.333,0.353-0.5,0.551L1.813,4.484L1.141,6.109l1.844,1.156C2.974,7.391,2.963,7.515,2.953,7.637
	C2.942,7.759,2.938,7.883,2.938,8.008c0,0.12,0.005,0.242,0.016,0.367C2.963,8.5,2.974,8.623,2.984,8.742L1.141,9.891l0.672,1.625
	l2.117-0.492c0.161,0.198,0.327,0.381,0.496,0.547c0.169,0.167,0.353,0.334,0.551,0.5l-0.492,2.117l1.625,0.672l1.156-1.844
	c0.12,0.011,0.242,0.021,0.367,0.031C7.758,13.058,7.88,13.063,8,13.063c0.125,0,0.249-0.005,0.371-0.016
	c0.122-0.01,0.246-0.021,0.371-0.031l1.148,1.844l1.625-0.672l-0.492-2.117c0.197-0.161,0.38-0.326,0.547-0.496
	c0.166-0.169,0.333-0.353,0.5-0.551l2.117,0.492l0.672-1.625L13.016,8.734z M8,5.063c0.406,0,0.788,0.077,1.145,0.23
	c0.356,0.154,0.668,0.363,0.934,0.629s0.475,0.577,0.629,0.934c0.153,0.357,0.23,0.738,0.23,1.145s-0.077,0.788-0.23,1.145
	c-0.154,0.357-0.363,0.668-0.629,0.934s-0.577,0.476-0.934,0.629c-0.357,0.154-0.738,0.23-1.145,0.23s-0.788-0.076-1.145-0.23
	c-0.357-0.153-0.668-0.363-0.934-0.629S5.446,9.502,5.293,9.145C5.139,8.788,5.063,8.406,5.063,8s0.077-0.788,0.23-1.145
	c0.153-0.356,0.363-0.668,0.629-0.934s0.577-0.475,0.934-0.629C7.212,5.14,7.594,5.063,8,5.063z M8,10.063
	c0.286,0,0.555-0.053,0.805-0.16c0.25-0.106,0.469-0.254,0.656-0.441s0.334-0.406,0.441-0.656c0.106-0.25,0.16-0.518,0.16-0.805
	c0-0.286-0.054-0.555-0.16-0.805c-0.107-0.25-0.254-0.469-0.441-0.656S9.055,6.205,8.805,6.098C8.555,5.991,8.286,5.938,8,5.938
	c-0.287,0-0.555,0.054-0.805,0.16c-0.25,0.107-0.469,0.254-0.656,0.441S6.204,6.945,6.098,7.195C5.991,7.445,5.938,7.714,5.938,8
	c0,0.287,0.053,0.555,0.16,0.805c0.106,0.25,0.254,0.469,0.441,0.656s0.406,0.335,0.656,0.441C7.445,10.01,7.713,10.063,8,10.063z"
	/>
</svg>
