<?xml version="1.0" encoding="utf-8"?>
<!-- Generator: Adobe Illustrator 19.2.1, SVG Export Plug-In . SVG Version: 6.00 Build 0)  -->
<svg version="1.1" id="Layer_1" xmlns="http://www.w3.org/2000/svg" xmlns:xlink="http://www.w3.org/1999/xlink" x="0px" y="0px"
	 width="16px" height="16px" viewBox="0 0 16 16" style="enable-background:new 0 0 16 16;" xml:space="preserve">
<path d="M15,4v2.158c-0.803-0.827-1.697-1.505-2.656-2.024C10.953,3.382,9.526,3,8,3C6.473,3,4.941,3.382,3.55,4.134
	C2.218,4.855,1.023,5.884,0,7.193l0.795,0.613C2.714,5.352,5.307,4,8,4c2.382,0,4.591,1.057,6.41,3L12,7v1h4V4H15z"/>
<path d="M4,8v5h7V8H4z M10,12H5V9h5V12z"/>
</svg>
