<?xml version="1.0" encoding="utf-8"?>
<!-- Generator: Adobe Illustrator 19.1.0, SVG Export Plug-In . SVG Version: 6.00 Build 0)  -->
<svg version="1.1" id="Layer_1" xmlns="http://www.w3.org/2000/svg" xmlns:xlink="http://www.w3.org/1999/xlink" x="0px" y="0px"
	 width="16px" height="16px" viewBox="0 0 16 16" enable-background="new 0 0 16 16" xml:space="preserve">
<polygon points="1,4 0,4 0,0 4,0 4,1 1,1 "/>
<polygon points="1,15 4,15 4,16 0,16 0,12 1,12 "/>
<polygon points="16,0 16,4 15,4 15,1 12,1 12,0 "/>
<polygon points="15,12 16,12 16,16 12,16 12,15 15,15 "/>
<g>
	<path d="M9,8.289c0.084,0.084,0.674,0.668,0.879,0.863c0.206,0.195,0.44,0.421,0.703,0.676c0.264,0.255,0.537,0.525,0.82,0.809
		c0.284,0.284,0.545,0.551,0.781,0.801c0.237,0.25,0.433,0.472,0.586,0.664C12.924,12.294,13,12.427,13,12.5
		c0,0.136-0.049,0.253-0.148,0.352C12.753,12.951,12.636,13,12.5,13c-0.072,0-0.205-0.077-0.398-0.23
		c-0.192-0.153-0.414-0.349-0.664-0.586c-0.25-0.237-0.517-0.497-0.801-0.781c-0.283-0.284-0.553-0.557-0.809-0.82
		c-0.255-0.263-0.48-0.497-0.676-0.703C8.957,9.673,8.373,9.083,8.289,9L9,8.289z"/>
</g>
<path d="M6.5,4C7.878,4,9,5.122,9,6.5S7.878,9,6.5,9S4,7.878,4,6.5S5.122,4,6.5,4 M6.5,3C4.567,3,3,4.567,3,6.5S4.567,10,6.5,10
	S10,8.433,10,6.5S8.433,3,6.5,3L6.5,3z"/>
</svg>
