<?xml version="1.0" encoding="utf-8"?>
<!-- Generator: Adobe Illustrator 19.1.1, SVG Export Plug-In . SVG Version: 6.00 Build 0)  -->
<svg version="1.1" id="Layer_1" xmlns="http://www.w3.org/2000/svg" xmlns:xlink="http://www.w3.org/1999/xlink" x="0px" y="0px"
	 viewBox="0 0 16 16" enable-background="new 0 0 16 16" xml:space="preserve">
<g id="moreinfo-2">
	<path d="M8,0C3.6,0,0,3.6,0,8c0,4.4,3.6,8,8,8c4.4,0,8-3.6,8-8C16,3.6,12.4,0,8,0 M8,15c-3.9,0-7-3.1-7-7c0-3.9,3.1-7,7-7
		c3.9,0,7,3.1,7,7C15,11.9,11.9,15,8,15 M8.7,10.1H7.2c0-0.2,0-0.3,0-0.4c0-0.5,0.1-0.9,0.2-1.2s0.5-0.7,1-1.1s0.8-0.6,0.9-0.8
		c0.1-0.2,0.2-0.4,0.2-0.6c0-0.3-0.1-0.6-0.4-0.8s-0.6-0.3-1-0.3C7.6,4.9,7.3,5,7,5.3S6.5,5.9,6.4,6.4L4.9,6.2
		c0-0.7,0.3-1.3,0.9-1.8S7.1,3.7,8,3.7c0.9,0,1.7,0.2,2.3,0.7s0.8,1.1,0.8,1.7c0,0.4-0.1,0.7-0.3,1s-0.6,0.8-1.3,1.3
		C9.1,8.8,8.9,9,8.8,9.2S8.7,9.7,8.7,10.1z M7.2,12.3v-1.6h1.6v1.6H7.2z"/>
</g>
</svg>
