<?xml version="1.0" encoding="utf-8"?>
<!-- Generator: Adobe Illustrator 17.0.0, SVG Export Plug-In . SVG Version: 6.00 Build 0)  -->
<!DOCTYPE svg PUBLIC "-//W3C//DTD SVG 1.0//EN" "http://www.w3.org/TR/2001/REC-SVG-20010904/DTD/svg10.dtd">
<svg version="1.0" id="Layer_1" xmlns="http://www.w3.org/2000/svg" xmlns:xlink="http://www.w3.org/1999/xlink" x="0px" y="0px"
     width="16px" height="16px" viewBox="0 0 16 16" enable-background="new 0 0 16 16" xml:space="preserve">
<g>
<path fill="none" d="M5.9,3.1C4,4,2.8,5.8,2.8,8c0,2.9,2.4,5.3,5.3,5.3s5.3-2.4,5.3-5.3c0-2.1-1.3-4-3.1-4.8L8.1,5.3L5.9,3.1z" />
<path fill="#D2D4D8" d="M12.2,1.2l-2,2C12.1,4,13.4,5.8,13.4,8c0,2.9-2.4,5.3-5.3,5.3S2.8,10.9,2.8,8c0-2.1,1.3-4,3.1-4.8l-2-2
		C1.6,2.6,0.1,5.1,0.1,8c0,4.4,3.6,7.9,7.9,7.9S16,12.3,16,8C16,5.1,14.5,2.6,12.2,1.2z" />
    <path fill="#7FBA00" d="M8.1,2.7c0.8,0,1.5,0.2,2.2,0.5l2-2C11,0.4,9.6,0,8.1,0S5.1,0.4,3.9,1.2l2,2C6.5,2.8,7.3,2.7,8.1,2.7z" />
    <animateTransform attributeType="xml"
                      attributeName="transform"
                      type="rotate"
                      from="0 8 8"
                      to="360 8 8"
                      dur="1s"
                      repeatCount="indefinite" />
</g>
</svg>
