<?xml version="1.0" encoding="utf-8"?>
<!-- Generator: Adobe Illustrator 19.1.0, SVG Export Plug-In . SVG Version: 6.00 Build 0)  -->
<!DOCTYPE svg PUBLIC "-//W3C//DTD SVG 1.1//EN" "http://www.w3.org/Graphics/SVG/1.1/DTD/svg11.dtd">
<svg version="1.1" xmlns="http://www.w3.org/2000/svg" xmlns:xlink="http://www.w3.org/1999/xlink" x="0px" y="0px"
	 viewBox="0 0 16 16" enable-background="new 0 0 16 16" xml:space="preserve">
<g id="Layer_1">
	<polygon fill="#48525E" points="8,15 7,15 7,2 7,2 7,2 7,2 7,2 7,2 7,2 7,2 7,2 8,2 8,2 	"/>
	<rect x="6.9" y="1.9" transform="matrix(0.7581 0.6521 -0.6521 0.7581 3.5844 -4.9539)" fill="#48525E" width="3.1" height="1"/>
	<polygon fill="#48525E" points="8,1.8 5.6,3.6 5,2.8 7.4,1 	"/>
	<rect x="6.7" y="5.7" transform="matrix(0.785 0.6195 -0.6195 0.785 5.9167 -4.6364)" fill="#48525E" width="5.9" height="1"/>
	<rect x="2.3" y="5.6" transform="matrix(0.8116 -0.5843 0.5843 0.8116 -2.5877 4.2541)" fill="#48525E" width="5.9" height="1"/>
	<rect x="6.6" y="10" transform="matrix(0.785 0.6195 -0.6195 0.785 8.6195 -3.9053)" fill="#48525E" width="6.7" height="1"/>
	<rect x="1.8" y="10" transform="matrix(0.7693 -0.6389 0.6389 0.7693 -5.5189 5.6896)" fill="#48525E" width="6.7" height="1"/>
	<rect x="7" y="1" transform="matrix(0.7071 -0.7071 0.7071 0.7071 1.136 5.7426)" fill="#48525E" width="1" height="1"/>
</g>
<g id="Layer_2">
</g>
</svg>
