<?xml version="1.0" encoding="utf-8"?>
<!-- Generator: Adobe Illustrator 19.1.0, SVG Export Plug-In . SVG Version: 6.00 Build 0)  -->
<svg version="1.1" id="Layer_1" xmlns="http://www.w3.org/2000/svg" xmlns:xlink="http://www.w3.org/1999/xlink" x="0px" y="0px"
	 width="16px" height="16px" viewBox="0 0 16 16" enable-background="new 0 0 16 16" xml:space="preserve">
<polygon points="11,9 11,10 7,10 7,5 8,5 8,9 "/>
<path d="M15.754,2.906c-0.164-0.38-0.387-0.711-0.668-0.992s-0.611-0.504-0.992-0.668C13.715,1.082,13.309,1,12.875,1
	c-0.26,0-0.514,0.031-0.762,0.094c-0.246,0.063-0.482,0.154-0.707,0.273c-0.223,0.12-0.432,0.266-0.625,0.438
	s-0.359,0.365-0.5,0.578c-0.37-0.13-0.745-0.227-1.125-0.289C8.776,2.031,8.391,2,8,2S7.224,2.031,6.844,2.094
	c-0.38,0.063-0.755,0.159-1.125,0.289c-0.141-0.213-0.308-0.406-0.5-0.578C5.026,1.633,4.817,1.487,4.594,1.367
	C4.37,1.248,4.133,1.156,3.883,1.094S3.38,1,3.125,1C2.692,1,2.286,1.082,1.906,1.246C1.526,1.41,1.195,1.633,0.914,1.914
	S0.41,2.526,0.246,2.906C0.082,3.287,0,3.693,0,4.125C0,4.386,0.031,4.64,0.094,4.887C0.156,5.134,0.247,5.37,0.367,5.594
	c0.12,0.224,0.266,0.433,0.438,0.625c0.172,0.193,0.364,0.359,0.578,0.5c-0.13,0.37-0.227,0.745-0.289,1.125
	C1.031,8.224,1,8.609,1,9c0,0.844,0.147,1.66,0.441,2.449c0.294,0.789,0.717,1.502,1.27,2.137l-1.563,1.563l0.703,0.703l1.563-1.563
	c0.635,0.552,1.348,0.976,2.137,1.27S7.156,16,8,16s1.66-0.147,2.449-0.441s1.502-0.718,2.137-1.27l1.563,1.563l0.703-0.703
	l-1.563-1.563c0.553-0.635,0.977-1.348,1.27-2.137C14.854,10.66,15,9.844,15,9c0-0.391-0.031-0.776-0.094-1.156
	c-0.063-0.38-0.158-0.755-0.289-1.125c0.215-0.141,0.406-0.307,0.578-0.5c0.172-0.192,0.318-0.401,0.438-0.625
	c0.121-0.224,0.211-0.459,0.273-0.707C15.969,4.64,16,4.386,16,4.125C16,3.693,15.918,3.287,15.754,2.906z M1.207,5.043
	C1.069,4.754,1,4.448,1,4.125c0-0.292,0.056-0.566,0.168-0.824C1.28,3.043,1.432,2.818,1.625,2.625
	C1.817,2.433,2.043,2.28,2.301,2.168C2.559,2.056,2.833,2,3.125,2c0.323,0,0.629,0.069,0.918,0.207
	c0.289,0.138,0.532,0.332,0.73,0.582C4.127,3.123,3.552,3.542,3.047,4.047C2.542,4.552,2.122,5.128,1.789,5.773
	C1.539,5.576,1.345,5.332,1.207,5.043z M13.527,11.332c-0.314,0.727-0.744,1.362-1.289,1.906c-0.543,0.544-1.18,0.974-1.906,1.289
	S8.828,15,8,15s-1.605-0.157-2.332-0.473s-1.362-0.745-1.906-1.289c-0.544-0.544-0.974-1.18-1.289-1.906C2.157,10.605,2,9.828,2,9
	s0.157-1.605,0.473-2.332c0.315-0.727,0.745-1.362,1.289-1.906c0.544-0.544,1.18-0.974,1.906-1.289C6.395,3.158,7.172,3,8,3
	s1.605,0.158,2.332,0.473c0.727,0.315,1.363,0.745,1.906,1.289c0.545,0.544,0.975,1.18,1.289,1.906C13.844,7.395,14,8.172,14,9
	S13.844,10.605,13.527,11.332z M14.793,5.043c-0.137,0.289-0.332,0.533-0.582,0.73c-0.332-0.646-0.752-1.221-1.258-1.727
	c-0.504-0.505-1.08-0.924-1.727-1.258c0.199-0.25,0.441-0.444,0.73-0.582C12.246,2.069,12.553,2,12.875,2
	c0.293,0,0.566,0.056,0.824,0.168c0.258,0.112,0.484,0.265,0.676,0.457c0.193,0.193,0.346,0.418,0.457,0.676
	C14.945,3.559,15,3.833,15,4.125C15,4.448,14.932,4.754,14.793,5.043z"/>
</svg>
