<?xml version="1.0" encoding="utf-8"?>
<!-- Generator: Adobe Illustrator 19.2.1, SVG Export Plug-In . SVG Version: 6.00 Build 0)  -->
<svg version="1.1" id="Layer_1" xmlns="http://www.w3.org/2000/svg" xmlns:xlink="http://www.w3.org/1999/xlink" x="0px" y="0px"
	 width="16px" height="16px" viewBox="0 0 16 16" style="enable-background:new 0 0 16 16;" xml:space="preserve">
<g>
	<rect x="4" y="6" style="fill:#231F20;" width="7" height="1"/>
	<path style="fill:#231F20;" d="M13,0H2C1.45,0,1,0.45,1,1v14c0,0.55,0.45,1,1,1h11c0.55,0,1-0.45,1-1V1C14,0.45,13.55,0,13,0z
		 M13,14.75c0,0.137-0.112,0.25-0.25,0.25H2.25C2.112,15,2,14.887,2,14.75V1.25C2,1.113,2.112,1,2.25,1h10.5
		C12.888,1,13,1.113,13,1.25V14.75z"/>
	<rect y="4" style="fill:#231F20;" width="1" height="1"/>
	<rect y="11" style="fill:#231F20;" width="1" height="1"/>
	<rect x="15" y="1" style="fill:#231F20;" width="1" height="4"/>
	<rect x="15" y="6" style="fill:#231F20;" width="1" height="4"/>
	<rect x="15" y="11" style="fill:#231F20;" width="1" height="4"/>
	<rect x="4" y="4" style="fill:#231F20;" width="7" height="1"/>
</g>
</svg>
