<?xml version="1.0" encoding="utf-8"?>
<!-- Generator: Adobe Illustrator 19.2.1, SVG Export Plug-In . SVG Version: 6.00 Build 0)  -->
<svg version="1.1" id="Layer_1" xmlns="http://www.w3.org/2000/svg" xmlns:xlink="http://www.w3.org/1999/xlink" x="0px" y="0px"
	 width="16px" height="16px" viewBox="0 0 16 16" style="enable-background:new 0 0 16 16;" xml:space="preserve">
<g id="Database_16_4_">
	<path d="M8,1C4.687,1,2,2.119,2,3.5C2,4.881,4.687,6,8,6s6-1.119,6-2.5C14,2.119,11.313,1,8,1z M8,5C5.239,5,3,4.328,3,3.5
		S5.239,2,8,2s5,0.672,5,1.5S10.761,5,8,5z"/>
	<rect x="2" y="3.5" width="1" height="9"/>
	<rect x="13" y="3.5" width="1" height="9"/>
	<path d="M8,14c-2.761,0-5-0.672-5-1.5H2C2,13.881,4.687,15,8,15s6-1.119,6-2.5h-1C13,13.328,10.761,14,8,14z"/>
	<path d="M8,8C5.239,8,3,7.328,3,6.5H2C2,7.881,4.687,9,8,9s6-1.119,6-2.5h-1C13,7.328,10.761,8,8,8z"/>
	<path d="M8,11c-2.761,0-5-0.672-5-1.5H2C2,10.881,4.687,12,8,12s6-1.119,6-2.5h-1C13,10.328,10.761,11,8,11z"/>
</g>
</svg>
