<?xml version="1.0" encoding="utf-8"?>
<!-- Generator: Adobe Illustrator 19.1.0, SVG Export Plug-In . SVG Version: 6.00 Build 0)  -->
<svg version="1.1" id="Layer_1" xmlns="http://www.w3.org/2000/svg" xmlns:xlink="http://www.w3.org/1999/xlink" x="0px" y="0px"
	 width="16px" height="16px" viewBox="0 0 16 16" style="enable-background:new 0 0 16 16;" xml:space="preserve">
<path d="M7.5,0.031c0.688,0,1.349,0.089,1.984,0.266c0.635,0.177,1.23,0.429,1.785,0.754c0.555,0.326,1.059,0.715,1.512,1.168
	s0.842,0.957,1.168,1.512c0.325,0.555,0.576,1.15,0.754,1.785c0.177,0.636,0.266,1.297,0.266,1.984s-0.089,1.349-0.266,1.984
	c-0.178,0.636-0.429,1.23-0.754,1.785c-0.326,0.555-0.715,1.059-1.168,1.512s-0.957,0.843-1.512,1.168
	c-0.555,0.326-1.15,0.577-1.785,0.754c-0.636,0.178-1.297,0.266-1.984,0.266s-1.349-0.088-1.984-0.266
	c-0.636-0.177-1.23-0.428-1.785-0.754c-0.555-0.325-1.059-0.715-1.512-1.168s-0.843-0.957-1.168-1.512
	c-0.326-0.555-0.577-1.149-0.754-1.785C0.12,8.849,0.031,8.188,0.031,7.5S0.12,6.151,0.297,5.516C0.474,4.88,0.725,4.285,1.051,3.73
	c0.325-0.555,0.715-1.059,1.168-1.512S3.176,1.376,3.73,1.051C4.285,0.726,4.88,0.474,5.516,0.297C6.151,0.12,6.813,0.031,7.5,0.031
	z M7.5,14.031c0.599,0,1.177-0.078,1.734-0.234c0.557-0.156,1.078-0.376,1.563-0.66c0.484-0.283,0.924-0.623,1.32-1.02
	c0.396-0.396,0.735-0.836,1.02-1.32c0.283-0.484,0.504-1.005,0.66-1.563c0.156-0.557,0.234-1.135,0.234-1.734
	c0-0.599-0.078-1.177-0.234-1.734c-0.156-0.557-0.377-1.078-0.66-1.563c-0.284-0.484-0.624-0.924-1.02-1.32
	c-0.396-0.396-0.836-0.735-1.32-1.02c-0.484-0.284-1.006-0.504-1.563-0.66C8.677,1.047,8.099,0.969,7.5,0.969
	c-0.599,0-1.177,0.078-1.734,0.234C5.208,1.359,4.688,1.58,4.203,1.863c-0.484,0.284-0.925,0.624-1.32,1.02
	c-0.396,0.396-0.736,0.836-1.02,1.32c-0.284,0.484-0.504,1.005-0.66,1.563C1.047,6.323,0.969,6.901,0.969,7.5
	c0,0.599,0.078,1.177,0.234,1.734c0.156,0.558,0.376,1.078,0.66,1.563c0.284,0.484,0.624,0.925,1.02,1.32
	c0.396,0.396,0.836,0.736,1.32,1.02c0.484,0.284,1.005,0.504,1.563,0.66C6.323,13.953,6.901,14.031,7.5,14.031z M7.5,3.5
	c0.344,0,0.667,0.066,0.969,0.199c0.302,0.133,0.566,0.313,0.793,0.539s0.406,0.491,0.539,0.793C9.934,5.333,10,5.656,10,6
	c0,0.313-0.05,0.585-0.148,0.816c-0.1,0.232-0.223,0.441-0.371,0.629S9.172,7.804,9,7.957C8.828,8.111,8.668,8.265,8.52,8.418
	C8.371,8.572,8.247,8.736,8.148,8.91C8.049,9.085,8,9.281,8,9.5V10H7V9.5c0-0.313,0.049-0.584,0.148-0.816
	C7.247,8.452,7.371,8.242,7.52,8.055S7.828,7.697,8,7.543C8.172,7.39,8.332,7.236,8.48,7.082c0.148-0.153,0.272-0.316,0.371-0.488
	C8.95,6.422,9,6.224,9,6c0-0.208-0.039-0.403-0.117-0.586c-0.078-0.182-0.185-0.341-0.32-0.477c-0.136-0.135-0.294-0.242-0.477-0.32
	C7.903,4.539,7.708,4.5,7.5,4.5c-0.208,0-0.404,0.039-0.586,0.117c-0.183,0.078-0.341,0.185-0.477,0.32
	c-0.136,0.136-0.242,0.294-0.32,0.477C6.039,5.597,6,5.792,6,6H5c0-0.344,0.065-0.667,0.195-0.969
	c0.13-0.302,0.309-0.566,0.535-0.793s0.492-0.406,0.797-0.539S7.156,3.5,7.5,3.5z M7,11h1v1H7V11z"/>
</svg>
