<?xml version="1.0" encoding="utf-8"?>
<!-- Generator: Adobe Illustrator 19.1.0, SVG Export Plug-In . SVG Version: 6.00 Build 0)  -->
<svg version="1.1" id="Layer_1" xmlns="http://www.w3.org/2000/svg" xmlns:xlink="http://www.w3.org/1999/xlink" x="0px" y="0px"
	 width="16px" height="16px" viewBox="0 0 16 16" enable-background="new 0 0 16 16" xml:space="preserve">
<path d="M14,6.996v9H2v-9h2V4.074c0-0.563,0.102-1.091,0.305-1.586c0.203-0.495,0.484-0.927,0.844-1.297
	c0.359-0.37,0.782-0.661,1.27-0.875C6.905,0.103,7.433-0.004,8-0.004s1.095,0.107,1.582,0.32c0.487,0.214,0.91,0.505,1.27,0.875
	c0.359,0.37,0.641,0.802,0.844,1.297C11.898,2.983,12,3.512,12,4.074v2.922H14z M13,7.996H3v7h10V7.996z M5,6.996h6V4.074
	c0-0.422-0.075-0.819-0.227-1.191c-0.151-0.372-0.36-0.699-0.629-0.98S9.559,1.4,9.191,1.238C8.824,1.077,8.427,0.996,8,0.996
	S7.176,1.077,6.809,1.238C6.441,1.4,6.124,1.621,5.855,1.902s-0.478,0.608-0.629,0.98C5.075,3.255,5,3.652,5,4.074V6.996z"/>
</svg>
