<?xml version="1.0" encoding="utf-8"?>
<!-- Generator: Adobe Illustrator 19.1.0, SVG Export Plug-In . SVG Version: 6.00 Build 0)  -->
<svg version="1.1" id="Layer_1" xmlns="http://www.w3.org/2000/svg" xmlns:xlink="http://www.w3.org/1999/xlink" x="0px" y="0px"
	 width="16px" height="16px" viewBox="0 0 16 16" enable-background="new 0 0 16 16" xml:space="preserve">
<path d="M16,15.453c0,0.146-0.043,0.273-0.133,0.383C15.779,15.945,15.656,16,15.5,16c-0.135,0-0.252-0.05-0.352-0.148L9.016,9.727
	c-0.5,0.412-1.048,0.727-1.645,0.945C6.774,10.891,6.151,11,5.5,11c-0.505,0-0.992-0.064-1.461-0.195
	c-0.469-0.13-0.906-0.314-1.313-0.555C2.32,10.011,1.949,9.723,1.613,9.387S0.989,8.68,0.75,8.273
	C0.51,7.867,0.325,7.43,0.195,6.961C0.065,6.492,0,6.005,0,5.5c0-0.505,0.065-0.992,0.195-1.461C0.325,3.57,0.51,3.133,0.75,2.727
	C0.989,2.32,1.277,1.949,1.613,1.613S2.32,0.99,2.727,0.75C3.133,0.511,3.57,0.326,4.039,0.195C4.508,0.065,4.995,0,5.5,0
	c0.505,0,0.992,0.065,1.461,0.195C7.43,0.326,7.867,0.511,8.273,0.75C8.68,0.99,9.051,1.277,9.387,1.613S10.01,2.32,10.25,2.727
	c0.239,0.406,0.424,0.844,0.555,1.313S11,4.995,11,5.5c0,0.651-0.109,1.275-0.328,1.871c-0.219,0.597-0.534,1.145-0.945,1.645
	c0.078,0.078,0.228,0.227,0.449,0.445c0.221,0.219,0.486,0.479,0.797,0.781c0.311,0.303,0.648,0.635,1.016,0.996
	c0.367,0.362,0.738,0.729,1.109,1.102c0.373,0.373,0.734,0.735,1.082,1.09c0.35,0.354,0.66,0.675,0.93,0.961
	c0.271,0.286,0.488,0.524,0.648,0.715C15.92,15.296,16,15.411,16,15.453z M5.5,10c0.62,0,1.203-0.118,1.75-0.355
	C7.797,9.408,8.273,9.086,8.68,8.68s0.728-0.883,0.965-1.43C9.881,6.703,10,6.12,10,5.5c0-0.62-0.119-1.203-0.355-1.75
	C9.407,3.203,9.086,2.727,8.68,2.32S7.797,1.593,7.25,1.355C6.703,1.119,6.12,1,5.5,1C4.88,1,4.297,1.119,3.75,1.355
	C3.203,1.593,2.727,1.914,2.32,2.32S1.592,3.203,1.355,3.75C1.118,4.297,1,4.88,1,5.5c0,0.62,0.118,1.203,0.355,1.75
	C1.592,7.797,1.914,8.273,2.32,8.68s0.883,0.729,1.43,0.965C4.297,9.882,4.88,10,5.5,10z"/>
<rect x="5" y="5" width="1" height="3"/>
<rect x="5" y="3" width="1" height="1"/>
</svg>
