<?xml version="1.0" encoding="utf-8"?>
<!-- Generator: Adobe Illustrator 19.1.0, SVG Export Plug-In . SVG Version: 6.00 Build 0)  -->
<svg version="1.1" id="Layer_1" xmlns="http://www.w3.org/2000/svg" xmlns:xlink="http://www.w3.org/1999/xlink" x="0px" y="0px"
	 width="16px" height="16px" viewBox="0 0 16 16" enable-background="new 0 0 16 16" xml:space="preserve">
<g>
	<path d="M16,5.984c-0.183,0-0.359,0.035-0.531,0.105s-0.32,0.174-0.445,0.309h-0.008c-0.219,0.234-0.474,0.416-0.766,0.543
		c-0.292,0.128-0.599,0.191-0.922,0.191c-0.25,0-0.466-0.028-0.648-0.086c-0.183-0.057-0.343-0.127-0.48-0.211
		c-0.138-0.083-0.263-0.176-0.375-0.277c-0.112-0.102-0.224-0.193-0.336-0.277c-0.112-0.083-0.234-0.153-0.367-0.211
		c-0.133-0.057-0.288-0.086-0.465-0.086c-0.177,0-0.331,0.029-0.461,0.086c-0.13,0.058-0.251,0.128-0.363,0.211
		C9.72,6.365,9.608,6.457,9.496,6.559C9.384,6.66,9.259,6.753,9.121,6.836C8.983,6.92,8.823,6.99,8.641,7.047
		C8.458,7.104,8.242,7.133,7.992,7.133V6.141c0.177,0,0.329-0.027,0.457-0.082c0.127-0.055,0.247-0.125,0.359-0.211
		C8.92,5.762,9.032,5.671,9.145,5.574C9.256,5.479,9.381,5.387,9.52,5.301C9.657,5.215,9.817,5.145,10,5.09
		c0.182-0.055,0.401-0.082,0.656-0.082c0.317,0,0.625,0.061,0.922,0.18c0.297,0.12,0.555,0.297,0.773,0.531V5.711
		c0.125,0.136,0.272,0.238,0.441,0.309c0.169,0.07,0.345,0.105,0.527,0.105c0.182,0,0.359-0.035,0.531-0.105s0.32-0.173,0.445-0.309
		v0.008c0.219-0.234,0.475-0.411,0.77-0.531C15.36,5.068,15.664,5.006,15.977,5L16,5.984z M15.992,8.953
		c-0.183,0-0.358,0.035-0.527,0.105c-0.169,0.07-0.316,0.173-0.441,0.309h-0.008c-0.219,0.234-0.474,0.415-0.766,0.543
		c-0.292,0.128-0.599,0.191-0.922,0.191c-0.25,0-0.465-0.028-0.645-0.086s-0.34-0.128-0.48-0.211s-0.267-0.176-0.379-0.277
		c-0.112-0.102-0.226-0.194-0.34-0.277c-0.115-0.083-0.237-0.153-0.367-0.211c-0.13-0.058-0.284-0.086-0.461-0.086
		c-0.177,0-0.33,0.028-0.457,0.086C10.071,9.097,9.95,9.167,9.836,9.25c-0.115,0.083-0.228,0.176-0.34,0.277
		C9.384,9.629,9.258,9.722,9.117,9.805s-0.301,0.153-0.48,0.211s-0.395,0.086-0.645,0.086V9.109c0.172,0,0.321-0.028,0.449-0.086
		c0.127-0.058,0.247-0.128,0.359-0.211c0.112-0.083,0.224-0.175,0.336-0.273c0.112-0.099,0.238-0.19,0.379-0.273
		S9.817,8.112,10,8.055c0.182-0.057,0.401-0.086,0.656-0.086c0.255,0,0.475,0.027,0.66,0.082c0.185,0.055,0.346,0.124,0.484,0.207
		c0.138,0.083,0.262,0.175,0.371,0.273s0.22,0.19,0.332,0.273c0.112,0.083,0.231,0.152,0.359,0.207
		c0.127,0.055,0.28,0.082,0.457,0.082c0.177,0,0.331-0.027,0.461-0.082c0.13-0.055,0.251-0.124,0.363-0.207
		c0.112-0.083,0.223-0.175,0.332-0.273s0.234-0.19,0.375-0.273s0.302-0.152,0.484-0.207c0.182-0.055,0.401-0.082,0.656-0.082V8.953z
		"/>
</g>
<rect x="4" y="1" width="9" height="1"/>
<rect x="4" y="2" width="1" height="11"/>
<rect x="5" y="12" width="8" height="1"/>
<rect x="2" y="4" width="1" height="11"/>
<rect x="3" y="14" width="8" height="1"/>
<rect x="3" y="4" width="1" height="1"/>
<rect x="12" y="2" width="1" height="2"/>
<rect x="12" y="11" width="1" height="1"/>
<rect x="10" y="13" width="1" height="1"/>
</svg>
