<?xml version="1.0" encoding="utf-8"?>
<!-- Generator: Adobe Illustrator 19.1.0, SVG Export Plug-In . SVG Version: 6.00 Build 0)  -->
<svg version="1.1" id="Layer_1" xmlns="http://www.w3.org/2000/svg" xmlns:xlink="http://www.w3.org/1999/xlink" x="0px" y="0px"
	 width="16px" height="16px" viewBox="0 0 16 16" enable-background="new 0 0 16 16" xml:space="preserve">
<path d="M8,5c0.41,0,0.799,0.078,1.164,0.234c0.363,0.156,0.684,0.371,0.957,0.645s0.488,0.593,0.645,0.957
	C10.922,7.201,11,7.589,11,8c0,0.417-0.078,0.807-0.234,1.168c-0.156,0.362-0.371,0.68-0.645,0.953s-0.594,0.488-0.957,0.645
	C8.799,10.922,8.411,11,8,11c-0.418,0-0.807-0.078-1.168-0.234c-0.363-0.156-0.68-0.371-0.953-0.645S5.391,9.53,5.235,9.168
	C5.079,8.807,5,8.417,5,8c0-0.411,0.078-0.799,0.234-1.164c0.156-0.364,0.371-0.684,0.645-0.957s0.59-0.488,0.953-0.645
	C7.194,5.078,7.583,5,8,5z M8,10c0.275,0,0.535-0.052,0.777-0.156C9.02,9.74,9.23,9.597,9.414,9.414
	c0.182-0.182,0.324-0.395,0.43-0.637C9.947,8.535,10,8.276,10,8c0-0.276-0.053-0.535-0.156-0.777
	C9.738,6.98,9.596,6.769,9.414,6.586C9.23,6.404,9.02,6.261,8.778,6.156C8.536,6.052,8.276,6,8,6C7.723,6,7.465,6.052,7.223,6.156
	c-0.242,0.104-0.455,0.248-0.637,0.43C6.403,6.769,6.26,6.98,6.157,7.223C6.051,7.465,6,7.724,6,8c0,0.276,0.051,0.535,0.156,0.777
	C6.26,9.02,6.403,9.232,6.586,9.414c0.182,0.183,0.395,0.326,0.637,0.43C7.465,9.948,7.723,10,8,10z"/>
<path d="M8,3c3.049,0,5.798,1.995,6.939,5c-1.14,3.005-3.889,5-6.939,5s-5.798-1.995-6.939-5C2.202,4.995,4.951,3,8,3 M8,2
	C4.303,2,1.167,4.507,0,8c1.167,3.493,4.303,6,8,6s6.833-2.507,8-6C14.833,4.507,11.697,2,8,2L8,2z"/>
</svg>
