<?xml version="1.0" encoding="utf-8"?>
<!-- Generator: Adobe Illustrator 19.2.1, SVG Export Plug-In . SVG Version: 6.00 Build 0)  -->
<svg version="1.1" id="Layer_1" xmlns="http://www.w3.org/2000/svg" xmlns:xlink="http://www.w3.org/1999/xlink" x="0px" y="0px"
	 width="16px" height="16px" viewBox="0 0 16 16" style="enable-background:new 0 0 16 16;" xml:space="preserve">
<g>
	<path d="M8,0C3.582,0,0,3.582,0,8s3.582,8,8,8s8-3.582,8-8S12.418,0,8,0z M8,15c-3.866,0-7-3.134-7-7c0-3.866,3.134-7,7-7
		s7,3.134,7,7C15,11.866,11.866,15,8,15z"/>
	<rect x="1" y="5" width="14" height="1"/>
	<rect x="1" y="10" width="14" height="1"/>
	<path d="M8,0C5.791,0,4,3.582,4,8s1.791,8,4,8s4-3.582,4-8S10.209,0,8,0z M8,15c-1.657,0-3-3.134-3-7c0-3.866,1.343-7,3-7
		s3,3.134,3,7C11,11.866,9.657,15,8,15z"/>
</g>
</svg>
