<?xml version="1.0" encoding="utf-8"?>
<!-- Generator: Adobe Illustrator 19.1.0, SVG Export Plug-In . SVG Version: 6.00 Build 0)  -->
<!DOCTYPE svg PUBLIC "-//W3C//DTD SVG 1.1//EN" "http://www.w3.org/Graphics/SVG/1.1/DTD/svg11.dtd">
<svg version="1.1" id="Layer_1" xmlns="http://www.w3.org/2000/svg" xmlns:xlink="http://www.w3.org/1999/xlink" x="0px" y="0px"
	 viewBox="0 0 16 16" enable-background="new 0 0 16 16" xml:space="preserve">
<path opacity="1" fill="#FFF" d="M12,0.6c-2.9,1-6.8,3.5-9,8.6L6,11.9c0.6,0.6,1.4,1.3,1.4,1.3c1.4-0.7,2.5-1.6,3.5-2.5
	c2.5-2.3,3.7-5,4.3-7.2l0,0l0.1-0.6c0.3-1.5,0.3-2.6,0.1-2.8l0,0C15.1-0.1,14,0,12.6,0.4L12,0.6z M12.9,5c-0.6,0.6-1.5,0.6-2.1,0.1
	c-0.6-0.6-0.6-1.5-0.1-2.1c0.6-0.6,1.5-0.6,2.1-0.1C13.4,3.5,13.4,4.4,12.9,5z M6.5,12.9c0,0-4.1,2-4.4,1.8s0.7-2.9,1.2-4.6
	L6.5,12.9z M10.9,11.2c0.5-0.4-2.4,4.9-2.7,4.8C8,15.9,8,14.8,7.6,13.5C7.6,13.5,10.1,11.9,10.9,11.2z M4.8,5.6
	C5.2,5.1,0,8.2,0.1,8.5s1.2,0.1,2.6,0.4C2.7,8.9,4.1,6.3,4.8,5.6z"/>
</svg>
