<?xml version="1.0" encoding="utf-8"?>
<!-- Generator: Adobe Illustrator 19.1.0, SVG Export Plug-In . SVG Version: 6.00 Build 0)  -->
<!DOCTYPE svg PUBLIC "-//W3C//DTD SVG 1.1//EN" "http://www.w3.org/Graphics/SVG/1.1/DTD/svg11.dtd">
<svg version="1.1" xmlns="http://www.w3.org/2000/svg" xmlns:xlink="http://www.w3.org/1999/xlink" x="0px" y="0px"
	 viewBox="0 0 508 1080" enable-background="new 0 0 508 1080" xml:space="preserve">
<g id="canvas__x2B__toolbar">
	<path opacity="0.1" fill="#00BCF2" d="M473.934,560.104c0-0.57,0-1.426,0-1.996c0-23.957-19.084-43.35-43.011-43.35
		c-15.096,0-28.484,7.985-36.175,19.394c-3.418-1.997-7.406-3.137-11.678-3.137c-5.412,0-9.969,1.426-13.957,4.278
		c-6.836,4.278-11.109,11.693-11.109,20.249c-9.4,5.989-15.666,16.542-15.666,28.52c0,17.682,13.103,31.942,30.193,33.939
		c1.139,0,2.564,0,3.703,0c1.139,0,2.279,0,3.418,0c15.951,0,53.265,0,70.64,0c0.57,0,1.139,0,1.424,0c1.709,0,1.709,0,1.709,0
		c1.139,0,3.703,0,5.412,0c11.109,0,11.109,0,11.109,0C486.182,617.715,499,604.881,499,588.91
		C499,574.365,488.176,562.101,473.934,560.104L473.934,560.104z"/>
	<path opacity="0.1" fill="#00BCF2" d="M111.854,633.778c0-0.436,0-1.089,0-1.525c0-18.299-14.577-33.112-32.853-33.112
		c-11.531,0-21.757,6.099-27.631,14.813c-2.611-1.525-5.657-2.396-8.92-2.396c-4.134,0-7.615,1.089-10.661,3.268
		c-5.222,3.268-8.485,8.932-8.485,15.467c-7.18,4.575-11.966,12.635-11.966,21.784c0,13.506,10.008,24.398,23.062,25.923
		c0.87,0,1.958,0,2.828,0c0.87,0,1.741,0,2.611,0c12.184,0,40.685,0,53.957,0c0.435,0,0.87,0,1.088,0c1.305,0,1.305,0,1.305,0
		c0.87,0,2.828,0,4.134,0c8.485,0,8.485,0,8.485,0C121.21,677.782,131,667.979,131,655.78
		C131,644.67,122.732,635.303,111.854,633.778L111.854,633.778z"/>
	<g id="Main-new">
	</g>
	<path fill-rule="evenodd" clip-rule="evenodd" fill="#68217A" d="M189.553,630.674c0,19.867,0,19.867,0,19.867
		c-3.317,0-3.317,0-3.317,0c0-14.348,0-14.348,0-14.348c-1.105,0-1.105,0-2.21,0c0,0,0,0,0,1.104c-1.106,0-1.106,0-1.106,0
		c-1.105,0-1.105,0-1.105,0c0-3.311,0-3.311,0-3.311c1.105-1.104,2.211-1.104,2.211-1.104c2.21-1.104,2.21-1.104,3.317-2.207
		H189.553z"/>
	<path fill-rule="evenodd" clip-rule="evenodd" fill="#68217A" d="M202.818,650.54c-4.422,0-6.633-3.311-6.633-9.933
		c0-3.311,1.107-5.519,2.211-6.622c1.106-2.208,3.317-3.311,4.422-3.311c5.527,0,7.739,3.311,7.739,9.933
		c0,3.311-1.107,5.518-2.212,6.622C207.241,649.437,205.029,650.54,202.818,650.54L202.818,650.54z M202.818,633.985
		c-1.105,0-2.21,2.207-2.21,6.622s1.104,6.622,2.21,6.622c2.211,0,3.317-2.207,3.317-6.622S205.029,633.985,202.818,633.985
		L202.818,633.985z"/>
	<path fill-rule="evenodd" clip-rule="evenodd" fill="#68217A" d="M222.715,630.674c0,19.867,0,19.867,0,19.867
		c-4.421,0-4.421,0-4.421,0c0-14.348,0-14.348,0-14.348h-1.104c0,0,0,0-1.107,1.104c-1.105,0-1.105,0-1.105,0h-1.104
		c0-3.311,0-3.311,0-3.311c1.104-1.104,2.21-1.104,3.317-1.104c1.104-1.104,1.104-1.104,2.21-2.207H222.715z"/>
	<path fill-rule="evenodd" clip-rule="evenodd" fill="#68217A" d="M186.236,677.029c-4.421,0-6.632-3.311-6.632-9.933
		c0-2.207,1.107-5.518,2.211-6.622c1.105-2.207,3.316-2.207,5.528-2.207c4.42,0,6.633,2.207,6.633,8.83
		c0,3.311-1.106,5.518-2.212,7.726C190.66,675.925,188.448,677.029,186.236,677.029L186.236,677.029z M186.236,660.474
		c-1.105,0-2.21,2.207-2.21,6.622s1.104,6.622,2.21,6.622c2.211,0,3.317-2.208,3.317-6.622S188.448,660.474,186.236,660.474
		L186.236,660.474z"/>
	<path fill-rule="evenodd" clip-rule="evenodd" fill="#68217A" d="M206.134,658.266c0,17.659,0,17.659,0,17.659
		c-4.422,0-4.422,0-4.422,0c0-13.244,0-13.244,0-13.244l0,0c-1.104,0-1.104,0-1.104,0c0,1.104-1.106,1.104-1.106,1.104
		c-1.106,0-1.106,0-1.106,0c0-3.311,0-3.311,0-3.311c1.106,0,2.212-1.104,3.317-1.104l2.212-1.104H206.134z"/>
	<path fill-rule="evenodd" clip-rule="evenodd" fill="#68217A" d="M218.294,677.029c-4.421,0-6.633-3.311-6.633-9.933
		c0-2.207,1.105-5.518,2.211-6.622c1.104-2.207,3.317-2.207,5.526-2.207c4.423,0,6.633,2.207,6.633,8.83
		c0,3.311-1.107,5.518-2.211,7.726C222.715,675.925,220.506,677.029,218.294,677.029L218.294,677.029z M219.4,660.474
		c-2.21,0-3.317,2.207-3.317,6.622s1.107,6.622,3.317,6.622c1.106,0,2.211-2.208,2.211-6.622S220.506,660.474,219.4,660.474
		L219.4,660.474z"/>
	<path fill-rule="evenodd" clip-rule="evenodd" fill="#68217A" d="M186.236,703.518c-4.421,0-6.632-3.311-6.632-8.83
		c0-3.311,1.107-5.519,2.211-7.726c1.105-2.207,3.316-2.207,5.528-2.207c4.42,0,6.633,3.311,6.633,8.83
		c0,3.311-1.106,5.518-2.212,7.726C190.66,702.414,188.448,703.518,186.236,703.518L186.236,703.518z M186.236,688.066
		c-1.105,0-2.21,2.208-2.21,6.622c0,3.311,1.104,5.518,2.21,5.518c2.211,0,3.317-2.207,3.317-6.622
		C189.553,689.17,188.448,688.066,186.236,688.066L186.236,688.066z"/>
	<path fill-rule="evenodd" clip-rule="evenodd" fill="#68217A" d="M202.818,703.518c-4.422,0-6.633-3.311-6.633-8.83
		c0-3.311,1.107-5.519,2.211-7.726c1.106-2.207,3.317-2.207,4.422-2.207c5.527,0,7.739,3.311,7.739,8.83
		c0,3.311-1.107,5.518-2.212,7.726C207.241,702.414,205.029,703.518,202.818,703.518L202.818,703.518z M202.818,688.066
		c-1.105,0-2.21,2.208-2.21,6.622c0,3.311,1.104,5.518,2.21,5.518c2.211,0,3.317-2.207,3.317-6.622
		C206.134,689.17,205.029,688.066,202.818,688.066L202.818,688.066z"/>
	<path fill-rule="evenodd" clip-rule="evenodd" fill="#68217A" d="M222.715,684.755c0,18.763,0,18.763,0,18.763
		c-4.421,0-4.421,0-4.421,0c0-14.348,0-14.348,0-14.348h-1.104c0,0,0,1.104-1.107,1.104c-1.105,0-1.105,0-1.105,0h-1.104
		c0-3.311,0-3.311,0-3.311c1.104,0,2.21,0,3.317-1.104c1.104-1.104,1.104-1.104,2.21-1.104H222.715z"/>
	<path fill-rule="evenodd" clip-rule="evenodd" fill="#68217A" d="M255.879,630.674c0,19.867,0,19.867,0,19.867
		c-5.526,0-5.526,0-5.526,0c0-14.348,0-14.348,0-14.348l0,0c0,0-1.107,0-1.107,1.104h-1.105c-1.104,0-1.104,0-1.104,0
		c0-3.311,0-3.311,0-3.311c1.104-1.104,2.209-1.104,3.316-1.104c0-1.104,2.211-1.104,2.211-2.207H255.879z"/>
	<path fill-rule="evenodd" clip-rule="evenodd" fill="#68217A" d="M251.458,677.029c-4.421,0-6.633-3.311-6.633-9.933
		c0-2.207,1.105-5.518,2.212-6.622c1.104-2.207,3.316-2.207,4.421-2.207c4.421,0,7.737,2.207,7.737,8.83
		c0,3.311-1.105,5.518-2.209,7.726C255.879,675.925,253.668,677.029,251.458,677.029L251.458,677.029z M251.458,660.474
		c-1.105,0-2.212,2.207-2.212,6.622s1.107,6.622,2.212,6.622c2.211,0,3.316-2.208,3.316-6.622S253.668,660.474,251.458,660.474
		L251.458,660.474z"/>
	<path fill-rule="evenodd" clip-rule="evenodd" fill="#68217A" d="M251.458,703.518c-4.421,0-6.633-3.311-6.633-8.83
		c0-3.311,1.105-5.519,2.212-7.726c1.104-2.207,3.316-2.207,4.421-2.207c4.421,0,7.737,3.311,7.737,8.83
		c0,3.311-1.105,5.518-2.209,7.726C255.879,702.414,253.668,703.518,251.458,703.518L251.458,703.518z M251.458,688.066
		c-1.105,0-2.212,2.208-2.212,6.622c0,3.311,1.107,5.518,2.212,5.518c2.211,0,3.316-2.207,3.316-6.622
		C254.773,689.17,253.668,688.066,251.458,688.066L251.458,688.066z"/>
	<path fill-rule="evenodd" clip-rule="evenodd" fill="#68217A" d="M234.875,650.54c-4.419,0-6.632-3.311-6.632-9.933
		c0-3.311,0-5.519,1.105-6.622c2.211-2.208,3.316-3.311,6.632-3.311c3.317,0,5.528,3.311,5.528,9.933c0,3.311,0,5.518-1.105,6.622
		C239.298,649.437,237.087,650.54,234.875,650.54L234.875,650.54z M234.875,633.985c-1.104,0-2.211,2.207-2.211,6.622
		s1.107,6.622,2.211,6.622c2.212,0,2.212-2.207,2.212-6.622S237.087,633.985,234.875,633.985L234.875,633.985z"/>
	<path fill-rule="evenodd" clip-rule="evenodd" fill="#68217A" d="M238.193,658.266c0,17.659,0,17.659,0,17.659
		c-3.317,0-3.317,0-3.317,0c0-13.244,0-13.244,0-13.244c-1.104,0-1.104,0-1.104,0c-1.107,0-1.107,0-1.107,0
		c-1.105,1.104-1.105,1.104-2.209,1.104c0,0,0,0-1.107,0c0-3.311,0-3.311,0-3.311c1.107,0,3.316-1.104,3.316-1.104
		c2.211,0,2.211-1.104,3.316-1.104H238.193z"/>
	<path fill-rule="evenodd" clip-rule="evenodd" fill="#68217A" d="M234.875,703.518c-4.419,0-6.632-3.311-6.632-8.83
		c0-3.311,0-5.519,1.105-7.726c2.211-2.207,3.316-2.207,6.632-2.207c3.317,0,5.528,3.311,5.528,8.83c0,3.311,0,5.518-1.105,7.726
		C239.298,702.414,237.087,703.518,234.875,703.518L234.875,703.518z M234.875,688.066c-1.104,0-2.211,2.208-2.211,6.622
		c0,3.311,1.107,5.518,2.211,5.518c2.212,0,2.212-2.207,2.212-6.622C237.087,689.17,237.087,688.066,234.875,688.066
		L234.875,688.066z"/>
	<path fill-rule="evenodd" clip-rule="evenodd" fill="#00BCF2" d="M229.349,44.606c8.844,0,16.581,2.207,16.581,4.415
		c0,3.311-7.737,5.519-16.581,5.519c-9.949,0-17.687-2.208-17.687-5.519C211.662,46.814,219.4,44.606,229.349,44.606L229.349,44.606
		z M229.349,42.399c-7.739,0-7.739,0-7.739,0c-6.632,2.207-6.632,2.207-6.632,2.207c-4.42,2.207-4.42,2.207-4.42,2.207
		c-1.107,2.207-1.107,2.207-1.107,2.207c-1.105,1.104-1.105,1.104-1.105,1.104c0,32.007,0,32.007,0,32.007
		c1.105,1.104,1.105,1.104,1.105,1.104c1.107,2.207,1.107,2.207,1.107,2.207c4.42,2.207,4.42,2.207,4.42,2.207
		c6.632,1.104,6.632,1.104,6.632,1.104c2.212,1.104,4.423,1.104,7.739,1.104c5.526,0,9.949-1.104,14.372-2.207
		c1.104-1.104,3.316-2.207,3.316-2.207c1.104-1.104,1.104-1.104,1.104-2.207c1.105,0,1.105-1.104,1.105-1.104
		c0-32.007,0-32.007,0-32.007c0-1.104-1.105-2.207-2.209-3.311c0-1.104-2.212-1.104-3.316-2.207
		c-2.212-1.104-4.423-1.104-6.633-2.207C234.875,42.399,231.559,42.399,229.349,42.399L229.349,42.399z"/>
	<path fill-rule="evenodd" clip-rule="evenodd" fill="#00BCF2" d="M307.833,191.399c9.949,0,18.795,2.208,18.795,4.415
		c0,3.311-8.845,5.518-18.795,5.518c-11.053,0-18.791-2.207-18.791-5.518C289.042,193.607,296.781,191.399,307.833,191.399
		L307.833,191.399z M307.833,188.088c-8.842,1.104-8.842,1.104-8.842,1.104c-7.739,1.104-7.739,1.104-7.739,1.104
		c-4.421,3.311-4.421,3.311-4.421,3.311c-1.107,2.207-1.107,2.207-1.107,2.207c-1.105,1.104-1.105,1.104-1.105,1.104
		c0,35.319,0,35.319,0,35.319c1.105,2.207,1.105,2.207,1.105,2.207c1.107,1.104,1.107,1.104,1.107,1.104
		c4.421,3.311,4.421,3.311,4.421,3.311c7.739,2.207,7.739,2.207,7.739,2.207c2.211,0,5.526,0,8.842,0
		c5.528,0,11.054-1.104,15.477-2.207c2.211-1.104,3.317-2.207,5.526-3.311c0,0,0-1.104,1.107-1.104c0-1.104,0-1.104,0-2.207
		c0-35.319,0-35.319,0-35.319c0-1.104,0-2.207-1.107-3.311c-2.209-1.104-3.316-2.208-5.526-3.311c-2.212,0-4.423-1.104-6.632-1.104
		C313.361,188.088,311.151,188.088,307.833,188.088L307.833,188.088z"/>
	<path fill-rule="evenodd" clip-rule="evenodd" fill="#B8D60A" d="M314.467,274.177c14.37,0,25.426,2.207,25.426,6.622
		c0,3.311-11.056,6.622-25.426,6.622c-13.265,0-24.318-3.311-24.318-6.622C290.149,276.384,301.202,274.177,314.467,274.177
		L314.467,274.177z M315.572,269.762c-12.158,1.104-12.158,1.104-12.158,1.104c-9.949,2.207-9.949,2.207-9.949,2.207
		c-5.528,4.415-5.528,4.415-5.528,4.415c-2.212,2.207-2.212,2.207-2.212,2.207c-1.105,2.207-1.105,2.207-1.105,2.207
		c0,47.459,0,47.459,0,47.459c1.105,2.207,1.105,2.207,1.105,2.207c2.212,2.207,2.212,2.207,2.212,2.207
		c5.528,3.311,5.528,3.311,5.528,3.311c9.949,3.311,9.949,3.311,9.949,3.311c3.316,0,7.737,0,12.158,0
		c7.739,0,15.476-1.104,21.004-3.311c2.211-1.104,4.421-2.207,6.633-3.311c0-1.104,1.104-1.104,1.104-2.207
		c0-1.104,1.105-2.207,1.105-2.207c0-47.459,0-47.459,0-47.459c0-1.104-1.105-3.311-2.209-4.415
		c-2.212-1.104-4.423-3.311-6.633-4.415c-3.316-1.104-6.632-1.104-9.948-2.207C323.311,270.866,318.888,269.762,315.572,269.762
		L315.572,269.762z"/>
	<path fill-rule="evenodd" clip-rule="evenodd" fill="#00B294" d="M368.632,191.399c13.265,0,23.214,3.311,23.214,6.622
		c0,3.311-9.949,6.622-23.214,6.622c-12.158,0-22.107-3.311-22.107-6.622C346.525,194.71,356.474,191.399,368.632,191.399
		L368.632,191.399z M368.632,188.088c-9.948,1.104-9.948,1.104-9.948,1.104c-8.844,2.207-8.844,2.207-8.844,2.207
		c-5.528,3.311-5.528,3.311-5.528,3.311c-2.211,2.207-2.211,2.207-2.211,2.207c0,2.208,0,2.208,0,2.208c0,41.941,0,41.941,0,41.941
		c0,2.208,0,2.208,0,2.208c2.211,2.207,2.211,2.207,2.211,2.207c5.528,3.311,5.528,3.311,5.528,3.311
		c8.844,2.207,8.844,2.207,8.844,2.207c3.316,1.104,6.632,1.104,9.948,1.104c7.74,0,14.372-1.104,19.898-3.311
		c2.211-1.104,4.423-2.207,5.526-3.311c1.107,0,1.107-1.104,1.107-2.207c1.105,0,1.105-1.104,1.105-2.208
		c0-41.941,0-41.941,0-41.941c0-2.208-1.105-3.311-2.212-4.415c-1.104-1.104-3.316-2.207-5.526-3.311
		c-2.211-1.104-5.526-2.207-8.842-2.207C376.372,188.088,373.055,188.088,368.632,188.088L368.632,188.088z"/>
	<path fill-rule="evenodd" clip-rule="evenodd" fill="#00B294" d="M214.978,376.822c14.371,0,25.426,3.311,25.426,7.726
		c0,3.311-11.054,6.622-25.426,6.622c-14.369,0-25.425-3.311-25.425-6.622C189.553,380.133,200.608,376.822,214.978,376.822
		L214.978,376.822z M214.978,373.51c-11.053,1.104-11.053,1.104-11.053,1.104c-9.949,2.207-9.949,2.207-9.949,2.207
		c-6.633,4.415-6.633,4.415-6.633,4.415c-2.212,2.207-2.212,2.207-2.212,2.207c0,2.207,0,2.207,0,2.207c0,47.459,0,47.459,0,47.459
		c0,2.207,0,2.207,0,2.207c2.212,2.207,2.212,2.207,2.212,2.207c6.633,4.415,6.633,4.415,6.633,4.415
		c9.949,2.207,9.949,2.207,9.949,2.207c3.316,1.104,6.633,1.104,11.053,1.104c8.845,0,16.582-1.104,22.11-3.311
		c2.211-1.104,4.421-2.207,5.526-4.415c1.107,0,2.211-1.104,2.211-2.207c0,0,1.105-1.104,1.105-2.207c0-47.459,0-47.459,0-47.459
		c0-2.207-1.105-3.311-3.316-4.415c-1.105-2.207-3.316-3.311-5.526-4.415c-3.316-1.104-6.632-1.104-9.949-2.207
		C223.822,373.51,219.4,373.51,214.978,373.51L214.978,373.51z"/>
	<polygon fill-rule="evenodd" clip-rule="evenodd" fill="#68217A" points="124.335,230.029 82.328,230.029 81.223,230.029 
		81.223,230.029 79.012,226.718 81.223,225.614 81.223,224.51 82.328,223.407 124.335,223.407 125.44,224.51 126.545,225.614 
		127.651,226.718 127.651,228.925 126.545,230.029 125.44,230.029 124.335,230.029 	"/>
	<polygon fill="#00B294" points="124.335,230.029 82.328,230.029 81.223,230.029 81.223,230.029 79.012,226.718 81.223,225.614 
		81.223,224.51 82.328,223.407 124.335,223.407 125.44,224.51 126.545,225.614 127.651,226.718 127.651,228.925 126.545,230.029 
		125.44,230.029 124.335,230.029 	"/>
	<polygon fill-rule="evenodd" clip-rule="evenodd" fill="#68217A" points="124.335,217.888 101.121,217.888 100.015,216.784 
		98.91,216.784 98.91,214.577 98.91,214.577 98.91,212.369 98.91,211.266 101.121,211.266 124.335,211.266 125.44,211.266 
		126.545,211.266 127.651,212.369 127.651,214.577 127.651,214.577 126.545,216.784 125.44,216.784 124.335,217.888 	"/>
	<polygon fill="#00B294" points="124.335,217.888 101.121,217.888 100.015,216.784 98.91,216.784 98.91,214.577 98.91,214.577 
		98.91,212.369 98.91,211.266 101.121,211.266 124.335,211.266 125.44,211.266 126.545,211.266 127.651,212.369 127.651,214.577 
		127.651,214.577 126.545,216.784 125.44,216.784 124.335,217.888 	"/>
	<polygon fill-rule="evenodd" clip-rule="evenodd" fill="#00B294" points="124.335,244.377 82.328,244.377 81.223,243.273 
		81.223,242.17 79.012,241.066 81.223,238.858 81.223,237.755 82.328,237.755 124.335,237.755 125.44,237.755 126.545,238.858 
		127.651,238.858 127.651,241.066 126.545,242.17 125.44,243.273 124.335,244.377 	"/>
	
		<polygon fill="none" stroke="#FFFFFF" stroke-width="0.165" stroke-linecap="round" stroke-linejoin="round" stroke-miterlimit="10" points="
		124.335,244.377 82.328,244.377 81.223,243.273 81.223,242.17 79.012,241.066 81.223,238.858 81.223,237.755 82.328,237.755 
		124.335,237.755 125.44,237.755 126.545,238.858 127.651,238.858 127.651,241.066 126.545,242.17 125.44,243.273 124.335,244.377 	
		"/>
	<polygon fill-rule="evenodd" clip-rule="evenodd" fill="#68217A" points="124.335,257.621 82.328,257.621 81.223,257.621 
		81.223,256.518 80.118,255.414 79.012,254.31 81.223,250.999 81.223,250.999 82.328,250.999 124.335,250.999 125.44,250.999 
		126.545,250.999 127.651,253.207 127.651,254.31 127.651,255.414 126.545,256.518 125.44,257.621 124.335,257.621 	"/>
	<polygon fill="#00B294" points="124.335,257.621 82.328,257.621 81.223,257.621 81.223,256.518 80.118,255.414 79.012,254.31 
		81.223,250.999 81.223,250.999 82.328,250.999 124.335,250.999 125.44,250.999 126.545,250.999 127.651,253.207 127.651,254.31 
		127.651,255.414 126.545,256.518 125.44,257.621 124.335,257.621 	"/>
	<path fill-rule="evenodd" clip-rule="evenodd" fill="#00B294" d="M134.284,184.777H90.066l-25.425,24.282v62.911l1.105,3.311
		l1.105,2.207l2.211,1.104l3.316,1.104h69.643v-86.089l-1.105-3.311l-1.106-2.208l-2.211-2.207L134.284,184.777L134.284,184.777z
		 M136.494,273.073H75.696H74.59l-2.211-1.104l-1.105-2.207v-1.104v-56.289h14.37h2.211l2.211-1.104l2.211-2.207v-3.311v-14.348
		h39.795h1.105l1.106,1.104l2.211,2.208v2.207V273.073L136.494,273.073z"/>
	
		<path fill="none" stroke="#FFFFFF" stroke-width="0.165" stroke-linecap="round" stroke-linejoin="round" stroke-miterlimit="10" d="
		M134.284,184.777H90.066l-25.425,24.282v62.911l1.105,3.311l1.105,2.207l2.211,1.104l3.316,1.104h69.643v-86.089l-1.105-3.311
		l-1.106-2.208l-2.211-2.207L134.284,184.777L134.284,184.777z M136.494,273.073H75.696H74.59l-2.211-1.104l-1.105-2.207v-1.104
		v-56.289h14.37h2.211l2.211-1.104l2.211-2.207v-3.311v-14.348h39.795h1.105l1.106,1.104l2.211,2.208v2.207V273.073L136.494,273.073
		z"/>
	<polygon fill-rule="evenodd" clip-rule="evenodd" fill="#00B294" points="338.788,130.695 308.942,130.695 308.942,130.695 
		308.942,129.592 307.837,128.488 308.942,127.384 308.942,126.281 308.942,125.177 338.788,125.177 339.893,126.281 
		340.998,127.384 340.998,128.488 340.998,129.592 340.998,129.592 339.893,130.695 338.788,130.695 	"/>
	
		<polygon fill="none" stroke="#FFFFFF" stroke-width="0.165" stroke-linecap="round" stroke-linejoin="round" stroke-miterlimit="10" points="
		338.788,130.695 308.942,130.695 308.942,130.695 308.942,129.592 307.837,128.488 308.942,127.384 308.942,126.281 
		308.942,125.177 338.788,125.177 339.893,126.281 340.998,127.384 340.998,128.488 340.998,129.592 340.998,129.592 
		339.893,130.695 338.788,130.695 	"/>
	<polygon fill-rule="evenodd" clip-rule="evenodd" fill="#00B294" points="338.788,120.762 323.312,120.762 322.207,120.762 
		321.102,120.762 321.102,119.658 321.102,118.555 321.102,117.451 321.102,117.451 323.312,116.347 338.788,116.347 
		339.893,116.347 340.998,117.451 340.998,117.451 340.998,118.555 340.998,119.658 340.998,120.762 339.893,120.762 
		338.788,120.762 	"/>
	
		<polygon fill="none" stroke="#FFFFFF" stroke-width="0.165" stroke-linecap="round" stroke-linejoin="round" stroke-miterlimit="10" points="
		338.788,120.762 323.312,120.762 322.207,120.762 321.102,120.762 321.102,119.658 321.102,118.555 321.102,117.451 
		321.102,117.451 323.312,116.347 338.788,116.347 339.893,116.347 340.998,117.451 340.998,117.451 340.998,118.555 
		340.998,119.658 340.998,120.762 339.893,120.762 338.788,120.762 	"/>
	<polygon fill-rule="evenodd" clip-rule="evenodd" fill="#00B294" points="338.788,139.525 308.942,139.525 308.942,139.525 
		308.942,138.421 307.837,137.318 308.942,136.214 308.942,135.11 308.942,135.11 338.788,135.11 339.893,135.11 340.998,136.214 
		340.998,136.214 340.998,137.318 340.998,138.421 339.893,139.525 338.788,139.525 	"/>
	
		<polygon fill="none" stroke="#FFFFFF" stroke-width="0.165" stroke-linecap="round" stroke-linejoin="round" stroke-miterlimit="10" points="
		338.788,139.525 308.942,139.525 308.942,139.525 308.942,138.421 307.837,137.318 308.942,136.214 308.942,135.11 308.942,135.11 
		338.788,135.11 339.893,135.11 340.998,136.214 340.998,136.214 340.998,137.318 340.998,138.421 339.893,139.525 338.788,139.525 
			"/>
	<polygon fill-rule="evenodd" clip-rule="evenodd" fill="#00B294" points="338.788,149.458 308.942,149.458 308.942,149.458 
		308.942,148.355 307.837,148.355 307.837,147.251 308.942,145.044 308.942,145.044 308.942,145.044 338.788,145.044 
		339.893,145.044 340.998,145.044 340.998,146.147 340.998,147.251 340.998,148.355 340.998,148.355 339.893,149.458 
		338.788,149.458 	"/>
	
		<polygon fill="none" stroke="#FFFFFF" stroke-width="0.165" stroke-linecap="round" stroke-linejoin="round" stroke-miterlimit="10" points="
		338.788,149.458 308.942,149.458 308.942,149.458 308.942,148.355 307.837,148.355 307.837,147.251 308.942,145.044 
		308.942,145.044 308.942,145.044 338.788,145.044 339.893,145.044 340.998,145.044 340.998,146.147 340.998,147.251 
		340.998,148.355 340.998,148.355 339.893,149.458 338.788,149.458 	"/>
	<path fill-rule="evenodd" clip-rule="evenodd" fill="#00B294" d="M346.526,98.688h-32.058l-17.686,16.556v44.148l1.105,2.207
		l1.105,2.207l1.105,1.104h2.211h49.744v-60.704l-1.105-2.207l-1.105-2.208l-1.105-1.104H346.526L346.526,98.688z M347.632,160.495
		h-43.113h-1.105l-1.105-1.104l-1.105-1.104v-1.104v-39.733h11.054h1.105l2.211-1.104l1.105-1.104v-2.207v-9.933h27.637h1.105h1.105
		l1.105,2.207v1.104V160.495L347.632,160.495z"/>
	
		<path fill="none" stroke="#FFFFFF" stroke-width="0.165" stroke-linecap="round" stroke-linejoin="round" stroke-miterlimit="10" d="
		M346.526,98.688h-32.058l-17.686,16.556v44.148l1.105,2.207l1.105,2.207l1.105,1.104h2.211h49.744v-60.704l-1.105-2.207
		l-1.105-2.208l-1.105-1.104H346.526L346.526,98.688z M347.632,160.495h-43.113h-1.105l-1.105-1.104l-1.105-1.104v-1.104v-39.733
		h11.054h1.105l2.211-1.104l1.105-1.104v-2.207v-9.933h27.637h1.105h1.105l1.105,2.207v1.104V160.495L347.632,160.495z"/>
	<polygon fill="#9B4F96" points="188.449,163.806 188.449,189.192 166.341,175.947 166.341,150.562 188.449,163.806 	"/>
	<polygon fill="#7FBA00" points="188.449,163.806 188.449,189.192 166.341,175.947 166.341,150.562 188.449,163.806 	"/>
	<polygon fill="#7FBA00" points="193.976,163.806 193.976,189.192 216.085,175.947 216.085,150.562 193.976,163.806 	"/>
	
		<polygon fill="none" stroke="#FFFFFF" stroke-width="0.165" stroke-linecap="round" stroke-linejoin="round" stroke-miterlimit="10" points="
		193.976,163.806 193.976,189.192 216.085,175.947 216.085,150.562 193.976,163.806 	"/>
	<polygon fill="#B8D60A" points="190.661,159.392 168.552,146.147 190.661,134.006 212.769,146.147 190.661,159.392 	"/>
	
		<polygon fill="none" stroke="#FFFFFF" stroke-width="0.165" stroke-linecap="round" stroke-linejoin="round" stroke-miterlimit="10" points="
		190.661,159.392 168.552,146.147 190.661,134.006 212.769,146.147 190.661,159.392 	"/>
	<polygon fill="#7FBA00" points="243.721,163.806 243.721,189.192 221.613,175.947 221.613,150.562 243.721,163.806 	"/>
	
		<polygon fill="none" stroke="#FFFFFF" stroke-width="0.165" stroke-linecap="round" stroke-linejoin="round" stroke-miterlimit="10" points="
		243.721,163.806 243.721,189.192 221.613,175.947 221.613,150.562 243.721,163.806 	"/>
	<polygon fill="#7FBA00" points="249.249,163.806 249.249,189.192 270.252,175.947 270.252,150.562 249.249,163.806 	"/>
	
		<polygon fill="none" stroke="#FFFFFF" stroke-width="0.165" stroke-linecap="round" stroke-linejoin="round" stroke-miterlimit="10" points="
		249.249,163.806 249.249,189.192 270.252,175.947 270.252,150.562 249.249,163.806 	"/>
	<polygon fill="#B8D60A" points="245.933,159.392 223.824,146.147 245.933,134.006 268.04,146.147 245.933,159.392 	"/>
	
		<polygon fill="none" stroke="#FFFFFF" stroke-width="0.165" stroke-linecap="round" stroke-linejoin="round" stroke-miterlimit="10" points="
		245.933,159.392 223.824,146.147 245.933,134.006 268.04,146.147 245.933,159.392 	"/>
	<polygon fill="#7FBA00" points="216.085,211.266 216.085,236.651 193.976,223.407 193.976,199.125 216.085,211.266 	"/>
	
		<polygon fill="none" stroke="#FFFFFF" stroke-width="0.165" stroke-linecap="round" stroke-linejoin="round" stroke-miterlimit="10" points="
		216.085,211.266 216.085,236.651 193.976,223.407 193.976,199.125 216.085,211.266 	"/>
	<polygon fill="#7FBA00" points="221.613,211.266 221.613,236.651 243.721,223.407 243.721,199.125 221.613,211.266 	"/>
	
		<polygon fill="none" stroke="#FFFFFF" stroke-width="0.165" stroke-linecap="round" stroke-linejoin="round" stroke-miterlimit="10" points="
		221.613,211.266 221.613,236.651 243.721,223.407 243.721,199.125 221.613,211.266 	"/>
	<polygon fill="#9B4F96" points="218.296,206.851 196.188,193.607 218.296,181.466 240.405,193.607 218.296,206.851 	"/>
	<polygon fill="#B8D60A" points="218.296,206.851 196.188,193.607 218.296,181.466 240.405,193.607 218.296,206.851 	"/>
	<path fill-rule="evenodd" clip-rule="evenodd" fill="#008272" d="M179.604,259.829c0,20.97,0,20.97,0,20.97
		c-4.421,0-4.421,0-4.421,0c0-16.556,0-16.556,0-16.556l-1.104,1.104c0,0,0,0-1.107,1.104h-1.105h-1.104c0-4.415,0-4.415,0-4.415
		c1.104,0,2.21,0,3.317-1.104c1.104,0,2.21-1.104,3.316-1.104H179.604z"/>
	<path fill-rule="evenodd" clip-rule="evenodd" fill="#008272" d="M196.185,280.799c-6.633,0-8.842-2.207-8.842-9.933
		c0-4.415,1.104-6.622,2.21-8.83c1.107-1.104,3.317-2.207,6.633-2.207c4.423,0,7.739,3.311,7.739,11.037
		c0,3.311-1.107,5.519-2.212,7.726C199.502,280.799,198.396,280.799,196.185,280.799L196.185,280.799z M196.185,263.14
		c-3.316,0-3.316,2.207-3.316,7.726c0,4.415,0,6.622,3.316,6.622c1.107,0,2.211-2.207,2.211-6.622
		C198.396,265.347,197.292,263.14,196.185,263.14L196.185,263.14z"/>
	<path fill-rule="evenodd" clip-rule="evenodd" fill="#008272" d="M217.19,259.829c0,20.97,0,20.97,0,20.97
		c-4.423,0-4.423,0-4.423,0c0-16.556,0-16.556,0-16.556l-1.105,1.104c0,0-1.104,0-1.104,1.104h-1.107c-1.105,0-1.105,0-1.105,0
		c0-4.415,0-4.415,0-4.415c1.105,0,2.212,0,3.317-1.104c1.105,0,2.211-1.104,2.211-1.104H217.19z"/>
	<path fill-rule="evenodd" clip-rule="evenodd" fill="#008272" d="M176.288,311.703c-5.526,0-7.738-3.311-7.738-11.037
		c0-3.311,1.105-5.519,2.211-7.726c1.104-2.207,3.317-3.311,6.633-3.311c4.421,0,6.632,4.415,6.632,11.037
		c0,3.311,0,6.622-1.106,8.83C180.711,310.599,178.498,311.703,176.288,311.703L176.288,311.703z M176.288,294.044
		c-1.105,0-3.317,2.207-3.317,6.622c0,5.519,2.211,7.726,3.317,7.726c2.211,0,3.316-2.207,3.316-7.726
		C179.604,296.251,178.498,294.044,176.288,294.044L176.288,294.044z"/>
	<path fill-rule="evenodd" clip-rule="evenodd" fill="#008272" d="M199.502,289.629c0,22.074,0,22.074,0,22.074
		c-5.526,0-5.526,0-5.526,0c0-16.556,0-16.556,0-16.556v1.104h-1.106c-1.106,0-1.106,0-2.21,0c0,1.104,0,1.104-1.107,1.104
		c0-4.415,0-4.415,0-4.415c1.107,0,3.317-1.104,4.423-1.104c0,0,2.21-1.104,2.21-2.207H199.502z"/>
	<path fill-rule="evenodd" clip-rule="evenodd" fill="#008272" d="M212.767,311.703c-4.422,0-6.633-3.311-6.633-11.037
		c0-3.311,0-5.519,1.106-7.726c2.21-2.207,4.421-3.311,6.632-3.311c4.421,0,7.737,4.415,7.737,11.037
		c0,3.311-1.104,6.622-2.211,8.83C217.19,310.599,216.083,311.703,212.767,311.703L212.767,311.703z M213.873,294.044
		c-2.211,0-3.316,2.207-3.316,6.622c0,5.519,1.104,7.726,3.316,7.726c1.104,0,2.21-2.207,2.21-7.726
		C216.083,296.251,214.978,294.044,213.873,294.044L213.873,294.044z"/>
	<path fill-rule="evenodd" clip-rule="evenodd" fill="#008272" d="M176.288,342.607c-5.526,0-7.738-3.311-7.738-11.037
		c0-3.311,1.105-5.519,2.211-7.726c1.104-2.207,3.317-3.311,6.633-3.311c4.421,0,6.632,3.311,6.632,11.037
		c0,3.311,0,5.518-1.106,7.726C180.711,341.503,178.498,342.607,176.288,342.607L176.288,342.607z M176.288,323.844
		c-1.105,0-3.317,3.311-3.317,7.726c0,5.518,2.211,7.726,3.317,7.726c2.211,0,3.316-3.311,3.316-7.726
		C179.604,326.051,178.498,323.844,176.288,323.844L176.288,323.844z"/>
	<path fill-rule="evenodd" clip-rule="evenodd" fill="#008272" d="M196.185,342.607c-6.633,0-8.842-3.311-8.842-11.037
		c0-3.311,1.104-5.519,2.21-7.726c1.107-2.207,3.317-3.311,6.633-3.311c4.423,0,7.739,3.311,7.739,11.037
		c0,3.311-1.107,5.518-2.212,7.726C199.502,341.503,198.396,342.607,196.185,342.607L196.185,342.607z M196.185,323.844
		c-3.316,0-3.316,3.311-3.316,7.726c0,5.518,0,7.726,3.316,7.726c1.107,0,2.211-3.311,2.211-7.726
		C198.396,326.051,197.292,323.844,196.185,323.844L196.185,323.844z"/>
	<path fill-rule="evenodd" clip-rule="evenodd" fill="#008272" d="M217.19,320.533c0,22.074,0,22.074,0,22.074
		c-4.423,0-4.423,0-4.423,0c0-16.556,0-16.556,0-16.556h-1.105l-1.104,1.104h-1.107c-1.105,0-1.105,0-1.105,1.104
		c0-4.415,0-4.415,0-4.415c1.105,0,2.212-1.104,3.317-1.104c1.105-1.104,2.211-1.104,2.211-2.207H217.19z"/>
	<path fill-rule="evenodd" clip-rule="evenodd" fill="#008272" d="M255.879,259.829c0,20.97,0,20.97,0,20.97
		c-5.526,0-5.526,0-5.526,0c0-16.556,0-16.556,0-16.556l-1.107,1.104c0,0-1.105,0-1.105,1.104h-1.104c-1.107,0-1.107,0-2.212,0
		c0-4.415,0-4.415,0-4.415c2.212,0,3.316,0,4.421-1.104c1.107,0,2.212-1.104,3.317-1.104H255.879z"/>
	<path fill-rule="evenodd" clip-rule="evenodd" fill="#008272" d="M251.458,311.703c-5.528,0-7.737-3.311-7.737-11.037
		c0-3.311,0-5.519,2.209-7.726c1.107-2.207,3.316-3.311,5.528-3.311c5.528,0,7.737,4.415,7.737,11.037
		c0,3.311-1.105,6.622-2.209,8.83C255.879,310.599,253.668,311.703,251.458,311.703L251.458,311.703z M251.458,294.044
		c-2.212,0-3.317,2.207-3.317,6.622c0,5.519,1.105,7.726,3.317,7.726c2.211,0,2.211-2.207,2.211-7.726
		C253.668,296.251,253.668,294.044,251.458,294.044L251.458,294.044z"/>
	<path fill-rule="evenodd" clip-rule="evenodd" fill="#008272" d="M251.458,342.607c-5.528,0-7.737-3.311-7.737-11.037
		c0-3.311,0-5.519,2.209-7.726c1.107-2.207,3.316-3.311,5.528-3.311c5.528,0,7.737,3.311,7.737,11.037
		c0,3.311-1.105,5.518-2.209,7.726C255.879,341.503,253.668,342.607,251.458,342.607L251.458,342.607z M251.458,323.844
		c-2.212,0-3.317,3.311-3.317,7.726c0,5.518,1.105,7.726,3.317,7.726c2.211,0,2.211-3.311,2.211-7.726
		C253.668,326.051,253.668,323.844,251.458,323.844L251.458,323.844z"/>
	<path fill-rule="evenodd" clip-rule="evenodd" fill="#008272" d="M231.559,280.799c-5.526,0-7.737-2.207-7.737-9.933
		c0-4.415,1.104-6.622,2.211-8.83c1.105-1.104,3.316-2.207,6.632-2.207c4.423,0,6.633,3.311,6.633,11.037
		c0,3.311,0,5.519-1.105,7.726C237.087,280.799,234.875,280.799,231.559,280.799L231.559,280.799z M231.559,263.14
		c-1.104,0-2.211,2.207-2.211,7.726c0,4.415,1.107,6.622,2.211,6.622c2.212,0,3.316-2.207,3.316-6.622
		C234.875,265.347,233.771,263.14,231.559,263.14L231.559,263.14z"/>
	<path fill-rule="evenodd" clip-rule="evenodd" fill="#008272" d="M235.98,289.629c0,22.074,0,22.074,0,22.074
		c-4.421,0-4.421,0-4.421,0c0-16.556,0-16.556,0-16.556c-1.104,0-1.104,1.104-1.104,1.104c-1.107,0-1.107,0-1.107,0
		c-1.105,0-1.105,0-2.211,0c0,1.104-1.105,1.104-1.105,1.104c0-4.415,0-4.415,0-4.415c1.105,0,3.316-1.104,3.316-1.104
		c2.211,0,3.316-1.104,3.316-2.207H235.98z"/>
	<path fill-rule="evenodd" clip-rule="evenodd" fill="#008272" d="M231.559,342.607c-5.526,0-7.737-3.311-7.737-11.037
		c0-3.311,1.104-5.519,2.211-7.726c1.105-2.207,3.316-3.311,6.632-3.311c4.423,0,6.633,3.311,6.633,11.037
		c0,3.311,0,5.518-1.105,7.726C237.087,341.503,234.875,342.607,231.559,342.607L231.559,342.607z M231.559,323.844
		c-1.104,0-2.211,3.311-2.211,7.726c0,5.518,1.107,7.726,2.211,7.726c2.212,0,3.316-3.311,3.316-7.726
		C234.875,326.051,233.771,323.844,231.559,323.844L231.559,323.844z"/>
	<path fill="#D2D2D2" d="M149.757,309.495c-127.125,0-127.125,0-127.125,0c0,89.4,0,89.4,0,89.4
		c1.107,3.311,1.107,3.311,1.107,3.311c148.126,222.948,148.126,222.948,148.126,222.948c96.173,0,96.173,0,96.173,0
		c148.129-222.948,148.129-222.948,148.129-222.948c0-1.104,1.104-2.207,1.104-3.311l0,0c0-89.4,0-89.4,0-89.4
		C149.757,309.495,149.757,309.495,149.757,309.495"/>
	<polygon fill="#FFFFFF" points="121.018,309.496 117.702,309.496 21.53,309.496 21.53,398.896 22.635,398.896 22.635,309.496 
		121.018,309.496 	"/>
	
		<polygon fill="none" stroke="#FFFFFF" stroke-width="0.165" stroke-linecap="round" stroke-linejoin="round" stroke-miterlimit="10" points="
		121.018,309.496 117.702,309.496 21.53,309.496 21.53,398.896 22.635,398.896 22.635,309.496 121.018,309.496 	"/>
	
		<polyline fill="none" stroke="#FFFFFF" stroke-width="0.165" stroke-linecap="round" stroke-linejoin="round" stroke-miterlimit="10" points="
		121.018,309.496 117.702,309.496 21.53,309.496 21.53,398.896 22.635,398.896 22.635,309.496 121.018,309.496 	"/>
	<polygon fill="#E9E9E9" points="121.018,309.496 22.635,309.496 22.635,398.896 121.018,398.896 121.018,309.496 	"/>
	
		<polygon fill="none" stroke="#FFFFFF" stroke-width="0.165" stroke-linecap="round" stroke-linejoin="round" stroke-miterlimit="10" points="
		121.018,309.496 22.635,309.496 22.635,398.896 121.018,398.896 121.018,309.496 	"/>
	
		<polyline fill="none" stroke="#FFFFFF" stroke-width="0.165" stroke-linecap="round" stroke-linejoin="round" stroke-miterlimit="10" points="
		121.018,309.496 22.635,309.496 22.635,398.896 121.018,398.896 121.018,309.496 	"/>
	<polygon fill="#FFFFFF" points="75.696,480.57 170.763,625.155 171.868,625.155 75.696,480.57 	"/>
	
		<polygon fill="none" stroke="#FFFFFF" stroke-width="0.165" stroke-linecap="round" stroke-linejoin="round" stroke-miterlimit="10" points="
		75.696,480.57 170.763,625.155 171.868,625.155 75.696,480.57 	"/>
	
		<polyline fill="none" stroke="#FFFFFF" stroke-width="0.165" stroke-linecap="round" stroke-linejoin="round" stroke-miterlimit="10" points="
		75.696,480.57 170.763,625.155 171.868,625.155 75.696,480.57 	"/>
	<polygon fill="#E9E9E9" points="121.018,398.896 121.018,398.896 22.635,398.896 75.696,480.57 171.868,625.155 200.61,625.155 
		121.018,398.896 	"/>
	
		<polygon fill="none" stroke="#FFFFFF" stroke-width="0.165" stroke-linecap="round" stroke-linejoin="round" stroke-miterlimit="10" points="
		121.018,398.896 121.018,398.896 22.635,398.896 75.696,480.57 171.868,625.155 200.61,625.155 121.018,398.896 	"/>
	
		<polyline fill="none" stroke="#FFFFFF" stroke-width="0.165" stroke-linecap="round" stroke-linejoin="round" stroke-miterlimit="10" points="
		121.018,398.896 121.018,398.896 22.635,398.896 75.696,480.57 171.868,625.155 200.61,625.155 121.018,398.896 	"/>
	<path fill="#FFFFFF" d="M416.167,402.207c2.209-3.311,2.209-3.311,2.209-3.311c-1.105,0-1.105,0-1.105,0l0,0
		C417.271,399.999,416.167,401.103,416.167,402.207L416.167,402.207z"/>
	<path fill="#D2D2D2" d="M420.588,305.081c-1.105,0-1.105,0-1.105,0c-399.06,0-399.06,0-399.06,0c-1.106,0-1.106,0-1.106,0
		c-2.21,0-3.317,2.207-3.317,4.415c0,2.207,1.107,4.415,3.317,4.415c1.106,0,1.106,0,1.106,0c399.06,0,399.06,0,399.06,0
		c1.105,0,1.105,0,1.105,0c2.211,0,4.421-2.207,4.421-4.415C425.01,307.288,422.799,305.081,420.588,305.081L420.588,305.081z"/>
	<polygon fill="#B4B4B4" points="114.386,475.051 114.386,401.103 321.102,401.103 321.102,475.051 114.386,475.051 	"/>
	
		<polygon fill="none" stroke="#FFFFFF" stroke-width="0.165" stroke-linecap="round" stroke-linejoin="round" stroke-miterlimit="10" points="
		114.386,475.051 114.386,401.103 321.102,401.103 321.102,475.051 114.386,475.051 	"/>
	<path fill="#F5F5F5" d="M313.361,409.933c-39.795,0-39.795,0-39.795,0c0,24.281,0,24.281,0,24.281c0,1.104,0,2.207,0,2.207
		c-1.107,1.104-1.107,1.104-1.107,2.207c-2.209,1.104-3.316,2.207-5.525,2.207c-4.423,2.207-9.949,3.311-16.582,3.311
		c-3.316,0-6.632,0-8.844-1.104c-7.737-2.207-7.737-2.207-7.737-2.207c-5.528-2.207-5.528-2.207-5.528-2.207
		c-1.105-2.207-1.105-2.207-1.105-2.207c0-2.207,0-2.207,0-2.207c0-24.281,0-24.281,0-24.281c-105.016,0-105.016,0-105.016,0
		c0,57.393,0,57.393,0,57.393c24.319,0,24.319,0,24.319,0c0-32.007,0-32.007,0-32.007c16.582-16.556,16.582-16.556,16.582-16.556
		c30.953,0,30.953,0,30.953,0c2.21,1.104,2.21,1.104,2.21,1.104c1.107,1.104,1.107,1.104,1.107,1.104
		c1.104,1.104,1.104,1.104,1.104,1.104c1.106,2.207,1.106,2.207,1.106,2.207c0,43.044,0,43.044,0,43.044
		c113.859,0,113.859,0,113.859,0V409.933z"/>
	<path fill="#F5F5F5" d="M156.392,467.325v-1.104l1.105-2.207l0,0h1.106h28.741h1.105l0,0l1.106,1.104v1.104v1.104h-1.106h6.633
		v-40.837v-1.104l-1.106-1.104l-1.105-1.104h-1.105h-26.53v9.933v2.207l-1.106,1.104l-2.211,1.104h-1.105h-9.949v29.8H156.392
		L156.392,467.325L156.392,467.325z M169.657,438.629v-1.104l0,0l2.211-1.104h15.476h1.105v1.104h1.106v1.104v1.104l-1.106,1.104
		l0,0h-1.105h-15.476h-1.105h-1.106v-1.104V438.629L169.657,438.629z M157.497,446.355L157.497,446.355l1.106-1.104h28.741
		l1.105,1.104l0,0l1.106,1.104v1.104l-1.106,1.104l0,0h-1.105h-28.741h-1.106l0,0l-1.105-2.207L157.497,446.355L157.497,446.355z
		 M157.497,455.185L157.497,455.185h1.106h28.741h1.105l0,0l1.106,1.104v1.104l-1.106,1.104l0,0l-1.105,1.104h-28.741l-1.106-1.104
		l0,0l-1.105-1.104L157.497,455.185L157.497,455.185z"/>
	
		<path fill="none" stroke="#FFFFFF" stroke-width="0.165" stroke-linecap="round" stroke-linejoin="round" stroke-miterlimit="10" d="
		M156.392,467.325v-1.104l1.105-2.207l0,0h1.106h28.741h1.105l0,0l1.106,1.104v1.104v1.104h-1.106h6.633v-40.837v-1.104
		l-1.106-1.104l-1.105-1.104h-1.105h-26.53v9.933v2.207l-1.106,1.104l-2.211,1.104h-1.105h-9.949v29.8H156.392L156.392,467.325
		L156.392,467.325z M169.657,438.629v-1.104l0,0l2.211-1.104h15.476h1.105v1.104h1.106v1.104v1.104l-1.106,1.104l0,0h-1.105h-15.476
		h-1.105h-1.106v-1.104V438.629L169.657,438.629z M157.497,446.355L157.497,446.355l1.106-1.104h28.741l1.105,1.104l0,0l1.106,1.104
		v1.104l-1.106,1.104l0,0h-1.105h-28.741h-1.106l0,0l-1.105-2.207L157.497,446.355L157.497,446.355z M157.497,455.185
		L157.497,455.185h1.106h28.741h1.105l0,0l1.106,1.104v1.104l-1.106,1.104l0,0l-1.105,1.104h-28.741l-1.106-1.104l0,0l-1.105-1.104
		L157.497,455.185L157.497,455.185z"/>
	<path fill="#00BCF2" d="M227.138,436.422c1.105,2.207,1.105,2.207,1.105,2.207c5.528,2.207,5.528,2.207,5.528,2.207
		c7.737,2.207,7.737,2.207,7.737,2.207c2.212,1.104,5.528,1.104,8.844,1.104c6.633,0,12.16-1.104,16.582-3.311
		c2.209,0,3.316-1.104,5.525-2.207c0-1.104,0-1.104,1.107-2.207c0,0,0-1.104,0-2.207c0-24.281,0-24.281,0-24.281
		c-46.428,0-46.428,0-46.428,0c0,24.281,0,24.281,0,24.281V436.422z"/>
	<polygon fill="#00B294" points="157.497,449.666 158.603,449.666 187.344,449.666 188.449,449.666 188.449,449.666 
		189.555,448.562 189.555,447.459 188.449,446.355 188.449,446.355 187.344,445.251 158.603,445.251 157.497,446.355 
		157.497,446.355 156.392,447.459 157.497,449.666 157.497,449.666 	"/>
	
		<polygon fill="none" stroke="#FFFFFF" stroke-width="0.165" stroke-linecap="round" stroke-linejoin="round" stroke-miterlimit="10" points="
		157.497,449.666 158.603,449.666 187.344,449.666 188.449,449.666 188.449,449.666 189.555,448.562 189.555,447.459 
		188.449,446.355 188.449,446.355 187.344,445.251 158.603,445.251 157.497,446.355 157.497,446.355 156.392,447.459 
		157.497,449.666 157.497,449.666 	"/>
	<polygon fill="#00B294" points="170.763,440.836 171.868,440.836 187.344,440.836 188.449,440.836 188.449,440.836 
		189.555,439.733 189.555,438.629 189.555,437.525 188.449,437.525 188.449,436.422 187.344,436.422 171.868,436.422 
		169.657,437.525 169.657,437.525 169.657,438.629 169.657,439.733 169.657,440.836 170.763,440.836 	"/>
	
		<polygon fill="none" stroke="#FFFFFF" stroke-width="0.165" stroke-linecap="round" stroke-linejoin="round" stroke-miterlimit="10" points="
		170.763,440.836 171.868,440.836 187.344,440.836 188.449,440.836 188.449,440.836 189.555,439.733 189.555,438.629 
		189.555,437.525 188.449,437.525 188.449,436.422 187.344,436.422 171.868,436.422 169.657,437.525 169.657,437.525 
		169.657,438.629 169.657,439.733 169.657,440.836 170.763,440.836 	"/>
	<polygon fill="#00B294" points="157.497,458.496 158.603,459.599 187.344,459.599 188.449,458.496 188.449,458.496 
		189.555,457.392 189.555,456.288 188.449,455.185 188.449,455.185 187.344,455.185 158.603,455.185 157.497,455.185 
		157.497,455.185 156.392,457.392 157.497,458.496 157.497,458.496 	"/>
	
		<polygon fill="none" stroke="#FFFFFF" stroke-width="0.165" stroke-linecap="round" stroke-linejoin="round" stroke-miterlimit="10" points="
		157.497,458.496 158.603,459.599 187.344,459.599 188.449,458.496 188.449,458.496 189.555,457.392 189.555,456.288 
		188.449,455.185 188.449,455.185 187.344,455.185 158.603,455.185 157.497,455.185 157.497,455.185 156.392,457.392 
		157.497,458.496 157.497,458.496 	"/>
	<polygon fill="#00B294" points="157.497,467.325 157.497,468.429 158.603,468.429 187.344,468.429 188.449,468.429 
		188.449,467.325 188.449,467.325 156.392,467.325 157.497,467.325 	"/>
	
		<polygon fill="none" stroke="#FFFFFF" stroke-width="0.165" stroke-linecap="round" stroke-linejoin="round" stroke-miterlimit="10" points="
		157.497,467.325 157.497,468.429 158.603,468.429 187.344,468.429 188.449,468.429 188.449,467.325 188.449,467.325 
		156.392,467.325 157.497,467.325 	"/>
	<polygon fill="#00B294" points="189.555,466.222 189.555,465.118 188.449,464.014 188.449,464.014 187.344,464.014 
		158.603,464.014 157.497,464.014 157.497,464.014 156.392,466.222 156.392,467.325 156.392,467.325 188.449,467.325 
		189.555,467.325 189.555,466.222 	"/>
	
		<polygon fill="none" stroke="#FFFFFF" stroke-width="0.165" stroke-linecap="round" stroke-linejoin="round" stroke-miterlimit="10" points="
		189.555,466.222 189.555,465.118 188.449,464.014 188.449,464.014 187.344,464.014 158.603,464.014 157.497,464.014 
		157.497,464.014 156.392,466.222 156.392,467.325 156.392,467.325 188.449,467.325 189.555,467.325 189.555,466.222 	"/>
	<polygon fill="#00B294" points="198.398,422.073 197.293,420.97 196.188,419.866 193.976,418.762 163.024,418.762 146.444,435.318 
		146.444,467.325 150.865,467.325 150.865,437.525 160.814,437.525 161.919,437.525 164.13,436.422 165.236,435.318 165.236,433.11 
		165.236,423.177 191.766,423.177 192.871,423.177 193.976,424.281 195.083,425.385 195.083,426.488 195.083,467.325 
		199.504,467.325 199.504,424.281 198.398,422.073 	"/>
	
		<polygon fill="none" stroke="#FFFFFF" stroke-width="0.165" stroke-linecap="round" stroke-linejoin="round" stroke-miterlimit="10" points="
		198.398,422.073 197.293,420.97 196.188,419.866 193.976,418.762 163.024,418.762 146.444,435.318 146.444,467.325 
		150.865,467.325 150.865,437.525 160.814,437.525 161.919,437.525 164.13,436.422 165.236,435.318 165.236,433.11 165.236,423.177 
		191.766,423.177 192.871,423.177 193.976,424.281 195.083,425.385 195.083,426.488 195.083,467.325 199.504,467.325 
		199.504,424.281 198.398,422.073 	"/>
	<polygon fill="#D2D2D2" points="268.04,658.266 170.763,658.266 170.763,625.155 268.04,625.155 268.04,658.266 	"/>
	
		<polygon fill="none" stroke="#FFFFFF" stroke-width="0.165" stroke-linecap="round" stroke-linejoin="round" stroke-miterlimit="10" points="
		268.04,658.266 170.763,658.266 170.763,625.155 268.04,625.155 268.04,658.266 	"/>
	<path fill-rule="evenodd" clip-rule="evenodd" fill="#00B294" d="M142.019,87.651c17.687,0,32.059,4.415,32.059,8.83
		c0,5.519-14.372,8.83-32.059,8.83c-17.685,0-32.056-3.311-32.056-8.83C109.963,92.066,124.334,87.651,142.019,87.651
		L142.019,87.651z M142.019,83.236c-15.476,1.104-15.476,1.104-15.476,1.104c-12.159,3.311-12.159,3.311-12.159,3.311
		c-7.738,4.415-7.738,4.415-7.738,4.415c-2.211,3.311-2.211,3.311-2.211,3.311c-1.105,3.311-1.105,3.311-1.105,3.311
		c0,60.704,0,60.704,0,60.704c1.105,2.207,1.105,2.207,1.105,2.207c2.211,3.311,2.211,3.311,2.211,3.311
		c7.738,4.415,7.738,4.415,7.738,4.415c12.159,3.311,12.159,3.311,12.159,3.311c5.527,1.104,9.948,1.104,15.476,1.104
		c11.054,0,19.898-1.104,27.636-4.415c3.316-1.104,6.632-2.207,7.739-4.415c1.104-1.104,2.21-2.207,2.21-3.311
		c1.107,0,1.107-1.104,1.107-2.207c0-60.704,0-60.704,0-60.704c0-2.207-1.107-4.415-3.317-6.622
		c-1.106-1.104-4.423-3.311-7.739-4.415c-3.317-1.104-7.739-2.207-12.159-3.311C153.074,83.236,147.547,83.236,142.019,83.236
		L142.019,83.236z"/>
	<path fill="#68217A" d="M286.831,746.563c-1.107-3.311-3.316-6.622-6.632-9.933c-4.423-4.415-11.056-6.622-17.688-6.622
		c-4.423,0-7.739,1.104-12.16,2.207c-8.844,4.415-14.372,14.348-14.372,24.281c0,7.726,2.212,14.348,6.633,18.763
		c2.211,2.208,4.423,4.415,7.739,5.519c3.316,1.104,7.737,2.207,12.16,2.207c14.37,0,26.53-11.037,26.53-26.489
		C289.042,753.185,287.937,749.874,286.831,746.563L286.831,746.563z"/>
	<path fill-rule="evenodd" clip-rule="evenodd" fill="#00B294" d="M305.625,698h-154.76l-60.799,57.393v220.741l2.211,7.726
		l3.316,6.622l6.632,3.311l6.633,2.207h214.454V717.866l-1.105-7.726l-4.423-6.622l-5.526-3.311L305.625,698L305.625,698z
		 M308.942,979.444H116.597h-4.422l-3.317-1.104l-3.316-6.622v-3.311V765.326h36.479h5.527l5.527-4.415l3.316-5.519l2.211-7.726
		v-34.215h139.284h4.421l3.316,2.207l3.317,4.415v5.518V979.444L308.942,979.444z"/>
	
		<path fill="none" stroke="#FFFFFF" stroke-width="0.165" stroke-linecap="round" stroke-linejoin="round" stroke-miterlimit="10" d="
		M305.625,698h-154.76l-60.799,57.393v220.741l2.211,7.726l3.316,6.622l6.632,3.311l6.633,2.207h214.454V717.866l-1.105-7.726
		l-4.423-6.622l-5.526-3.311L305.625,698L305.625,698z M308.942,979.444H116.597h-4.422l-3.317-1.104l-3.316-6.622v-3.311V765.326
		h36.479h5.527l5.527-4.415l3.316-5.519l2.211-7.726v-34.215h139.284h4.421l3.316,2.207l3.317,4.415v5.518V979.444L308.942,979.444z
		"/>
	<polygon fill="#002050" points="193.976,862.452 205.031,862.452 205.031,822.718 193.976,822.718 193.976,862.452 	"/>
	
		<polygon fill="none" stroke="#FFFFFF" stroke-width="0.165" stroke-linecap="round" stroke-linejoin="round" stroke-miterlimit="10" points="
		193.976,862.452 205.031,862.452 205.031,822.718 193.976,822.718 193.976,862.452 	"/>
	<polygon fill="#00B294" points="154.181,829.341 154.181,835.963 154.181,862.452 165.236,862.452 165.236,830.444 
		165.236,829.341 154.181,829.341 	"/>
	
		<polygon fill="none" stroke="#FFFFFF" stroke-width="0.165" stroke-linecap="round" stroke-linejoin="round" stroke-miterlimit="10" points="
		154.181,829.341 154.181,835.963 154.181,862.452 165.236,862.452 165.236,830.444 165.236,829.341 154.181,829.341 	"/>
	<polygon fill="#008272" points="167.446,798.437 167.446,830.444 167.446,862.452 178.501,862.452 178.501,824.926 
		178.501,798.437 167.446,798.437 	"/>
	
		<polygon fill="none" stroke="#FFFFFF" stroke-width="0.165" stroke-linecap="round" stroke-linejoin="round" stroke-miterlimit="10" points="
		167.446,798.437 167.446,830.444 167.446,862.452 178.501,862.452 178.501,824.926 178.501,798.437 167.446,798.437 	"/>
	<polygon fill="#9B4F96" points="180.711,769.74 180.711,823.822 180.711,862.452 191.766,862.452 191.766,819.407 191.766,769.74 
		180.711,769.74 	"/>
	<polygon fill="#00D8CC" points="180.711,769.74 180.711,823.822 180.711,862.452 191.766,862.452 191.766,819.407 191.766,769.74 
		180.711,769.74 	"/>
	<polygon fill="#00BCF2" points="208.348,799.541 208.348,811.681 208.348,862.452 219.402,862.452 219.402,807.266 
		219.402,799.541 208.348,799.541 	"/>
	
		<polygon fill="none" stroke="#FFFFFF" stroke-width="0.165" stroke-linecap="round" stroke-linejoin="round" stroke-miterlimit="10" points="
		208.348,799.541 208.348,811.681 208.348,862.452 219.402,862.452 219.402,807.266 219.402,799.541 208.348,799.541 	"/>
	<polygon fill="#00B294" points="126.545,830.444 126.545,848.104 126.545,862.452 137.6,862.452 137.6,842.585 137.6,830.444 
		126.545,830.444 	"/>
	
		<polygon fill="none" stroke="#FFFFFF" stroke-width="0.165" stroke-linecap="round" stroke-linejoin="round" stroke-miterlimit="10" points="
		126.545,830.444 126.545,848.104 126.545,862.452 137.6,862.452 137.6,842.585 137.6,830.444 126.545,830.444 	"/>
	<polygon fill="#68217A" points="139.81,795.126 139.81,845.896 139.81,862.452 150.865,862.452 150.865,841.481 150.865,795.126 
		139.81,795.126 	"/>
	<polygon fill="#00BCF2" points="139.81,795.126 139.81,845.896 139.81,862.452 150.865,862.452 150.865,841.481 150.865,795.126 
		139.81,795.126 	"/>
	<path fill="#00B294" d="M280.2,736.629c-4.423-4.415-11.056-6.622-17.688-6.622c-4.423,0-7.739,1.104-12.16,2.207
		c12.16,24.281,12.16,24.281,12.16,24.281L280.2,736.629z"/>
	<path fill="#00D8CC" d="M286.831,746.563c-1.107-3.311-3.316-6.622-6.632-9.933c-17.688,19.867-17.688,19.867-17.688,19.867
		L286.831,746.563z"/>
	<path fill="#BDDC0A" d="M250.352,732.214c-8.844,4.415-14.372,14.348-14.372,24.281c0,7.726,2.212,14.348,6.633,18.763
		c19.898-18.763,19.898-18.763,19.898-18.763L250.352,732.214z"/>
	<path fill="#00D8CC" d="M262.512,756.496c26.53,0,26.53,0,26.53,0c0-3.311-1.105-6.622-2.211-9.933L262.512,756.496z"/>
	<path fill="#008272" d="M242.614,775.259c2.211,2.208,4.423,4.415,7.739,5.519c12.16-24.282,12.16-24.282,12.16-24.282
		L242.614,775.259z"/>
	<path fill="#7FBA00" d="M250.352,780.777c3.316,1.104,7.737,2.207,12.16,2.207c14.37,0,26.53-11.037,26.53-26.489
		c-26.53,0-26.53,0-26.53,0L250.352,780.777z"/>
	<path fill="#68217A" d="M286.831,811.681c-1.107-4.415-3.316-7.726-6.632-9.933c-4.423-4.415-11.056-6.622-17.688-6.622
		c-4.423,0-7.739,0-12.16,2.208c-8.844,4.415-14.372,13.245-14.372,24.281c0,6.622,2.212,13.244,6.633,18.763
		c2.211,2.207,4.423,3.311,7.739,4.415c3.316,2.208,7.737,3.311,12.16,3.311c14.37,0,26.53-12.141,26.53-26.489
		C289.042,817.2,287.937,813.889,286.831,811.681L286.831,811.681z"/>
	<path fill="#00B294" d="M280.2,801.748c-4.423-4.415-11.056-6.622-17.688-6.622c-4.423,0-7.739,0-12.16,2.208
		c12.16,24.281,12.16,24.281,12.16,24.281L280.2,801.748z"/>
	<path fill="#00D8CC" d="M286.831,811.681c-1.107-4.415-3.316-7.726-6.632-9.933c-17.688,19.867-17.688,19.867-17.688,19.867
		L286.831,811.681z"/>
	<path fill="#00BCF2" d="M250.352,797.333c-8.844,4.415-14.372,13.245-14.372,24.281c0,6.622,2.212,13.244,6.633,18.763
		c19.898-18.763,19.898-18.763,19.898-18.763L250.352,797.333z"/>
	<path fill="#008272" d="M262.512,821.615c26.53,0,26.53,0,26.53,0c0-4.415-1.105-7.726-2.211-9.933L262.512,821.615z"/>
	<path fill="#008272" d="M242.614,840.378c2.211,2.207,4.423,3.311,7.739,4.415c12.16-23.178,12.16-23.178,12.16-23.178
		L242.614,840.378z"/>
	<path fill="#B8D60A" d="M250.352,844.792c3.316,2.208,7.737,3.311,12.16,3.311c14.37,0,26.53-12.141,26.53-26.489
		c-26.53,0-26.53,0-26.53,0L250.352,844.792z"/>
	<polygon fill="#00B294" points="128.757,956.267 127.651,951.852 174.079,941.918 212.769,918.741 259.198,917.637 
		287.938,903.289 287.938,906.6 287.938,907.704 260.303,920.948 213.875,923.155 176.289,945.229 128.757,956.267 	"/>
	<polygon fill="#00BCF2" points="128.757,956.267 127.651,951.852 174.079,941.918 212.769,918.741 259.198,917.637 
		287.938,903.289 287.938,906.6 287.938,907.704 260.303,920.948 213.875,923.155 176.289,945.229 128.757,956.267 	"/>
	<polygon fill="#68217A" points="129.862,949.644 127.651,946.333 166.341,929.778 189.555,904.392 227.14,896.667 250.354,871.281 
		290.149,863.555 290.149,866.866 252.564,874.592 229.35,899.978 191.766,907.704 168.552,933.089 129.862,949.644 	"/>
	<polygon fill="#00D8CC" points="129.862,949.644 127.651,946.333 166.341,929.778 189.555,904.392 227.14,896.667 250.354,871.281 
		290.149,863.555 290.149,866.866 252.564,874.592 229.35,899.978 191.766,907.704 168.552,933.089 129.862,949.644 	"/>
	<polygon fill="#008272" points="128.757,962.889 128.757,958.474 165.236,952.955 196.188,935.296 233.771,939.711 
		264.724,922.052 287.938,924.259 287.938,927.57 264.724,925.363 234.878,943.022 197.293,939.711 166.341,957.37 128.757,962.889 
			"/>
	
		<polygon fill="none" stroke="#FFFFFF" stroke-width="0.165" stroke-linecap="round" stroke-linejoin="round" stroke-miterlimit="10" points="
		128.757,962.889 128.757,958.474 165.236,952.955 196.188,935.296 233.771,939.711 264.724,922.052 287.938,924.259 
		287.938,927.57 264.724,925.363 234.878,943.022 197.293,939.711 166.341,957.37 128.757,962.889 	"/>
</g>
<g id="canvas_content">
</g>
<g id="lower_half_canvas">
</g>
<g id="sidepanes">
</g>
<g id="Shell">
</g>
<g id="surface">
</g>
<g id="nav">
</g>
</svg>
