<?xml version="1.0" encoding="utf-8"?>
<!-- Generator: Adobe Illustrator 19.1.0, SVG Export Plug-In . SVG Version: 6.00 Build 0)  -->
<svg version="1.1" id="Layer_1" xmlns="http://www.w3.org/2000/svg" xmlns:xlink="http://www.w3.org/1999/xlink" x="0px" y="0px"
	 width="16px" height="16px" viewBox="0 0 16 16" enable-background="new 0 0 16 16" xml:space="preserve">
<path d="M13,1V0h-1v1H4V0H3v1H0v14h16V1H13z M15,14H1V5h14V14z M15,4H1V2h2v1h1V2h8v1h1V2h2V4z"/>
<rect x="3" y="8" width="1" height="1"/>
<rect x="3" y="10" width="1" height="1"/>
<rect x="3" y="12" width="1" height="1"/>
<rect x="6" y="6" width="1" height="1"/>
<rect x="6" y="8" width="1" height="1"/>
<rect x="6" y="10" width="1" height="1"/>
<rect x="6" y="12" width="1" height="1"/>
<rect x="9" y="6" width="1" height="1"/>
<rect x="9" y="8" width="1" height="1"/>
<rect x="9" y="10" width="1" height="1"/>
<rect x="9" y="12" width="1" height="1"/>
<rect x="12" y="6" width="1" height="1"/>
<rect x="12" y="8" width="1" height="1"/>
<rect x="12" y="10" width="1" height="1"/>
</svg>
