<?xml version="1.0" encoding="utf-8"?>
<!-- Generator: Adobe Illustrator 19.2.1, SVG Export Plug-In . SVG Version: 6.00 Build 0)  -->
<svg version="1.1" id="Layer_1" xmlns="http://www.w3.org/2000/svg" xmlns:xlink="http://www.w3.org/1999/xlink" x="0px" y="0px"
	 width="16px" height="16px" viewBox="0 0 16 16" style="enable-background:new 0 0 16 16;" xml:space="preserve">
<g id="Dashboard_3_">
	<rect x="0.5" y="10" style="fill-rule:evenodd;clip-rule:evenodd;" width="1.5" height="1"/>
	<rect x="13" y="10" style="fill-rule:evenodd;clip-rule:evenodd;" width="1.5" height="1"/>
	<rect x="7" y="3.5" style="fill-rule:evenodd;clip-rule:evenodd;" width="1" height="1.5"/>
	<path style="fill-rule:evenodd;clip-rule:evenodd;" d="M1.025,11C1.013,10.834,1,10.669,1,10.5C1,6.91,3.91,4,7.5,4
		S14,6.91,14,10.5c0,0.169-0.013,0.334-0.025,0.5h1C14.986,10.834,15,10.669,15,10.5C15,6.358,11.642,3,7.5,3S0,6.358,0,10.5
		c0,0.169,0.014,0.334,0.025,0.5H1.025z"/>
</g>
<path style="fill-rule:evenodd;clip-rule:evenodd;" d="M7.5,9C6.671,9,6,9.672,6,10.5S6.671,12,7.5,12S9,11.328,9,10.5
	S8.329,9,7.5,9z M7.5,11.25c-0.415,0-0.75-0.336-0.75-0.75S7.085,9.75,7.5,9.75s0.75,0.336,0.75,0.75S7.915,11.25,7.5,11.25z"/>
<rect x="7.879" y="8" transform="matrix(0.7071 -0.7071 0.7071 0.7071 -3.2279 9.2071)" style="fill-rule:evenodd;clip-rule:evenodd;" width="3.243" height="1"/>
</svg>
