<?xml version="1.0" encoding="utf-8"?>
<!-- Generator: Adobe Illustrator 19.1.0, SVG Export Plug-In . SVG Version: 6.00 Build 0)  -->
<svg version="1.1" id="Layer_1" xmlns="http://www.w3.org/2000/svg" xmlns:xlink="http://www.w3.org/1999/xlink" x="0px" y="0px"
	 width="16px" height="16px" viewBox="0 0 16 16" enable-background="new 0 0 16 16" xml:space="preserve">
<path d="M16,14h-2.5v1h-4v-1h-3v1h-4v-1H0V2c0-0.141,0.026-0.271,0.078-0.391C0.13,1.49,0.202,1.384,0.293,1.293
	C0.384,1.202,0.489,1.13,0.609,1.078C0.729,1.026,0.859,1,1,1h4.25c0.224,0,0.419,0.025,0.586,0.074
	c0.167,0.05,0.313,0.111,0.441,0.184C6.404,1.331,6.521,1.412,6.625,1.5c0.104,0.089,0.208,0.169,0.313,0.242
	c0.104,0.073,0.214,0.134,0.328,0.184C7.38,1.976,7.513,2,7.664,2H15c0.141,0,0.271,0.026,0.391,0.078
	c0.12,0.052,0.226,0.124,0.316,0.215c0.091,0.091,0.163,0.197,0.215,0.316C15.974,2.729,16,2.859,16,3V14z M1,2v1h4.25
	c0.12,0,0.225-0.013,0.316-0.039C5.657,2.935,5.741,2.9,5.816,2.855c0.075-0.044,0.148-0.096,0.219-0.156
	c0.07-0.06,0.147-0.126,0.23-0.199c-0.083-0.073-0.16-0.139-0.23-0.199c-0.07-0.06-0.144-0.112-0.219-0.156
	c-0.076-0.044-0.159-0.079-0.25-0.105C5.475,2.013,5.37,2,5.25,2H1z M15,3H7.664C7.513,3,7.38,3.025,7.266,3.074
	c-0.114,0.05-0.224,0.111-0.328,0.184C6.833,3.331,6.729,3.412,6.625,3.5C6.521,3.589,6.404,3.669,6.277,3.742
	C6.149,3.815,6.002,3.876,5.836,3.926C5.669,3.976,5.474,4,5.25,4H1v9h1.5V9c0-0.276,0.052-0.535,0.156-0.777
	C2.76,7.98,2.903,7.769,3.086,7.586c0.182-0.182,0.395-0.325,0.637-0.43C3.965,7.052,4.224,7,4.5,7h7
	c0.276,0,0.535,0.052,0.777,0.156c0.242,0.104,0.454,0.248,0.637,0.43c0.183,0.183,0.325,0.395,0.43,0.637S13.5,8.724,13.5,9v4H15V3
	z M12.5,14V9c0-0.141-0.026-0.271-0.078-0.391c-0.052-0.12-0.124-0.225-0.215-0.316c-0.091-0.091-0.196-0.163-0.316-0.215
	C11.771,8.026,11.641,8,11.5,8h-7C4.359,8,4.229,8.026,4.109,8.078C3.989,8.13,3.884,8.202,3.793,8.293
	C3.702,8.384,3.63,8.49,3.578,8.609C3.526,8.729,3.5,8.859,3.5,9v5h2v-4h5v4H12.5z M9.5,13v-2h-3v2H9.5z"/>
</svg>
