<?xml version="1.0" encoding="utf-8"?>
<!-- Generator: Adobe Illustrator 19.2.1, SVG Export Plug-In . SVG Version: 6.00 Build 0)  -->
<svg version="1.1" id="Layer_1" xmlns="http://www.w3.org/2000/svg" xmlns:xlink="http://www.w3.org/1999/xlink" x="0px" y="0px"
	 viewBox="0 0 32 32" style="enable-background:new 0 0 32 32;" xml:space="preserve">
<path d="M20.1,23.4C20,22.9,19.4,22,19.4,22s-0.1,1.3-1,2.7c-0.9,1.3-1.5,1.6-1.5,1.6s-0.1,0.4,0.4,0.4c0.2,0,2.2,0,2.6,0
	c0.4,0,0.6-0.3,0.6-0.7s-0.3-0.8-0.3-0.8S20.3,23.8,20.1,23.4z M2.1,20.2L2.1,20.2c0,0-0.8,0.9-1.2,1.5s-0.1,1.1-0.1,1.1
	s1.3,2.2,2.5,1.9C3.5,24.7,3.8,24,3.8,24s-0.4-0.6-0.9-1.5C2.5,21.7,2.1,20.4,2.1,20.2z M32,10.6c-0.2-4.2-1.3-5.4-1.7-5.4
	c-0.4,0.1-0.6,0.8-1.1,1.1c-0.6,0.4-1.1,0.4-1.4,0.8c-0.4,0.4,0.4,1.3,0.3,3.8c-0.1,2.3-1.6,3.2-1.6,3.2s0.7-1,0.8-1.7
	c0.1-0.5-0.2-0.6-0.4-0.8c-0.4-0.4-1.3,0.6-1.5,0.8c0.4-0.4,1-1,0.7-1.3c-0.4-0.7-1.3-0.2-1.5-0.1c0.2-0.1,0.6-0.3,0.6-0.7
	c-0.1-0.8-0.9-0.6-1-0.5c0.3-0.1,0.5-0.3,1.3-0.3c0.4,0,0.4-0.4,0.1-0.9c-0.4-0.6-0.8-0.8-1.2-0.9S23,7.6,23,7.6s0.6-0.4,0.9-0.3
	c-0.4-0.6-1.9-2.8-4.3-2.9C15.2,4.2,13.9,7,13.9,7L16,6.9c0,0-0.6,0.3-2,0.4c-1,0.2-1,0.2-1.3,0.3c-0.5,0.1-1.7,1.7-2.9,2.9
	S7.6,13.4,7.6,14s0.6,1.1,1,1.7c0.4,0.5,0.5,0.8,0.5,0.8l1.5-1.9l-1.9,3.8c0,0,0.9,1.2,1.8,1c0.7-0.1,2.2-1.3,3.3-1.5
	s1.5-0.1,1.5-0.1s0.7-1.9,0.4-3.1c-0.6-2.3-0.1-3.6,0.3-4.4c-0.4,3.1,0.6,3.3,0.6,5.3c-0.1,1.5-0.5,3.1-0.5,3.1s-1.5-0.5-2.6,0.1
	c-1.2,0.6-2.1,1.4-3.2,1.4c-1.2,0-2.6-1.9-2.6-1.9l0.8-1.2c0,0-0.1-0.4-0.4-0.8c-0.5-0.6-1.3-1.5-1.3-2.2c-0.1-1.2,1.2-2.4,1.5-3
	c0.4-0.6,1.7-2,1.7-2s-3.8,0.5-5.3,2.4c-1.9,2.2-2.2,2.9-2.9,3c-0.7,0.1-1-0.6-1-0.6s0.5,0.1,0.4-0.6c-0.1-1,0.2-1.7,0.2-1.7
	s-1.2,0.7-1.3,1.4C-0.1,13.8,0.4,14,0.4,14s0,1.3,0.8,1.6s1.3,0.1,1.3,0.1s-0.4,2.4,0.1,4.1s2,3.6,2,3.6s-0.1,1.3-0.3,1.7
	c-0.1,0.3-0.6,1.1,0.1,1.6s2.7,0.7,3.1,0.4c0.4-0.3,0.3-1,0.4-1.3c0.1-0.3,0.6-1.3,0.7-1.7c0.1-0.3,0.1-1.9-0.1-2.5
	c0.1,0.3,0.6,1.5,2.4,1.5c1.6,0.1,2.1-0.8,2.2-1.4c0,0.3,0.1,1.5-0.1,1.7c-0.1,0.3-0.6,0.4-1.2,0.6c-0.4,0.3-1.1,0.6-0.1,1.9
	c1.2,1.5,1.4,1.6,2.4,0.8c1-0.8,2.1-1.5,2.9-2.5c0.8-1,2.1-4.5,2.1-4.5s-0.8-0.6-1.3-1.2c-0.4-0.5-0.4-0.8-0.4-0.8s1.1,1,2.2,1.3
	c0.4,0.5,1.2,1.2,1.7,1.4c2.2,0.9,2.9-1.9,2.9-1.9L24,18.6c0,0-0.6,1.4-1.6,1.3c-1.9-0.3-1.3-4.2-1.3-4.2s1.9,2.8,5.9,2.8
	C29.5,18.6,32.2,15.7,32,10.6z M18.3,10.4c0,0,0.2-1.9,0.5-2.1c0.4-0.3,1.7,0.1,1.7,0.1s-0.8,0-1.3,0.4
	C18.9,9.2,18.3,10.4,18.3,10.4z M21.5,12c-0.6,0.4-1.1,1.1-1.1,1.1s0.1-0.3,0.2-0.4c0.1-0.2,0.3-0.4,0.3-0.4s-0.2-0.1-0.5-0.3
	c-0.2-0.2-0.3-0.3-0.3-0.4c0,0-0.1,0.1-0.3,0.2c-0.1,0.1-0.4,0.4-0.4,0.4s0.5-1,1.3-1.5c0.8-0.5,1.6-0.5,1.6-0.5s-0.1,0-0.4,0.1
	c-0.3,0.1-0.3,0.2-0.3,0.2s0.3,0.1,0.5,0.3c0.3,0.3,0.3,0.6,0.3,0.6s0.1,0,0.3-0.1c0.3-0.1,0.6-0.1,0.6-0.1S22.3,11.3,21.5,12z
	 M29.6,7.2c-0.6,0.5-1.3,0.5-1.4,0.3c-0.1-0.2,0.1-0.2,0.1-0.2s0.7-0.3,1.1-0.6c0.5-0.4,1-1.2,1.1-1C30.5,5.9,30.1,6.8,29.6,7.2z
	 M16.1,8c0,0-0.4,0.2-1.3,0.3c-0.8,0.1-1.4,0.1-1.8,0.3c-0.6,0.3-0.9,0.9-1.2,1.7c-0.3,1-0.3,2.3-0.3,2.3s0.5-1.9,0.9-2.5
	c0.3-0.5,0.6-0.7,0.6-0.7S13,9.7,13.1,10c0.1,0.6,0.3,1.1,0.3,1.1s0.1-1.3,0.5-1.9c0.3-0.3,0.6-0.6,1.2-0.6S16.1,8,16.1,8z"/>
</svg>
