<?xml version="1.0" encoding="utf-8"?>
<!-- Generator: Adobe Illustrator 19.1.0, SVG Export Plug-In . SVG Version: 6.00 Build 0)  -->
<svg version="1.1" id="Layer_1" xmlns="http://www.w3.org/2000/svg" xmlns:xlink="http://www.w3.org/1999/xlink" x="0px" y="0px"
	 width="16px" height="16px" viewBox="0 0 16 16" enable-background="new 0 0 16 16" xml:space="preserve">
<path d="M8.707,10.121L8,9.414c0.28-0.28,0.515-0.58,0.707-0.9c0.192-0.32,0.314-0.649,0.367-0.986
	c0.053-0.336,0.027-0.675-0.08-1.014c-0.107-0.339-0.32-0.668-0.641-0.989C8.11,5.282,7.835,5.101,7.528,4.981
	c-0.307-0.119-0.621-0.18-0.942-0.18s-0.635,0.06-0.942,0.18c-0.308,0.12-0.583,0.301-0.826,0.544L1.99,8.354
	C1.747,8.597,1.565,8.872,1.445,9.179c-0.12,0.308-0.18,0.621-0.18,0.942c0,0.32,0.06,0.635,0.18,0.942
	c0.12,0.308,0.301,0.583,0.544,0.826c0.32,0.32,0.65,0.534,0.989,0.641c0.339,0.107,0.677,0.134,1.014,0.08
	c0.337-0.053,0.666-0.175,0.986-0.367c0.32-0.191,0.62-0.427,0.9-0.707l0.707,0.707l-0.354,0.354
	c-0.343,0.343-0.729,0.599-1.16,0.768c-0.431,0.17-0.869,0.254-1.315,0.254c-0.446,0-0.884-0.084-1.315-0.254
	c-0.431-0.169-0.818-0.425-1.16-0.768c-0.343-0.343-0.598-0.729-0.768-1.16c-0.17-0.431-0.254-0.869-0.254-1.315
	c0-0.445,0.085-0.884,0.254-1.315c0.17-0.431,0.425-0.818,0.768-1.16l2.828-2.828C4.453,4.476,4.84,4.22,5.271,4.05
	C5.702,3.881,6.14,3.796,6.586,3.796C7.031,3.797,7.469,3.881,7.901,4.05c0.432,0.169,0.818,0.425,1.16,0.768
	c0.343,0.343,0.599,0.729,0.768,1.16c0.169,0.432,0.254,0.87,0.254,1.315c0,0.446-0.085,0.885-0.254,1.315
	c-0.169,0.432-0.425,0.818-0.768,1.16L8.707,10.121z M9.414,3.757l0.707,0.707c0.28-0.28,0.581-0.516,0.9-0.707
	c0.321-0.192,0.65-0.314,0.986-0.367c0.338-0.054,0.675-0.027,1.014,0.08c0.339,0.107,0.668,0.32,0.989,0.641
	c0.243,0.243,0.425,0.519,0.544,0.826c0.12,0.308,0.18,0.621,0.18,0.942s-0.059,0.634-0.18,0.942
	c-0.119,0.307-0.301,0.583-0.544,0.826l-2.828,2.828c-0.243,0.243-0.519,0.425-0.826,0.544c-0.308,0.12-0.621,0.18-0.942,0.18
	c-0.32,0-0.634-0.059-0.942-0.18C8.165,10.9,7.89,10.718,7.646,10.475c-0.32-0.32-0.534-0.65-0.641-0.989
	C6.899,9.147,6.872,8.81,6.926,8.472c0.054-0.337,0.176-0.665,0.367-0.986C7.485,7.166,7.72,6.866,8,6.586L7.293,5.879L6.939,6.232
	c-0.343,0.343-0.598,0.73-0.768,1.16c-0.17,0.431-0.254,0.869-0.254,1.315c0,0.446,0.085,0.884,0.254,1.315
	c0.17,0.431,0.425,0.818,0.768,1.16c0.343,0.343,0.73,0.599,1.16,0.768c0.431,0.17,0.869,0.255,1.315,0.254
	c0.446,0,0.884-0.084,1.315-0.254c0.431-0.169,0.818-0.425,1.16-0.768l2.828-2.828c0.343-0.343,0.599-0.729,0.768-1.16
	c0.171-0.432,0.255-0.869,0.254-1.315c0.001-0.446-0.084-0.885-0.254-1.315c-0.168-0.431-0.425-0.818-0.768-1.16
	c-0.343-0.343-0.729-0.599-1.16-0.768c-0.43-0.17-0.868-0.255-1.315-0.254c-0.445,0-0.883,0.084-1.315,0.254
	c-0.43,0.169-0.818,0.425-1.16,0.768L9.414,3.757z"/>
</svg>
