<?xml version="1.0" encoding="utf-8"?>
<!-- Generator: Adobe Illustrator 19.2.1, SVG Export Plug-In . SVG Version: 6.00 Build 0)  -->
<svg version="1.1" id="Layer_1" xmlns="http://www.w3.org/2000/svg" xmlns:xlink="http://www.w3.org/1999/xlink" x="0px" y="0px"
	 width="16px" height="16px" viewBox="0 0 16 16" style="enable-background:new 0 0 16 16;" xml:space="preserve">
<g>
	<path d="M4,12.0005c-1.9297,0-3.5-1.5703-3.5-3.5v-1c0-0.2759-0.2241-0.5-0.5-0.5v-1c0.8271,0,1.5,0.6729,1.5,1.5v1
		c0,1.3784,1.1216,2.5,2.5,2.5s2.5-1.1216,2.5-2.5h1C7.5,10.4302,5.9297,12.0005,4,12.0005z"/>
	<path d="M12,12.0005c-1.9297,0-3.5-1.5703-3.5-3.5h1c0,1.3784,1.1216,2.5,2.5,2.5s2.5-1.1216,2.5-2.5v-1
		c0-0.8271,0.6729-1.5,1.5-1.5v1c-0.2759,0-0.5,0.2241-0.5,0.5v1C15.5,10.4302,13.9297,12.0005,12,12.0005z"/>
	<path d="M7.5,8.5005h-1c0-0.8271,0.6729-1.5,1.5-1.5v1C7.7241,8.0005,7.5,8.2246,7.5,8.5005z"/>
	<path d="M9.5,8.5005h-1c0-0.2759-0.2241-0.5-0.5-0.5v-1C8.8271,7.0005,9.5,7.6733,9.5,8.5005z"/>
	<rect y="6.0005" width="6" height="1"/>
	<rect x="10" y="6.0005" width="6" height="1"/>
	<path d="M8,8.0005v-1c0.2261,0,0.4443-0.1133,0.6152-0.3193C8.9785,6.2422,9.4702,6.0005,10,6.0005v1
		c-0.2261,0-0.4448,0.1133-0.6147,0.3188C9.021,7.7588,8.5288,8.0005,8,8.0005z"/>
	<path d="M8,8.0005c-0.5288,0-1.021-0.2417-1.3848-0.6807C6.4448,7.1138,6.2261,7.0005,6,7.0005v-1
		c0.5298,0,1.0215,0.2417,1.3853,0.6812C7.5557,6.8872,7.7739,7.0005,8,7.0005V8.0005z"/>
	<path d="M7.5,8.5005h-1v-0.5c0-0.5513-0.4487-1-1-1v-1c1.103,0,2,0.897,2,2V8.5005z"/>
	<path d="M9.5,8.5005h-1v-0.5c0-1.103,0.897-2,2-2v1c-0.5513,0-1,0.4487-1,1V8.5005z"/>
	<path d="M1.5,7.5005h-1c0-0.8271,0.6729-1.5,1.5-1.5v1C1.7241,7.0005,1.5,7.2246,1.5,7.5005z"/>
	<path d="M14.4999,7.5005h1c0-0.8271-0.6729-1.5-1.5-1.5v1C14.2758,7.0005,14.4999,7.2246,14.4999,7.5005z"/>
	<g>
		<g>
			<path d="M6.8535,3.6469l-0.5-0.5C6.2007,2.994,5.9687,2.9569,5.7764,3.0531L0,5.9413v1.059l0.0005,0.0001
				c0.0752,0,0.1514-0.0171,0.2231-0.0527l5.6777-2.8389l0.2451,0.2451c0.1953,0.1953,0.5117,0.1953,0.707,0
				S7.0488,3.8422,6.8535,3.6469z"/>
		</g>
	</g>
	<g>
		<g>
			<path d="M10.2236,3.0531C10.0308,2.9565,9.7988,2.994,9.6465,3.1469l-0.5,0.5c-0.1953,0.1953-0.1953,0.5117,0,0.707
				s0.5117,0.1953,0.707,0l0.2451-0.2451l5.6777,2.8389c0.0718,0.0356,0.1479,0.0527,0.2231,0.0527L16,7.0003v-1.059L10.2236,3.0531
				z"/>
		</g>
	</g>
</g>
</svg>
