<?xml version="1.0" encoding="utf-8"?>
<!-- Generator: Adobe Illustrator 19.1.0, SVG Export Plug-In . SVG Version: 6.00 Build 0)  -->
<svg version="1.1" id="Layer_1" xmlns="http://www.w3.org/2000/svg" xmlns:xlink="http://www.w3.org/1999/xlink" x="0px" y="0px"
	 width="16px" height="16px" viewBox="0 0 16 16" style="enable-background:new 0 0 16 16;" xml:space="preserve">
<path d="M14,11.996v1h-4c0,0.276-0.052,0.535-0.156,0.777c-0.104,0.242-0.248,0.455-0.43,0.637c-0.183,0.183-0.395,0.326-0.637,0.43
	C8.535,14.944,8.276,14.996,8,14.996c-0.276,0-0.535-0.052-0.777-0.156c-0.242-0.104-0.455-0.247-0.637-0.43
	c-0.183-0.182-0.326-0.395-0.43-0.637C6.052,13.531,6,13.272,6,12.996H2v-1h1v-6c0-0.458,0.06-0.901,0.18-1.328
	c0.12-0.427,0.288-0.825,0.504-1.195c0.216-0.37,0.477-0.707,0.781-1.012S5.106,1.896,5.477,1.68
	c0.37-0.216,0.768-0.384,1.195-0.504c0.427-0.12,0.87-0.18,1.328-0.18c0.458,0,0.901,0.06,1.328,0.18
	c0.427,0.12,0.825,0.288,1.195,0.504c0.37,0.216,0.707,0.477,1.012,0.781s0.565,0.642,0.781,1.012
	c0.216,0.37,0.384,0.769,0.504,1.195C12.94,5.095,13,5.538,13,5.996v6H14z M12,11.996v-6c0-0.552-0.105-1.07-0.316-1.555
	s-0.498-0.907-0.859-1.27c-0.362-0.362-0.785-0.648-1.27-0.859S8.552,1.996,8,1.996c-0.552,0-1.07,0.105-1.555,0.316
	S5.538,2.81,5.176,3.172c-0.362,0.362-0.648,0.785-0.859,1.27S4,5.444,4,5.996v6H12z M8,13.996c0.141,0,0.271-0.025,0.391-0.078
	c0.12-0.052,0.225-0.123,0.316-0.215c0.091-0.091,0.163-0.196,0.215-0.316C8.974,13.268,9,13.137,9,12.996H7
	c0,0.141,0.026,0.271,0.078,0.391c0.052,0.12,0.124,0.226,0.215,0.316c0.091,0.092,0.196,0.163,0.316,0.215
	C7.729,13.971,7.859,13.996,8,13.996z"/>
</svg>
