<?xml version="1.0" encoding="utf-8"?>
<!-- Generator: Adobe Illustrator 19.1.0, SVG Export Plug-In . SVG Version: 6.00 Build 0)  -->
<svg version="1.1" id="Layer_1" xmlns="http://www.w3.org/2000/svg" xmlns:xlink="http://www.w3.org/1999/xlink" x="0px" y="0px"
	 width="16px" height="16px" viewBox="0 0 16 16" enable-background="new 0 0 16 16" xml:space="preserve">
<path d="M16,4v7h-0.5c-0.406,0-0.779-0.087-1.117-0.262c-0.34-0.174-0.631-0.42-0.875-0.738H9.648
	c-0.146,0.308-0.328,0.585-0.547,0.832c-0.218,0.248-0.464,0.457-0.738,0.629s-0.568,0.305-0.883,0.398
	C7.165,11.953,6.838,12,6.5,12H6V8H1L0,7.5L1,7h5V3h0.5c0.338,0,0.664,0.047,0.98,0.141C7.795,3.234,8.09,3.367,8.364,3.539
	s0.52,0.382,0.738,0.629C9.32,4.416,9.502,4.693,9.648,5h3.859c0.244-0.317,0.535-0.563,0.875-0.738C14.721,4.087,15.094,4,15.5,4
	H16z M15,5.086c-0.125,0.042-0.232,0.094-0.32,0.156c-0.09,0.063-0.168,0.132-0.238,0.207c-0.07,0.076-0.137,0.16-0.195,0.254
	C14.186,5.797,14.125,5.896,14.063,6H8.961L8.844,5.664c-0.146-0.411-0.383-0.76-0.711-1.047C7.805,4.331,7.426,4.144,7,4.055v6.891
	c0.426-0.088,0.805-0.275,1.133-0.563c0.328-0.286,0.564-0.635,0.711-1.047L8.961,9h5.101c0.063,0.104,0.123,0.203,0.184,0.297
	c0.059,0.094,0.125,0.179,0.195,0.254c0.07,0.076,0.148,0.145,0.238,0.207C14.768,9.82,14.875,9.873,15,9.914V5.086z"/>
</svg>
