<?xml version="1.0" encoding="utf-8"?>
<!-- Generator: Adobe Illustrator 19.1.0, SVG Export Plug-In . SVG Version: 6.00 Build 0)  -->
<svg version="1.1" id="Layer_1" xmlns="http://www.w3.org/2000/svg" xmlns:xlink="http://www.w3.org/1999/xlink" x="0px" y="0px"
	 width="16px" height="16px" viewBox="0 0 16 16" enable-background="new 0 0 16 16" xml:space="preserve">
<path d="M10.391,9.398c0.708,0.245,1.348,0.588,1.918,1.027c0.57,0.44,1.055,0.949,1.453,1.527s0.704,1.211,0.918,1.898
	S15,15.256,15,16h-1c0-0.854-0.152-1.646-0.457-2.379c-0.305-0.731-0.726-1.365-1.262-1.902c-0.536-0.536-1.171-0.957-1.902-1.262
	S8.854,10,8,10c-0.558,0-1.094,0.07-1.609,0.211s-0.996,0.34-1.441,0.598s-0.849,0.568-1.211,0.93
	c-0.362,0.362-0.672,0.766-0.93,1.211s-0.457,0.926-0.598,1.441S2,15.443,2,16H1c0-0.75,0.109-1.467,0.328-2.152
	c0.219-0.685,0.528-1.313,0.93-1.887c0.401-0.572,0.887-1.078,1.457-1.516s1.207-0.783,1.91-1.039
	C5.219,9.188,4.854,8.922,4.531,8.609s-0.598-0.66-0.824-1.043S3.306,6.775,3.184,6.34C3.062,5.905,3,5.458,3,5
	c0-0.692,0.13-1.342,0.391-1.949c0.261-0.606,0.617-1.137,1.07-1.59s0.983-0.81,1.59-1.07C6.657,0.13,7.308,0,8,0
	s1.343,0.13,1.949,0.391c0.606,0.261,1.137,0.617,1.59,1.07s0.81,0.983,1.07,1.59C12.87,3.658,13,4.308,13,5
	c0,0.458-0.062,0.904-0.184,1.336c-0.122,0.433-0.297,0.839-0.523,1.219c-0.227,0.38-0.5,0.728-0.82,1.043
	C11.152,8.913,10.792,9.18,10.391,9.398z M4,5c0,0.552,0.105,1.07,0.316,1.555s0.497,0.908,0.859,1.27
	c0.362,0.362,0.785,0.648,1.27,0.859S7.448,9,8,9s1.07-0.105,1.555-0.316s0.907-0.497,1.27-0.859
	c0.362-0.362,0.648-0.785,0.859-1.27S12,5.552,12,5c0-0.552-0.105-1.07-0.316-1.555s-0.497-0.907-0.859-1.27
	c-0.362-0.362-0.785-0.648-1.27-0.859S8.552,1,8,1S6.93,1.105,6.445,1.316s-0.907,0.498-1.27,0.859
	c-0.362,0.362-0.648,0.785-0.859,1.27S4,4.448,4,5z"/>
</svg>
