<?xml version="1.0" encoding="utf-8"?>
<!-- Generator: Adobe Illustrator 19.1.0, SVG Export Plug-In . SVG Version: 6.00 Build 0)  -->
<svg version="1.1" id="Layer_1" xmlns="http://www.w3.org/2000/svg" xmlns:xlink="http://www.w3.org/1999/xlink" x="0px" y="0px"
	 width="16px" height="16px" viewBox="0 0 16 16" enable-background="new 0 0 16 16" xml:space="preserve">
<path d="M15.715,5.871c-0.19-0.68-0.458-1.316-0.805-1.91c-0.346-0.594-0.763-1.135-1.25-1.621c-0.487-0.487-1.027-0.904-1.621-1.25
	c-0.594-0.347-1.231-0.614-1.915-0.805C9.443,0.095,8.734,0,8,0S6.559,0.095,5.875,0.285c-0.682,0.19-1.318,0.46-1.91,0.809
	C3.375,1.442,2.836,1.86,2.348,2.348C1.861,2.834,1.443,3.373,1.094,3.965c-0.348,0.591-0.617,1.228-0.809,1.91
	C0.096,6.557,0,7.266,0,8s0.096,1.442,0.285,2.125c0.191,0.682,0.461,1.319,0.809,1.91c0.35,0.591,0.768,1.13,1.254,1.617
	c0.488,0.487,1.027,0.905,1.617,1.254c0.592,0.349,1.229,0.618,1.91,0.809C6.559,15.905,7.265,16,8,16s1.443-0.095,2.125-0.285
	c0.684-0.19,1.32-0.46,1.911-0.809c0.591-0.349,1.13-0.767,1.617-1.254c0.487-0.487,0.905-1.026,1.254-1.617
	c0.349-0.591,0.619-1.228,0.809-1.91C15.905,9.442,16,8.734,16,8C16,7.26,15.905,6.551,15.715,5.871z M14.75,9.863
	c-0.167,0.596-0.401,1.153-0.703,1.672c-0.302,0.518-0.667,0.991-1.094,1.418c-0.427,0.427-0.899,0.792-1.418,1.094
	c-0.518,0.302-1.075,0.536-1.672,0.703C9.267,14.917,8.646,15,8,15c-0.645,0-1.265-0.083-1.863-0.25
	c-0.596-0.167-1.152-0.401-1.672-0.703c-0.518-0.302-0.99-0.667-1.418-1.094c-0.426-0.427-0.791-0.9-1.094-1.418
	c-0.301-0.519-0.535-1.076-0.703-1.672C1.084,9.267,1,8.646,1,8c0-0.646,0.084-1.268,0.25-1.863C1.418,5.54,1.652,4.982,1.953,4.465
	c0.303-0.519,0.668-0.991,1.094-1.418c0.428-0.428,0.9-0.792,1.418-1.094C4.984,1.65,5.541,1.416,6.137,1.25
	C6.734,1.083,7.355,1,8,1c0.646,0,1.268,0.083,1.863,0.25c0.598,0.166,1.154,0.4,1.672,0.703c0.519,0.302,0.991,0.666,1.418,1.094
	c0.427,0.427,0.792,0.899,1.094,1.418c0.302,0.518,0.537,1.075,0.703,1.672C14.917,6.732,15,7.354,15,8
	C15,8.646,14.917,9.267,14.75,9.863z"/>
<polygon points="4.305,8.18 3.602,7.469 8,3.07 12.406,7.523 11.695,8.234 8.5,4.984 8.5,13 7.5,13 7.5,4.984 "/>
</svg>
