<?xml version="1.0" encoding="utf-8"?>
<!-- Generator: Adobe Illustrator 19.1.0, SVG Export Plug-In . SVG Version: 6.00 Build 0)  -->
<svg version="1.1" id="Layer_1" xmlns="http://www.w3.org/2000/svg" xmlns:xlink="http://www.w3.org/1999/xlink" x="0px" y="0px"
	 width="16px" height="16px" viewBox="0 0 16 16" enable-background="new 0 0 16 16" xml:space="preserve">
<path d="M14.852,10.398c0.176,0.115,0.336,0.249,0.48,0.402c0.143,0.154,0.264,0.322,0.363,0.504
	c0.098,0.183,0.174,0.375,0.227,0.578C15.973,12.086,16,12.292,16,12.5c0,0.344-0.066,0.667-0.199,0.969
	c-0.133,0.303-0.313,0.566-0.539,0.793s-0.492,0.406-0.793,0.539C14.166,14.934,13.844,15,13.5,15c-0.48,0-0.922-0.127-1.328-0.383
	c-0.6,0.453-1.258,0.797-1.973,1.031C9.482,15.883,8.75,16,8,16s-1.484-0.117-2.199-0.352c-0.717-0.234-1.375-0.578-1.973-1.031
	C3.422,14.873,2.979,15,2.5,15c-0.344,0-0.667-0.066-0.969-0.199c-0.302-0.133-0.566-0.313-0.793-0.539s-0.406-0.49-0.539-0.793
	C0.066,13.167,0,12.844,0,12.5c0-0.208,0.026-0.414,0.078-0.617c0.052-0.203,0.127-0.396,0.227-0.578
	c0.099-0.182,0.22-0.35,0.363-0.504c0.143-0.153,0.303-0.287,0.48-0.402c-0.052-0.234-0.09-0.467-0.113-0.699
	C1.012,9.468,1,9.234,1,9c0-0.719,0.108-1.415,0.324-2.09C1.54,6.236,1.845,5.611,2.238,5.035C2.631,4.46,3.104,3.951,3.656,3.508
	C4.208,3.065,4.823,2.716,5.5,2.461c0.004-0.338,0.074-0.657,0.207-0.957C5.84,1.205,6.02,0.944,6.247,0.723
	c0.227-0.221,0.49-0.397,0.793-0.527C7.34,0.065,7.661,0,8,0c0.338,0,0.658,0.065,0.961,0.195c0.3,0.13,0.566,0.306,0.792,0.527
	c0.227,0.222,0.406,0.482,0.539,0.781c0.133,0.3,0.201,0.619,0.207,0.957c0.676,0.255,1.291,0.604,1.844,1.047
	c0.551,0.443,1.023,0.952,1.418,1.527c0.393,0.576,0.697,1.201,0.914,1.875C14.891,7.585,15,8.281,15,9
	c0,0.234-0.012,0.468-0.035,0.699C14.941,9.932,14.902,10.164,14.852,10.398z M1,12.5c0,0.209,0.039,0.404,0.117,0.586
	c0.078,0.183,0.185,0.342,0.32,0.477c0.135,0.136,0.294,0.242,0.477,0.32C2.096,13.961,2.292,14,2.5,14
	c0.208,0,0.403-0.039,0.586-0.117c0.182-0.078,0.341-0.185,0.477-0.32c0.135-0.135,0.242-0.294,0.32-0.477
	C3.961,12.904,4,12.709,4,12.5c0-0.208-0.039-0.403-0.117-0.586c-0.078-0.182-0.185-0.341-0.32-0.477
	c-0.136-0.135-0.294-0.242-0.477-0.32C2.903,11.039,2.708,11,2.5,11c-0.208,0-0.404,0.039-0.586,0.117
	c-0.183,0.078-0.341,0.186-0.477,0.32c-0.136,0.136-0.242,0.295-0.32,0.477C1.039,12.097,1,12.292,1,12.5z M8,15
	c0.613,0,1.214-0.092,1.8-0.277c0.586-0.185,1.131-0.454,1.637-0.809c-0.141-0.208-0.25-0.434-0.324-0.676
	C11.037,12.996,11,12.75,11,12.5c0-0.344,0.066-0.666,0.199-0.969c0.133-0.302,0.313-0.566,0.539-0.793s0.49-0.406,0.793-0.539
	C12.832,10.066,13.156,10,13.5,10c0.066,0,0.135,0.003,0.203,0.008c0.066,0.006,0.135,0.014,0.203,0.023C13.969,9.688,14,9.344,14,9
	c0-0.609-0.088-1.196-0.262-1.762c-0.176-0.565-0.422-1.088-0.742-1.57c-0.32-0.481-0.709-0.911-1.164-1.289
	c-0.457-0.377-0.965-0.684-1.527-0.918C10.211,3.69,10.084,3.9,9.926,4.09c-0.16,0.19-0.34,0.353-0.543,0.488
	C9.18,4.714,8.961,4.818,8.727,4.891C8.493,4.964,8.25,5,8,5S7.508,4.964,7.274,4.891C7.04,4.818,6.821,4.714,6.618,4.578
	C6.415,4.443,6.233,4.28,6.075,4.09C5.915,3.9,5.79,3.69,5.696,3.461C5.133,3.695,4.624,4.001,4.168,4.379
	C3.712,4.757,3.324,5.187,3.004,5.668c-0.32,0.482-0.568,1.005-0.742,1.57C2.087,7.804,2,8.391,2,9c0,0.344,0.031,0.688,0.094,1.031
	c0.375-0.063,0.738-0.041,1.09,0.063c0.352,0.104,0.661,0.272,0.93,0.504c0.268,0.232,0.483,0.512,0.645,0.84
	C4.919,11.766,5,12.12,5,12.5c0,0.25-0.039,0.496-0.114,0.738c-0.076,0.242-0.184,0.468-0.324,0.676
	c0.504,0.354,1.051,0.624,1.637,0.809C6.786,14.908,7.385,15,8,15z M8,1C7.792,1,7.596,1.039,7.415,1.117
	c-0.184,0.078-0.342,0.185-0.477,0.32c-0.137,0.136-0.242,0.294-0.32,0.477C6.54,2.097,6.5,2.292,6.5,2.5
	c0,0.208,0.039,0.404,0.117,0.586c0.078,0.183,0.184,0.341,0.32,0.477c0.135,0.136,0.293,0.242,0.477,0.32C7.596,3.961,7.792,4,8,4
	c0.207,0,0.402-0.039,0.586-0.117c0.182-0.078,0.34-0.185,0.476-0.32c0.135-0.135,0.242-0.294,0.32-0.477
	C9.461,2.904,9.5,2.708,9.5,2.5c0-0.208-0.039-0.403-0.117-0.586c-0.078-0.182-0.186-0.341-0.32-0.477
	c-0.136-0.135-0.294-0.242-0.476-0.32C8.403,1.039,8.208,1,8,1z M13.5,14c0.207,0,0.402-0.039,0.586-0.117
	c0.182-0.078,0.34-0.185,0.477-0.32c0.135-0.135,0.242-0.294,0.32-0.477C14.961,12.904,15,12.709,15,12.5
	c0-0.208-0.039-0.403-0.117-0.586c-0.078-0.182-0.186-0.341-0.32-0.477c-0.137-0.135-0.295-0.242-0.477-0.32
	C13.902,11.039,13.707,11,13.5,11c-0.209,0-0.404,0.039-0.586,0.117c-0.184,0.078-0.342,0.186-0.477,0.32
	c-0.137,0.136-0.242,0.295-0.32,0.477C12.039,12.097,12,12.292,12,12.5c0,0.209,0.039,0.404,0.117,0.586
	c0.078,0.183,0.184,0.342,0.32,0.477c0.135,0.136,0.293,0.242,0.477,0.32C13.096,13.961,13.291,14,13.5,14z"/>
</svg>
