<?xml version="1.0" encoding="utf-8"?>
<!-- Generator: Adobe Illustrator 19.2.1, SVG Export Plug-In . SVG Version: 6.00 Build 0)  -->
<svg version="1.1" id="Layer_1" xmlns="http://www.w3.org/2000/svg" xmlns:xlink="http://www.w3.org/1999/xlink" x="0px" y="0px"
	 viewBox="0 0 16 16" style="enable-background:new 0 0 16 16;" xml:space="preserve">
<g>
	<g>
		<polygon points="15.4,6.3 10.1,6.3 15.7,0.7 15.3,0.3 9.8,5.9 9.8,0.6 9.2,0.6 9.2,6.8 15.4,6.8 		"/>
		<path d="M15.6,7H9V0.4h1v4.9L15.3,0L16,0.7L10.7,6h4.9V7z M9.4,6.6h5.7V6.5H9.6l5.8-5.8l-0.1-0.1L9.5,6.4V0.9H9.4V6.6z"/>
	</g>
	<g>
		<polygon points="0.6,9.7 5.9,9.7 0.3,15.3 0.7,15.7 6.3,10.1 6.3,15.4 6.8,15.4 6.8,9.2 0.6,9.2 		"/>
		<path d="M0.7,16L0,15.3L5.3,10H0.4V9H7v6.7H6v-4.9L0.7,16z M0.7,15.3L0.7,15.3l5.8-5.7v5.6h0.1V9.4H0.9v0.1h5.6L0.7,15.3z"/>
	</g>
</g>
</svg>
