<?xml version="1.0" encoding="utf-8"?>
<!-- Generator: Adobe Illustrator 19.1.0, SVG Export Plug-In . SVG Version: 6.00 Build 0)  -->
<svg version="1.1" id="Layer_1" xmlns="http://www.w3.org/2000/svg" xmlns:xlink="http://www.w3.org/1999/xlink" x="0px" y="0px"
	 width="16px" height="16px" viewBox="0 0 16 16" enable-background="new 0 0 16 16" xml:space="preserve">
<path d="M8,3.075l1.248,3.107l0.234,0.583l0.626,0.042l3.34,0.226L10.879,9.18l-0.482,0.403l0.153,0.609l0.817,3.247l-2.835-1.78
	L8,11.324l-0.532,0.334l-2.835,1.78l0.817-3.247l0.153-0.609L5.121,9.18L2.552,7.033l3.34-0.226l0.626-0.042l0.234-0.583L8,3.075
	 M8,0.392L5.825,5.809L0,6.204l4.48,3.743l-1.424,5.661L8,12.504l4.944,3.104L11.52,9.947L16,6.204l-5.825-0.395L8,0.392L8,0.392z"
	/>
</svg>
