<?xml version="1.0" encoding="utf-8"?>
<!-- Generator: Adobe Illustrator 19.2.1, SVG Export Plug-In . SVG Version: 6.00 Build 0)  -->
<svg version="1.1" id="Layer_1" xmlns="http://www.w3.org/2000/svg" xmlns:xlink="http://www.w3.org/1999/xlink" x="0px" y="0px"
	 width="16px" height="16px" viewBox="0 0 16 16" style="enable-background:new 0 0 16 16;" xml:space="preserve">
<g id="Table_x5F_funtion_x5F_16_1_">
	<g>
		<path d="M9.292,4.153L9.17,5H7.629L6.95,8.961c-0.329,1.654-0.66,2.933-0.993,3.837c-0.473,1.276-0.982,2.157-1.526,2.644
			C4.017,15.814,3.603,16,3.188,16c-0.27,0-0.5-0.103-0.689-0.309c-0.14-0.143-0.209-0.329-0.209-0.558
			c0-0.183,0.058-0.342,0.172-0.476c0.116-0.135,0.256-0.202,0.423-0.202c0.122,0,0.224,0.049,0.307,0.146
			c0.084,0.097,0.125,0.209,0.125,0.335c0,0.126-0.047,0.243-0.142,0.352c-0.072,0.08-0.108,0.14-0.108,0.18
			c0,0.052,0.016,0.092,0.047,0.12c0.041,0.04,0.104,0.06,0.189,0.06c0.194,0,0.398-0.077,0.612-0.232
			c0.214-0.155,0.404-0.385,0.57-0.691c0.167-0.307,0.324-0.749,0.473-1.327c0.063-0.24,0.232-1.033,0.507-2.378L6.576,5H5
			l0.095-0.807c0.374,0,1.035-0.032,1.183-0.098c0.149-0.066,0.276-0.087,0.488-0.338C6.96,3.528,7.108,3.33,7.325,2.833
			c0.323-0.74,0.415-0.928,0.658-1.305c0.333-0.509,0.683-0.891,1.051-1.146C9.4,0.128,9.746,0,10.07,0
			c0.342,0,0.617,0.111,0.824,0.33c0.207,0.221,0.311,0.46,0.311,0.717c0,0.2-0.052,0.369-0.155,0.506
			c-0.104,0.137-0.236,0.206-0.398,0.206c-0.14,0-0.253-0.052-0.341-0.155c-0.087-0.103-0.131-0.226-0.131-0.369
			c0-0.092,0.029-0.204,0.088-0.34c0.059-0.134,0.088-0.224,0.088-0.27c0-0.08-0.02-0.14-0.061-0.18
			c-0.059-0.057-0.144-0.086-0.257-0.086c-0.284,0-0.538,0.114-0.763,0.343c-0.302,0.303-0.495,0.595-0.87,1.425
			C8.158,2.676,8.066,2.955,7.744,4.153H9.292z"/>
	</g>
	<g>
		<path d="M10.924,7c0.246,0.261,0.432,0.522,0.558,0.784c0.09,0.181,0.239,0.656,0.445,1.424l0.663-0.995
			c0.176-0.241,0.389-0.471,0.64-0.69c0.251-0.218,0.472-0.368,0.663-0.448C14.013,7.025,14.146,7,14.292,7
			c0.216,0,0.388,0.058,0.516,0.173C14.937,7.289,15,7.429,15,7.595c0,0.191-0.038,0.321-0.113,0.392
			c-0.141,0.126-0.301,0.188-0.482,0.188c-0.105,0-0.219-0.023-0.339-0.068c-0.236-0.08-0.394-0.121-0.475-0.121
			c-0.121,0-0.264,0.07-0.429,0.211c-0.311,0.261-0.683,0.766-1.115,1.515l0.618,2.592c0.095,0.397,0.176,0.635,0.241,0.712
			c0.065,0.078,0.131,0.116,0.196,0.116c0.105,0,0.229-0.058,0.369-0.173c0.276-0.231,0.512-0.532,0.708-0.904l0.264,0.136
			c-0.316,0.593-0.718,1.085-1.206,1.477C12.961,13.889,12.727,14,12.536,14c-0.281,0-0.505-0.158-0.671-0.475
			c-0.105-0.196-0.324-1.04-0.656-2.532c-0.784,1.361-1.412,2.238-1.884,2.63C9.02,13.874,8.724,14,8.437,14
			c-0.201,0-0.384-0.073-0.55-0.219c-0.121-0.111-0.181-0.259-0.181-0.445c0-0.166,0.055-0.304,0.166-0.414
			c0.111-0.111,0.246-0.166,0.407-0.166s0.332,0.08,0.512,0.241c0.131,0.116,0.231,0.173,0.301,0.173c0.06,0,0.138-0.04,0.234-0.121
			c0.236-0.191,0.558-0.603,0.964-1.236s0.673-1.09,0.799-1.371c-0.311-1.221-0.48-1.866-0.505-1.936
			c-0.116-0.327-0.266-0.558-0.452-0.693C9.947,7.678,9.673,7.61,9.311,7.61c-0.116,0-0.249,0.005-0.399,0.015V7.354L10.924,7z"/>
	</g>
</g>
</svg>
