<?xml version="1.0" encoding="utf-8"?>
<!-- Generator: Adobe Illustrator 19.1.0, SVG Export Plug-In . SVG Version: 6.00 Build 0)  -->
<svg version="1.1" id="Layer_1" xmlns="http://www.w3.org/2000/svg" xmlns:xlink="http://www.w3.org/1999/xlink" x="0px" y="0px"
	 width="16px" height="16px" viewBox="0 0 16 16" enable-background="new 0 0 16 16" xml:space="preserve">
<path d="M13,4.414c0.457,0.203,0.871,0.462,1.242,0.777c0.369,0.315,0.684,0.672,0.945,1.07c0.26,0.398,0.461,0.83,0.602,1.293
	C15.93,8.019,16,8.5,16,9c0,0.693-0.131,1.343-0.391,1.949c-0.262,0.607-0.617,1.137-1.07,1.59s-0.984,0.811-1.59,1.07
	C12.342,13.87,11.691,14,11,14c-0.543,0-1.07-0.084-1.582-0.254C8.905,13.577,8.432,13.328,8,13l-2,2L0,9l7-7h6V4.414z M6,13.586
	l6-6V5.125c-0.094-0.021-0.209-0.035-0.344-0.043c-0.137-0.008-0.277-0.016-0.426-0.023s-0.297-0.02-0.441-0.035
	c-0.146-0.016-0.277-0.043-0.395-0.082s-0.213-0.092-0.285-0.16C10.035,4.714,10,4.62,10,4.5c0-0.135,0.049-0.252,0.148-0.352
	C10.246,4.05,10.363,4,10.5,4c0.254,0,0.506,0.003,0.754,0.008C11.5,4.013,11.75,4.044,12,4.102V3H7.415l-6,6L6,13.586z M11,13
	c0.551,0,1.07-0.105,1.555-0.316s0.906-0.497,1.27-0.859c0.361-0.361,0.648-0.785,0.859-1.27S15,9.553,15,9
	c0-0.354-0.047-0.7-0.141-1.039c-0.094-0.338-0.227-0.657-0.398-0.957c-0.172-0.299-0.383-0.574-0.629-0.824
	C13.584,5.93,13.307,5.716,13,5.539V8l-4.281,4.281c0.332,0.234,0.695,0.413,1.085,0.535C10.195,12.939,10.594,13,11,13z"/>
</svg>
