<?xml version="1.0" encoding="utf-8"?>
<!-- Generator: Adobe Illustrator 19.2.0, SVG Export Plug-In . SVG Version: 6.00 Build 0)  -->
<svg version="1.1" id="Layer_1" xmlns="http://www.w3.org/2000/svg" xmlns:xlink="http://www.w3.org/1999/xlink" x="0px" y="0px"
	 width="44px" height="20px" viewBox="0 0 44 20" enable-background="new 0 0 44 20" xml:space="preserve">
<g>
	<path d="M34,2c4.4,0,8,3.6,8,8s-3.6,8-8,8H10c-4.4,0-8-3.6-8-8s3.6-8,8-8H34 M34,0H10C4.5,0,0,4.5,0,10s4.5,10,10,10h24
		c5.5,0,10-4.5,10-10S39.5,0,34,0L34,0z M10,16c3.3,0,6-2.7,6-6s-2.7-6-6-6s-6,2.7-6,6S6.7,16,10,16z"/>
</g>
</svg>
