<?xml version="1.0" encoding="utf-8"?>
<!-- Generator: Adobe Illustrator 19.1.0, SVG Export Plug-In . SVG Version: 6.00 Build 0)  -->
<svg version="1.1" id="Layer_1" xmlns="http://www.w3.org/2000/svg" xmlns:xlink="http://www.w3.org/1999/xlink" x="0px" y="0px"
	 width="16px" height="16px" viewBox="0 0 16 16" enable-background="new 0 0 16 16" xml:space="preserve">
<path d="M0,7.004V4.082c0-0.563,0.102-1.091,0.305-1.586c0.203-0.495,0.484-0.927,0.844-1.297c0.359-0.37,0.782-0.661,1.27-0.875
	C2.905,0.111,3.433,0.004,4,0.004s1.095,0.107,1.582,0.32c0.487,0.214,0.91,0.505,1.27,0.875c0.359,0.37,0.641,0.802,0.844,1.297
	C7.898,2.991,8,3.52,8,4.082v2.922H7V4.082C7,3.66,6.925,3.263,6.773,2.891c-0.151-0.372-0.36-0.699-0.629-0.98
	S5.559,1.408,5.191,1.246C4.824,1.085,4.427,1.004,4,1.004S3.176,1.085,2.809,1.246C2.441,1.408,2.124,1.629,1.855,1.91
	S1.377,2.518,1.226,2.89C1.075,3.263,1,3.66,1,4.082v2.922L0,7.004z"/>
<path d="M15,8v7H5V8H15 M16,7H4v9h12V7L16,7z"/>
</svg>
