<?xml version="1.0" encoding="utf-8"?>
<!-- Generator: Adobe Illustrator 19.1.0, SVG Export Plug-In . SVG Version: 6.00 Build 0)  -->
<svg version="1.1" id="Layer_1" xmlns="http://www.w3.org/2000/svg" xmlns:xlink="http://www.w3.org/1999/xlink" x="0px" y="0px"
	 width="16px" height="16px" viewBox="0 0 16 16" enable-background="new 0 0 16 16" xml:space="preserve">
<path d="M14.75,6.137c-0.166-0.596-0.402-1.153-0.707-1.672c-0.305-0.518-0.668-0.989-1.094-1.414
	c-0.424-0.424-0.895-0.789-1.414-1.094c-0.518-0.305-1.076-0.54-1.672-0.707C9.267,1.083,8.646,1,8,1
	C7.354,1,6.733,1.083,6.137,1.25C5.54,1.417,4.983,1.652,4.465,1.957c-0.519,0.305-0.99,0.669-1.414,1.094
	C2.626,3.476,2.262,3.947,1.957,4.465C1.652,4.983,1.417,5.541,1.25,6.137C1.083,6.733,1,7.354,1,8c0,0.646,0.083,1.268,0.25,1.863
	c0.167,0.597,0.402,1.154,0.707,1.672c0.305,0.519,0.669,0.989,1.094,1.414c0.424,0.425,0.896,0.789,1.414,1.094
	c0.518,0.305,1.075,0.54,1.672,0.707C6.733,14.917,7.354,15,8,15c0.646,0,1.267-0.083,1.863-0.25
	c0.596-0.167,1.154-0.402,1.672-0.707c0.52-0.305,0.99-0.669,1.414-1.094c0.426-0.425,0.789-0.896,1.094-1.414
	c0.305-0.518,0.541-1.075,0.707-1.672C14.918,9.268,15,8.646,15,8C15,7.354,14.918,6.733,14.75,6.137z M13.527,10.332
	c-0.314,0.727-0.744,1.362-1.289,1.906c-0.543,0.544-1.18,0.974-1.906,1.289S8.828,14,8,14s-1.605-0.157-2.332-0.473
	s-1.362-0.745-1.906-1.289c-0.544-0.544-0.974-1.18-1.289-1.906C2.157,9.605,2,8.828,2,8s0.157-1.605,0.473-2.332
	c0.315-0.727,0.745-1.362,1.289-1.906c0.544-0.544,1.18-0.974,1.906-1.289C6.395,2.158,7.172,2,8,2s1.605,0.158,2.332,0.473
	c0.727,0.315,1.363,0.745,1.906,1.289c0.545,0.544,0.975,1.18,1.289,1.906C13.844,6.395,14,7.172,14,8S13.844,9.605,13.527,10.332z"
	/>
<polygon points="8,8 8,4 7,4 7,9 11,9 11,8 "/>
</svg>
