<?xml version="1.0" encoding="utf-8"?>
<!-- Generator: Adobe Illustrator 18.1.1, SVG Export Plug-In . SVG Version: 6.00 Build 0)  -->
<svg version="1.1" xmlns="http://www.w3.org/2000/svg" xmlns:xlink="http://www.w3.org/1999/xlink" x="0px" y="0px"
	 viewBox="0 0 30 30" enable-background="new 0 0 30 30" xml:space="preserve">
<symbol  id="Database" viewBox="-18.8 -11 37.6 22">
	<g>
		<defs>
			<polygon id="SVGID_1_" points="10,-11 -10,-11 -10,10 10,10 			"/>
		</defs>
		<clipPath id="SVGID_2_">
			<use xlink:href="#SVGID_1_"  overflow="visible"/>
		</clipPath>
		<g clip-path="url(#SVGID_2_)">
			<path fill="#474F5A" d="M0-11c-2.7,0-5.4,0.4-7.9,1.1c-2.4,0.7-4.6,1.7-6.5,3c-1.9,1.3-3.4,2.9-4.5,4.6l1.7,1
				c0.9-1.5,2.2-2.8,3.9-4c1.7-1.2,3.7-2.1,5.9-2.8c4.6-1.4,10-1.4,14.6,0c2.2,0.7,4.2,1.6,5.9,2.8c1.7,1.2,3,2.5,3.9,4l1.7-1
				c-1.1-1.7-2.6-3.3-4.5-4.6c-1.9-1.3-4.1-2.3-6.5-3C5.4-10.6,2.7-11,0-11z"/>
		</g>
		<g clip-path="url(#SVGID_2_)">
			<path fill="#474F5A" d="M0-5c-2.1,0-4.2,0.2-6.1,0.7c-1.9,0.5-3.6,1.2-5,2l1,1.7c1.3-0.8,2.8-1.4,4.5-1.8c3.5-0.9,7.6-0.9,11.2,0
				c1.7,0.4,3.2,1,4.5,1.8l1-1.7c-1.5-0.9-3.2-1.6-5-2C4.2-4.8,2.1-5,0-5z"/>
		</g>
	</g>
	<g>
		<path fill="#474F5A" d="M0,9c1.2,0,2.4-0.1,3.5-0.3c1-0.2,1.9-0.5,2.7-0.9C7,7.3,7.5,6.9,7.7,6.7C7.8,6.5,8,6.2,8,6
			S7.8,5.5,7.7,5.3C7.5,5.1,7,4.7,6.2,4.3C5.4,3.9,4.5,3.6,3.5,3.4C2.4,3.1,1.2,3,0,3s-2.4,0.1-3.5,0.3c-1,0.2-1.9,0.5-2.7,0.9
			C-7,4.7-7.5,5.1-7.7,5.3C-7.8,5.5-8,5.8-8,6s0.2,0.5,0.3,0.7C-7.5,6.9-7,7.3-6.2,7.7c0.8,0.4,1.7,0.7,2.7,0.9C-2.4,8.9-1.2,9,0,9
			 M0,11c-1.4,0-2.7-0.1-3.9-0.4c-1.2-0.3-2.3-0.6-3.2-1.1c-0.9-0.5-1.6-1-2.1-1.6C-9.7,7.3-10,6.7-10,6s0.3-1.3,0.8-1.9
			C-8.7,3.5-8,2.9-7.1,2.5c0.9-0.5,2-0.8,3.2-1.1C-2.7,1.1-1.4,1,0,1s2.7,0.1,3.9,0.4C5.1,1.6,6.2,2,7.1,2.5c0.9,0.5,1.6,1,2.1,1.6
			C9.7,4.7,10,5.3,10,6S9.7,7.3,9.2,7.9C8.7,8.5,8,9.1,7.1,9.5c-0.9,0.5-2,0.8-3.2,1.1C2.7,10.9,1.4,11,0,11L0,11z"/>
	</g>
</symbol>
<symbol  id="Experiments" viewBox="0 -19.4 32 19.4">
	<path fill="#FFFFFF" d="M14.4-1.4L13,0l-1.4-1.4H6l-6-18h32l-6,18H14.4z M10.6-9.4H5.4l0.7,2h2.3L13-2.8l3.6-3.6l-3.1-3.1L12-8
		L10.6-9.4z M8.6-11.4l-2-2H4.1l0.7,2H8.6z M19-6.8l4.6-4.6h3.6l0.7-2H17.4l-2.5,2.5L19-6.8z M24.4-9.4l-2,2h3.5l0.7-2H24.4z
		 M24.6-3.4l0.7-2h-4.8L19-4l-1-1l-1.6,1.6H24.6z M9.6-3.4l-2-2H6.8l0.7,2H9.6z M2.8-17.4l0.7,2h4l4.6,4.6l4.6-4.6h12l0.7-2H2.8z"/>
</symbol>
<symbol  id="New_Symbol" viewBox="-10 -7.5 20 15">
	<g>
		<g>
			<g>
				<path fill="#474F5A" d="M10-7.5v0.6v0.6v10V5v1.3v0.6v0.6h-20V6.9V6.3V5V3.8v-10v-0.6v-0.6H10z M-8.7,6.3H8.8V5H-8.7V6.3z
					 M-8.7,3.8H8.8v-10H-8.7V3.8z"/>
			</g>
		</g>
	</g>
	<g>
		<g>
			<polygon fill="#474F5A" points="-2.3,-6.2 -3.5,-6.2 -3.5,3.8 -2.3,3.8 			"/>
		</g>
	</g>
	<g>
		<g>
			<polygon fill="#474F5A" points="4.1,-6.2 2.8,-6.2 2.8,3.8 4.1,3.8 			"/>
		</g>
	</g>
</symbol>
<symbol  id="New_Symbol_1" viewBox="-10 -7.5 20 15">
	<g>
		<g>
			<path fill="#474F5A" d="M10-7.5v0.6v0.6v10V5v1.3v0.6v0.6h-20V6.9V6.3V5V3.8v-10v-0.6v-0.6H10z M-8.7,6.3H8.8V5H-8.7V6.3z
				 M-8.7,3.8H8.8v-10H-8.7V3.8z"/>
		</g>
	</g>
	<g>
		<polygon fill="#474F5A" points="0.9,-6.2 -0.4,-6.2 -0.4,3.8 0.9,3.8 		"/>
	</g>
</symbol>
<symbol  id="New_Symbol_2" viewBox="-8.7 -7.5 17.5 15">
	<path fill="#474F5A" d="M8.8,6.3H0.3L-1,7.5h-7.8v-15H8.8V6.3z M7.5-6.2h-15V6.3h6L-0.3,5h7.8V-6.2z"/>
</symbol>
<symbol  id="datasets" viewBox="0 -30.7 26 30.7">
	<g>
		<path fill="#FFFFFF" d="M13-30.7c-1.3,0-13,0.1-13,3.7v23.9h1.6l0.3-0.4C2.3-4.2,6.1-5.5,13-5.5s10.7,1.3,11.2,1.9l0.3,0.4H26V-27
			C26-30.6,14.3-30.7,13-30.7z M1.9-26.9c0.5-0.7,4.6-1.9,11.1-1.9s10.6,1.2,11.1,1.9v21.2C21.6-6.9,16.9-7.3,13-7.3
			S4.4-6.9,1.9-5.7V-26.9z"/>
	</g>
	<g>
		<path fill="#FFFFFF" d="M25.7-4.5l-1.6,1c0,0,0-0.1,0-0.1c0-0.1,0-0.1,0-0.1C23.8-3.1,19.7-1.9,13-1.9S2.2-3.1,1.8-3.8
			c0,0,0,0.1,0,0.1c0,0.1,0,0.1,0,0.1l-1.6-1C0.1-4.2,0-4,0-3.7C0-0.1,11.7,0,13,0s13-0.1,13-3.7C26-4,25.9-4.2,25.7-4.5z"/>
	</g>
</symbol>
<symbol  id="ipython" viewBox="0 -24 28 24">
	<path fill="#FFFFFF" d="M28-2v1v1H0v-1v-1v-20v-1v-1h26h1h1V-2z M26-2v-4H2v4H26z M2-22v14h24v-14H2z"/>
	<path fill="#FFFFFF" d="M23-5c0.6,0,1,0.4,1,1c0,0.6-0.4,1-1,1c-0.6,0-1-0.4-1-1C22-4.6,22.4-5,23-5z"/>
	<path fill="#FFFFFF" d="M20-5c0.6,0,1,0.4,1,1c0,0.6-0.4,1-1,1c-0.6,0-1-0.4-1-1C19-4.6,19.4-5,20-5z"/>
	<path fill="#FFFFFF" d="M17-5c0.6,0,1,0.4,1,1c0,0.6-0.4,1-1,1c-0.6,0-1-0.4-1-1C16-4.6,16.4-5,17-5z"/>
</symbol>
<symbol  id="train-model" viewBox="0 -26 26 26">
	<g>
		<path fill="#FFFFFF" d="M12,0H0v-12v-2v-12h14v12h12V0H14H12z M2-2h10v-10H2V-2z M12-24H2v10h10V-24z M24-2v-10H14v10H24z"/>
	</g>
</symbol>
<symbol  id="webservice" viewBox="0 -28 28 28">
	<g>
		<path fill="#FFFFFF" d="M14-28c7.7,0,14,6.3,14,14S21.7,0,14,0S0-6.3,0-14S6.3-28,14-28z M3.1-19h4.3c0.5-2.5,1.3-4.7,2.3-6.2
			C6.8-24.1,4.4-21.9,3.1-19z M2-14c0,1,0.1,2,0.4,3h4.8C7.1-12,7-13,7-14s0.1-2,0.2-3H2.4C2.1-16,2-15,2-14z M14-2
			c1.8,0,3.7-2.7,4.5-7h-9C10.3-4.7,12.2-2,14-2z M18.8-11c0.1-0.9,0.2-1.9,0.2-3s-0.1-2.1-0.2-3H9.2C9.1-16.1,9-15.1,9-14
			s0.1,2.1,0.2,3H18.8z M14-26c-1.8,0-3.7,2.7-4.5,7h9C17.7-23.3,15.8-26,14-26z M18.2-25.2c1,1.6,1.9,3.7,2.3,6.2h4.3
			C23.6-21.9,21.2-24.1,18.2-25.2z M25.6-17h-4.8c0.1,1,0.2,2,0.2,3s-0.1,2-0.2,3h4.8c0.2-1,0.4-2,0.4-3S25.9-16,25.6-17z M24.9-9
			h-4.3c-0.5,2.5-1.3,4.7-2.3,6.2C21.2-3.9,23.6-6.1,24.9-9z M9.8-2.8C8.7-4.3,7.9-6.5,7.5-9H3.1C4.4-6.1,6.8-3.9,9.8-2.8z"/>
	</g>
</symbol>
<g id="Canvas_BG">
</g>
<g id="left-nav">
	<g id="Project-Action">
	</g>
	<g id="Project-Nav_1_">
	</g>
</g>
<g id="contents">
	<g id="Project-Nav">
	</g>
</g>
<g id="Layer_8">
	<path fill="#FFFFFF" d="M30,15c0,1.4-0.2,2.7-0.5,3.9s-0.9,2.5-1.5,3.6c-0.7,1.1-1.4,2.1-2.4,3s-1.9,1.7-3,2.4
		c-1.1,0.7-2.3,1.2-3.6,1.5C17.7,29.8,16.4,30,15,30s-2.7-0.2-3.9-0.5s-2.5-0.9-3.6-1.5c-1.1-0.7-2.1-1.4-3-2.3s-1.7-1.9-2.4-3
		c-0.7-1.1-1.2-2.3-1.5-3.6C0.2,17.7,0,16.4,0,15c0-1.4,0.2-2.7,0.5-3.9s0.9-2.5,1.5-3.6s1.4-2.1,2.4-3s1.9-1.7,3-2.4
		s2.3-1.2,3.6-1.5S13.6,0,15,0s2.7,0.2,3.9,0.5c1.3,0.4,2.5,0.9,3.6,1.5c1.1,0.7,2.1,1.4,3,2.4s1.7,1.9,2.4,3s1.2,2.3,1.5,3.6
		S30,13.6,30,15z M27.4,15c0-1.1-0.1-2.2-0.4-3.3s-0.7-2-1.3-3c-0.5-0.9-1.2-1.8-1.9-2.5c-0.8-0.8-1.6-1.4-2.5-1.9
		c-0.9-0.5-1.9-1-3-1.3S16.2,2.6,15,2.6S12.8,2.7,11.7,3s-2,0.7-2.9,1.3S7,5.5,6.3,6.3s-1.4,1.6-2,2.5s-1,1.9-1.3,3S2.6,13.9,2.6,15
		s0.1,2.2,0.4,3.3c0.3,1.1,0.7,2,1.3,3c0.5,0.9,1.2,1.8,1.9,2.5s1.6,1.4,2.5,1.9c0.9,0.5,1.9,1,3,1.3c1.1,0.3,2.1,0.4,3.3,0.4
		s2.2-0.1,3.3-0.4c1.1-0.3,2-0.7,3-1.3c0.9-0.5,1.8-1.2,2.5-1.9c0.8-0.8,1.4-1.6,1.9-2.5c0.5-0.9,1-1.9,1.3-3
		C27.3,17.2,27.4,16.1,27.4,15z M23.2,15L23.2,15l-6,6.4h-4.4l4.6-4.7h-10v-3.3h10l-4.6-4.7h4.4L23.2,15z"/>
</g>
<g id="global-topnav">
</g>
</svg>
