<?xml version="1.0" encoding="utf-8"?>
<!-- Generator: Adobe Illustrator 18.1.0, SVG Export Plug-In . SVG Version: 6.00 Build 0)  -->
<svg version="1.1" xmlns="http://www.w3.org/2000/svg" xmlns:xlink="http://www.w3.org/1999/xlink" x="0px" y="0px"
	 viewBox="0 0 29 24" enable-background="new 0 0 29 24" xml:space="preserve">
<g id="Layer_1">
	<path fill-rule="evenodd" clip-rule="evenodd" fill="#315377" d="M11.2,19.6V9.8c0-0.1,0-0.2-0.1-0.3c-0.1-0.1-0.2-0.2-0.3-0.2H7.8
		c-0.1,0-0.2,0.1-0.3,0.2C7.4,9.6,7.3,9.7,7.3,9.8v9.8c0,0.1,0.1,0.2,0.2,0.3c0.1,0.1,0.2,0.2,0.3,0.2h2.9c0.1,0,0.2,0,0.3-0.2
		C11.2,19.8,11.2,19.7,11.2,19.6L11.2,19.6z M11.1,6.3c0-0.5-0.2-1-0.6-1.3c-0.4-0.4-0.8-0.6-1.3-0.6C8.7,4.4,8.2,4.6,7.9,5
		C7.5,5.4,7.3,5.8,7.3,6.3c0,0.5,0.2,1,0.6,1.3C8.2,8,8.7,8.2,9.2,8.2c0.5,0,1-0.2,1.3-0.6C10.9,7.3,11.1,6.8,11.1,6.3L11.1,6.3z
		 M23,19.6v-6.7c0-1.3-0.4-2.3-1.1-2.9c-0.8-0.7-1.8-1-3.1-1c-0.9,0-1.7,0.2-2.4,0.7c-0.1,0.1-0.2,0.1-0.2,0.2
		c0-0.4-0.2-0.6-0.5-0.6h-2.7c-0.1,0-0.3,0-0.5,0.1c-0.2,0.1-0.2,0.2-0.2,0.3v9.8c0,0.1,0.1,0.2,0.2,0.3c0.2,0.1,0.3,0.2,0.5,0.2
		h2.8c0.1,0,0.2,0,0.3-0.2c0.1-0.1,0.1-0.2,0.1-0.3v-5.3c0-1.4,0.6-2.1,1.7-2.1c0.5,0,0.8,0.1,1,0.3c0.2,0.2,0.2,0.6,0.2,1.1v6
		c0,0.1,0.1,0.2,0.2,0.3c0.1,0.1,0.3,0.2,0.4,0.2h2.8c0.1,0,0.2,0,0.3-0.2C22.9,19.8,23,19.7,23,19.6L23,19.6z M26.9,4.9v14.7
		c0,1.2-0.4,2.3-1.3,3.1c-0.9,0.9-1.9,1.3-3.1,1.3H7.8c-1.2,0-2.2-0.4-3.1-1.3c-0.9-0.9-1.3-1.9-1.3-3.1V4.9c0-1.2,0.4-2.2,1.3-3.1
		c0.9-0.9,1.9-1.3,3.1-1.3h14.7c1.2,0,2.2,0.4,3.1,1.3C26.4,2.7,26.9,3.7,26.9,4.9L26.9,4.9z"/>
</g>
<g id="specctr">
	<g id="Spacing">
	</g>
	<g id="Dimensions">
	</g>
	<g id="Text_Properties">
	</g>
</g>
</svg>
