<?xml version="1.0" encoding="utf-8"?>
<!-- Generator: Adobe Illustrator 19.2.1, SVG Export Plug-In . SVG Version: 6.00 Build 0)  -->
<svg version="1.1" id="Layer_1" xmlns="http://www.w3.org/2000/svg" xmlns:xlink="http://www.w3.org/1999/xlink" x="0px" y="0px"
	 viewBox="0 0 20 20" style="enable-background:new 0 0 20 20;" xml:space="preserve">
<path d="M9.3,3.9C9.3,3.9,9.3,4,9.3,3.9c0,0.1,0.1,0.1,0.1,0.2s0,0.1,0,0.1c0,0,0,0.1,0,0.1L11,4.6l-0.1,2.2L9.3,7
	c0,0.1-0.1,0.2-0.2,0.3L10,8.8l-1.6,1.5l-1.3-1c0,0-0.1,0-0.1,0c0,0-0.1,0-0.1,0s-0.1,0-0.1,0c0,0-0.1,0-0.1,0L6.4,11l-2.2-0.1
	L4,9.3c-0.1,0-0.2-0.1-0.3-0.2L2.2,10L0.7,8.4l1-1.3c0,0,0-0.1,0-0.1c0,0,0-0.1,0-0.1c0,0,0-0.1,0-0.1c0,0,0-0.1,0-0.1L0,6.4
	l0.1-2.2L1.7,4c0-0.1,0.1-0.2,0.2-0.3L1,2.2l1.6-1.5l1.3,1c0,0,0.1,0,0.1,0c0,0,0.1,0,0.1,0s0.1,0,0.1,0c0,0,0.1,0,0.1,0L4.6,0
	l2.2,0.1L7,1.7c0.1,0,0.2,0.1,0.3,0.2L8.8,1l1.5,1.6L9.3,3.9z M8.9,4.8c0-0.1,0-0.2-0.1-0.2c0-0.1,0-0.2-0.1-0.2
	c0-0.1-0.1-0.2-0.1-0.2c0-0.1-0.1-0.2-0.1-0.2l0.9-1.2L8.7,1.8L7.4,2.6C7.3,2.5,7.1,2.4,7,2.3C6.8,2.3,6.7,2.2,6.5,2.2L6.3,0.7
	l-1.2,0L4.8,2.1c-0.1,0-0.2,0-0.2,0.1c-0.1,0-0.2,0-0.2,0.1c-0.1,0-0.2,0.1-0.2,0.1C4,2.4,3.9,2.4,3.8,2.4L2.7,1.5L1.8,2.3l0.8,1.3
	C2.5,3.7,2.4,3.9,2.3,4C2.3,4.2,2.2,4.3,2.2,4.5L0.7,4.7l0,1.2l1.5,0.3c0,0.1,0,0.2,0.1,0.2c0,0.1,0,0.2,0.1,0.2
	c0,0.1,0.1,0.2,0.1,0.2c0,0.1,0.1,0.2,0.1,0.2L1.5,8.3l0.8,0.9l1.3-0.8C3.7,8.5,3.9,8.6,4,8.7c0.1,0.1,0.3,0.1,0.5,0.2l0.2,1.5
	l1.2,0l0.3-1.5c0.1,0,0.2,0,0.2-0.1c0.1,0,0.2,0,0.2-0.1c0.1,0,0.2-0.1,0.2-0.1c0.1,0,0.2-0.1,0.2-0.1l1.2,0.9l0.9-0.8L8.4,7.4
	C8.5,7.3,8.6,7.1,8.7,7c0.1-0.1,0.1-0.3,0.2-0.5l1.5-0.2l0-1.2L8.9,4.8z M4.8,3.6c0.3-0.1,0.5-0.1,0.8-0.1c0.3,0,0.5,0.1,0.8,0.2
	C6.6,3.8,6.8,3.9,7,4.1c0.2,0.2,0.3,0.4,0.4,0.7c0.1,0.3,0.1,0.5,0.1,0.8c0,0.3-0.1,0.5-0.2,0.8C7.2,6.6,7.1,6.8,6.9,7
	C6.7,7.2,6.5,7.3,6.2,7.4S5.7,7.5,5.4,7.5c-0.3,0-0.5-0.1-0.8-0.2C4.4,7.2,4.2,7.1,4,6.9C3.8,6.7,3.7,6.5,3.6,6.2S3.5,5.7,3.5,5.4
	c0-0.3,0.1-0.5,0.2-0.8S3.9,4.2,4.1,4C4.3,3.8,4.5,3.7,4.8,3.6z M6,6.8c0.2-0.1,0.3-0.2,0.5-0.3c0.1-0.1,0.2-0.3,0.3-0.4
	c0.1-0.2,0.1-0.3,0.1-0.5c0-0.2,0-0.4-0.1-0.6C6.8,4.8,6.7,4.7,6.5,4.5C6.4,4.4,6.3,4.3,6.1,4.2C5.9,4.1,5.8,4.1,5.6,4.1
	c-0.2,0-0.4,0-0.6,0.1C4.8,4.2,4.7,4.3,4.5,4.5C4.4,4.6,4.3,4.7,4.2,4.9C4.1,5.1,4.1,5.2,4.1,5.4c0,0.2,0,0.4,0.1,0.6
	c0.1,0.2,0.2,0.3,0.3,0.5c0.1,0.1,0.3,0.2,0.4,0.3c0.2,0.1,0.3,0.1,0.5,0.1C5.6,6.9,5.8,6.9,6,6.8z"/>
<path d="M18.5,13.8c0,0,0,0.1,0,0.1c0,0,0,0.1,0,0.1s0,0.1,0,0.1c0,0,0,0.1,0,0.1l1.5,0.9l-0.9,2.3L17.3,17
	c-0.1,0.1-0.2,0.2-0.3,0.3l0.4,1.8L15.2,20l-0.9-1.5c0,0-0.1,0-0.1,0c0,0-0.1,0-0.1,0s-0.1,0-0.1,0c0,0-0.1,0-0.1,0L12.8,20
	l-2.3-0.9l0.4-1.8c-0.1-0.1-0.2-0.2-0.3-0.3l-1.8,0.4L8,15.2l1.5-0.9c0,0,0-0.1,0-0.1c0,0,0-0.1,0-0.1s0-0.1,0-0.1c0,0,0-0.1,0-0.1
	L8,12.8l0.9-2.3l1.8,0.4c0.1-0.1,0.2-0.2,0.3-0.3l-0.4-1.8L12.8,8l0.9,1.5c0,0,0.1,0,0.1,0c0,0,0.1,0,0.1,0s0.1,0,0.1,0
	c0,0,0.1,0,0.1,0L15.2,8l2.3,0.9L17,10.7c0.1,0.1,0.2,0.2,0.3,0.3l1.8-0.4l0.9,2.3L18.5,13.8z M17.8,14.6c0-0.1,0-0.2,0-0.3
	c0-0.1,0-0.2,0-0.3c0-0.1,0-0.2,0-0.3c0-0.1,0-0.2,0-0.3l1.4-0.9l-0.5-1.2l-1.6,0.4c-0.1-0.1-0.2-0.3-0.4-0.4
	c-0.1-0.1-0.3-0.3-0.4-0.4l0.4-1.6l-1.2-0.5l-0.9,1.4c-0.1,0-0.2,0-0.3,0c-0.1,0-0.2,0-0.3,0c-0.1,0-0.2,0-0.3,0c-0.1,0-0.2,0-0.3,0
	l-0.9-1.4l-1.2,0.5l0.4,1.6c-0.2,0.1-0.3,0.2-0.4,0.4c-0.1,0.1-0.3,0.3-0.4,0.4l-1.6-0.4l-0.5,1.2l1.4,0.9c0,0.1,0,0.2,0,0.3
	c0,0.1,0,0.2,0,0.3c0,0.1,0,0.2,0,0.3c0,0.1,0,0.2,0,0.3l-1.4,0.9l0.5,1.2l1.6-0.4c0.1,0.1,0.2,0.3,0.4,0.4c0.1,0.1,0.3,0.3,0.4,0.4
	l-0.4,1.6l1.2,0.5l0.9-1.4c0.1,0,0.2,0,0.3,0c0.1,0,0.2,0,0.3,0c0.1,0,0.2,0,0.3,0c0.1,0,0.2,0,0.3,0l0.9,1.4l1.2-0.5l-0.4-1.6
	c0.1-0.1,0.3-0.2,0.4-0.4c0.1-0.1,0.3-0.3,0.4-0.4l1.6,0.4l0.5-1.2L17.8,14.6z M14,11.8c0.3,0,0.6,0.1,0.9,0.2
	c0.3,0.1,0.5,0.3,0.7,0.5s0.4,0.4,0.5,0.7c0.1,0.3,0.2,0.6,0.2,0.9c0,0.3-0.1,0.6-0.2,0.9c-0.1,0.3-0.3,0.5-0.5,0.7
	s-0.4,0.4-0.7,0.5c-0.3,0.1-0.6,0.2-0.9,0.2s-0.6-0.1-0.9-0.2c-0.3-0.1-0.5-0.3-0.7-0.5c-0.2-0.2-0.4-0.4-0.5-0.7
	c-0.1-0.3-0.2-0.6-0.2-0.9s0.1-0.6,0.2-0.9c0.1-0.3,0.3-0.5,0.5-0.7c0.2-0.2,0.4-0.4,0.7-0.5C13.4,11.8,13.7,11.8,14,11.8z M14,15.6
	c0.2,0,0.4,0,0.6-0.1c0.2-0.1,0.4-0.2,0.5-0.3s0.3-0.3,0.3-0.5c0.1-0.2,0.1-0.4,0.1-0.6c0-0.2,0-0.4-0.1-0.6
	c-0.1-0.2-0.2-0.4-0.3-0.5s-0.3-0.3-0.5-0.3c-0.2-0.1-0.4-0.1-0.6-0.1c-0.2,0-0.4,0-0.6,0.1c-0.2,0.1-0.4,0.2-0.5,0.3
	c-0.1,0.1-0.3,0.3-0.3,0.5c-0.1,0.2-0.1,0.4-0.1,0.6c0,0.2,0,0.4,0.1,0.6c0.1,0.2,0.2,0.4,0.3,0.5c0.1,0.1,0.3,0.3,0.5,0.3
	C13.6,15.5,13.8,15.6,14,15.6z"/>
</svg>
