<?xml version="1.0" encoding="utf-8"?>
<!-- Generator: Adobe Illustrator 19.1.0, SVG Export Plug-In . SVG Version: 6.00 Build 0)  -->
<svg version="1.1" xmlns="http://www.w3.org/2000/svg" xmlns:xlink="http://www.w3.org/1999/xlink" x="0px" y="0px"
	 viewBox="0 0 16 16" enable-background="new 0 0 16 16" xml:space="preserve">
<g id="Layer_1">
	<g id="stop">
		<polygon fill="#505050" points="6.6,0 6.6,1.8 7.6,2.2 7.6,1.5 15,4.4 15,12.6 13.9,12.2 13.9,13.3 16,14.1 16,3.8 		"/>
		<path fill="#505050" d="M1,3.4l7.4,3v8.2l-7.4-3V3.4 M0,1.9v10.4L9.4,16V5.6L0,1.9L0,1.9z"/>
		<polygon fill="#505050" points="3.6,0.9 3.6,2.9 4.6,3.3 4.6,2.4 12,5.4 12,13.6 10.3,12.9 10.3,14 13,15.1 13,4.7 		"/>
	</g>
	<g id="warning">
	</g>
	<g id="arrow-right-sm">
	</g>
</g>
<g id="Layer_2">
</g>
</svg>
