<?xml version="1.0" encoding="utf-8"?>
<!-- Generator: Adobe Illustrator 19.1.0, SVG Export Plug-In . SVG Version: 6.00 Build 0)  -->
<svg version="1.1" xmlns="http://www.w3.org/2000/svg" xmlns:xlink="http://www.w3.org/1999/xlink" x="0px" y="0px"
	 viewBox="0 0 16 16" enable-background="new 0 0 16 16" xml:space="preserve">
<symbol  id="alerts" viewBox="0 -16 16 16">
	<polygon fill="#101010" points="8.5,-4.4 7.5,-4.4 7.5,-8.7 10.2,-11.4 10.9,-10.7 8.5,-8.3 	"/>
	<polygon fill="#101010" points="3.1,0 0,-3.1 0.7,-3.8 3.8,-0.7 	"/>
	<polygon fill="#101010" points="16,-3.1 12.9,0 12.2,-0.7 15.3,-3.8 	"/>
	<path fill="#101010" d="M15.1-8.5c0,3.9-3.2,7.1-7.1,7.1c-3.9,0-7.1-3.2-7.1-7.1c0-2.2,1-4.1,2.5-5.4L2-15.3L2.8-16l1.5,1.4
		c1.1-0.7,2.4-1.1,3.8-1.1c1.4,0,2.7,0.4,3.8,1.1l1.4-1.5l0.7,0.7l-1.3,1.4C14.2-12.6,15.1-10.7,15.1-8.5 M1.9-8.5
		c0,3.4,2.7,6.1,6.1,6.1c3.4,0,6.1-2.7,6.1-6.1c0-3.4-2.7-6.1-6.1-6.1C4.6-14.6,1.9-11.9,1.9-8.5"/>
</symbol>
<g id="Layer_1">
	<g id="warning">
	</g>
	<g id="arrow-right-sm">
	</g>
</g>
<g id="Layer_2">
	
		<use xlink:href="#alerts"  width="16" height="16" y="-16" transform="matrix(1 0 0 -1 3.982750e-007 1.734552e-007)" overflow="visible"/>
</g>
</svg>
