<?xml version="1.0" encoding="utf-8"?>
<!-- Generator: Adobe Illustrator 19.1.0, SVG Export Plug-In . SVG Version: 6.00 Build 0)  -->
<!DOCTYPE svg PUBLIC "-//W3C//DTD SVG 1.1//EN" "http://www.w3.org/Graphics/SVG/1.1/DTD/svg11.dtd">
<svg version="1.1" id="Layer_1" xmlns="http://www.w3.org/2000/svg" xmlns:xlink="http://www.w3.org/1999/xlink" x="0px" y="0px"
	 viewBox="-934 516 50 50" style="enable-background:new -934 516 50 50;" xml:space="preserve">
<style type="text/css">
	.st0-sql{fill:#0072C6;}
	.st1-sql{opacity:0.15;fill:#FFFFFF;enable-background:new    ;}
	.st2-sql{fill:#FFFFFF;}
	.st3{fill:#7FBA00;}
	.st4{fill:#B8D432;}
	.st5{fill:#59B4D9;stroke:#FFFFFF;stroke-miterlimit:10;}
	.st6{opacity:0.2;fill:#FFFFFF;enable-background:new    ;}
</style>
<g>
	<path class="st0-sql" d="M-929.9,522.5v34.7c0,3.6,8.1,6.5,18,6.5v-41.2H-929.9z"/>
	<path class="st0-sql" d="M-912.2,563.8h0.2c10,0,18-2.9,18-6.5v-34.7h-18.3V563.8z"/>
	<path class="st1-sql" d="M-912.2,563.8h0.2c10,0,18-2.9,18-6.5v-34.7h-18.3V563.8z"/>
	<path class="st2-sql" d="M-893.9,522.5c0,3.6-8.1,6.5-18,6.5s-18-2.9-18-6.5c0-3.6,8.1-6.5,18-6.5S-893.9,518.9-893.9,522.5"/>
	<path class="st3" d="M-897.6,522.1c0,2.4-6.4,4.3-14.3,4.3s-14.3-1.9-14.3-4.3c0-2.4,6.4-4.3,14.3-4.3S-897.6,519.8-897.6,522.1"/>
	<path class="st4" d="M-900.6,524.8c1.9-0.7,3-1.6,3-2.6c0-2.4-6.4-4.3-14.3-4.3c-7.9,0-14.3,1.9-14.3,4.3c0,1,1.1,1.9,3,2.6
		c2.6-1,6.7-1.7,11.3-1.7C-907.3,523.1-903.2,523.8-900.6,524.8"/>
    <path class="st2-sql" d="M-917.6,546.6c0,1.1-0.4,1.9-1.2,2.5c-0.8,0.6-1.9,0.9-3.2,0.9c-1.2,0-2.2-0.2-2.9-0.6v-2.5
		c0.9,0.8,1.9,1.2,3,1.2c0.5,0,0.9-0.1,1.2-0.3s0.4-0.5,0.4-0.8c0-0.3-0.1-0.6-0.4-0.9c-0.3-0.3-0.8-0.6-1.7-1
		c-1.7-0.8-2.6-1.9-2.6-3.3c0-1,0.4-1.8,1.1-2.5c0.8-0.6,1.8-0.9,3-0.9c1.1,0,2,0.1,2.8,0.4v2.4c-0.8-0.5-1.6-0.8-2.6-0.8
		c-0.5,0-0.9,0.1-1.2,0.3c-0.3,0.2-0.4,0.5-0.4,0.8c0,0.4,0.1,0.7,0.3,0.9c0.2,0.2,0.7,0.5,1.4,0.9c1.1,0.5,1.8,1,2.3,1.5
		C-917.9,545.2-917.6,545.9-917.6,546.6z" />
    <path class="st2-sql" d="M-905.4,544.1c0,1.3-0.3,2.5-0.9,3.5c-0.6,1-1.5,1.7-2.6,2.1l3.3,3.1h-3.3l-2.4-2.6c-1,0-1.9-0.3-2.7-0.8
		c-0.8-0.5-1.4-1.2-1.9-2c-0.4-0.9-0.7-1.8-0.7-2.9c0-1.2,0.2-2.2,0.7-3.2c0.5-0.9,1.2-1.6,2-2.1c0.9-0.5,1.9-0.7,3-0.7
		c1,0,2,0.2,2.8,0.7c0.8,0.5,1.5,1.2,1.9,2.1C-905.6,541.9-905.4,542.9-905.4,544.1z M-908.1,544.2c0-1.2-0.3-2.1-0.8-2.7
		c-0.5-0.7-1.2-1-2.1-1c-0.9,0-1.6,0.3-2.1,1c-0.5,0.7-0.8,1.6-0.8,2.7c0,1.1,0.3,2,0.8,2.7c0.5,0.7,1.2,1,2.1,1
		c0.9,0,1.6-0.3,2.1-1C-908.4,546.2-908.1,545.3-908.1,544.2z" />
    <polygon class="st2-sql" points="-896.7,549.8 -903.5,549.8 -903.5,538.4 -901,538.4 -901,547.7 -896.7,547.7 	" />
</g>
<g>
	<path class="st5" d="M-886.8,562.8c0-1.5-1.2-2.6-2.6-2.6c-0.1,0-0.2,0-0.3,0c0.2-0.6,0.2-1.2,0.2-1.9c0-3.9-3.1-7-7-7
		c-3.1,0-5.7,2-6.6,4.8c-0.5-0.2-1-0.3-1.6-0.3c-2.6,0-4.8,2.2-4.8,4.8c0,2.7,2.1,4.8,4.8,4.8c0,0,0,0,0,0v0h15.4l0,0
		C-887.9,565.4-886.8,564.2-886.8,562.8"/>
	<path class="st6" d="M-902.2,565.5c-0.6-0.6-1.1-1.4-1.3-2.4c-0.6-2.6,1-5.2,3.6-5.8c0.5-0.1,1.1-0.1,1.6-0.1
		c0.2-2.4,1.7-4.6,3.9-5.6c-0.7-0.2-1.4-0.3-2.1-0.3c-3.1,0-5.7,2-6.6,4.8c-0.5-0.2-1-0.3-1.6-0.3c-2.6,0-4.8,2.2-4.8,4.8
		c0,2.7,2.1,4.8,4.8,4.8c0,0,0,0,0,0v0H-902.2z"/>
</g>
</svg>
