<?xml version="1.0" encoding="utf-8"?>
<!-- Generator: Adobe Illustrator 18.1.1, SVG Export Plug-In . SVG Version: 6.00 Build 0)  -->
<svg version="1.1" id="Layer_1" xmlns="http://www.w3.org/2000/svg" xmlns:xlink="http://www.w3.org/1999/xlink" x="0px" y="0px"
	 viewBox="918 498 84 84" enable-background="new 918 498 84 84" xml:space="preserve">
<g id="Layer_4">
	<rect x="938.2" y="524.9" fill="#7FBB42" width="8" height="7.9"/>
	<rect x="931.9" y="546.5" fill="#7FBB42" width="8" height="7.9"/>
	<rect x="943.3" y="546.5" fill="#7FBB42" width="8" height="7.9"/>
	<rect x="954.6" y="546.5" fill="#7FBB42" width="8" height="7.9"/>
	<rect x="931.9" y="535.7" fill="#7FBB42" width="8" height="7.9"/>
	<rect x="943.3" y="535.7" fill="#7FBB42" width="8" height="7.9"/>
	<polygon fill="#3999C6" points="949.7,499.6 918,516.2 918,521.1 924.5,521.1 924.5,554.8 929.9,554.8 929.9,521.1 969.1,521.1 
		969.1,552.6 975.1,552.6 975.1,521.1 981,521.1 981,516.2 	"/>
	<polygon opacity="0.8" fill="#B8D433" enable-background="new    " points="946.3,532.9 945.3,532.9 945.3,525.9 938.2,525.9 
		938.2,524.9 946.3,524.9 	"/>
	<polygon opacity="0.5" fill="#B8D433" enable-background="new    " points="938.2,524.9 939.2,524.9 939.2,531.9 946.3,531.9 
		946.3,532.9 938.2,532.9 	"/>
	<polygon opacity="0.8" fill="#B8D433" enable-background="new    " points="939.9,543.7 939,543.7 939,536.7 931.9,536.7 
		931.9,535.7 939.9,535.7 	"/>
	<polygon opacity="0.5" fill="#B8D433" enable-background="new    " points="931.9,535.7 932.8,535.7 932.8,542.7 939.9,542.7 
		939.9,543.7 931.9,543.7 	"/>
	<polygon opacity="0.8" fill="#B8D433" enable-background="new    " points="951.4,543.7 950.4,543.7 950.4,536.7 943.3,536.7 
		943.3,535.7 951.4,535.7 	"/>
	<polygon opacity="0.5" fill="#B8D433" enable-background="new    " points="943.3,535.7 944.3,535.7 944.3,542.7 951.4,542.7 
		951.4,543.7 943.3,543.7 	"/>
	<polygon opacity="0.8" fill="#B8D433" enable-background="new    " points="939.9,554.5 939,554.5 939,547.5 931.9,547.5 
		931.9,546.5 939.9,546.5 	"/>
	<polygon opacity="0.5" fill="#B8D433" enable-background="new    " points="931.9,546.5 932.8,546.5 932.8,553.5 939.9,553.5 
		939.9,554.5 931.9,554.5 	"/>
	<polygon opacity="0.8" fill="#B8D433" enable-background="new    " points="951.4,554.5 950.4,554.5 950.4,547.5 943.3,547.5 
		943.3,546.5 951.4,546.5 	"/>
	<polygon opacity="0.5" fill="#B8D433" enable-background="new    " points="943.3,546.5 944.3,546.5 944.3,553.5 951.4,553.5 
		951.4,554.5 943.3,554.5 	"/>
	<polygon opacity="0.8" fill="#B8D433" enable-background="new    " points="962.6,554.5 961.6,554.5 961.6,547.5 954.6,547.5 
		954.6,546.5 962.6,546.5 	"/>
	<polygon opacity="0.5" fill="#B8D433" enable-background="new    " points="954.6,546.5 955.6,546.5 955.6,553.5 962.6,553.5 
		962.6,554.5 954.6,554.5 	"/>
	<polygon opacity="0.8" fill="#B8D433" enable-background="new    " points="939.4,532.9 938.2,532.9 938.2,532 945.2,524.9 
		946.3,524.9 946.3,525.7 	"/>
	<polygon opacity="0.8" fill="#B8D433" enable-background="new    " points="944.5,543.7 943.3,543.7 943.3,542.8 950.3,535.7 
		951.4,535.7 951.4,536.5 	"/>
	<polygon opacity="0.8" fill="#B8D433" enable-background="new    " points="933,543.7 931.9,543.7 931.9,542.8 938.8,535.7 
		939.9,535.7 939.9,536.5 	"/>
	<polygon opacity="0.8" fill="#B8D433" enable-background="new    " points="933,554.5 931.9,554.5 931.9,553.6 938.8,546.5 
		939.9,546.5 939.9,547.3 	"/>
	<polygon opacity="0.8" fill="#B8D433" enable-background="new    " points="944.5,554.5 943.3,554.5 943.3,553.6 950.3,546.5 
		951.4,546.5 951.4,547.3 	"/>
	<polygon opacity="0.8" fill="#B8D433" enable-background="new    " points="955.8,554.5 954.6,554.5 954.6,553.6 961.5,546.5 
		962.6,546.5 962.6,547.3 	"/>
	<g>
		<path fill="#3999C6" d="M965.5,539.2v34.7c0,3.6,8.2,6.5,18.2,6.5v-41.2H965.5z"/>
		<path fill="#5AB4D9" d="M983.5,580.4h0.3c10,0,18.2-3,18.2-6.5v-34.7h-18.4L983.5,580.4L983.5,580.4z"/>
		<path fill="#FFFFFF" d="M1001.9,539.2c0,3.6-8.2,6.5-18.2,6.5s-18.2-3-18.2-6.5c0-3.6,8.2-6.5,18.2-6.5
			C993.7,532.8,1001.9,535.6,1001.9,539.2"/>
		<path fill="#7FBB42" d="M998.2,538.9c0,2.4-6.5,4.4-14.5,4.4s-14.5-1.9-14.5-4.4c0-2.4,6.5-4.4,14.5-4.4S998.2,536.4,998.2,538.9"
			/>
		<path fill="#B8D433" d="M995.2,541.5c1.9-0.8,3-1.7,3-2.6c0-2.4-6.5-4.4-14.5-4.4s-14.5,1.9-14.5,4.4c0,1,1.1,1.9,3,2.6
			c2.6-1,6.8-1.7,11.4-1.7C988.4,539.8,992.5,540.5,995.2,541.5"/>
		<g>
			<path fill="#FFFFFF" d="M970.1,564.1v-2.5c0.4,0.4,0.9,0.7,1.5,0.9c0.5,0.2,1.1,0.3,1.6,0.3c0.3,0,0.6,0,0.8-0.1
				c0.2,0,0.4-0.1,0.6-0.2c0.2-0.1,0.3-0.2,0.3-0.4s0.1-0.3,0.1-0.4c0-0.2,0-0.4-0.2-0.6c-0.1-0.2-0.3-0.3-0.5-0.5s-0.5-0.3-0.8-0.4
				c-0.3-0.1-0.6-0.3-1-0.4c-0.9-0.4-1.5-0.8-1.9-1.3c-0.4-0.5-0.7-1.1-0.7-1.9c0-0.6,0.1-1.1,0.3-1.5s0.5-0.8,0.9-1
				c0.4-0.3,0.9-0.5,1.4-0.6c0.5-0.1,1.1-0.2,1.7-0.2s1.1,0,1.5,0.1c0.4,0,0.9,0.2,1.2,0.3v2.3c-0.2-0.1-0.4-0.2-0.6-0.3
				c-0.2-0.1-0.4-0.2-0.7-0.2c-0.2,0-0.5-0.1-0.7-0.2c-0.2,0-0.4,0-0.7,0c-0.3,0-0.5,0-0.8,0c-0.2,0-0.4,0.1-0.6,0.2
				c-0.2,0.1-0.3,0.2-0.4,0.3c-0.1,0.2-0.1,0.3-0.1,0.4c0,0.2,0,0.3,0.2,0.5c0.1,0.2,0.2,0.3,0.4,0.4s0.4,0.3,0.7,0.4
				c0.3,0.1,0.5,0.3,0.9,0.4c0.4,0.2,0.9,0.4,1.2,0.6c0.4,0.2,0.7,0.4,0.9,0.7c0.3,0.3,0.4,0.5,0.6,0.9c0.1,0.3,0.2,0.7,0.2,1.2
				c0,0.6-0.1,1.1-0.3,1.6c-0.2,0.4-0.5,0.8-1,1c-0.4,0.3-0.9,0.4-1.4,0.5c-0.5,0.1-1.1,0.2-1.7,0.2s-1.2,0-1.7-0.2
				C970.9,564.5,970.5,564.3,970.1,564.1z"/>
			<path fill="#FFFFFF" d="M984,564.8c-1.6,0-2.9-0.5-3.9-1.6c-1-1-1.5-2.4-1.5-4.1s0.5-3.1,1.5-4.2c1-1.1,2.3-1.6,4-1.6
				c1.6,0,2.9,0.5,3.8,1.6c1,1,1.5,2.4,1.5,4.1s-0.5,3.1-1.5,4.2c0,0,0,0-0.1,0.1c0,0,0,0-0.1,0.1l2.8,2.7H987l-1.5-1.5
				C985.2,564.7,984.6,564.8,984,564.8z M984.1,555.5c-0.9,0-1.6,0.3-2.1,1c-0.5,0.7-0.8,1.5-0.8,2.6s0.3,1.9,0.8,2.6
				c0.5,0.7,1.2,1,2,1c0.9,0,1.5-0.3,2-0.9c0.5-0.7,0.8-1.5,0.8-2.6s-0.3-2-0.8-2.7C985.7,555.8,985,555.5,984.1,555.5z"/>
			<path fill="#FFFFFF" d="M997.9,564.6h-6.6v-11h2.5v8.9h4.1V564.6L997.9,564.6z"/>
		</g>
	</g>
</g>
</svg>
