<?xml version="1.0" encoding="utf-8"?>
<!-- Generator: Adobe Illustrator 19.2.1, SVG Export Plug-In . SVG Version: 6.00 Build 0)  -->
<svg version="1.1" id="Layer_1" xmlns="http://www.w3.org/2000/svg" xmlns:xlink="http://www.w3.org/1999/xlink" x="0px" y="0px"
	 viewBox="0 0 20 20" style="enable-background:new 0 0 20 20;" xml:space="preserve">
<g>
	<polygon points="1,4 4,4 5,4 10,4 10,9 11,9 11,3 5,3 5,1 14,1 14,8 15,8 15,0 4,0 4,3 0,3 0,16 2,16 2,15 1,15 	"/>
	<path d="M17.4,9H14v0c-0.4,0-0.9,0.3-1.3,1H9.9C9.5,9.4,9,9,8.4,9H5v0c-1.5,0.2-2.3,2.9-2.3,5.5S3.5,19.8,5,20v0h3.4
		c0.6,0,1.1-0.4,1.5-1h2.8c0.4,0.7,0.9,0.9,1.3,1v0h3.4c1.6,0,2.5-2.8,2.5-5.5S19,9,17.4,9z M3.7,14.5c0-2.7,0.9-4.5,1.5-4.5
		s1.5,1.8,1.5,4.5S5.8,19,5.2,19S3.7,17.2,3.7,14.5z M8.4,19H6.6c0.7-1.1,1-2.8,1-4.5s-0.4-3.4-1-4.5h1.8c0.6,0,1.5,1.8,1.5,4.5
		S9,19,8.4,19z M10.4,11H14v-1c0.1,0,0.1,0,0.2,0c0.6,0,1.5,1.8,1.5,4.5S14.8,19,14.2,19c-0.1,0-0.1,0-0.2,0v-1h-3.6
		c0.4-1,0.5-2.3,0.5-3.5S10.7,12,10.4,11z M17.4,19h-1.8c0.7-1.1,1-2.8,1-4.5s-0.4-3.4-1-4.5h1.8c0.6,0,1.5,1.8,1.5,4.5
		S18,19,17.4,19z"/>
</g>
</svg>
