<?xml version="1.0" encoding="utf-8"?>
<!-- Generator: Adobe Illustrator 17.0.0, SVG Export Plug-In . SVG Version: 6.00 Build 0)  -->
<!DOCTYPE svg PUBLIC "-//W3C//DTD SVG 1.0//EN" "http://www.w3.org/TR/2001/REC-SVG-20010904/DTD/svg10.dtd">
<svg version="1.0" id="Layer_1" xmlns="http://www.w3.org/2000/svg" xmlns:xlink="http://www.w3.org/1999/xlink" x="0px" y="0px"
	 width="16px" height="16px" viewBox="0 0 16 16" enable-background="new 0 0 16 16" xml:space="preserve">
<g>
	<g>
		<g>
			<g>
				<g>
					<path fill="#50525A" d="M15.054,13.039l-0.883-0.469c0.54-1.017,0.813-2.115,0.813-3.266c0-3.847-3.13-6.977-6.977-6.977
						s-6.977,3.13-6.977,6.977c0,1.117,0.262,2.19,0.777,3.19L0.92,12.954c-0.59-1.144-0.889-2.371-0.889-3.649
						c0-4.398,3.578-7.977,7.977-7.977s7.977,3.578,7.977,7.977C15.984,10.602,15.663,11.893,15.054,13.039z"/>
				</g>
			</g>
		</g>
		<g>
			<path fill="#50525A" d="M8,15.269c-1.378,0-2.5-1.121-2.5-2.5s1.122-2.5,2.5-2.5s2.5,1.121,2.5,2.5S9.378,15.269,8,15.269z
				 M8,11.269c-0.827,0-1.5,0.673-1.5,1.5s0.673,1.5,1.5,1.5s1.5-0.673,1.5-1.5S8.827,11.269,8,11.269z"/>
		</g>
		<g>
			<rect x="7.5" y="6" fill="#50525A" width="1" height="4.922"/>
		</g>
		<g>
			<rect x="3" y="8" fill="#50525A" width="1" height="1"/>
		</g>
		<g>
			<rect x="12" y="8" fill="#50525A" width="1" height="1"/>
		</g>
		<g>
			<rect x="4" y="5" fill="#50525A" width="1" height="1"/>
		</g>
		<g>
			<rect x="11" y="5" fill="#50525A" width="1" height="1"/>
		</g>
		<g>
			<rect x="7.5" y="3.5" fill="#50525A" width="1" height="1"/>
		</g>
	</g>
</g>
</svg>
