<?xml version="1.0" encoding="utf-8"?>
<!-- Generator: Adobe Illustrator 19.1.1, SVG Export Plug-In . SVG Version: 6.00 Build 0)  -->
<svg version="1.1" id="Layer_1" xmlns="http://www.w3.org/2000/svg" xmlns:xlink="http://www.w3.org/1999/xlink" x="0px" y="0px"
	 viewBox="-273 365 84 84" enable-background="new -273 365 84 84" xml:space="preserve">
<g id="Database_64_1_" opacity="0.8">
	<g>
		<g>
			<rect x="-259.3" y="383.9" fill="#009ACF" width="5.1" height="46.3"/>
			<rect x="-207.9" y="383.9" fill="#009ACF" width="5.1" height="46.3"/>
		</g>
	</g>
	<path fill="#009ACF" d="M-231,371c-15.6,0-28.3,5.8-28.3,12.9c0,7.1,12.7,12.9,28.3,12.9s28.3-5.8,28.3-12.9
		C-202.7,376.8-215.4,371-231,371z M-231,391.6c-12.8,0-23.1-3.5-23.1-7.7s10.4-7.7,23.1-7.7c12.8,0,23.1,3.5,23.1,7.7
		S-218.2,391.6-231,391.6z"/>
	<path fill="#009ACF" d="M-231,437.9c-12.8,0-23.1-3.5-23.1-7.7h-5.1c0,7.1,12.7,12.9,28.3,12.9s28.3-5.8,28.3-12.9h-5.1
		C-207.9,434.4-218.2,437.9-231,437.9z"/>
	<path fill="#009ACF" d="M-231,422.4c-12.8,0-23.1-3.5-23.1-7.7h-5.1c0,7.1,12.7,12.9,28.3,12.9s28.3-5.8,28.3-12.9h-5.1
		C-207.9,419-218.2,422.4-231,422.4z"/>
	<path fill="#009ACF" d="M-231,407c-12.8,0-23.1-3.5-23.1-7.7h-5.1c0,7.1,12.7,12.9,28.3,12.9s28.3-5.8,28.3-12.9h-5.1
		C-207.9,403.5-218.2,407-231,407z"/>
</g>
</svg>
