<?xml version="1.0" encoding="utf-8"?>
<!-- Generator: Adobe Illustrator 19.1.0, SVG Export Plug-In . SVG Version: 6.00 Build 0)  -->
<svg version="1.1" id="Layer_1" xmlns="http://www.w3.org/2000/svg" xmlns:xlink="http://www.w3.org/1999/xlink" x="0px" y="0px"
	 viewBox="0 0 16 16" enable-background="new 0 0 16 16" xml:space="preserve">
    <polygon fill="#101010" points="0,0 0,2.1 6,8 6,16 10,16 10,12.5 9,12.5 9,15 7,15 7,7.6 1,1.7 1,1 15,1 15,1.7 12.1,4.5 13.6,4.5 16,2.1 16,0 "/>
    <polygon fill="#101010" stroke="#101010" stroke-width="0.5" stroke-miterlimit="10" points="14,6.3 13.7,6 11.5,8.2 9.3,6 9,6.3
        11.2,8.5 9,10.7 9.3,11 11.5,8.8 13.7,11 14,10.7 11.8,8.5 "/>
</svg>
