<svg id="Layer_1" data-name="Layer 1" xmlns="http://www.w3.org/2000/svg" xmlns:xlink="http://www.w3.org/1999/xlink" viewBox="-14 -20 138.03 116.24">
  <defs>
    <clipPath id="clip-path" transform="translate(-419.87 -232)">
      <polyline points="462.47 252.93 453.9 254.32 446.08 257.75 439.43 261.93 433.11 269.64 429.54 273.43 426.08 274.7 425.17 272.47 426.77 270.16 427.13 266.91 428.2 266.95 429.37 268.02 429.05 264.71 427.75 263.84 427.79 262.58 424.72 264.31 421.94 267.59 421.37 270.52 422.55 272.87 423.66 276.86 425.92 277.93 428.29 277.81 430.54 276.5 429.04 284.11 430.54 292.58 428.89 296.49 423.48 302.32 424.44 305.8 427 309.83 431.83 313.23 434.4 313.58 437.25 313.68 435.47 320.98 442 323.66 450.15 324.73 452.94 322.91 453.15 317.98 456.26 312.83 456.47 308.76 463.97 309.3 470.94 308.65 463.97 312.83 465.15 317.87 469.55 324.73 473.83 326.55 477.26 325.16 478.65 322.37 485.83 316.9 487.23 318.08 498.48 318.51 500.73 316.69 500.94 313.48 500.19 312.08 499.66 303.4 495.91 295.9 496.55 292.58 498.8 293.76 505.13 299.65 508.23 299.87 511.66 298.47 515.09 295.9 516.81 290.33 526.88 290.97 532.99 288.61 537.92 284.01 541.45 277.36 542.31 269.54 541.56 260.43 539.63 252.28 537.7 249.71 535.02 248.85 530.31 254 526.02 255.5 522.27 249.28 518.52 245.85 516.48 244.57 508.34 237.82 501.8 234.28 495.27 233.75 487.66 235.03 481.01 237.5 476.4 241.25 472.76 245.64 469.01 246.71" style="fill:none;clip-rule:evenodd"/>
    </clipPath>
  </defs>
  <title>hadoop</title>
  <path d="M429.26,292l-1.59,4.32-3.93,3.89c-1.43,1.42-1.74,1.41-1.4,3.41a12.68,12.68,0,0,0,3.61,6.87c2.19,2.2,6.8,5.31,10.11,3.84a23.23,23.23,0,0,1-1.24,3.42c-2.22,4.87,3.19,5.82,7,6.85,3.15,0.85,10.87,3.12,12-1a10.91,10.91,0,0,0,.4-4.64,17.89,17.89,0,0,1,2.1-3.74c1.11-1.65,1-2.28.79-4.33,0-.39-0.1-0.82-0.17-1.28a40,40,0,0,0,11,.1c-1.12.65-2.23,1.22-3.71,2-3.5,1.8-.2,7.11,1.31,9.44,3.17,4.88,6,8.24,11.36,5.34,1.8-1,1.94-2,3.06-3.68,0.62-.34,3.81-3.06,5.71-4.59,0.72,0.86,2.1,1,4.19,1.17,1.05,0.08,5.17.05,6.27,0.06,3.28,0,5.25-.32,5.5-3.89a4.65,4.65,0,0,0-.78-3.54q-0.08-2.8-.15-5.61a13.14,13.14,0,0,0-1.29-5.36c-0.75-1.79-1.17-3.31-2-5,0.12-.68.22-1.38,0.28-2.11l3.34,3.22c2.13,2,3.88,3.72,7.12,3.57s7.24-2.82,8.23-6.07l1-3.26c5.09,1,11,.74,15.47-1.62,6.52-3.48,9.57-10.47,10.31-17.86,0.61-6-.56-16-3.41-21.5-0.84-1.61-4.63-3.64-6.29-2-1.25,1.27-2.11,3.2-3.46,4.35a12.28,12.28,0,0,1-3.48,1.8,20,20,0,0,0-3.69-6.06,14.89,14.89,0,0,0-4-3.21c-3.21-2-5.69-4.54-8.61-6.95-8.83-7.28-16.41-7.05-27.4-2.43-5.25,2.21-7.78,5.21-11,9.51a7.57,7.57,0,0,0-5.34,2.29c-1.52,1.34-2.93,2.72-4.3,4.14-10.28,1.64-16.66,3.6-23.42,9.59a27.39,27.39,0,0,0-6.31,8.17c-1.45,1.6-2.89,3.24-4.8,4-1.35.52-1.32,0.52-1.79-.75,1.6-1.2,1.57-3.46,1.72-5.51,1,0,1.39,1.18,2.07,2,0.4-1.81.64-4.62-1.27-5.61,0.31-.83.66-1.66,1-2.58-2.81.49-12.45,7-7.3,11.94a16.12,16.12,0,0,0,1.05,3.25c1.18,2.45,3.82,2.87,6.13,2a34.12,34.12,0,0,0-.38,10.47,31.33,31.33,0,0,0,.45,3.2" transform="translate(-419.87 -232)" style="fill-rule:evenodd"/>
  <path d="M429.9,291.93l0,0.35-0.61-.22m0.37-1.71q0.11,0.78.27,1.59l-1.28.24q-0.16-.82-0.28-1.66Zm-0.17-1.55q0.07,0.84.17,1.55l-1.29.17c-0.08-.58-0.14-1.12-0.19-1.61Zm-0.19-5.73a47,47,0,0,0,.19,5.73l-1.3.11A48,48,0,0,1,428,283Zm0.55-4.55a25.54,25.54,0,0,0-.55,4.55l-1.3,0a26.83,26.83,0,0,1,.58-4.78Zm-0.87-.74,1.13-.44-0.26,1.18-0.64-.14Zm-3.24.2a4.91,4.91,0,0,0,3.24-.2l0.47,1.21a6.21,6.21,0,0,1-4.11.23Zm-2.06-1.84a3.41,3.41,0,0,0,2.06,1.84l-0.4,1.24a4.69,4.69,0,0,1-2.84-2.52Zm-0.53-1.37a10,10,0,0,0,.53,1.37l-1.18.56a11.32,11.32,0,0,1-.6-1.55ZM422.64,273c0.17,0.67.31,1.24,0.47,1.76l-1.24.39c-0.17-.54-0.32-1.13-0.5-1.83Zm-0.18-.32,0.18,0.32-0.63.16Zm-1.24-2.14a3.91,3.91,0,0,0,1.24,2.14l-0.9.94a5.19,5.19,0,0,1-1.62-2.86Zm0.41-2.4a4,4,0,0,0-.41,2.4l-1.28.22a5.27,5.27,0,0,1,.51-3.16Zm1.74-2.41a9.27,9.27,0,0,0-1.74,2.41l-1.18-.54a10.54,10.54,0,0,1,2-2.77Zm6.05-3.87a14.48,14.48,0,0,0-6.05,3.87l-0.94-.9c2.2-2.28,5.32-4,6.78-4.25Zm-0.22-1.28,1.09-.19-0.37,1-0.62-.21Zm-1.1,2c0.19-.49.39-1,0.6-1.58l1.23,0.43c-0.19.53-.4,1.08-0.62,1.63Zm-0.38,1,0.38-1,1.21,0.47c-0.11.29-.23,0.58-0.37,1Zm0.31,0.81-0.51-.27,0.2-.54,0.61,0.23Zm1.08,1.56a2.19,2.19,0,0,0-1.08-1.56l0.59-1.16a3.43,3.43,0,0,1,1.75,2.44ZM429,269.27a8.11,8.11,0,0,0,.15-3.33l1.27-.29a9.35,9.35,0,0,1-.15,3.89Zm1.27,0.28-0.3,1.33-0.85-1.07,0.51-.4Zm-0.59-1.21c0.15,0.23.3,0.46,0.46,0.67l-1,.81c-0.2-.26-0.37-0.52-0.54-0.77Zm-2.09-1.63c1.07,0.05,1.56.81,2.09,1.63l-1.09.7a1.81,1.81,0,0,0-1.06-1Zm-0.68.61,0-.64,0.64,0,0,0.65Zm0,0.62c0-.23,0-0.45,0-0.62l1.3,0.09c0,0.24,0,.42,0,0.61Zm-1.42,4.41c1.2-.9,1.31-2.69,1.42-4.41l1.3,0.08c-0.13,2-.26,4.11-1.94,5.38Zm-0.22.75-0.17-.45,0.39-.29,0.39,0.52Zm0.93,1.41a2,2,0,0,1-.93-1.41l1.22-.45c0.17,0.46.17,0.65,0.21,0.67Zm0,0h0l0.25-.6Zm1.71-.29a2.23,2.23,0,0,1-1.71.29l0.5-1.2s0.23-.11.74-0.3Zm0,0h0l-0.23-.61Zm2.77-1.79a9,9,0,0,1-2.77,1.79L427.36,273a7.77,7.77,0,0,0,2.37-1.54Zm2.27-2.36a32.57,32.57,0,0,1-2.27,2.36l-0.87-1a31,31,0,0,0,2.18-2.26Zm0.1-.14-0.1.14-0.48-.43Zm2.64-4.21a27.83,27.83,0,0,0-2.64,4.21l-1.16-.59a29.15,29.15,0,0,1,2.77-4.41Zm3.51-3.77a26.54,26.54,0,0,0-3.51,3.77l-1-.79a27.85,27.85,0,0,1,3.68-4Zm10.19-6.3a32.73,32.73,0,0,0-10.19,6.3l-0.86-1a34,34,0,0,1,10.58-6.54Zm12.9-3.13a63,63,0,0,0-12.9,3.13l-0.47-1.22A64.27,64.27,0,0,1,462,251.25Zm0.37-.19-0.37.19-0.1-.64Zm2.07-2.08q-1.06,1-2.07,2.08l-0.94-.9q1-1.08,2.11-2.13Zm0,0h0l-0.45-.47Zm2.18-2q-1.12,1-2.18,2l-0.91-.94c0.71-.69,1.46-1.38,2.23-2.06Zm2.52-1.67a8.78,8.78,0,0,0-2.52,1.67l-0.86-1a10,10,0,0,1,2.9-1.91Zm2.42-.46a7.3,7.3,0,0,0-2.42.46l-0.48-1.21a8.5,8.5,0,0,1,2.84-.55Zm0.49-.26-0.18.25-0.3,0,0-.65Zm4.66-5.45a39.33,39.33,0,0,0-4.66,5.45l-1-.78a40.4,40.4,0,0,1,4.82-5.63Zm6.07-3.85a20.1,20.1,0,0,0-6.07,3.85l-0.88-1a21.37,21.37,0,0,1,6.45-4.09Zm14.22-3.2c-4.26-.27-8.82.93-14.22,3.2l-0.5-1.2c5.59-2.35,10.32-3.59,14.81-3.3Zm12.51,5.53c-4.3-3.55-8.28-5.26-12.51-5.53l0.08-1.3c4.51,0.28,8.74,2.09,13.26,5.83Zm2.56,2.2c-0.82-.72-1.64-1.44-2.56-2.2l0.83-1c0.85,0.7,1.73,1.47,2.59,2.23Zm6.11,4.79a47.5,47.5,0,0,1-6.11-4.79l0.85-1a46.47,46.47,0,0,0,6,4.67Zm2.1,1.4c-0.61-.46-1.3-0.9-2.1-1.4l0.69-1.1c0.82,0.51,1.52,1,2.2,1.47Zm1.75,1.67a10.66,10.66,0,0,0-1.75-1.67l0.79-1a11.92,11.92,0,0,1,2,1.87Zm2,2.76a24.64,24.64,0,0,0-2-2.76l1-.83a26,26,0,0,1,2.15,2.9Zm1.54,3.11a16.76,16.76,0,0,0-1.54-3.11l1.1-.69a18.07,18.07,0,0,1,1.65,3.35Zm0.86,0.38-0.62.26-0.24-.64,0.61-.22Zm0.48-.19-0.48.19L526.21,254l0.49-.2Zm3.17-1.72a10.91,10.91,0,0,1-3.17,1.72l-0.48-1.21a9.9,9.9,0,0,0,2.81-1.5Zm2-2.49a12.36,12.36,0,0,1-2,2.49l-0.84-1a11.34,11.34,0,0,0,1.81-2.23Zm1.47-1.91a13.9,13.9,0,0,0-1.47,1.91l-1.07-.73a15,15,0,0,1,1.61-2.08Zm0.33-.25a1.32,1.32,0,0,0-.33.25l-0.93-.91a2.65,2.65,0,0,1,.66-0.49Zm2.17,0.05a2.86,2.86,0,0,0-2.17-.05l-0.6-1.16a4.09,4.09,0,0,1,3.2,0Zm2.25,1.37a6.22,6.22,0,0,0-2.25-1.37l0.42-1.23a7.58,7.58,0,0,1,2.74,1.67Zm0.49,0.63a2.66,2.66,0,0,0-.49-0.63l0.91-.93a4,4,0,0,1,.74,1Zm2.83,9.65a33.09,33.09,0,0,0-2.83-9.65l1.15-.6a34.38,34.38,0,0,1,3,10Zm0.51,11.49a47.71,47.71,0,0,0-.51-11.49l1.28-.2a49,49,0,0,1,.52,11.82Zm-3.23,10.7a26.86,26.86,0,0,0,3.23-10.7l1.29,0.12a28.19,28.19,0,0,1-3.39,11.23Zm0,0h0l0.56,0.33Zm-6.75,6.65a17,17,0,0,0,6.75-6.65l1.13,0.65a18.3,18.3,0,0,1-7.27,7.15Zm-6.77,1.94a18.54,18.54,0,0,0,6.77-1.94l0.61,1.15a19.87,19.87,0,0,1-7.26,2.08Zm-8.27-.38a29,29,0,0,0,8.27.38l0.13,1.29a30.28,30.28,0,0,1-8.63-.4Zm-0.74.45,0.17-.56,0.57,0.11-0.12.64Zm-0.53,1.75,0.53-1.75,1.25,0.38-0.53,1.75Zm-0.46,1.5,0.46-1.5,1.25,0.38-0.46,1.5Zm-2.89,3.79a7.74,7.74,0,0,0,2.89-3.79l1.25,0.38a9,9,0,0,1-3.37,4.46ZM508.07,300a9,9,0,0,0,4.74-1.81l0.77,1a10.33,10.33,0,0,1-5.45,2.07Zm-3.62-.87a6.23,6.23,0,0,0,3.62.87l0.06,1.3a7.48,7.48,0,0,1-4.34-1Zm-3-2.52a17.27,17.27,0,0,0,3,2.52l-0.66,1.12a18.21,18.21,0,0,1-3.26-2.7ZM500,295.28l1.43,1.38-0.9.94-1.43-1.38Zm-1.91-1.84,1.91,1.84-0.9.94-1.91-1.84Zm-1.1.42,0.12-1.36,1,0.94-0.45.47Zm-0.11,1c0-.28.07-0.62,0.11-1l1.3,0.11c0,0.31-.07.68-0.13,1.1Zm-0.16,1c0.06-.36.12-0.7,0.16-1l1.29,0.16c-0.05.4-.11,0.75-0.16,1.07Zm0.06,0.4-0.06-.4,0.64,0.11Zm1.26,3a27.76,27.76,0,0,0-1.26-3l1.17-.58a28.9,28.9,0,0,1,1.32,3.16Zm1.22-.45h0l-0.61.22Zm-0.45,2.43c-0.28-.68-0.53-1.34-0.77-2l1.22-.45c0.23,0.62.46,1.24,0.75,1.92Zm0.9,2.54a18,18,0,0,0-.9-2.54l1.2-.5a19.11,19.11,0,0,1,1,2.72Zm0.33,2.59a11.49,11.49,0,0,0-.33-2.59l1.26-.32a12.72,12.72,0,0,1,.37,2.88Zm0.07,2.8q0-1.4-.07-2.8l1.3,0q0,1.4.08,2.8Zm0.08,2.8q0-1.4-.08-2.8l1.3,0q0,1.4.08,2.8Zm0.08,0.3-0.08-.3h0.65Zm0.68,1.51a5.79,5.79,0,0,0-.68-1.51l1.14-.64a6.7,6.7,0,0,1,.82,1.87Zm0,1.66a6,6,0,0,0,0-1.66l1.27-.28a6.91,6.91,0,0,1,0,2Zm-1.29,2.77c0.74-.42,1.18-1.24,1.29-2.77l1.3,0.09c-0.15,2-.82,3.17-1.95,3.82Zm-3.56.51a7.61,7.61,0,0,0,3.56-.51l0.64,1.13a8.55,8.55,0,0,1-4.21.68v-1.3Zm-1.22,0h1.22v1.3h-1.21v-1.3Zm-5-.06c0.8,0.06,3.36.06,5,.06v1.3c-1.69,0-4.3,0-5.1-.06Zm-2.5-.3a16.76,16.76,0,0,0,2.5.3l-0.09,1.3a17.52,17.52,0,0,1-2.71-.34Zm-1.23-.64a2.2,2.2,0,0,0,1.23.64l-0.3,1.27a3.4,3.4,0,0,1-1.93-1.07Zm-0.91-.09,0.5-.4,0.41,0.49-0.5.42Zm-2,1.67,2-1.67,0.82,1-2,1.66Zm-3.58,2.86c0.38-.21,2-1.55,3.58-2.86l0.83,1c-1.63,1.35-3.31,2.74-3.79,3Zm-0.23.21,0.23-.21,0.31,0.57Zm-0.77,1.26c0.21-.36.43-0.76,0.77-1.26l1.08,0.72c-0.27.4-.5,0.81-0.71,1.18Zm-2.06,2.21a4.73,4.73,0,0,0,2.06-2.21l1.13,0.64a5.8,5.8,0,0,1-2.58,2.72Zm-5.85.26c1.57,1,3.41,1.05,5.85-.26l0.62,1.15c-2.91,1.58-5.17,1.43-7.14.22Zm-4.65-5.39c1.54,2.37,3,4.37,4.65,5.39l-0.68,1.11c-1.88-1.15-3.44-3.28-5.07-5.79Zm-2.46-4.75a21,21,0,0,0,2.46,4.75l-1.09.71a22.22,22.22,0,0,1-2.61-5.08Zm0.9-3.75c-1.38.71-1.39,2.19-.9,3.75l-1.24.39c-0.67-2.13-.58-4.2,1.55-5.29Zm0.3-.15-0.3.15-0.59-1.16,0.3-.15Zm3.44-1.84c-1.05.61-2.1,1.15-3.44,1.84l-0.6-1.16c1.32-.68,2.36-1.21,3.38-1.81Zm-0.4-1.21,0.4,1.21-0.33-.57Zm-5.41.33a41.7,41.7,0,0,0,5.41-.33L468,310.4a43,43,0,0,1-5.56.34v-1.3ZM457,309a38.1,38.1,0,0,0,5.45.43v1.3a39.52,39.52,0,0,1-5.64-.44Zm-0.74.74-0.13-.87L457,309l-0.1.64Zm0.09,0.64-0.09-.64,1.29-.19,0.09,0.67Zm0.08,0.62-0.08-.62,1.29-.16c0,0.29.07,0.5,0.08,0.63Zm0.12,2.15a9,9,0,0,0-.12-2.15l1.29-.15a9.61,9.61,0,0,1,.11,2.48Zm-0.8,1.74a4.18,4.18,0,0,0,.8-1.74l1.29,0.18a5.31,5.31,0,0,1-1,2.29Zm-0.28.42,0.28-.42,1.08,0.73-0.29.43Zm-1.87,3.42a17.34,17.34,0,0,1,1.87-3.42l1.07,0.73a16.22,16.22,0,0,0-1.76,3.21Zm-0.05.33,0.05-.33,0.6,0.26Zm0,2.17a11.47,11.47,0,0,0,0-2.17l1.29-.12a12.73,12.73,0,0,1,.06,2.4Zm-0.43,2.24a12.52,12.52,0,0,0,.43-2.24l1.3,0.11a13.84,13.84,0,0,1-.48,2.46Zm-4.56,1.89c2.18,0.14,4.11-.23,4.56-1.89l1.26,0.33c-0.67,2.47-3.15,3-5.9,2.87ZM442,324a35.28,35.28,0,0,0,6.63,1.34l-0.08,1.3a36.34,36.34,0,0,1-6.88-1.38Zm-0.9-.24L442,324l-0.33,1.26-0.9-.24Zm-3.81-1.21a24.28,24.28,0,0,0,3.81,1.21L440.74,325a25.46,25.46,0,0,1-4-1.29Zm-1.84-4.5c-1.1,2.41.05,3.68,1.84,4.5l-0.54,1.19c-2.45-1.12-4-2.87-2.49-6.22Zm0.7-1.71c-0.21.57-.44,1.14-0.7,1.71l-1.19-.54c0.24-.53.46-1.07,0.66-1.62Zm0.57-1.8c-0.16.59-.35,1.2-0.57,1.8l-1.23-.44c0.21-.58.39-1.15,0.54-1.71Zm-0.89-.77,1.26-.56-0.37,1.32-0.63-.17Zm-4.12-.19a5.47,5.47,0,0,0,4.12.19l0.52,1.19a6.69,6.69,0,0,1-5.1-.17Zm-5.26-3.51a16.13,16.13,0,0,0,5.26,3.51l-0.46,1.22a17.55,17.55,0,0,1-5.73-3.81Zm-2.25-3a12.62,12.62,0,0,0,2.25,3l-0.92.92a13.93,13.93,0,0,1-2.49-3.36ZM423,303.56a11.6,11.6,0,0,0,1.18,3.48l-1.16.61a12.89,12.89,0,0,1-1.31-3.87Zm0.76-2.39c-0.83.8-1,1-.76,2.39l-1.28.21c-0.35-2.11-.11-2.35,1.14-3.55Zm0.46-.45-0.46.45-0.9-.94,0.45-.43Zm1.85-1.83-1.85,1.83-0.92-.92,1.85-1.83Zm2.08-2.06L426,298.89l-0.92-.92,2.08-2.06Zm0.15-.24-0.15.24-0.46-.46Zm0.95-2.58-0.95,2.58-1.22-.45,0.95-2.58Zm0.64-1.74L429.23,294l-1.22-.45,0.64-1.74Z" transform="translate(-419.87 -232)"/>
  <polygon points="42.6 20.93 34.03 22.32 26.2 25.75 19.56 29.93 13.24 37.65 9.66 41.43 6.21 42.7 5.3 40.47 6.89 38.16 7.25 34.91 8.32 34.95 9.49 36.02 9.18 32.71 7.88 31.84 7.92 30.58 4.85 32.31 2.07 35.59 1.49 38.52 2.68 40.87 3.79 44.86 6.04 45.93 8.42 45.81 10.66 44.5 9.16 52.11 10.66 60.58 9.01 64.49 3.6 70.31 4.57 73.8 7.13 77.83 11.96 81.23 14.52 81.58 17.37 81.68 15.59 88.98 22.13 91.66 30.28 92.73 33.06 90.91 33.28 85.98 36.38 80.83 36.6 76.76 44.1 77.3 51.07 76.65 44.1 80.83 45.28 85.87 49.67 92.73 53.96 94.55 57.39 93.16 58.78 90.37 65.96 84.91 67.36 86.08 78.61 86.51 80.86 84.69 81.07 81.47 80.32 80.08 79.79 71.4 76.04 63.9 76.68 60.58 78.93 61.76 85.25 67.65 88.36 67.87 91.79 66.47 95.22 63.9 96.93 58.33 107.01 58.97 113.11 56.61 118.04 52.01 121.58 45.36 122.44 37.54 121.69 28.43 119.76 20.28 117.83 17.71 115.15 16.86 110.44 22 106.15 23.5 102.4 17.28 98.65 13.85 96.61 12.57 88.47 5.82 81.93 2.28 75.39 1.75 67.78 3.03 61.14 5.5 56.53 9.25 52.89 13.64 49.14 14.71 42.6 20.93" style="fill:#fcd116;fill-rule:evenodd"/>
  <polygon points="42.6 20.93 34.03 22.32 26.2 25.75 19.56 29.93 13.24 37.65 9.66 41.43 6.21 42.7 5.3 40.47 6.89 38.16 7.25 34.91 8.32 34.95 9.49 36.02 9.18 32.71 7.88 31.84 7.92 30.58 4.85 32.31 2.07 35.59 1.49 38.52 2.68 40.87 3.79 44.86 6.04 45.93 8.42 45.81 10.66 44.5 9.16 52.11 10.66 60.58 9.01 64.49 3.6 70.31 4.57 73.8 7.13 77.83 11.96 81.23 14.52 81.58 17.37 81.68 15.59 88.98 22.13 91.66 30.28 92.73 33.06 90.91 33.28 85.98 36.38 80.83 36.6 76.76 44.1 77.3 51.07 76.65 44.1 80.83 45.28 85.87 49.67 92.73 53.96 94.55 57.39 93.16 58.78 90.37 65.96 84.91 67.36 86.08 78.61 86.51 80.86 84.69 81.07 81.47 80.32 80.08 79.79 71.4 76.04 63.9 76.68 60.58 78.93 61.76 85.25 67.65 88.36 67.87 91.79 66.47 95.22 63.9 96.93 58.33 107.01 58.97 113.11 56.61 118.04 52.01 121.58 45.36 122.44 37.54 121.69 28.43 119.76 20.28 117.83 17.71 115.15 16.86 110.44 22 106.15 23.5 102.4 17.28 98.65 13.85 96.61 12.57 88.47 5.82 81.93 2.28 75.39 1.75 67.78 3.03 61.14 5.5 56.53 9.25 52.89 13.64 49.14 14.71 42.6 20.93" style="fill:none;stroke:#1f1a17;stroke-miterlimit:10;stroke-width:0.190832617397852px"/>
  <path d="M493.07,257.35c0.65-2.87,1.8-5.64,6.27-7.79C493.41,251,492.3,253.53,493.07,257.35Zm33.06-.32c1.72,0.16,2.71.43,4.25-.33a14.07,14.07,0,0,0,6.36-6.52c-0.84,3.31-2.53,6.13-6,7.38C529,258.16,527.88,257.52,526.13,257Zm-44.33-7.14a49.82,49.82,0,0,1-6.13,2c-1.89,2.48-3,3.77-3.47,7.1-0.51-3.27-.62-3.88.84-6.33a7.06,7.06,0,0,0-1.38,1c-2,1.74-4.69,8.58-5.75,11,0.67-2.94,2.78-10.3,4.95-12.45,1.43-1.41,1.75-1.38,3.76-1.57Q478.21,250.29,481.8,249.89Zm17.83,13.91a4,4,0,0,1-.39-1.68,12.18,12.18,0,0,1-3.06,1.9c1.48-1.32,3.49-4.44,5-5.43,1.65-1.12,3.9-.9,5.83-1.79a11.73,11.73,0,0,1-2.36,1.54,4,4,0,0,1,2.59,3.3,11.46,11.46,0,0,1,3.64-.61A22.69,22.69,0,0,0,500.09,268a9,9,0,0,1,1.29-2.36A4,4,0,0,1,499.64,263.8Zm24.27-9.14a3.09,3.09,0,0,1,.67,1l0.27-.22-0.36-.77Zm-93.84,40.77a53.6,53.6,0,0,0,6.74,14.26v0.07a5.36,5.36,0,0,1-.8,2c-2,2.65-7-1.24-8.48-2.73a10,10,0,0,1-2.92-5.37c-0.18-1.32,0-1.35.92-2.28l3.72-3.77Zm0.75-22.24c-0.37.95-.71,1.93-1,2.94l-0.15.5c-1.94.82-4.49,1.34-5.46-.69a18.62,18.62,0,0,1-1.09-3.21c-3.19-3.31,1.58-7.67,4.18-9.23a14.25,14.25,0,0,0-.83,2c-0.79,2.73.36,5.17-2.12,7.14,1.16,2.35,1.11,3.29,3.82,2.2A8.87,8.87,0,0,0,430.82,273.18Zm-3.2-6.8a1.43,1.43,0,0,1,1.22.6,2.27,2.27,0,0,0-.91-2c0,0.15-.09.31-0.13,0.46A7.5,7.5,0,0,0,427.62,266.39Zm69.11,32.36c-0.66,2.36-1.55,4.58-2.36,7.13s-4.69,9.42-7,11.12a6,6,0,0,0,2.75.59c1,0.09,5.15.11,6.18,0.13,2.27,0,3.13-.13,3.36-2.71a3.29,3.29,0,0,0-.62-2.61q-0.08-3-.17-5.93a11.37,11.37,0,0,0-1.15-4.7A29.85,29.85,0,0,1,496.73,298.75Zm-11.06,19.49c-1.9,1.53-5.09,4.25-5.71,4.59-1.12,1.67-1.26,2.71-3.06,3.68-5.35,2.9-8.19-.46-11.36-5.34-1.51-2.33-4.81-7.64-1.31-9.44,1.48-.76,2.59-1.33,3.71-2a39.94,39.94,0,0,1-11-.1c0.07,0.45.12,0.88,0.17,1.28,0.24,2,.32,2.68-0.79,4.33a17.87,17.87,0,0,0-2.1,3.74,10.91,10.91,0,0,1-.4,4.64c-1.12,4.14-8.84,1.87-12,1-3.79-1-9.2-2-7-6.85a23.13,23.13,0,0,0,1.24-3.42c-3.31,1.47-7.92-1.64-10.11-3.84a12.68,12.68,0,0,1-3.61-6.87c-0.34-2,0-2,1.4-3.41l3.93-3.89,1.59-4.31a31.38,31.38,0,0,1-.45-3.21,34.1,34.1,0,0,1,.38-10.47c-2.3.9-4.95,0.48-6.13-2a16.07,16.07,0,0,1-1.05-3.25c-5.14-5,4.49-11.45,7.3-11.94-0.32.91-.67,1.75-1,2.58,1.91,1,1.67,3.8,1.27,5.61-0.69-.87-1.06-2-2.07-2-0.15,2-.12,4.31-1.72,5.51,0.47,1.27.45,1.27,1.79,0.75,1.91-.74,3.35-2.37,4.8-4a27.39,27.39,0,0,1,6.3-8.17c6.75-6,13.14-7.95,23.42-9.58,1.37-1.43,2.78-2.81,4.3-4.14a7.57,7.57,0,0,1,5.34-2.29c3.22-4.3,5.75-7.3,11-9.51,11-4.63,18.58-4.85,27.4,2.43,2.92,2.4,5.4,4.94,8.61,6.95a14.89,14.89,0,0,1,4,3.21,20,20,0,0,1,3.69,6.06,12.25,12.25,0,0,0,3.48-1.8c1.35-1.15,2.21-3.09,3.46-4.35,1.66-1.68,5.45.35,6.29,2,2.85,5.46,4,15.52,3.41,21.5-0.75,7.4-3.8,14.39-10.31,17.86-4.43,2.36-10.38,2.58-15.47,1.62l-1,3.26c-1,3.25-4.85,5.91-8.23,6.07s-5-1.52-7.12-3.57l-3.34-3.22c-0.06.73-.16,1.43-0.28,2.11,0.88,1.73,1.3,3.26,2,5a13.14,13.14,0,0,1,1.29,5.36l0.15,5.61a4.65,4.65,0,0,1,.79,3.54c-0.26,3.57-2.22,3.91-5.5,3.89-1.09,0-5.22,0-6.27-.06C487.77,319.26,486.39,319.1,485.67,318.23Zm-13-6.8-0.23-1.88a14.84,14.84,0,0,1,0-3.21l0.26-3.33c-0.32,1.13-1,2.25-1.29,3.38-0.13.45-.24,0.82-0.3,1.15a37.92,37.92,0,0,1-14.41.19c-0.31-1.78-.68-3.64-1-5-0.1,1.49,0,5.62,0,7.93a5.91,5.91,0,0,1-1,3.92,37.78,37.78,0,0,0-2.44,4.16,10.46,10.46,0,0,1-.3,4c-0.67,2.4-7.44.54-9.23,0.05-2.2-.6-6.75-1.5-5.6-4.43a37.76,37.76,0,0,0,2.14-8.91c-4-5.81-7.78-13.76-8.5-20.81-0.56-5.47-.22-8.84,1-12.19a31.2,31.2,0,0,1,8.72-13.6c5.68-5,11-7,19.32-8.26-2,2.24-4,4.61-6.14,7.15a36.27,36.27,0,0,0-4.87,8c-1.92,3.88-1.87,5.36.66,8.77,2.19,2.94,3.37,4.26,4.33,7.14a14.85,14.85,0,0,0-1.34,5.22c2.68,2.93,4.67,4.94,7.27,5.55a9.45,9.45,0,0,0,7-.68c5.07-2.59,9.76-5.94,15.48-6.08,2.65-6.51,2.38-11.94,1.11-18.24a91.12,91.12,0,0,1-1.49-12.75,30.46,30.46,0,0,0-.48,13c1,5.42,1.71,11.4-1,16.16-5.17.4-9.6,3.54-14.27,6a7.82,7.82,0,0,1-5.9.5c-1.93-.53-3.22-1.8-5.3-4.19,0-2.4.51-3.51,1.61-5.68,1.77-3.49,3.73-6.74,5.87-10.18a98.88,98.88,0,0,0-7.19,9c-0.79-2.25-1.92-3.4-3.79-5.93s-2-3.56-.65-6.43a28.92,28.92,0,0,1,4.88-7.94c4-4.37,7.75-9.23,12.17-13.53,2.4-2.34,3.38-2.25,6.56-2.74,2.88-.44,5.69-1,8.63-1.67-2.84.26-5.58,0.36-8.35,0.43h-0.09c2.72-3.47,4.3-5.41,8.72-7.33,10.88-4.72,17.79-5.23,26.33,1.95,2.21,1.86,4.15,3.67,6.39,5.27a8.09,8.09,0,0,0-2.44.58,10.27,10.27,0,0,1,3.61.21q0.49,0.32,1,.63a9.51,9.51,0,0,1,3.56,2.94,31.79,31.79,0,0,1,2.91,4.89c-0.55-.19-1-0.36-1.41-0.48a3,3,0,0,0-2.86.18l-0.07,0a13.4,13.4,0,0,1-3.14,1.06,3.75,3.75,0,0,0,2,0l0.2-.06a3,3,0,0,0-.08,2.93h0a1.66,1.66,0,0,0,.32.5c-0.42.15-.84,0.33-1.28,0.52a20.05,20.05,0,0,1,5.83-.1c0.13,0.62.26,1.28,0.38,2l-0.73.06h-0.06c-0.94-.75-2-0.62-3.4-0.3-4.33,1-3.31,3.42-5.31,7.08,2.07-2.53,1.92-5.18,5.29-6a5.44,5.44,0,0,1,1.85-.34,4.22,4.22,0,0,0-2.11,2.21c-0.93,2.61-.35,4.82-1.37,7.26,1.26-2.18,1.34-4.31,2.46-6.61a4.61,4.61,0,0,1,2.83-2.17l0.76,0a19.28,19.28,0,0,1,.27,4.09,45.76,45.76,0,0,1-1.06,6.66c1.14-1.47,1.66-4.57,2.16-6.76a19.14,19.14,0,0,0-.07-7.46c-0.63-3.36,2.83-2.81,4.84-4.39,1.47-1.16,2.49-3,3.84-4.34s3.45,0.61,4,1.89a47,47,0,0,1,2.73,19.82c-0.68,6.26-3.7,13.1-9.22,16.18-7,3.93-15.34,1.53-22.33-.83a17.15,17.15,0,0,1-3.84-2.06,9.84,9.84,0,0,1,0,4.92c-0.75,2.55-2,6.72,1.49,7.49,1.32,0.29,1.91.25,3.77-.71a7,7,0,0,1-3.3.07,2.15,2.15,0,0,1-1.7-1.47,5.61,5.61,0,0,0,1.77.58c2.57,0.62,5-.62,5.49-2.4a15.87,15.87,0,0,1,.82-3c0.53,0.16,1.08.31,1.64,0.45l-1,3.11A7.54,7.54,0,0,1,508,299c-2.62,0-4.29-1.69-6.1-3.3l-3.64-3.22a28.09,28.09,0,0,1-8.91-4.48c2.16,2.53,3.62,3.94,6.62,5.2-0.44,4.46-2,7.71-3.31,12-0.6,1.93-5.32,9.66-6.63,10.42-0.93.54-6.78,5.46-7.88,6.11-0.82,1.09-1.54,2.59-2.77,3.24-3.75,2-6.16-1.81-8.18-5-0.92-1.46-3.47-5.67-1.25-6.85a58.75,58.75,0,0,0,5.43-3.32C471.74,310.31,472.28,310.86,472.63,311.44Zm32.59-27.66c0.68-.37,1.91-0.88,2.6-1.25-0.7.12-2,.38-2.65,0.49-1.87.32-2.09,0.76-2.38,2.6-0.14.87-.32,1.94-0.46,2.81,0.37-1,.81-2.12,1.23-3.05A2.72,2.72,0,0,1,505.22,283.78Z" transform="translate(-419.87 -232)" style="fill-rule:evenodd"/>
  <path d="M500.41,264.72a1.67,1.67,0,0,1,3-1.43,1.7,1.7,0,0,1,.09.24,10.55,10.55,0,0,0-2.13,2.08,1.82,1.82,0,0,1-1-.89" transform="translate(-419.87 -232)" style="fill:#ffc;fill-rule:evenodd"/>
  <path d="M518.93,257.56a1.23,1.23,0,0,1,1.34-1.12,1.25,1.25,0,0,1,1,1.77,10.75,10.75,0,0,0-1.9.53,1.66,1.66,0,0,1-.45-1.18" transform="translate(-419.87 -232)" style="fill:#ffc;fill-rule:evenodd"/>
</svg>