<?xml version="1.0" encoding="utf-8" ?>
<!-- Generator: Adobe Illustrator 19.2.1, SVG Export Plug-In . SVG Version: 6.00 Build 0)  -->
<svg version="1.1" id="Layer_1" xmlns="http://www.w3.org/2000/svg" xmlns:xlink="http://www.w3.org/1999/xlink" x="0px" y="0px"
     viewBox="0 0 20 20" enable-background="new 0 0 20 20" xml:space="preserve">
<g>
<path fill="#48525E" d="M10.1,4.3C9.8,4.4,9.6,4.5,9.3,4.5C8.8,4.6,8.4,4.6,8.2,4.7C7.8,4.9,7.5,5.3,7.5,5.8
		c-0.1,0.5-0.2,1-0.1,1.5c0.1-0.5,0.3-1.1,0.6-1.6C8,5.5,8.1,5.4,8.2,5.3c-0.1,0.1-0.1,0.3,0,0.4c0,0.2,0.1,0.5,0.1,0.7
		c0-0.4,0.1-0.8,0.3-1.2c0.2-0.2,0.4-0.4,0.7-0.4C9.6,4.6,9.9,4.5,10.1,4.3z" />
<path fill="#48525E" d="M9.2,17.6c1.9,0.5,3.6,0.6,4-0.2c0,0-0.7-0.6-1.5-1.1C11.1,17,10.2,17.4,9.2,17.6z" />
<path fill="#48525E" d="M10.6,15.4c-0.1-0.1-0.2-0.2-0.3-0.3c-1,1-2.3,1.6-3.7,1.6c0.6,0.2,1.2,0.5,1.9,0.7c1.1-0.1,2.2-0.5,3-1.3
		C11.2,15.9,10.9,15.6,10.6,15.4z" />
<path fill="#48525E" d="M9.5,13.9c-2.4,1.8-5.8,1.3-7.5-1.2c-0.1-0.2-0.2-0.3-0.3-0.5c0.2,0.9,0.6,1.7,1.2,2.3
		c0.8,0.7,1.7,1.3,2.7,1.7c0.3,0.1,0.6,0.1,0.9,0.1c1.3,0,2.6-0.5,3.5-1.5C9.8,14.6,9.6,14.2,9.5,13.9z" />
<path fill="#48525E" d="M20,6c-0.1-2.7-0.8-3.5-1-3.5c-0.3,0.1-0.4,0.5-0.7,0.7c-0.3,0.1-0.6,0.3-0.9,0.5c-0.2,0.2,0.2,0.9,0.1,2.5
		c0,0.8-0.4,1.6-1,2.1c0.2-0.3,0.4-0.7,0.5-1.1c0.1-0.2-0.1-0.5-0.3-0.5c-0.2-0.2-0.6,0.1-0.8,0.4c0.2-0.2,0.4-0.4,0.3-0.7
		C16,6,15.6,6,15.3,6.2c0.1-0.1,0.4-0.1,0.4-0.4c0-0.3-0.3-0.4-0.5-0.4c-0.1,0-0.1,0-0.2,0.1c0.3-0.2,0.6-0.2,0.8-0.1
		c0.3,0,0.2-0.3,0-0.6c-0.2-0.3-0.4-0.5-0.7-0.6C14.9,4,14.6,4,14.4,4c0.2-0.1,0.4-0.2,0.6-0.2c-0.3-0.4-1.2-1.8-2.7-1.8
		C9.5,1.9,8.7,3.7,8.7,3.7L10,3.6C9.6,3.7,9.2,3.8,8.7,3.9C8.5,4,8.2,4,8,4.1C7.6,4.1,6.9,5.1,6.2,5.9S4.7,7.8,4.7,8.2
		c0,0.4,0.4,0.7,0.7,1.1c0.1,0.2,0.2,0.3,0.3,0.5l0.9-1.2L5.4,11c0.3,0.4,0.7,0.6,1.1,0.7c0.4-0.1,1.4-0.9,2.1-1
		c0.3-0.1,0.6-0.1,0.9-0.1c0.2-0.7,0.3-1.3,0.2-2C9.4,7.1,9.7,6.3,10,5.8c-0.2,2,0.4,2.1,0.4,3.4c-0.1,0.7-0.2,1.4-0.3,2
		c-0.5-0.2-1.1-0.2-1.6,0.1c-0.7,0.4-1.3,0.9-2,0.9S4.7,11,4.7,11l0.5-0.8C5.2,10,5.1,9.9,5,9.7C4.6,9.3,4.3,8.8,4.1,8.3
		c0-0.7,0.7-1.5,0.9-1.9c0.3-0.5,0.7-0.9,1.1-1.3c0,0-2.3,0.4-3.3,1.6C1.6,8.2,1.4,8.6,1,8.7c-0.3,0-0.5-0.2-0.6-0.5
		c0,0,0.3,0.1,0.3-0.4C0.7,7.4,0.7,7,0.9,6.7C0.5,6.9,0.2,7.3,0,7.6c-0.1,0.2,0,0.5,0.2,0.6c0,0.4,0.2,0.8,0.5,1
		C1,9.4,1.3,9.4,1.5,9.3c0,0.5,0,1.1,0,1.6c0.6,2.2,2.6,3.7,4.8,3.7c1.2,0,2.3-0.4,3.2-1.2c0.2-0.5,0.6-0.8,1.1-1
		c1.3-0.3,1.5-0.6,1.5-0.6c-0.3-0.2-0.6-0.5-0.8-0.8C11.1,11,11,10.8,11,10.6c0.4,0.4,0.9,0.7,1.4,0.9c0.3,0.4,0.7,0.7,1.1,0.9
		c1.4,0.6,1.8-1.2,1.8-1.2H15c0,0-0.4,0.9-1,0.8c-1.2-0.1-0.8-2.7-0.8-2.7c0.9,1.2,2.3,1.8,3.7,1.8C18.4,11.2,20.1,9.3,20,6z
		 M11.4,5.8c0-0.5,0.1-0.9,0.3-1.4c0.4-0.1,0.7-0.1,1.1,0.1c-0.3,0-0.6,0.1-0.8,0.3C11.8,5.1,11.6,5.5,11.4,5.8z M13.4,6.9
		c-0.3,0.2-0.5,0.5-0.7,0.7c0-0.1,0.1-0.2,0.1-0.3L13,7.1c-0.1,0-0.2-0.1-0.3-0.2c-0.1-0.1-0.1-0.2-0.1-0.3c-0.1,0-0.1,0.1-0.1,0.1
		L12.2,7c0.2-0.4,0.5-0.7,0.8-1c0.3-0.2,0.6-0.3,1-0.3c-0.1,0-0.2,0-0.2,0.1c-0.1,0-0.1,0.1-0.2,0.1c0.1,0,0.2,0.1,0.3,0.2
		C14,6.2,14,6.3,14,6.5c0.1,0,0.1,0,0.2-0.1c0.1-0.1,0.2-0.2,0.3-0.2C14.1,6.4,13.8,6.6,13.4,6.9L13.4,6.9z M18.5,3.8
		c-0.4,0.3-0.8,0.3-0.9,0.2c0-0.1,0-0.1,0-0.1c0.3-0.1,0.5-0.2,0.7-0.4C18.7,3.2,19,2.7,19,2.8C19,3.2,18.8,3.6,18.5,3.8z" />
</g>
</svg>
