<?xml version="1.0" encoding="utf-8"?>
<!-- Generator: Adobe Illustrator 19.2.1, SVG Export Plug-In . SVG Version: 6.00 Build 0)  -->
<svg version="1.1" id="Layer_1" xmlns="http://www.w3.org/2000/svg" xmlns:xlink="http://www.w3.org/1999/xlink" x="0px" y="0px"
	 viewBox="0 0 24 16" enable-background="new 0 0 24 16" xml:space="preserve">
<g>
	<path fill="#596474" d="M14.6,10.4C13.6,13.1,11,15,8,15c-3.9,0-7-3.1-7-7s3.1-7,7-7c3,0,5.6,1.9,6.6,4.6h1.1C14.6,2.4,11.6,0,8,0
		C3.6,0,0,3.6,0,8s3.6,8,8,8c3.6,0,6.6-2.4,7.6-5.6H14.6z"/>
	<g>
		<polygon fill="#596474" points="8.3,7.7 8.3,4.5 7.7,4.5 7.7,7.7 4.5,7.7 4.5,8.3 7.7,8.3 7.7,11.5 8.3,11.5 8.3,8.3 11.5,8.3 
			11.5,7.7 		"/>
		<path fill="#596474" d="M8.5,11.8h-1V8.5H4.3v-1h3.2V4.3h1v3.2h3.2v1H8.5V11.8z M8,11.3L8,11.3L8,8h3.2v0H8V4.8h0V8H4.8v0H8V11.3z
			"/>
	</g>
	<polygon fill="#0095C7" points="17.2,4.1 18.6,2.9 24,8 18.6,13.1 17.2,11.9 20.4,8.9 13,8.9 13,7.1 20.4,7.1 	"/>
</g>
</svg>
