<?xml version="1.0" encoding="utf-8"?>
<!-- Generator: Adobe Illustrator 19.2.1, SVG Export Plug-In . SVG Version: 6.00 Build 0)  -->
<svg version="1.1" id="Layer_1" xmlns="http://www.w3.org/2000/svg" xmlns:xlink="http://www.w3.org/1999/xlink" x="0px" y="0px"
	 viewBox="0 0 24 16" enable-background="new 0 0 24 16" xml:space="preserve">
<g>
	<path fill="#596474" d="M16,0c-3,0-5.6,1.6-7,4.1l0.8,0.7C11,2.5,13.3,1,16,1c3.9,0,7,3.1,7,7s-3.1,7-7,7c-2.7,0-5-1.5-6.2-3.8
		L9,11.9c1.4,2.4,4,4.1,7,4.1c4.4,0,8-3.6,8-8S20.4,0,16,0z"/>
	<g>
		<polygon fill="#596474" points="16.3,7.7 16.3,4.5 15.7,4.5 15.7,7.7 12.5,7.7 12.5,8.3 15.7,8.3 15.7,11.5 16.3,11.5 16.3,8.3 
			19.5,8.3 19.5,7.7 		"/>
		<path fill="#596474" d="M16.5,11.7h-1V8.5h-3.2v-1h3.2V4.2h1v3.2h3.2v1h-3.2V11.7z M16,11.2L16,11.2L16,8h3.2v0H16V4.7h0V8h-3.2v0
			H16V11.2z"/>
	</g>
	<polygon fill="#0095C7" points="4.2,4.1 5.6,2.9 11,8 5.6,13.1 4.2,11.9 7.4,8.9 0,8.9 0,7.1 7.4,7.1 	"/>
</g>
</svg>
