<?xml version="1.0" encoding="utf-8"?>
<!-- Generator: Adobe Illustrator 19.1.0, SVG Export Plug-In . SVG Version: 6.00 Build 0)  -->
<svg version="1.1" id="Layer_1" xmlns="http://www.w3.org/2000/svg" xmlns:xlink="http://www.w3.org/1999/xlink" x="0px" y="0px"
	 width="16px" height="16px" viewBox="0 0 16 16" enable-background="new 0 0 16 16" xml:space="preserve">
<path d="M4.5,0l7,0v0.5c0,0.406-0.087,0.779-0.262,1.117c-0.174,0.34-0.42,0.631-0.738,0.875v3.859
	c0.308,0.146,0.585,0.328,0.832,0.547c0.248,0.218,0.457,0.464,0.629,0.738s0.305,0.568,0.398,0.883
	C12.453,8.835,12.5,9.162,12.5,9.5V10h-4v5L8,16l-0.5-1v-5h-4V9.5c0-0.338,0.047-0.664,0.141-0.98
	C3.734,8.205,3.867,7.91,4.039,7.636s0.382-0.52,0.629-0.738C4.916,6.68,5.193,6.498,5.5,6.352V2.492
	C5.183,2.248,4.937,1.957,4.762,1.617C4.587,1.279,4.5,0.906,4.5,0.5V0z M5.586,1C5.628,1.125,5.68,1.232,5.742,1.32
	c0.063,0.09,0.132,0.168,0.207,0.238c0.076,0.07,0.16,0.137,0.254,0.195C6.297,1.814,6.396,1.875,6.5,1.938v5.101L6.164,7.156
	c-0.411,0.146-0.76,0.383-1.047,0.711C4.831,8.195,4.644,8.574,4.555,9h6.891c-0.088-0.426-0.275-0.805-0.563-1.133
	c-0.286-0.328-0.635-0.564-1.047-0.711L9.5,7.039V1.938c0.104-0.063,0.203-0.123,0.297-0.184c0.094-0.059,0.179-0.125,0.254-0.195
	c0.076-0.07,0.145-0.148,0.207-0.238C10.32,1.232,10.373,1.125,10.414,1H5.586z"/>
</svg>
