<?xml version="1.0" encoding="utf-8"?>
<!-- Generator: Adobe Illustrator 18.0.0, SVG Export Plug-In . SVG Version: 6.00 Build 0)  -->
<svg version="1.1" id="Layer_1" xmlns="http://www.w3.org/2000/svg" xmlns:xlink="http://www.w3.org/1999/xlink" x="0px" y="0px"
	 width="16px" height="16px" viewBox="0 0 16 16" enable-background="new 0 0 16 16" xml:space="preserve">
<path fill="#48525E" d="M12.1,10.9l0.7,0.7C11.7,13.1,10,14,8,14c-3.3,0-6-2.6-6.1-5.8l0-0.1l0,0.1L0.7,9.4L0,8.7l2.1-2.1l0.4-0.4
	l0.6,0.6L5,8.7L4.3,9.4L2.9,8c0,0,0,0.1,0,0.1C3,10.9,5.3,13,8,13C9.7,13,11.2,12.2,12.1,10.9z M15.3,6.6l-1.2,1.2
	c0-1.2-0.4-2.3-1.1-3.2C11.9,3,10.1,2,8,2C6,2,4.2,3,3.1,4.5l0.7,0.7C4.7,3.9,6.3,3,8,3c1.8,0,3.3,0.9,4.3,2.3C12.8,6,13.1,7,13.1,8
	l-1.4-1.3L11,7.3l1.9,1.9l0.6,0.6l0.4-0.4L16,7.3L15.3,6.6z"/>
</svg>
