<?xml version="1.0" encoding="utf-8"?>
<!-- Generator: Adobe Illustrator 18.0.0, SVG Export Plug-In . SVG Version: 6.00 Build 0)  -->
<!DOCTYPE svg PUBLIC "-//W3C//DTD SVG 1.1//EN" "http://www.w3.org/Graphics/SVG/1.1/DTD/svg11.dtd">
<svg version="1.1" xmlns="http://www.w3.org/2000/svg" xmlns:xlink="http://www.w3.org/1999/xlink" x="0px" y="0px"
	 viewBox="0 0 20 20" enable-background="new 0 0 20 20" xml:space="preserve">
<g id="Layer_1">
	<g>
		<polygon points="10,3.55 10,16.573 13.263,13.705 15.127,18.589 16.679,17.814 14.897,12.62 18.534,12.465 		" fill="#48525E" />
	</g>
	<rect x="1" y="12" width="2" height="2" fill="#48525E"/>
	<rect x="1" y="15" width="2" height="2" fill="#48525E"/>
	<rect x="1" y="17" width="2" height="2" fill="#48525E"/>
	<rect x="3" y="17" width="2" height="2" fill="#48525E"/>
	<rect x="6" y="17" width="2" height="2" fill="#48525E"/>
	<rect x="9" y="17" width="2" height="2" fill="#48525E"/>
	<rect x="1" y="9" width="2" height="2" fill="#48525E"/>
	<rect x="1" y="6" width="2" height="2" fill="#48525E"/>
	<rect x="6" y="1" width="2" height="2" fill="#48525E"/>
	<rect x="9" y="1" width="2" height="2" fill="#48525E"/>
	<rect x="12" y="1" width="2" height="2" fill="#48525E"/>
	<rect x="15" y="1" width="2" height="2" fill="#48525E"/>
	<rect x="17" y="1" width="2" height="2" fill="#48525E"/>
	<rect x="17" y="3" width="2" height="2" fill="#48525E"/>
	<rect x="17" y="6" width="2" height="2" fill="#48525E"/>
	<rect x="1" y="3" width="2" height="2" fill="#48525E"/>
	<rect x="1" y="1" width="2" height="2" fill="#48525E"/>
	<rect x="3" y="1" width="2" height="2" fill="#48525E"/>
</g>
<g id="Layer_2" display="none">
</g>
</svg>
