<?xml version="1.0" encoding="utf-8"?>
<!-- Generator: Adobe Illustrator 19.1.1, SVG Export Plug-In . SVG Version: 6.00 Build 0)  -->
<svg version="1.1"
	 id="svg3614" xmlns:dc="http://purl.org/dc/elements/1.1/" xmlns:svg="http://www.w3.org/2000/svg" xmlns:cc="http://creativecommons.org/ns#" xmlns:rdf="http://www.w3.org/1999/02/22-rdf-syntax-ns#"
	 xmlns="http://www.w3.org/2000/svg" xmlns:xlink="http://www.w3.org/1999/xlink" x="0px" y="0px" viewBox="301.5 0.5 84 84"
	 style="enable-background:new 301.5 0.5 84 84;" xml:space="preserve">
<style type="text/css">
	.st0{fill:url(#path3639_1_);}
	.st1{fill:url(#path3667_1_);}
	.st2{fill:url(#path2851_1_);}
</style>
<g id="layer1" transform="translate(-220.96887,-214.23042)">
	<g id="g3545" transform="matrix(0.87205879,0,0,0.87205879,-814.02071,35.444919)">
		<g id="layer1-2" transform="matrix(0.65282401,0,0,0.65282401,1153.1248,109.92721)">
			
				<linearGradient id="path3639_1_" gradientUnits="userSpaceOnUse" x1="-490.2794" y1="1694.6426" x2="-403.6936" y2="1745.8047" gradientTransform="matrix(0.3813 0 0 -0.3813 796.7675 925.6824)">
				<stop  offset="0" style="stop-color:#909CA9"/>
				<stop  offset="1" style="stop-color:#EDEDEE"/>
			</linearGradient>
			<path id="path3639" class="st0" d="M672.7,215.4l-29.6,9.6l-25.7,11.4l-7.2,1.9c-1.8,1.7-3.8,3.5-5.8,5.3c-2.3,2-4.4,3.8-6,5.1
				c-1.8,1.4-4.5,4.1-5.9,5.8c-2,2.5-3.6,5.3-4.3,7.3c-1.2,3.7-0.6,7.5,1.7,11.1c3,4.5,9.1,9,16.1,12.1c3.6,1.6,9.7,3.6,14.2,4.8
				c7.6,1.9,22.2,4,30.3,4.3c1.6,0.1,3.8,0.1,3.9,0c0.2-0.1,1.4-2.5,2.9-5.5c5-10.1,8.5-19.6,10.5-27.7c1.2-4.9,2.1-11.5,2.7-19.2
				c0.2-2.2,0.2-9.4,0.1-11.9c-0.2-4-0.6-7.3-1.1-10.5c-0.1-0.5-0.1-0.9-0.1-0.9c0.1-0.1,0.4-0.2,4-1.2L672.7,215.4L672.7,215.4z
				 M666,219.4c0.3,0,1,6.9,1.2,11.2c0,0.9,0,1.5,0,1.5c-0.2,0-3.8-2.1-6.3-3.7c-2.2-1.4-6.5-4.2-7.1-4.7c-0.2-0.2-0.2-0.2,1.6-0.8
				C658.4,221.7,665.7,219.4,666,219.4L666,219.4z M650.9,224.3c0.2,0,0.7,0.3,1.9,1.1c4.6,2.9,10.9,6.4,13.5,7.5
				c0.8,0.4,0.9,0.2-1,1.5c-4.1,2.8-9.1,5.5-15.4,8.2c-1.1,0.5-2,0.9-2,0.9s0.1-0.5,0.3-1.2c1.5-5.6,2.4-11.2,2.4-15.7
				C650.6,224.4,650.7,224.4,650.9,224.3C650.9,224.3,650.9,224.3,650.9,224.3L650.9,224.3z M647.8,225.5c0.1,0.1,0,5.1-0.1,6.5
				c-0.4,3.3-1,6.3-2.1,9.7c-0.2,0.8-0.5,1.5-0.5,1.6c-0.1,0.1-3.1-2.9-4.2-4.1c-1.7-2-3.1-4-4.1-6c-0.5-1-1.3-3-1.2-3
				C635.9,230,647.7,225.4,647.8,225.5L647.8,225.5z M633.2,231.3C633.2,231.3,633.3,231.3,633.2,231.3c0.1,0.1,0.3,0.4,0.4,0.8
				c0.7,1.9,2.3,4.8,3.7,6.6c1.5,2,3.5,4.1,5.2,5.6c0.5,0.5,1,0.9,1.1,0.9c0.1,0.1,0.2,0.1-3.5,1.5c-4.2,1.6-8.8,3.2-14.1,4.9
				c-2,0.7-3.7,1.2-3.8,1.2c-0.2,0.1-0.1,0,0.4-1c2.6-4.1,6.6-12.1,8.8-17.8c0.4-1,0.8-2,0.8-2.2c0.1-0.3,0.2-0.4,0.5-0.6
				C633,231.3,633.1,231.3,633.2,231.3L633.2,231.3z M628.7,233.1c0.1,0.1-1.1,2.4-2.2,4.6c-2.2,4.2-4.5,8.4-7.7,13.4
				c-0.5,0.9-1,1.7-1.1,1.8c-0.1,0.2-0.2,0.1-0.5-0.6c-0.8-1.5-1.4-3.4-1.7-5.2c-0.3-1.7-0.3-4.8,0.1-6.7c0.3-1.4,0.3-1.4,0.9-1.7
				C619.4,237.4,628.6,233,628.7,233.1z M667.3,234.7v0.9c0,5-0.5,11.8-1.3,16.8c-0.1,0.9-0.3,1.6-0.3,1.6c0,0-0.6-0.2-1.4-0.4
				c-3.4-1-7-2.6-10.3-4.4c-2.2-1.2-5.3-3.1-5.2-3.2c0,0,0.9-0.5,2.1-1.1c4.4-2.3,8.6-4.7,12.2-7.2c1.4-0.9,3.4-2.4,3.9-2.8
				L667.3,234.7z M611.9,241.3c0.1,0,0.1,0.2-0.1,1c-0.1,0.6-0.2,1.7-0.3,2.4c-0.2,3.3,0.4,5.7,2,9c0.5,0.9,0.8,1.7,0.8,1.7
				c-0.2,0.1-14.9,4.5-19.6,5.7c-1.4,0.4-2.6,0.7-2.7,0.7c-0.2,0-0.2,0-0.1-0.4c0.5-3.3,3-7.6,6.5-11.2c2.3-2.4,4.2-3.8,7.3-5.6
				C608,243.3,611.5,241.4,611.9,241.3C611.8,241.3,611.8,241.3,611.9,241.3L611.9,241.3z M646.7,247.5c0,0,0.6,0.3,1.2,0.7
				c4.8,2.8,11.4,5.3,17.1,6.6l0.5,0.1l-0.7,0.4c-3,1.6-12.7,5.7-22.7,9.5c-1.5,0.5-2.9,1.1-3.2,1.2c-0.3,0.1-0.5,0.2-0.5,0.2
				s0.4-0.8,0.9-1.8c2.8-5.2,5.6-11.6,7-16C646.6,247.9,646.7,247.5,646.7,247.5L646.7,247.5z M643.2,248.7c0,0-0.2,0.5-0.4,1
				c-1.9,4.7-4.5,9.8-7.8,15.6c-0.8,1.5-1.5,2.7-1.6,2.7s-0.7-0.4-1.5-0.9c-4.7-2.9-8.9-6.5-11.7-9.9l-0.4-0.5l2-0.6
				c7.3-2,13.5-4.1,19.6-6.8C642.4,249,643.1,248.7,643.2,248.7L643.2,248.7z M665.2,256.4C665.2,256.4,665.2,256.4,665.2,256.4
				c0,0.5-1.1,5.1-2.1,8.4c-0.8,2.8-1.4,5-2.7,8.8c-0.5,1.7-1,3.1-1,3.1c0,0-0.2,0-0.3-0.1c-6.6-1.2-12.6-2.9-18.2-5.1
				c-1.6-0.6-3.8-1.6-3.9-1.7c0,0,1.3-0.7,3-1.4c10.2-4.4,20.7-9.5,24.3-11.7C664.8,256.5,665.1,256.4,665.2,256.4L665.2,256.4z
				 M614.3,258.1c0.1,0.1-2.8,4.1-6.8,9.7c-1.4,1.9-3,4.2-3.6,5.1s-1.5,2.2-2,3l-0.9,1.4l-1-0.8c-1.2-1-3.2-3.1-4.2-4.2
				c-1.9-2.4-3.2-4.9-3.7-7.2c-0.2-1.1-0.2-1.6,0-1.7c0.3-0.1,6.3-1.5,11.9-2.8c3.1-0.7,6.7-1.6,8-1.9S614.3,258.1,614.3,258.1
				L614.3,258.1z M617.1,259.2l0.7,0.8c3.2,3.6,6.5,6.3,10.5,8.6c0.7,0.4,1.2,0.8,1.2,0.8c-0.2,0.1-13.8,5-20.1,7.2
				c-3.6,1.2-6.5,2.3-6.5,2.2c0,0-0.2-0.1-0.4-0.3l-0.4-0.3l0.6-0.9c2.1-3,4.7-6.4,10.5-13.3L617.1,259.2L617.1,259.2z M635,272
				c0,0,1,0.3,2.2,0.8c2.9,1.1,5.2,1.8,8.3,2.6c3.8,0.9,9.3,1.9,12.5,2.2c0.5,0,0.8,0.1,0.7,0.1c-0.2,0.1-3.4,1.2-5.9,2
				c-3.8,1.2-15.6,4.7-25.1,7.4c-1.8,0.5-3.3,0.9-3.4,1c-0.2,0-1-0.2-1-0.3c0,0,0.5-0.7,1.2-1.5c3.2-3.8,6.4-8.1,9.1-12.2
				C634.3,272.9,635,272,635,272L635,272z M631,272.1c0,0-1.6,2.6-4.3,7c-1.2,1.9-2.5,4-3,4.7s-1.1,1.8-1.5,2.5l-0.7,1.1l-0.3-0.1
				c-0.8-0.2-6.5-2.2-7.9-2.8c-1.8-0.7-3.8-1.6-5.2-2.4c-1.8-1-4-2.4-3.9-2.4c0.1,0,3.1-0.9,6.8-1.9c9.8-2.7,15.2-4.2,18.8-5.3
				C630.5,272.2,631,272.1,631,272.1L631,272.1z M658.8,278.6C658.8,278.6,658.9,278.6,658.8,278.6c0.1,0.2-3.5,10.3-4.8,13.5
				c-0.3,0.7-0.4,0.9-0.6,0.9c-0.4,0-5.6-0.8-8.8-1.2c-5.6-0.8-14.9-2.5-17.2-3l-0.5-0.1l3.3-0.8c7.2-1.6,10.6-2.5,14.1-3.5
				c4.4-1.3,8.7-3,13.1-5.1C658.1,278.9,658.7,278.6,658.8,278.6L658.8,278.6z"/>
			
				<linearGradient id="path3667_1_" gradientUnits="userSpaceOnUse" x1="-489.7641" y1="2006.7512" x2="-420.0948" y2="2006.7512" gradientTransform="matrix(0.3813 0 0 -0.3813 796.7675 925.6824)">
				<stop  offset="0" style="stop-color:#939FAB"/>
				<stop  offset="1" style="stop-color:#DCDEE1"/>
			</linearGradient>
			<path id="path3667" class="st1" d="M642.2,146.5c-0.5-0.1-8.4,2.8-13.5,4.9c-6.9,2.8-12.3,5.5-15.6,7.8c-1.2,0.9-2.8,2.4-3,3
				c-0.1,0.2-0.1,0.5-0.1,0.8l3,2.8l7.1,2.3l17,3l19.4,3.3l0.2-1.7c-0.1,0-0.1,0-0.2,0l-2.6-0.4l-0.5-0.9
				c-2.6-4.6-5.5-10.4-7.2-14.3c-1.3-3-2.6-6.5-3.3-9C642.5,146.7,642.5,146.6,642.2,146.5L642.2,146.5z M641.9,147.7
				C641.9,147.7,641.9,147.7,641.9,147.7c0,0,0.1,0.6,0.2,1.4c0.4,3.1,1.1,6.2,2.2,9.4c0.8,2.5,0.8,2.3-0.1,2
				c-2.3-0.6-12.5-2.4-19.9-3.4c-1.2-0.2-2.2-0.3-2.2-0.3c-0.1-0.1,5.3-2.9,7.7-4.1C632.9,151.3,641.3,147.8,641.9,147.7z
				 M620.3,157.7l0.9,0.3c4.7,1.6,16.6,3.9,23.2,4.4c0.7,0.1,1.4,0.1,1.4,0.1c0,0-0.6,0.4-1.4,0.7c-3.2,1.6-6.7,3.5-9.1,5
				c-0.7,0.4-1.4,0.8-1.4,0.8c-0.1,0-0.6-0.1-1-0.2l-0.9-0.1l-2.2-2.2c-3.9-3.8-7-6.8-8.2-7.9L620.3,157.7z M619.5,158.4l3.1,3.9
				c1.7,2.2,3.5,4.3,3.8,4.8c0.4,0.5,0.7,0.9,0.7,0.9c-0.1,0.1-4.6-0.8-6.9-1.3c-2.4-0.6-3.4-0.8-4.9-1.3l-1.2-0.4l0-0.3
				c0-1.5,1.9-3.7,5.1-6L619.5,158.4L619.5,158.4z M646.2,163.7c0.1,0,0.2,0.2,0.5,0.8c0.8,1.7,3.1,6.2,3.7,7.1
				c0.2,0.3,0.5,0.3-2.7-0.2c-7.6-1.2-10-1.6-10-1.7c0,0,0.2-0.2,0.5-0.3c2.3-1.3,4.7-2.9,6.8-4.7c0.5-0.4,1-0.8,1.1-0.9
				C646.2,163.7,646.2,163.7,646.2,163.7L646.2,163.7z"/>
			
				<radialGradient id="path2851_1_" cx="-852.1417" cy="518.5996" r="92.4991" gradientTransform="matrix(-0.3664 -5.540111e-002 -0.1106 0.7317 399.2229 -226.5965)" gradientUnits="userSpaceOnUse">
				<stop  offset="0" style="stop-color:#EE352C"/>
				<stop  offset="1" style="stop-color:#A91D22"/>
			</radialGradient>
			<path id="path2851" class="st2" d="M610.3,161.9c0,0-0.5,0.8,0,1.9c0.3,0.7,1.1,1.6,2.1,2.5c0,0,9.9,9.7,11.1,11.1
				c5.5,6.3,7.9,12.6,8.1,21.2c0.1,5.5-0.9,10.4-3.5,16.1c-4.6,10.1-14.4,21.3-29.6,33.8l2.2-0.7c1.4-1.1,3.4-2.2,7.9-4.7
				c10.5-5.8,22.4-11.1,36.9-16.5c20.9-7.9,55.3-17.1,74.8-20.1l2-0.3l-0.3-0.5c-1.8-2.8-3-4.5-4.5-6.3c-4.3-5.3-9.5-9.6-15.8-13.2
				c-8.7-4.9-20.1-8.7-34.4-11.6c-2.7-0.5-8.6-1.6-13.5-2.3c-10.2-1.6-16.8-2.7-24.1-3.9c-2.6-0.5-6.5-1.1-9.1-1.7
				c-1.3-0.3-3.9-0.9-5.9-1.6C613.1,164.5,610.8,163.8,610.3,161.9L610.3,161.9z M616,167.5c0,0,0.4,0.1,0.8,0.3
				c0.8,0.3,1.9,0.6,3.2,1c0.9,0.3,1.9,0.5,2.9,0.8c1.3,0.3,2.5,0.6,2.5,0.7c0.1,0.2,2.4,7.4,3.2,10.1c0.3,1.1,0.5,1.9,0.5,2
				c0,0-0.3-0.4-0.6-0.9c-2.6-4.6-6.7-9.3-11.5-13C616.5,167.9,616,167.5,616,167.5z M627,170.6c0.1,0,0.6,0.1,1.2,0.2
				c3.8,0.8,10.6,2.2,15,2.9c0.7,0.1,1.3,0.3,1.3,0.3c0,0-0.3,0.2-0.6,0.4c-0.7,0.4-3.7,2.1-4.7,2.8c-2.5,1.7-4.7,3.4-6.3,5
				c-0.7,0.6-1.2,1.2-1.2,1.2s-0.1-0.4-0.3-0.8c-0.8-3.1-2.5-7.7-4-10.9C627.2,171.1,627,170.6,627,170.6
				C627,170.6,627,170.6,627,170.6L627,170.6z M646.4,174.2c0.1,0,0.4,0.8,0.8,2.5c0.8,3.2,1.2,6.9,1.1,10.2c0,0.9-0.1,1.8-0.1,1.9
				l-0.1,0.2l-1.2-0.4c-2.4-0.8-6.3-1.9-9.6-2.8c-1.9-0.5-3.4-1-3.4-1c0-0.1,2.8-2.9,4-4C640.1,178.9,646.2,174.2,646.4,174.2
				L646.4,174.2z M647.9,174.5c0.1-0.1,9.2,1.5,13.4,2.3c3.1,0.6,7.6,1.5,7.9,1.7c0.1,0.1-0.3,0.3-1.8,1c-5.9,2.7-10.3,5-14.6,8
				c-1.1,0.8-2.1,1.4-2.1,1.4c0,0,0-0.6,0-1.4c0-4.2-0.8-8.5-2.4-12.1C648,174.8,647.9,174.5,647.9,174.5L647.9,174.5z M671.6,179.2
				c0.1,0.1-0.2,1.9-0.5,2.9c-0.8,3.3-3,8.3-5.6,12.9c-0.5,0.8-0.9,1.5-0.9,1.5c0,0-0.7-0.3-1.3-0.7c-2.6-1.5-5.5-3-8.8-4.3
				c-0.9-0.4-1.7-0.7-1.7-0.7c-0.1-0.1,7-4.9,10.8-7.2C666.7,181.8,671.6,179.1,671.6,179.2z M673.3,179.4c0.2,0,4.3,1.1,6.4,1.7
				c5.2,1.6,11.3,3.8,15.2,5.6l1.6,0.7l-1.1,0.3c-9.6,2.2-17.8,4.7-25.7,8c-0.7,0.3-1.2,0.5-1.3,0.5c0,0,0.2-0.5,0.5-1.1
				c2.4-5.1,3.9-10.4,4.3-14.9C673.2,179.8,673.3,179.4,673.3,179.4L673.3,179.4z M632.9,188.7c0.1-0.1,3.2,0.7,4.9,1.1
				c2.5,0.7,7.9,2.5,7.9,2.7c0,0-0.6,0.5-1.3,1.2c-2.9,2.4-5.7,5-9.1,8.3c-1,1-1.9,1.8-1.9,1.8s-0.1-0.1,0-0.3
				c0.5-3.8,0.4-8.6-0.3-13.5C632.9,189.3,632.9,188.7,632.9,188.7L632.9,188.7z M698.1,188.8c0,0-1.4,2.4-2.4,3.7
				c-1.3,1.9-3.3,4.5-7.8,10.1c-2.3,2.9-5,6.3-5.9,7.4c-0.9,1.1-1.6,2-1.7,2c0,0-0.3-0.4-0.6-0.9c-2.5-3.7-5.5-7-9-10
				c-0.7-0.6-1.4-1.2-1.7-1.3s-0.5-0.4-0.5-0.4c0-0.1,3.8-1.7,6.7-2.9c5-2.1,11.9-4.5,17.1-6.1C695.2,189.6,698.1,188.7,698.1,188.8
				L698.1,188.8z M699.8,189.2c0.1,0,0.6,0.2,1.3,0.6c5.4,3.1,10.7,7.1,14.9,11.2c1.2,1.2,4.1,4.2,4.1,4.2c0,0-1,0.1-2.2,0.2
				c-9.4,0.7-21.4,2.7-33,5.5c-0.8,0.2-1.5,0.3-1.5,0.3s0.8-0.9,1.9-1.9c6.8-6.5,9.9-10.7,13.6-18
				C699.3,190.2,699.8,189.3,699.8,189.2C699.8,189.2,699.8,189.2,699.8,189.2L699.8,189.2z M650.1,194.3c0.3,0.1,3.2,1.4,5.4,2.5
				c2,1,5,2.6,5.2,2.8c0,0-1,0.6-2.4,1.2c-4.2,2.1-7.8,4.1-11.5,6.4c-1.1,0.7-2,1.2-2,1.2c-0.1,0-0.1-0.1,0.5-1.2
				c2-3.7,3.6-8,4.5-12.3C649.9,194.5,650,194.3,650.1,194.3L650.1,194.3z M647.2,194.8c0.1,0.1-0.7,2.8-1.2,4.3
				c-0.9,2.8-2.5,6.4-3.9,9.1c-0.3,0.6-0.9,1.6-1.2,2l-0.6,0.9l-1.3-1.2c-1.5-1.4-2.6-2.3-4.2-3.1c-0.6-0.3-1.1-0.6-1.1-0.6
				c0-0.2,3.8-3.7,6.8-6.1C642.7,198.3,647.1,194.8,647.2,194.8z M664.9,202.1l1.1,0.7c2.5,1.6,5.5,3.8,7.7,5.7
				c1.3,1.1,3.7,3.3,4.2,3.8l0.3,0.3l-1.8,0.5c-10.2,2.8-18.1,5.4-27.4,8.8c-1,0.4-1.9,0.7-2,0.7c-0.1,0-0.3,0.1,2-2
				c5.9-5.4,11.1-11.4,15-17.2L664.9,202.1z M660.3,203.3c0.1,0.1-3,4.4-4.9,6.8c-2.2,2.9-6.1,7.8-8.8,10.9
				c-1.1,1.3-2.1,2.4-2.1,2.4c-0.1,0-0.1-0.3-0.1-0.8c0-2.7-0.7-5.6-1.9-8c-0.5-1-0.6-1.3-0.5-1.4c0.4-0.4,6.9-4.1,11-6.3
				C655.9,205.5,660.2,203.3,660.3,203.3L660.3,203.3z M632.1,210.2c0.1,0,0.6,0.3,1.2,0.6c1.4,0.8,2.7,1.7,3.8,2.6
				c0,0-0.5,0.5-1.3,1.1c-2.1,1.5-5.3,4-7.2,5.4c-2,1.6-2,1.6-1.8,1.3c1.5-2.3,2.2-3.5,3-5.2c0.7-1.5,1.4-3.2,1.9-4.7
				C631.8,210.7,632,210.2,632.1,210.2L632.1,210.2z M639.6,216.1c0.1,0,0.2,0.2,0.9,1.1c1.3,1.9,2.2,4.4,2.5,6.5l0.1,0.4l-3.1,1.2
				c-5.5,2.1-10.5,4.2-13.9,5.8c-1,0.4-2.6,1.2-3.7,1.8c-1.1,0.5-2,1-2,1c0,0,0.7-0.5,1.5-1.2c6.7-4.9,12.5-10.2,16.8-15.5
				C639.1,216.7,639.5,216.2,639.6,216.1C639.6,216.1,639.6,216.1,639.6,216.1L639.6,216.1z M636.1,217c0.1,0.1-2.5,3-4.2,4.7
				c-4.3,4.4-8.6,7.8-13.9,11.2c-0.7,0.4-1.3,0.8-1.3,0.8c-0.1,0.1,0-0.1,2.4-2.7c1.5-1.6,2.6-2.9,3.9-4.6c0.8-1.1,1-1.2,2.2-2.1
				C628.5,222,636,216.9,636.1,217L636.1,217z"/>
		</g>
	</g>
</g>
</svg>
