<?xml version="1.0" encoding="utf-8"?>
<!-- Generator: Adobe Illustrator 19.1.0, SVG Export Plug-In . SVG Version: 6.00 Build 0)  -->
<svg version="1.1" id="Layer_1" xmlns="http://www.w3.org/2000/svg" xmlns:xlink="http://www.w3.org/1999/xlink" x="0px" y="0px"
	 viewBox="0 0 16 16" enable-background="new 0 0 16 16" xml:space="preserve">
<g id="moreinfo-2">
</g>
<g id="clipboard">
</g>
<g id="clock">
</g>
<g id="refresh">
	<g id="refresh_1_">
		<path fill="#48525E" d="M13.9,8.7l-1.2,1.2c0-1.2-0.4-2.3-1.1-3.2c-1.1-1.5-2.9-2.5-5-2.5c-2,0-3.8,1-4.9,2.5l0.7,0.7
			C3.4,6,4.9,5.2,6.6,5.2c1.8,0,3.3,0.9,4.3,2.3c0.5,0.8,0.8,1.7,0.8,2.7l-1.4-1.3L9.7,9.5l1.9,1.9l0.6,0.6l0.4-0.4l2.1-2.1
			L13.9,8.7z"/>
	</g>
	<rect x="4.9" y="8" fill="#48525E" width="3" height="3"/>
</g>
<g id="activity_x5F_window">
</g>
<g id="arrow-left-lrg">
</g>
<g id="warning">
</g>
<g id="warning_1_">
</g>
<g id="Layer_6">
</g>
<g id="Layer_5">
</g>
<g id="status-inprogress">
</g>
<g id="arrow-right-sm">
</g>
<g id="play">
</g>
<g id="check">
</g>
</svg>
