<?xml version="1.0" encoding="utf-8"?>
<!-- Generator: Adobe Illustrator 17.0.0, SVG Export Plug-In . SVG Version: 6.00 Build 0)  -->
<!DOCTYPE svg PUBLIC "-//W3C//DTD SVG 1.1//EN" "http://www.w3.org/Graphics/SVG/1.1/DTD/svg11.dtd">
<svg version="1.1" id="Layer_1" xmlns="http://www.w3.org/2000/svg" xmlns:xlink="http://www.w3.org/1999/xlink" x="0px" y="0px"
	 width="16px" height="16px" viewBox="0 0 16 16" enable-background="new 0 0 16 16" xml:space="preserve">
<g>
	<path fill="#50525A" d="M2.102,5.44v5.011H1.309v-4.04C1.166,6.513,1.011,6.6,0.846,6.672C0.681,6.744,0.492,6.807,0.28,6.862
		V6.185c0.132-0.043,0.26-0.089,0.383-0.137s0.244-0.102,0.364-0.161c0.119-0.059,0.24-0.125,0.362-0.198s0.247-0.156,0.378-0.25
		H2.102z"/>
	<path fill="#50525A" d="M4.707,10.533c-0.511,0-0.909-0.208-1.195-0.625s-0.429-1.02-0.429-1.808c0-0.866,0.149-1.521,0.448-1.965
		C3.829,5.689,4.26,5.467,4.822,5.467c1.078,0,1.617,0.837,1.617,2.512c0,0.83-0.152,1.462-0.456,1.899
		C5.679,10.314,5.254,10.533,4.707,10.533z M4.785,6.1c-0.595,0-0.893,0.655-0.893,1.965c0,1.226,0.292,1.839,0.875,1.839
		c0.574,0,0.861-0.623,0.861-1.87C5.629,6.745,5.348,6.1,4.785,6.1z"/>
	<path fill="#50525A" d="M8.593,10.533c-0.511,0-0.909-0.208-1.195-0.625s-0.429-1.02-0.429-1.808c0-0.866,0.149-1.521,0.448-1.965
		c0.298-0.444,0.729-0.667,1.291-0.667c1.078,0,1.617,0.837,1.617,2.512c0,0.83-0.152,1.462-0.456,1.899
		C9.564,10.314,9.14,10.533,8.593,10.533z M8.671,6.1c-0.595,0-0.893,0.655-0.893,1.965c0,1.226,0.292,1.839,0.875,1.839
		c0.574,0,0.861-0.623,0.861-1.87C9.515,6.745,9.233,6.1,8.671,6.1z"/>
	<path fill="#50525A" d="M12.011,8.01c-0.347,0-0.622-0.111-0.827-0.333c-0.205-0.223-0.308-0.519-0.308-0.891
		c0-0.406,0.108-0.725,0.326-0.959c0.218-0.233,0.512-0.35,0.881-0.35c0.357,0,0.635,0.108,0.832,0.325s0.295,0.521,0.295,0.913
		S13.1,7.42,12.879,7.657C12.658,7.892,12.368,8.01,12.011,8.01z M12.059,5.956c-0.187,0-0.334,0.072-0.442,0.215
		s-0.162,0.341-0.162,0.591c0,0.246,0.053,0.438,0.158,0.574c0.106,0.137,0.252,0.205,0.436,0.205c0.186,0,0.33-0.071,0.435-0.213
		c0.104-0.143,0.157-0.34,0.157-0.593c0-0.246-0.052-0.438-0.155-0.574S12.238,5.956,12.059,5.956z M15.329,5.549l-3.145,4.936
		h-0.488l3.141-4.936H15.329z M14.889,10.526c-0.347,0-0.622-0.111-0.827-0.333c-0.205-0.223-0.308-0.519-0.308-0.891
		c0-0.406,0.108-0.725,0.326-0.959c0.218-0.233,0.511-0.35,0.88-0.35c0.358,0,0.636,0.108,0.833,0.325s0.296,0.521,0.296,0.913
		s-0.111,0.706-0.332,0.942C15.536,10.408,15.246,10.526,14.889,10.526z M14.937,8.472c-0.187,0-0.334,0.072-0.442,0.215
		s-0.163,0.341-0.163,0.591c0,0.246,0.054,0.438,0.159,0.574c0.106,0.137,0.251,0.205,0.437,0.205c0.184,0,0.329-0.071,0.434-0.213
		c0.104-0.143,0.157-0.34,0.157-0.593c0-0.246-0.052-0.438-0.155-0.574S15.116,8.472,14.937,8.472z"/>
</g>
<g>
	<path fill="#48525E" d="M16,0v1v3h-1V1h-3V0h3H16z M4,0H1H0v1v3h1V1h3V0z M15,12v3h-3v1h3h1v-1v-3H15z M1,15v-3H0v3v1h1h3v-1H1z"/>
</g>
</svg>
