<?xml version="1.0" encoding="utf-8"?>
<!-- Generator: Adobe Illustrator 17.0.0, SVG Export Plug-In . SVG Version: 6.00 Build 0)  -->
<!DOCTYPE svg PUBLIC "-//W3C//DTD SVG 1.1//EN" "http://www.w3.org/Graphics/SVG/1.1/DTD/svg11.dtd">
<svg version="1.1" id="Layer_1" xmlns="http://www.w3.org/2000/svg" xmlns:xlink="http://www.w3.org/1999/xlink" x="0px" y="0px"
	 width="16px" height="16px" viewBox="0 0 16 16" enable-background="new 0 0 16 16" xml:space="preserve">
<g>
	<polygon fill="#4E515A" points="15,0 8,0 8,1 15,1 15,8 16,8 16,1 16,0 	"/>
</g>
<g>
	<polygon fill="#4E515A" points="1,15 1,8 0,8 0,15 0,16 1,16 8,16 8,15 	"/>
</g>
<g>
	<path fill="#48525E" d="M6.5,3C8.43,3,10,4.57,10,6.5S8.43,10,6.5,10S3,8.43,3,6.5S4.57,3,6.5,3 M6.5,2C4.015,2,2,4.015,2,6.5
		S4.015,11,6.5,11S11,8.985,11,6.5S8.985,2,6.5,2L6.5,2z"/>
</g>
<g>
	<rect x="7.964" y="11" transform="matrix(0.7071 0.7071 -0.7071 0.7071 11.5 -4.7635)" fill="#48525E" width="7.071" height="1"/>
</g>
</svg>
