<?xml version="1.0" encoding="utf-8"?>
<!-- Generator: Adobe Illustrator 18.1.0, SVG Export Plug-In . SVG Version: 6.00 Build 0)  -->
<!DOCTYPE svg PUBLIC "-//W3C//DTD SVG 1.1//EN" "http://www.w3.org/Graphics/SVG/1.1/DTD/svg11.dtd">
<svg version="1.1" xmlns="http://www.w3.org/2000/svg" xmlns:xlink="http://www.w3.org/1999/xlink" x="0px" y="0px"
	 viewBox="0 0 24 24" enable-background="new 0 0 24 24" xml:space="preserve">
<g id="Layer_1" display="none">
	<g id="data_x5F_output_x5F_24" display="inline">
		<g>
			<path fill="#519BBD" d="M8,13L4,9h3l5,5l-5,5H4l4-4H0v-2H8z"/>
		</g>
		<path fill-rule="evenodd" clip-rule="evenodd" fill="#519BBD" d="M16,1c-3.866,0-7,1.791-7,4v4l5,5l-5,5l-0.001,1.108
			c0,1.512,3.08,2.74,6.898,2.76v0.001h0.062c0.011,0,0.022,0.001,0.034,0.001v-0.001c3.863,0,6.994-1.236,6.994-2.761L23,5
			C23,2.791,19.866,1,16,1z M16,7c-2.761,0-5-0.896-5-2c0-1.105,2.239-2.379,5-2.379c2.761,0,5,1.274,5,2.379
			C21,6.104,18.762,7,16,7z"/>
	</g>
	<g id="data_x5F_input_x5F_24" display="inline">
		<g>
			<path fill="#519BBD" d="M20,13l-4-4h3l5,5l-5,5h-3l4-4h-8v-2H20z"/>
		</g>
		<path fill-rule="evenodd" clip-rule="evenodd" fill="#519BBD" d="M15,20.131c0,1.526-3.145,2.869-7.007,2.869V23
			c-0.011,0-0.022-0.001-0.034-0.001H7.897v-0.001C4.08,22.978,1,21.643,1,20.131v-15c0-2.209,3.134-4,7-4c3.866,0,7,1.791,7,4V12
			h-4v4h4V20.131z M8,2.752c-2.761,0-5,1.274-5,2.379s2.239,2,5,2c2.762,0,5-0.895,5-2S10.762,2.752,8,2.752z"/>
	</g>
	<g id="data_x5F_format_x5F_24">
		<path display="inline" fill-rule="evenodd" clip-rule="evenodd" fill="#519BBD" d="M13,10h10v2H13V10z"/>
		<path display="inline" fill-rule="evenodd" clip-rule="evenodd" fill="#519BBD" d="M13,13h7v2h-7V13z"/>
		<path display="inline" fill-rule="evenodd" clip-rule="evenodd" fill="#519BBD" d="M13,16h9v2h-9V16z"/>
		<path display="inline" fill-rule="evenodd" clip-rule="evenodd" fill="#519BBD" d="M15,20.065c0,1.526-3.144,2.934-7.006,2.934V23
			c-0.011,0-0.022-0.001-0.034-0.001H7.898v-0.001C4.08,22.978,1,21.75,1,20.238L1.001,5.131c0-2.209,3.134-4,7-4
			C11.867,1.131,14.999,3,15,5v4h-3v10h3V20.065z M8.001,2.752c-2.761,0-5,1.274-5,2.379c0,1.104,2.239,2,5,2c2.762,0,5-0.895,5-2
			C13.001,4.026,10.762,2.752,8.001,2.752z"/>
	</g>
	<g id="machine_x5F_learning_x5F_24">
		<path display="inline" fill-rule="evenodd" clip-rule="evenodd" fill="#519BBD" d="M15.031,5v2l3,6l-1,2H7l-1-2l3-6V5H8L7,4l1-1h8
			l1,1l-1,1C16,5,15.693,5,15.031,5z M13,9V5h-2v4l-2,4h2l1-2h2L13,9z"/>
		<path display="inline" fill="#519BBD" d="M23,0H1C0.449,0,0,0.449,0,1v16c0,0.549,0.449,1,1,1h9.569c0,0,0,2.672,0,2.814
			C10.569,21.821,8,22,8,22c-2.371,0-3-0.186-3,1c0,0.592-0.481,1,1.889,1c0,0,1.594,0,2.185,0c1.777,0,1.148-1,2.926-1
			c0.592,0-0.592,0,0,0c1.779,0,2.742,1,3.926,1c0.593,0,2.186,0,2.186,0C20.482,24,20,23.592,20,23c0-1.186-1.295-1-3.666-1
			c0,0-2.903-0.149-2.903-1.186c0-0.143,0-2.814,0-2.814H23c0.551,0,1-0.451,1-1V1C24,0.449,23.551,0,23,0z M22,16H2V2h20V16z"/>
	</g>
	<g id="R_x5F_language_x5F_24">
		<path display="inline" fill="#519BBD" d="M14.359,14.739c-0.106-0.169-0.223-0.342-0.352-0.518
			c-0.129-0.177-0.264-0.342-0.405-0.495c-0.141-0.153-0.287-0.288-0.439-0.403c-0.151-0.115-0.308-0.198-0.469-0.249v-0.031
			c0.368-0.108,0.389-0.256,0.69-0.445c0.3-0.189,0.556-0.414,0.768-0.675c0.212-0.261,0.376-0.554,0.492-0.878
			c0.116-0.325,0.174-0.679,0.174-1.063C14.817,7.986,13.632,7,11,7H8l0,11h2v-4.22h0.098c0.151,0,0.291,0.032,0.42,0.096
			c0.128,0.064,0.564,0.156,0.683,0.276c0.118,0.12,0.548,0.265,0.664,0.434c0.116,0.169,0.237,0.361,0.363,0.575l1.687,2.831h2.493
			L14.359,14.739z M10.794,8.846c1.134,0,1.702,0.481,1.702,1.443c0,0.46-0.161,0.847-0.484,1.159
			c-0.318,0.307-0.739,0.46-1.263,0.46H9.971V8.846H10.794z"/>
		<g display="inline">
			<polygon fill-rule="evenodd" clip-rule="evenodd" fill="#519BBD" points="11,5.993 11,2 1,2 1,12 6,12 6,5.993 			"/>
			<polygon fill-rule="evenodd" clip-rule="evenodd" fill="#519BBD" points="17,12 22,12 22,2 12,2 12,5.993 17,5.993 			"/>
			<polygon fill-rule="evenodd" clip-rule="evenodd" fill="#519BBD" points="6,19.007 6,13 1,13 1,23 22,23 22,13 17,13 17,19.007 
							"/>
		</g>
	</g>
	<g id="transformation_x5F_24">
		<path display="inline" fill-rule="evenodd" clip-rule="evenodd" fill="#519BBD" d="M9,15v6H3L9,15z"/>
		<path display="inline" fill-rule="evenodd" clip-rule="evenodd" fill="#519BBD" d="M8.732,19.485l-1.247,1.248L0,13.247L1.247,12
			L8.732,19.485z"/>
		<path display="inline" fill-rule="evenodd" clip-rule="evenodd" fill="#519BBD" d="M10,13v10h14V13H10z M14,22h-2v-3h2V22z M18,22
			h-2v-7h2V22z M22,22h-2v-5h2V22z"/>
		<path display="inline" fill-rule="evenodd" clip-rule="evenodd" fill="#519BBD" d="M1,1v10h14V1H1z M5,9H3V7h2V9z M5,5H3V3h2V5z
			 M9,9H7V7h2V9z M9,5H7V3h2V5z M13,9h-2V7h2V9z M13,5h-2V3h2V5z"/>
	</g>
	<g id="time_x5F_series">
		<polygon display="inline" fill-rule="evenodd" clip-rule="evenodd" fill="#519BBD" points="17,12 14,6 5,14.984 5,17 
			5.013,18.961 13.313,10.688 16.313,16.688 24,9 24,7 24,5 		"/>
		<rect x="1" y="8" display="inline" fill-rule="evenodd" clip-rule="evenodd" fill="#519BBD" width="3" height="3"/>
		<rect x="1" y="20" display="inline" fill-rule="evenodd" clip-rule="evenodd" fill="#519BBD" width="3" height="3"/>
		<rect x="1" y="16" display="inline" fill-rule="evenodd" clip-rule="evenodd" fill="#519BBD" width="3" height="3"/>
		<rect x="1" y="12" display="inline" fill-rule="evenodd" clip-rule="evenodd" fill="#519BBD" width="3" height="3"/>
		<rect x="1" display="inline" fill-rule="evenodd" clip-rule="evenodd" fill="#519BBD" width="3" height="3"/>
		<rect x="1" y="4" display="inline" fill-rule="evenodd" clip-rule="evenodd" fill="#519BBD" width="3" height="3"/>
		<rect x="13" y="20" display="inline" fill-rule="evenodd" clip-rule="evenodd" fill="#519BBD" width="3" height="3"/>
		<rect x="9" y="20" display="inline" fill-rule="evenodd" clip-rule="evenodd" fill="#519BBD" width="3" height="3"/>
		<rect x="5" y="20" display="inline" fill-rule="evenodd" clip-rule="evenodd" fill="#519BBD" width="3" height="3"/>
		<rect x="17" y="20" display="inline" fill-rule="evenodd" clip-rule="evenodd" fill="#519BBD" width="3" height="3"/>
		<rect x="21" y="20" display="inline" fill-rule="evenodd" clip-rule="evenodd" fill="#519BBD" width="3" height="3"/>
	</g>
	<g id="trained_x5F_model_x5F_flask_x5F_24">
		<path display="inline" fill-rule="evenodd" clip-rule="evenodd" fill="#519BBD" d="M16,4v5l5,10l-2,4H4l-2-4L7,9V4C5,4,5,1,7,1
			c2,0,7.133,0,9,0C18,1,18,4,16,4z M13,9V4h-3v5L5,19h4l2-4h5L13,9z"/>
	</g>
	<g id="trained_x5F_model_x5F_24">
		<path display="inline" fill-rule="evenodd" clip-rule="evenodd" fill="#519BBD" d="M11.353,0h1.294L23,4.8l-10.353,6h-1.294L1,4.8
			L11.353,0z"/>
		<path display="inline" fill-rule="evenodd" clip-rule="evenodd" fill="#519BBD" d="M1,7.2l9.978,6V24L1,18V7.2z"/>
		<path display="inline" fill-rule="evenodd" clip-rule="evenodd" fill="#519BBD" d="M23,7.2l-9.978,6V24L23,18V7.2z"/>
	</g>
	<g id="math_x5F_statistics_x5F_24">
		<path display="inline" fill-rule="evenodd" clip-rule="evenodd" fill="#519BBD" d="M0,2V0h12l2,4h-1l-3-2H0z"/>
		<path display="inline" fill-rule="evenodd" clip-rule="evenodd" fill="#519BBD" d="M3.469,17H0l8-8L0,1h3.469l8,8L3.469,17z"/>
		<path display="inline" fill-rule="evenodd" clip-rule="evenodd" fill="#519BBD" d="M0,16v2h12l2-4h-1l-3,2H0z"/>
		<path display="inline" fill-rule="evenodd" clip-rule="evenodd" fill="#519BBD" d="M13,13h1v4h-1V13z"/>
		<path display="inline" fill-rule="evenodd" clip-rule="evenodd" fill="#519BBD" d="M14,10h2v10h-2V10z"/>
		<path display="inline" fill-rule="evenodd" clip-rule="evenodd" fill="#519BBD" d="M22,7h2v13h-2V7z"/>
		<path display="inline" fill-rule="evenodd" clip-rule="evenodd" fill="#519BBD" d="M18,12h2v8h-2V12z"/>
	</g>
	<g id="preview_x5F_24">
		<path display="inline" fill="#519BBD" d="M18.042,0H5v7l2-1V2h10v4h4v12h-5l-1,2h8V5L18.042,0z"/>
		<path display="inline" fill="#519BBD" d="M5.132,16.787c-0.059-0.007-0.117-0.016-0.178-0.016c-0.455,0-0.933,0.194-1.247,0.508
			l-3.193,3.188c-0.268,0.268-0.456,0.659-0.503,1.045c-0.056,0.456,0.081,0.875,0.386,1.18c0.261,0.26,0.601,0.398,0.983,0.398
			c0.45,0,0.926-0.197,1.244-0.515l3.193-3.189c0.279-0.279,0.461-0.674,0.499-1.084c0.011-0.117,0.008-0.231-0.005-0.341
			L5.132,16.787z"/>
		<path display="inline" fill-rule="evenodd" clip-rule="evenodd" fill="#519BBD" d="M9.5,7C6,7,3,10,3,13.5C3,17,6,20,9.5,20
			c3.5,0,6.5-3,6.5-6.5C16,10,13,7,9.5,7z M9.5,18C7.053,18,5,15.947,5,13.5C5,11.052,7.053,9,9.5,9c2.448,0,4.5,2.052,4.5,4.5
			C14,15.947,11.948,18,9.5,18z"/>
	</g>
	<g id="text_x5F_analytics_x5F_24">
		<path display="inline" fill-rule="evenodd" clip-rule="evenodd" fill="#519BBD" d="M17,16l7,0v2h-8L17,16z"/>
		<path display="inline" fill="#519BBD" d="M5.132,16.787c-0.059-0.007-0.117-0.016-0.178-0.016c-0.455,0-0.933,0.194-1.247,0.508
			l-3.193,3.188c-0.268,0.268-0.456,0.659-0.503,1.045c-0.056,0.456,0.081,0.875,0.386,1.18c0.261,0.26,0.601,0.398,0.983,0.398
			c0.45,0,0.926-0.197,1.244-0.515l3.193-3.189c0.279-0.279,0.461-0.674,0.499-1.084c0.011-0.117,0.008-0.231-0.005-0.341
			L5.132,16.787z"/>
		<path display="inline" fill-rule="evenodd" clip-rule="evenodd" fill="#519BBD" d="M9.5,7C6,7,3,10,3,13.5C3,17,6,20,9.5,20
			c3.5,0,6.5-3,6.5-6.5C16,10,13,7,9.5,7z M9.5,18C7.053,18,5,15.947,5,13.5C5,11.052,7.053,9,9.5,9c2.448,0,4.5,2.052,4.5,4.5
			C14,15.947,11.948,18,9.5,18z"/>
		<g display="inline">
			<rect x="8" fill-rule="evenodd" clip-rule="evenodd" fill="#519BBD" width="9" height="2"/>
			<rect x="18" fill-rule="evenodd" clip-rule="evenodd" fill="#519BBD" width="6" height="2"/>
		</g>
		<g display="inline">
			<rect x="8" y="4" fill-rule="evenodd" clip-rule="evenodd" fill="#519BBD" width="6" height="2"/>
			<rect x="15" y="4" fill-rule="evenodd" clip-rule="evenodd" fill="#519BBD" width="7" height="2"/>
		</g>
		<path display="inline" fill-rule="evenodd" clip-rule="evenodd" fill="#519BBD" d="M16,8h8v2h-7L16,8z"/>
		<path display="inline" fill-rule="evenodd" clip-rule="evenodd" fill="#519BBD" d="M18,12h5v2h-5V12z"/>
	</g>
	<g id="computer_x5F_vision_x5F_24">
		<path display="inline" fill-rule="evenodd" clip-rule="evenodd" fill="#519BBD" d="M7,7H2c0,0-2,1-2,3.098C0,14.749,0,24,0,24h9
			c0,0,0-9.381,0-14.012C9,8,7,7,7,7z M7,22H2v-1h5V22z M7,19H2v-1h5V19z M7,12H2v-2h5V12z"/>
		<g display="inline">
			<polygon fill-rule="evenodd" clip-rule="evenodd" fill="#519BBD" points="6,0 6,6 7,6 7,1 23,1 23,13 10,13 10,14 24,14 24,0 			
				"/>
		</g>
		<polygon display="inline" fill-rule="evenodd" clip-rule="evenodd" fill="#519BBD" points="19,4 16,7 12,3 9,6 9,7 10,7 10,8 
			10,12 22,12 22,7 		"/>
	</g>
	<g id="module_x5F_24">
		<path display="inline" fill-rule="evenodd" clip-rule="evenodd" fill="#519BBD" d="M1,2h10v10H1V2z"/>
		<path display="inline" fill-rule="evenodd" clip-rule="evenodd" fill="#519BBD" d="M12,2h10v10H12V2z"/>
		<path display="inline" fill-rule="evenodd" clip-rule="evenodd" fill="#519BBD" d="M1,13h21v10H1V13z"/>
	</g>
	<g id="discover_x5F_24">
		<path display="inline" fill-rule="evenodd" clip-rule="evenodd" fill="#519BBD" d="M15,6c1.609,0,3,1.391,3,3s-1.391,3-3,3
			s-3-1.391-3-3S13.391,6,15,6z"/>
		<path display="inline" fill="#519BBD" d="M9.341,13.009l-1.13,1.129c-0.076-0.009-0.15-0.02-0.229-0.02
			c-0.585,0-1.641,0.379-2.044,0.782L1,20l3,3l4.938-5.1c0.358-0.359,0.748-1.286,0.797-1.813c0.014-0.151,0.01-0.297-0.006-0.439
			l1.127-1.126L9.341,13.009z"/>
		<path display="inline" fill-rule="evenodd" clip-rule="evenodd" fill="#519BBD" d="M14.966,0C10.061,0,6,4.095,6,9
			c0,4.905,4.061,9,8.966,9C19.87,18,24,13.905,24,9C24,4.095,19.87,0,14.966,0z M15,15c-3.344,0-6-2.656-6-6
			c0-3.344,2.621-6,5.966-6c3.344,0,6.055,2.656,6.055,6C21.021,12.344,18.344,15,15,15z"/>
		<path display="inline" fill-rule="evenodd" clip-rule="evenodd" fill="#519BBD" d="M2.125,19.587c1.174,0,2.125,0.951,2.125,2.125
			c0,1.174-0.951,2.125-2.125,2.125C0.951,23.837,0,22.886,0,21.712C0,20.539,0.951,19.587,2.125,19.587z"/>
	</g>
	<g id="raw_x5F_data_x5F_24">
		<path display="inline" fill-rule="evenodd" clip-rule="evenodd" fill="#519BBD" d="M12,12h2v1h-2V12z"/>
		<path display="inline" fill-rule="evenodd" clip-rule="evenodd" fill="#519BBD" d="M20,12h2v1h-2V12z"/>
		<path display="inline" fill-rule="evenodd" clip-rule="evenodd" fill="#519BBD" d="M16,11h2v1h-2V11z"/>
		<path display="inline" fill-rule="evenodd" clip-rule="evenodd" fill="#519BBD" d="M16,16h2v1h-2V16z"/>
		<path display="inline" fill-rule="evenodd" clip-rule="evenodd" fill="#519BBD" d="M16,20c0,1.526-3.144,2.868-7.006,2.868v0.001
			c-0.011,0-0.023-0.001-0.034-0.001H8.898v-0.001C5.08,22.847,2,21.512,2,20L2.001,5c0-2.209,3.134-4,7-4C12.867,1,15.999,3,16,5v4
			h-1v1h-3v1h-1v6h1v1l3,0v1h1V20z M9.001,2.621c-2.762,0-5,1.274-5,2.379c0,1.104,2.239,2,5,2c2.761,0,5-0.896,5-2
			C14.001,3.895,11.762,2.621,9.001,2.621z"/>
		<path display="inline" fill-rule="evenodd" clip-rule="evenodd" fill="#519BBD" d="M13,11h1v6h-1V11z"/>
		<path display="inline" fill-rule="evenodd" clip-rule="evenodd" fill="#519BBD" d="M21,11h1v6h-1V11z"/>
		<path display="inline" fill-rule="evenodd" clip-rule="evenodd" fill="#519BBD" d="M15,12h1v4h-1V12z"/>
		<path display="inline" fill-rule="evenodd" clip-rule="evenodd" fill="#519BBD" d="M18,12h1v4h-1V12z"/>
	</g>
	<g id="data_x5F_set_x5F_24">
		<path display="inline" fill-rule="evenodd" clip-rule="evenodd" fill="#519BBD" d="M16.984,8c-0.001-2.188-0.001-3.596-0.001-4.4
			c0-1.566-1.831-3.6-5.493-3.6C7.827,0,5.98,2.001,5.996,3.6C6,4,6,6,5.995,8.001C9.996,8,11.006,9,11,9v1l0.996,0.009
			c0,0,0-0.987,0-1.009C11.996,9,12.996,8,16.984,8z M7.471,3c0-0.994,1.665-1.8,4.025-1.8c2.36,0,4.025,0.806,4.025,1.8
			c0,0.994-1.665,1.8-4.025,1.8C9.136,4.8,7.471,3.994,7.471,3z"/>
		<path display="inline" fill-rule="evenodd" clip-rule="evenodd" fill="#519BBD" d="M10.989,12.6c0-1.566-1.831-3.6-5.493-3.6
			c-3.662,0-5.493,2-5.493,3.6S0,21.954,0,21.954c0,1.12,2.421,1.999,5.42,2.014v0.001h0.049c0.009,0,0.018,0.001,0.026,0.001
			v-0.001c3.035,0,5.496-0.884,5.496-2.015C10.991,21.954,10.989,14.167,10.989,12.6z M5.496,13.8c-2.36,0-4.025-0.806-4.025-1.8
			c0-0.994,1.665-1.8,4.025-1.8c2.36,0,4.025,0.806,4.025,1.8C9.52,12.994,7.855,13.8,5.496,13.8z"/>
		<path display="inline" fill-rule="evenodd" clip-rule="evenodd" fill="#519BBD" d="M22.989,12.6c0-1.566-1.831-3.6-5.493-3.6
			c-3.662,0-5.484,2-5.493,3.6C12,13,11.995,21.985,12,21.953c0,1.12,2.421,1.999,5.42,2.014v0.001h0.049c0.009,0,0.017,0,0.026,0v0
			c3.035,0,5.496-0.884,5.496-2.015C22.991,21.953,22.989,14.166,22.989,12.6z M17.496,13.8c-2.36,0-4.025-0.806-4.025-1.8
			c0-0.994,1.665-1.8,4.025-1.8c2.36,0,4.025,0.806,4.025,1.8C21.52,12.994,19.855,13.8,17.496,13.8z"/>
	</g>
	<g id="data_x5F_source_x5F_24">
		<path display="inline" fill-rule="evenodd" clip-rule="evenodd" fill="#519BBD" d="M20,8l4,4l-4,4l0-3l1-1l-1-1V8z"/>
		<path display="inline" fill-rule="evenodd" clip-rule="evenodd" fill="#519BBD" d="M4,8l-4,4l4,4l0-3l-1-1l1-1V8z"/>
		<path display="inline" fill-rule="evenodd" clip-rule="evenodd" fill="#519BBD" d="M18.987,20c0,1.526-3.132,2.869-6.994,2.869
			v0.001c-0.011,0-0.022-0.001-0.034-0.001h-0.062v-0.001C8.08,22.847,5,21.512,5,20V5c0-2.209,3.134-4,7-4c3.866,0,7,1.791,7,4
			L18.987,20z M12,2.621C9.239,2.621,7,3.895,7,5c0,1.104,2.239,2,5,2c2.761,0,5-0.895,5-2C17,3.895,14.762,2.621,12,2.621z"/>
	</g>
</g>
<g id="White">
	<g id="data_x5F_output_x5F_24_2_" display="none">
		<g display="inline">
			<path fill="#FFFFFF" d="M8,13L4,9h3l5,5l-5,5H4l4-4H0v-2H8z"/>
		</g>
		<path display="inline" fill-rule="evenodd" clip-rule="evenodd" fill="#FFFFFF" d="M16,1c-3.866,0-7,1.791-7,4v4l5,5l-5,5
			l-0.001,1.108c0,1.512,3.08,2.74,6.898,2.76v0.001h0.062c0.011,0,0.022,0.001,0.034,0.001v-0.001c3.863,0,6.994-1.236,6.994-2.761
			L23,5C23,2.791,19.866,1,16,1z M16,7c-2.761,0-5-0.896-5-2c0-1.105,2.239-2.379,5-2.379c2.761,0,5,1.274,5,2.379
			C21,6.104,18.762,7,16,7z"/>
	</g>
	<g id="data_x5F_input_x5F_24_2_">
		<g>
			<path fill="#FFFFFF" d="M20,13l-4-4h3l5,5l-5,5h-3l4-4h-8v-2H20z"/>
		</g>
		<path fill-rule="evenodd" clip-rule="evenodd" fill="#FFFFFF" d="M15,20.131c0,1.526-3.145,2.869-7.007,2.869V23
			c-0.011,0-0.022-0.001-0.034-0.001H7.897v-0.001C4.08,22.978,1,21.643,1,20.131v-15c0-2.209,3.134-4,7-4c3.866,0,7,1.791,7,4V12
			h-4v4h4V20.131z M8,2.752c-2.761,0-5,1.274-5,2.379s2.239,2,5,2c2.762,0,5-0.895,5-2S10.762,2.752,8,2.752z"/>
	</g>
</g>
<g id="favicon" display="none">
</g>
<g id="Circles" display="none">
</g>
<g id="Sprite">
</g>
</svg>
